<svg width="357" height="252" viewBox="0 0 357 252" fill="none" xmlns="http://www.w3.org/2000/svg">
<ellipse cx="165.5" cy="245.5" rx="91.5" ry="3.5" fill="#D9D9D9"/>
<path d="M241 134.5C134.475 111.176 43.8913 -69.591 8.40502 33.5219C-7.08085 78.5192 1.56668 112.013 23.0001 154.5C76.5065 260.566 404.598 240.008 350 134.5C335.537 106.551 270.55 140.97 241 134.5Z" fill="#F2F2F2"/>
<g filter="url(#filter0_d_1696_4763)">
<mask id="mask0_1696_4763" style="mask-type:alpha" maskUnits="userSpaceOnUse" x="197" y="128" width="36" height="71">
<path d="M223.961 148.243C234.036 172.577 236.737 201.715 222.438 198.571C208.138 195.427 196.922 163.213 197.713 142.704C198.503 122.195 213.886 123.908 223.961 148.243Z" fill="white"/>
</mask>
<g mask="url(#mask0_1696_4763)">
<path d="M223.961 148.243C234.036 172.577 236.737 201.715 222.438 198.571C208.138 195.427 196.922 163.213 197.713 142.704C198.503 122.195 213.886 123.908 223.961 148.243Z" fill="white"/>
<path d="M228.939 190.747C230.469 206.596 229.338 209.334 228.581 208.722" stroke="#F8F8F8" stroke-width="2" stroke-linecap="round"/>
<path d="M221.617 194.121C223.146 209.97 222.016 212.709 221.259 212.097" stroke="#F8F8F8" stroke-width="2" stroke-linecap="round"/>
<path d="M225.515 195.466C227.044 211.315 225.914 214.054 225.157 213.442" stroke="#F8F8F8" stroke-width="2" stroke-linecap="round"/>
</g>
<mask id="mask1_1696_4763" style="mask-type:alpha" maskUnits="userSpaceOnUse" x="91" y="128" width="38" height="70">
<path d="M101.986 147.012C90.6515 170.786 86.4285 199.742 100.873 197.351C115.318 194.96 128.204 163.376 128.488 142.854C128.772 122.332 113.32 123.238 101.986 147.012Z" fill="white"/>
</mask>
<g mask="url(#mask1_1696_4763)">
<path d="M101.986 147.012C90.6515 170.786 86.4285 199.742 100.873 197.351C115.318 194.96 128.204 163.376 128.488 142.854C128.772 122.332 113.32 123.238 101.986 147.012Z" fill="white"/>
<path d="M94.7905 189.197C92.4335 204.944 93.4193 207.738 94.2068 207.167" stroke="#F8F8F8" stroke-width="2" stroke-linecap="round"/>
<path d="M101.926 192.95C99.5687 208.697 100.555 211.491 101.342 210.92" stroke="#F8F8F8" stroke-width="2" stroke-linecap="round"/>
<path d="M97.9629 194.089C95.6058 209.836 96.5916 212.63 97.3792 212.059" stroke="#F8F8F8" stroke-width="2" stroke-linecap="round"/>
</g>
<path d="M157.373 244.277C157.373 244.277 141.632 247.772 130.749 244.651C119.866 241.53 118.612 196.204 121.733 185.321C124.854 174.437 134.314 174.207 148.169 183.901C162.023 193.595 161.818 236.032 157.373 244.277Z" fill="white"/>
<path d="M172.962 243.277C172.962 243.277 188.703 246.772 199.586 243.651C210.47 240.53 211.723 195.204 208.602 184.321C205.482 173.437 196.021 173.207 182.167 182.901C168.312 192.595 168.517 235.032 172.962 243.277Z" fill="white"/>
<mask id="mask2_1696_4763" style="mask-type:alpha" maskUnits="userSpaceOnUse" x="112" y="115" width="106" height="105">
<path d="M205.698 206.011C185.005 224.353 150.006 222.229 127.698 207.392C105.389 192.555 111.136 135.758 125.497 123.482C139.859 111.205 190.376 113.242 202.86 124.744C215.344 136.245 226.39 187.67 205.698 206.011Z" fill="white"/>
</mask>
<g mask="url(#mask2_1696_4763)">
<path d="M212.013 206.011C191.321 224.353 141.306 220.888 118.997 206.052C96.6889 191.215 102.435 134.417 116.797 122.141C131.159 109.865 196.691 113.242 209.175 124.744C221.659 136.245 232.705 187.67 212.013 206.011Z" fill="white"/>
<path d="M212.013 206.012C191.321 224.353 141.306 220.889 118.997 206.052C96.6889 191.215 102.435 134.417 116.797 122.141C131.159 109.865 196.691 113.242 209.175 124.744C221.659 136.245 232.705 187.67 212.013 206.012Z" fill="#F8F8F8"/>
<path d="M208.012 207.011C187.32 225.352 137.305 221.888 114.996 207.051C92.6879 192.214 98.4343 135.417 112.796 123.141C127.158 110.865 192.69 114.242 205.174 125.743C217.658 137.245 228.704 188.67 208.012 207.011Z" fill="white"/>
<path d="M211.699 127.892C191.006 146.234 139.991 149.269 117.683 134.433C95.3744 119.596 101.121 62.7983 115.483 50.5222C129.845 38.2461 195.377 41.6232 207.861 53.1248C220.345 64.6263 232.391 109.551 211.699 127.892Z" fill="#F8F8F8"/>
</g>
<path d="M210.314 128.619C189.622 146.96 139.607 143.496 117.299 128.659C94.9902 113.822 100.737 57.0248 115.098 44.7487C129.46 32.4726 194.992 35.8497 207.476 47.3513C219.96 58.8529 231.007 110.278 210.314 128.619Z" fill="white"/>
<ellipse cx="143.197" cy="91" rx="3.5" ry="4" fill="white"/>
<path d="M129.708 86.1614C132.865 93.2666 147.132 86.0558 147.132 86.0558" stroke="#002255" stroke-width="5" stroke-linecap="round"/>
<path d="M194.284 85.9617C191.251 93.1209 176.86 86.1602 176.86 86.1602" stroke="#002255" stroke-width="5" stroke-linecap="round"/>
<circle cx="115.698" cy="41.3921" r="15" fill="white"/>
<circle cx="204.698" cy="39.3921" r="15" fill="white"/>
<path d="M185.698 119.392C185.698 125.467 175.624 133.935 163.198 133.935C150.771 133.935 140.698 125.467 140.698 119.392C140.698 113.317 150.771 102.392 163.198 102.392C175.624 102.392 185.698 113.317 185.698 119.392Z" fill="#EBF3FF"/>
<path d="M125.198 39.3921C125.198 42.6663 121.549 50.8921 115.198 50.8921C108.846 50.8921 106.198 44.6663 106.198 41.3921C106.198 38.1179 108.846 32.23 115.198 32.23C121.549 32.23 125.198 36.1179 125.198 39.3921Z" fill="#EBF3FF"/>
<path d="M207.509 48.888C204.259 49.287 195.65 46.6679 194.876 40.364C194.102 34.0601 199.958 30.6723 203.208 30.2733C206.458 29.8743 212.625 31.7857 213.399 38.0897C214.173 44.3936 210.758 48.4889 207.509 48.888Z" fill="#EBF3FF"/>
<path d="M151.698 118.392C152.698 130.392 163.198 124.392 163.198 124.392" stroke="#002255" stroke-width="2" stroke-linecap="round"/>
<path d="M175.198 118.392C174.198 130.392 163.698 124.392 163.698 124.392" stroke="#002255" stroke-width="2" stroke-linecap="round"/>
<ellipse cx="163.951" cy="112.699" rx="5" ry="6" transform="rotate(87 163.951 112.699)" fill="#002255"/>
</g>
<path d="M58.0605 56.9395L72.0605 70.9395" stroke="#DDDDDD" stroke-width="3" stroke-linecap="round"/>
<path d="M72 57L58 71" stroke="#DDDDDD" stroke-width="3" stroke-linecap="round"/>
<path d="M245.078 98L263.06 115.983" stroke="#DDDDDD" stroke-width="3" stroke-linecap="round"/>
<path d="M262.983 98.0779L245 116.061" stroke="#DDDDDD" stroke-width="3" stroke-linecap="round"/>
<path d="M56.0986 133.061L78.9996 155.962" stroke="#DDDDDD" stroke-width="3" stroke-linecap="round"/>
<path d="M78.9009 133.16L55.9999 156.061" stroke="#DDDDDD" stroke-width="3" stroke-linecap="round"/>
<defs>
<filter id="filter0_d_1696_4763" x="90.6602" y="24.3921" width="142.685" height="223.555" filterUnits="userSpaceOnUse" color-interpolation-filters="sRGB">
<feFlood flood-opacity="0" result="BackgroundImageFix"/>
<feColorMatrix in="SourceAlpha" type="matrix" values="0 0 0 0 0 0 0 0 0 0 0 0 0 0 0 0 0 0 127 0" result="hardAlpha"/>
<feOffset dy="1"/>
<feGaussianBlur stdDeviation="0.5"/>
<feComposite in2="hardAlpha" operator="out"/>
<feColorMatrix type="matrix" values="0 0 0 0 0.629167 0 0 0 0 0.629167 0 0 0 0 0.629167 0 0 0 0.25 0"/>
<feBlend mode="normal" in2="BackgroundImageFix" result="effect1_dropShadow_1696_4763"/>
<feBlend mode="normal" in="SourceGraphic" in2="effect1_dropShadow_1696_4763" result="shape"/>
</filter>
</defs>
</svg>
