<svg width="392" height="252" viewBox="0 0 392 252" fill="none" xmlns="http://www.w3.org/2000/svg">
<ellipse cx="201.5" cy="244.5" rx="91.5" ry="3.5" fill="#D9D9D9"/>
<path d="M391.5 242C391.5 276.518 334.57 208.5 215 208.5C95.4304 208.5 0.5 75.0178 0.5 40.5C0.5 5.9822 95.4304 83.4999 215 83.4999C334.57 83.4999 391.5 207.482 391.5 242Z" fill="#F2F2F2"/>
<g filter="url(#filter0_b_1946_466)">
<mask id="mask0_1946_466" style="mask-type:alpha" maskUnits="userSpaceOnUse" x="231" y="128" width="36" height="71">
<path d="M257.961 148.243C268.036 172.577 270.737 201.715 256.438 198.571C242.138 195.427 230.922 163.213 231.713 142.704C232.503 122.195 247.886 123.908 257.961 148.243Z" fill="white"/>
</mask>
<g mask="url(#mask0_1946_466)">
<path d="M257.961 148.243C268.036 172.577 270.737 201.715 256.438 198.571C242.138 195.427 230.922 163.213 231.713 142.704C232.503 122.195 247.886 123.908 257.961 148.243Z" fill="white"/>
<path d="M262.939 190.747C264.469 206.596 263.338 209.334 262.581 208.722" stroke="#F8F8F8" stroke-width="2" stroke-linecap="round"/>
<path d="M255.617 194.121C257.146 209.97 256.016 212.709 255.259 212.097" stroke="#F8F8F8" stroke-width="2" stroke-linecap="round"/>
<path d="M259.515 195.466C261.044 211.315 259.914 214.054 259.157 213.442" stroke="#F8F8F8" stroke-width="2" stroke-linecap="round"/>
</g>
<mask id="mask1_1946_466" style="mask-type:alpha" maskUnits="userSpaceOnUse" x="125" y="128" width="38" height="70">
<path d="M135.986 147.012C124.651 170.785 120.428 199.742 134.873 197.351C149.318 194.96 162.204 163.376 162.488 142.854C162.772 122.332 147.32 123.238 135.986 147.012Z" fill="white"/>
</mask>
<g mask="url(#mask1_1946_466)">
<path d="M135.986 147.012C124.651 170.785 120.428 199.742 134.873 197.351C149.318 194.96 162.204 163.376 162.488 142.854C162.772 122.332 147.32 123.238 135.986 147.012Z" fill="white"/>
<path d="M128.791 189.197C126.433 204.944 127.419 207.738 128.207 207.167" stroke="#F8F8F8" stroke-width="2" stroke-linecap="round"/>
<path d="M135.926 192.95C133.569 208.697 134.555 211.491 135.342 210.92" stroke="#F8F8F8" stroke-width="2" stroke-linecap="round"/>
<path d="M131.963 194.089C129.606 209.836 130.592 212.63 131.379 212.059" stroke="#F8F8F8" stroke-width="2" stroke-linecap="round"/>
</g>
<path d="M191.373 244.277C191.373 244.277 175.632 247.772 164.749 244.651C153.866 241.53 152.612 196.204 155.733 185.321C158.854 174.437 168.314 174.207 182.169 183.901C196.023 193.595 195.818 236.032 191.373 244.277Z" fill="white"/>
<path d="M206.962 243.277C206.962 243.277 222.703 246.772 233.586 243.651C244.47 240.53 245.723 195.204 242.602 184.321C239.482 173.437 230.021 173.207 216.167 182.901C202.312 192.595 202.517 235.032 206.962 243.277Z" fill="white"/>
<mask id="mask2_1946_466" style="mask-type:alpha" maskUnits="userSpaceOnUse" x="146" y="115" width="106" height="105">
<path d="M239.698 206.011C219.005 224.353 184.006 222.229 161.698 207.392C139.389 192.555 145.136 135.758 159.497 123.482C173.859 111.205 224.376 113.242 236.86 124.744C249.344 136.245 260.39 187.67 239.698 206.011Z" fill="white"/>
</mask>
<g mask="url(#mask2_1946_466)">
<path d="M246.013 206.011C225.321 224.353 175.306 220.888 152.997 206.052C130.689 191.215 136.435 134.417 150.797 122.141C165.159 109.865 230.691 113.242 243.175 124.744C255.659 136.245 266.705 187.67 246.013 206.011Z" fill="white"/>
<path d="M246.013 206.011C225.321 224.353 175.306 220.888 152.997 206.052C130.689 191.215 136.435 134.417 150.797 122.141C165.159 109.865 230.691 113.242 243.175 124.744C255.659 136.245 266.705 187.67 246.013 206.011Z" fill="#F8F8F8"/>
<path d="M242.012 207.011C221.32 225.352 171.305 221.888 148.996 207.051C126.688 192.214 132.434 135.417 146.796 123.141C161.158 110.865 226.69 114.242 239.174 125.743C251.658 137.245 262.704 188.67 242.012 207.011Z" fill="white"/>
<path d="M245.699 127.892C225.006 146.234 173.991 149.269 151.683 134.433C129.374 119.596 135.121 62.7982 149.483 50.5221C163.845 38.246 229.377 41.6231 241.861 53.1247C254.345 64.6263 266.391 109.551 245.699 127.892Z" fill="#F8F8F8"/>
</g>
<path d="M244.314 128.619C223.622 146.96 173.607 143.496 151.299 128.659C128.99 113.822 134.737 57.0248 149.098 44.7487C163.46 32.4726 228.992 35.8497 241.476 47.3513C253.96 58.8529 265.007 110.278 244.314 128.619Z" fill="white"/>
<circle cx="149.698" cy="41.392" r="15" fill="white"/>
<circle cx="238.698" cy="39.392" r="15" fill="white"/>
<path d="M159.198 39.392C159.198 42.6662 155.549 50.892 149.198 50.892C142.846 50.892 140.198 44.6662 140.198 41.392C140.198 38.1178 142.846 32.2299 149.198 32.2299C155.549 32.2299 159.198 36.1178 159.198 39.392Z" fill="#EBF3FF"/>
<path d="M241.509 48.8879C238.259 49.2869 229.65 46.6679 228.876 40.3639C228.102 34.06 233.958 30.6723 237.208 30.2733C240.458 29.8742 246.625 31.7857 247.399 38.0896C248.173 44.3935 244.758 48.4889 241.509 48.8879Z" fill="#EBF3FF"/>
<path d="M219 120C219 126.075 208.926 134.543 196.5 134.543C184.074 134.543 174 126.075 174 120C174 113.925 184.074 103 196.5 103C208.926 103 219 113.925 219 120Z" fill="#EBF3FF"/>
<path d="M185 119C186 131 196.5 125 196.5 125" stroke="#002255" stroke-width="2" stroke-linecap="round"/>
<path d="M208.5 119C207.5 131 197 125 197 125" stroke="#002255" stroke-width="2" stroke-linecap="round"/>
<ellipse cx="176" cy="90" rx="9" ry="11" fill="#002255"/>
<ellipse cx="176" cy="82.5" rx="3" ry="2.5" fill="white"/>
<ellipse cx="197.253" cy="113.307" rx="5" ry="6" transform="rotate(87 197.253 113.307)" fill="#002255"/>
<ellipse cx="217" cy="89" rx="9" ry="11" fill="#002255"/>
<ellipse cx="217" cy="81.5" rx="3" ry="2.5" fill="white"/>
</g>
<defs>
<filter id="filter0_b_1946_466" x="121.66" y="20.392" width="148.685" height="229.555" filterUnits="userSpaceOnUse" color-interpolation-filters="sRGB">
<feFlood flood-opacity="0" result="BackgroundImageFix"/>
<feGaussianBlur in="BackgroundImageFix" stdDeviation="2"/>
<feComposite in2="SourceAlpha" operator="in" result="effect1_backgroundBlur_1946_466"/>
<feBlend mode="normal" in="SourceGraphic" in2="effect1_backgroundBlur_1946_466" result="shape"/>
</filter>
</defs>
</svg>
