<svg width="394" height="252" viewBox="0 0 394 252" fill="none" xmlns="http://www.w3.org/2000/svg">
<path d="M394 225.5C394 260.018 308.07 212.856 188.5 212.856C68.9304 212.856 0 79.0177 0 44.5C0 9.98216 97.9304 67.0002 217.5 67.0002C337.07 67.0002 394 190.982 394 225.5Z" fill="#F2F2F2"/>
<ellipse cx="182.5" cy="245.5" rx="91.5" ry="3.5" fill="#D9D9D9"/>
<mask id="mask0_2247_370" style="mask-type:alpha" maskUnits="userSpaceOnUse" x="215" y="128" width="36" height="71">
<path d="M241.961 148.243C252.036 172.577 254.737 201.715 240.438 198.571C226.138 195.427 214.922 163.213 215.713 142.704C216.503 122.195 231.886 123.908 241.961 148.243Z" fill="white"/>
</mask>
<g mask="url(#mask0_2247_370)">
<path d="M241.961 148.243C252.036 172.577 254.737 201.715 240.438 198.571C226.138 195.427 214.922 163.213 215.713 142.704C216.503 122.195 231.886 123.908 241.961 148.243Z" fill="white"/>
<path d="M246.939 190.747C248.469 206.596 247.338 209.334 246.581 208.722" stroke="#F8F8F8" stroke-width="2" stroke-linecap="round"/>
<path d="M239.617 194.121C241.146 209.97 240.016 212.709 239.259 212.097" stroke="#F8F8F8" stroke-width="2" stroke-linecap="round"/>
<path d="M243.515 195.466C245.044 211.315 243.914 214.054 243.157 213.442" stroke="#F8F8F8" stroke-width="2" stroke-linecap="round"/>
</g>
<mask id="mask1_2247_370" style="mask-type:alpha" maskUnits="userSpaceOnUse" x="109" y="128" width="38" height="70">
<path d="M119.986 147.012C108.651 170.786 104.428 199.742 118.873 197.351C133.318 194.96 146.204 163.376 146.488 142.854C146.772 122.332 131.32 123.238 119.986 147.012Z" fill="white"/>
</mask>
<g mask="url(#mask1_2247_370)">
<path d="M119.986 147.012C108.651 170.786 104.428 199.742 118.873 197.351C133.318 194.96 146.204 163.376 146.488 142.854C146.772 122.332 131.32 123.238 119.986 147.012Z" fill="white"/>
<path d="M112.791 189.197C110.433 204.944 111.419 207.738 112.207 207.167" stroke="#F8F8F8" stroke-width="2" stroke-linecap="round"/>
<path d="M119.926 192.95C117.569 208.697 118.555 211.491 119.342 210.92" stroke="#F8F8F8" stroke-width="2" stroke-linecap="round"/>
<path d="M115.963 194.089C113.606 209.836 114.592 212.63 115.379 212.059" stroke="#F8F8F8" stroke-width="2" stroke-linecap="round"/>
</g>
<path d="M175.373 244.277C175.373 244.277 159.632 247.772 148.749 244.651C137.866 241.53 136.612 196.204 139.733 185.321C142.854 174.437 152.314 174.207 166.169 183.901C180.023 193.595 179.818 236.032 175.373 244.277Z" fill="white"/>
<path d="M190.962 243.277C190.962 243.277 206.703 246.772 217.586 243.651C228.47 240.53 229.723 195.204 226.602 184.321C223.482 173.437 214.021 173.207 200.167 182.901C186.312 192.595 186.517 235.032 190.962 243.277Z" fill="white"/>
<mask id="mask2_2247_370" style="mask-type:alpha" maskUnits="userSpaceOnUse" x="130" y="115" width="106" height="105">
<path d="M223.698 206.011C203.005 224.353 168.006 222.229 145.698 207.392C123.389 192.555 129.136 135.758 143.497 123.482C157.859 111.205 208.376 113.242 220.86 124.744C233.344 136.245 244.39 187.67 223.698 206.011Z" fill="white"/>
</mask>
<g mask="url(#mask2_2247_370)">
<path d="M230.013 206.011C209.321 224.353 159.306 220.888 136.997 206.052C114.689 191.215 120.435 134.417 134.797 122.141C149.159 109.865 214.691 113.242 227.175 124.744C239.659 136.245 250.705 187.67 230.013 206.011Z" fill="white"/>
<path d="M230.013 206.011C209.321 224.353 159.306 220.888 136.997 206.052C114.689 191.215 120.435 134.417 134.797 122.141C149.159 109.865 214.691 113.242 227.175 124.744C239.659 136.245 250.705 187.67 230.013 206.011Z" fill="#F8F8F8"/>
<path d="M226.012 207.011C205.32 225.352 155.305 221.888 132.996 207.051C110.688 192.214 116.434 135.417 130.796 123.141C145.158 110.865 210.69 114.242 223.174 125.743C235.658 137.245 246.704 188.67 226.012 207.011Z" fill="white"/>
<path d="M229.699 127.892C209.006 146.234 157.991 149.269 135.683 134.433C113.374 119.596 119.121 62.7983 133.483 50.5222C147.845 38.2461 213.377 41.6232 225.861 53.1248C238.345 64.6263 250.391 109.551 229.699 127.892Z" fill="#F8F8F8"/>
</g>
<path d="M228.314 128.619C207.622 146.96 157.607 143.496 135.299 128.659C112.99 113.822 118.737 57.0248 133.098 44.7487C147.46 32.4726 212.992 35.8497 225.476 47.3513C237.96 58.8529 249.007 110.278 228.314 128.619Z" fill="white"/>
<path d="M155.698 95H166.698V139.638C160.533 138.53 156.745 138.126 155.698 137.256V95Z" fill="#B4D0FF"/>
<ellipse cx="161.198" cy="91.5" rx="6.5" ry="7.5" fill="#002255"/>
<ellipse cx="161.198" cy="91" rx="3.5" ry="4" fill="white"/>
<path d="M152.625 85.8075C155.669 88.928 162.801 81.9603 162.801 81.9603" stroke="#002255" stroke-width="3" stroke-linecap="round"/>
<path d="M208.698 96H197.698V140.638C203.863 139.53 207.65 139.126 208.698 138.256V96Z" fill="#B4D0FF"/>
<ellipse cx="6.5" cy="7.5" rx="6.5" ry="7.5" transform="matrix(-1 0 0 1 209.698 84.8457)" fill="#002255"/>
<ellipse cx="3.5" cy="4" rx="3.5" ry="4" transform="matrix(-1 0 0 1 206.698 87.8457)" fill="white"/>
<path d="M211.77 86.6532C208.726 89.7737 201.594 82.806 201.594 82.806" stroke="#002255" stroke-width="3" stroke-linecap="round"/>
<circle cx="133.698" cy="41.392" r="15" fill="white"/>
<circle cx="222.698" cy="39.392" r="15" fill="white"/>
<path d="M203.698 119.392C203.698 125.467 193.624 133.935 181.198 133.935C168.771 133.935 158.698 125.467 158.698 119.392C158.698 113.317 168.771 102.392 181.198 102.392C193.624 102.392 203.698 113.317 203.698 119.392Z" fill="#EBF3FF"/>
<path d="M143.198 39.392C143.198 42.6662 139.549 50.892 133.198 50.892C126.846 50.892 124.198 44.6662 124.198 41.392C124.198 38.1178 126.846 32.2299 133.198 32.2299C139.549 32.2299 143.198 36.1178 143.198 39.392Z" fill="#EBF3FF"/>
<path d="M225.509 48.888C222.259 49.287 213.65 46.6679 212.876 40.364C212.102 34.0601 217.958 30.6723 221.208 30.2733C224.458 29.8743 230.625 31.7857 231.399 38.0897C232.173 44.3936 228.758 48.4889 225.509 48.888Z" fill="#EBF3FF"/>
<path d="M172.198 126C179.557 119.737 183.484 120.064 190.198 126" stroke="#002255" stroke-width="2" stroke-linecap="round"/>
<ellipse cx="181.951" cy="112.699" rx="5" ry="6" transform="rotate(87 181.951 112.699)" fill="#002255"/>
<rect x="114" y="162" width="131" height="46" rx="4" fill="#6A6A6A"/>
<path d="M143.677 188.108C143.373 188.108 143.141 188.024 142.981 187.856C142.821 187.688 142.741 187.452 142.741 187.148V181.076H140.617C140.369 181.076 140.177 181.008 140.041 180.872C139.905 180.736 139.837 180.548 139.837 180.308C139.837 180.06 139.905 179.872 140.041 179.744C140.177 179.608 140.369 179.54 140.617 179.54H146.725C146.973 179.54 147.165 179.608 147.301 179.744C147.437 179.872 147.505 180.06 147.505 180.308C147.505 180.548 147.437 180.736 147.301 180.872C147.165 181.008 146.973 181.076 146.725 181.076H144.601V187.148C144.601 187.452 144.521 187.688 144.361 187.856C144.209 188.024 143.981 188.108 143.677 188.108ZM149.708 188.096C149.412 188.096 149.184 188.012 149.024 187.844C148.872 187.668 148.796 187.424 148.796 187.112V183.008C148.796 182.688 148.872 182.444 149.024 182.276C149.184 182.1 149.412 182.012 149.708 182.012C149.996 182.012 150.216 182.1 150.368 182.276C150.528 182.444 150.608 182.688 150.608 183.008V187.112C150.608 187.424 150.532 187.668 150.38 187.844C150.228 188.012 150.004 188.096 149.708 188.096ZM149.708 181.028C149.372 181.028 149.112 180.952 148.928 180.8C148.752 180.64 148.664 180.416 148.664 180.128C148.664 179.832 148.752 179.608 148.928 179.456C149.112 179.296 149.372 179.216 149.708 179.216C150.044 179.216 150.3 179.296 150.476 179.456C150.652 179.608 150.74 179.832 150.74 180.128C150.74 180.416 150.652 180.64 150.476 180.8C150.3 180.952 150.044 181.028 149.708 181.028ZM154.299 188.132C153.787 188.132 153.335 188.008 152.943 187.76C152.559 187.512 152.259 187.156 152.043 186.692C151.827 186.228 151.719 185.68 151.719 185.048C151.719 184.416 151.827 183.872 152.043 183.416C152.259 182.96 152.559 182.608 152.943 182.36C153.335 182.112 153.787 181.988 154.299 181.988C154.763 181.988 155.171 182.1 155.523 182.324C155.883 182.548 156.127 182.84 156.255 183.2H156.123V180.356C156.123 180.052 156.199 179.824 156.351 179.672C156.503 179.512 156.727 179.432 157.023 179.432C157.311 179.432 157.535 179.512 157.695 179.672C157.855 179.824 157.935 180.052 157.935 180.356V187.184C157.935 187.48 157.855 187.708 157.695 187.868C157.543 188.028 157.323 188.108 157.035 188.108C156.747 188.108 156.523 188.028 156.363 187.868C156.211 187.708 156.135 187.48 156.135 187.184V186.368L156.267 186.836C156.155 187.228 155.915 187.544 155.547 187.784C155.187 188.016 154.771 188.132 154.299 188.132ZM154.839 186.776C155.103 186.776 155.331 186.712 155.523 186.584C155.715 186.456 155.867 186.268 155.979 186.02C156.091 185.764 156.147 185.44 156.147 185.048C156.147 184.464 156.027 184.036 155.787 183.764C155.547 183.484 155.231 183.344 154.839 183.344C154.583 183.344 154.355 183.404 154.155 183.524C153.963 183.644 153.811 183.832 153.699 184.088C153.595 184.336 153.543 184.656 153.543 185.048C153.543 185.632 153.663 186.068 153.903 186.356C154.143 186.636 154.455 186.776 154.839 186.776ZM161.323 188.132C160.891 188.132 160.503 188.048 160.159 187.88C159.815 187.712 159.547 187.484 159.355 187.196C159.163 186.908 159.067 186.584 159.067 186.224C159.067 185.792 159.179 185.452 159.403 185.204C159.627 184.948 159.991 184.768 160.495 184.664C160.999 184.552 161.667 184.496 162.499 184.496H163.135V185.432H162.511C162.103 185.432 161.771 185.456 161.515 185.504C161.267 185.544 161.087 185.616 160.975 185.72C160.871 185.824 160.819 185.968 160.819 186.152C160.819 186.376 160.895 186.56 161.047 186.704C161.207 186.848 161.435 186.92 161.731 186.92C161.963 186.92 162.167 186.868 162.343 186.764C162.527 186.652 162.671 186.504 162.775 186.32C162.879 186.128 162.931 185.912 162.931 185.672V184.292C162.931 183.94 162.851 183.692 162.691 183.548C162.531 183.396 162.259 183.32 161.875 183.32C161.659 183.32 161.423 183.348 161.167 183.404C160.919 183.452 160.643 183.536 160.339 183.656C160.163 183.736 160.007 183.756 159.871 183.716C159.735 183.668 159.631 183.588 159.559 183.476C159.487 183.356 159.451 183.228 159.451 183.092C159.451 182.948 159.491 182.812 159.571 182.684C159.651 182.548 159.783 182.448 159.967 182.384C160.343 182.232 160.695 182.128 161.023 182.072C161.359 182.016 161.667 181.988 161.947 181.988C162.563 181.988 163.067 182.08 163.459 182.264C163.859 182.44 164.159 182.716 164.359 183.092C164.559 183.46 164.659 183.936 164.659 184.52V187.184C164.659 187.48 164.587 187.708 164.443 187.868C164.299 188.028 164.091 188.108 163.819 188.108C163.547 188.108 163.335 188.028 163.183 187.868C163.039 187.708 162.967 187.48 162.967 187.184V186.74L163.051 186.812C163.003 187.084 162.899 187.32 162.739 187.52C162.587 187.712 162.391 187.864 162.151 187.976C161.911 188.08 161.635 188.132 161.323 188.132ZM166.922 188.108C166.626 188.108 166.398 188.028 166.238 187.868C166.086 187.708 166.01 187.48 166.01 187.184V180.356C166.01 180.052 166.086 179.824 166.238 179.672C166.398 179.512 166.626 179.432 166.922 179.432C167.21 179.432 167.43 179.512 167.582 179.672C167.742 179.824 167.822 180.052 167.822 180.356V184.544H167.846L169.586 182.612C169.762 182.412 169.922 182.264 170.066 182.168C170.218 182.064 170.418 182.012 170.666 182.012C170.914 182.012 171.102 182.076 171.23 182.204C171.366 182.332 171.434 182.488 171.434 182.672C171.442 182.848 171.366 183.028 171.206 183.212L169.37 185.264V184.58L171.41 186.932C171.562 187.116 171.626 187.3 171.602 187.484C171.586 187.668 171.506 187.82 171.362 187.94C171.218 188.052 171.034 188.108 170.81 188.108C170.538 188.108 170.318 188.056 170.15 187.952C169.99 187.848 169.826 187.688 169.658 187.472L167.846 185.456H167.822V187.184C167.822 187.8 167.522 188.108 166.922 188.108ZM177.145 188.108C176.841 188.108 176.609 188.024 176.449 187.856C176.289 187.688 176.209 187.452 176.209 187.148V180.38C176.209 180.076 176.289 179.844 176.449 179.684C176.609 179.516 176.841 179.432 177.145 179.432C177.441 179.432 177.669 179.516 177.829 179.684C177.989 179.844 178.069 180.076 178.069 180.38V183.224H178.093L181.285 179.888C181.421 179.744 181.561 179.636 181.705 179.564C181.857 179.484 182.029 179.444 182.221 179.444C182.501 179.444 182.701 179.516 182.821 179.66C182.949 179.804 183.005 179.972 182.989 180.164C182.973 180.356 182.885 180.536 182.725 180.704L179.521 183.98L179.533 183.176L182.893 186.764C183.077 186.964 183.169 187.168 183.169 187.376C183.177 187.584 183.109 187.76 182.965 187.904C182.829 188.04 182.625 188.108 182.353 188.108C182.121 188.108 181.933 188.06 181.789 187.964C181.653 187.868 181.501 187.728 181.333 187.544L178.093 184.136H178.069V187.148C178.069 187.452 177.989 187.688 177.829 187.856C177.677 188.024 177.449 188.108 177.145 188.108ZM187.211 188.132C186.515 188.132 185.915 188.008 185.411 187.76C184.915 187.504 184.531 187.148 184.259 186.692C183.995 186.228 183.863 185.684 183.863 185.06C183.863 184.452 183.991 183.92 184.247 183.464C184.503 183 184.859 182.64 185.315 182.384C185.779 182.12 186.303 181.988 186.887 181.988C187.311 181.988 187.695 182.06 188.039 182.204C188.383 182.34 188.679 182.54 188.927 182.804C189.175 183.06 189.363 183.376 189.491 183.752C189.619 184.12 189.683 184.532 189.683 184.988C189.683 185.14 189.635 185.256 189.539 185.336C189.443 185.408 189.303 185.444 189.119 185.444H185.351V184.508H188.375L188.183 184.676C188.183 184.348 188.135 184.076 188.039 183.86C187.943 183.636 187.803 183.468 187.619 183.356C187.443 183.244 187.223 183.188 186.959 183.188C186.663 183.188 186.411 183.256 186.203 183.392C185.995 183.528 185.835 183.724 185.723 183.98C185.611 184.236 185.555 184.544 185.555 184.904V185C185.555 185.608 185.695 186.056 185.975 186.344C186.263 186.632 186.687 186.776 187.247 186.776C187.439 186.776 187.659 186.752 187.907 186.704C188.155 186.656 188.387 186.58 188.603 186.476C188.787 186.388 188.951 186.36 189.095 186.392C189.239 186.416 189.351 186.48 189.431 186.584C189.511 186.688 189.555 186.808 189.563 186.944C189.579 187.08 189.551 187.216 189.479 187.352C189.407 187.48 189.287 187.588 189.119 187.676C188.847 187.828 188.539 187.94 188.195 188.012C187.859 188.092 187.531 188.132 187.211 188.132ZM193.594 188.132C193.042 188.132 192.578 188.04 192.202 187.856C191.834 187.672 191.558 187.404 191.374 187.052C191.198 186.7 191.11 186.256 191.11 185.72V183.464H190.606C190.382 183.464 190.206 183.404 190.078 183.284C189.958 183.164 189.898 183 189.898 182.792C189.898 182.568 189.958 182.4 190.078 182.288C190.206 182.168 190.382 182.108 190.606 182.108H191.11V181.196C191.11 180.892 191.19 180.664 191.35 180.512C191.51 180.352 191.734 180.272 192.022 180.272C192.318 180.272 192.542 180.352 192.694 180.512C192.846 180.664 192.922 180.892 192.922 181.196V182.108H194.062C194.286 182.108 194.458 182.168 194.578 182.288C194.698 182.4 194.758 182.568 194.758 182.792C194.758 183 194.698 183.164 194.578 183.284C194.458 183.404 194.286 183.464 194.062 183.464H192.922V185.648C192.922 185.984 192.998 186.236 193.15 186.404C193.31 186.572 193.562 186.656 193.906 186.656C194.026 186.656 194.138 186.644 194.242 186.62C194.346 186.596 194.442 186.58 194.53 186.572C194.642 186.564 194.734 186.6 194.806 186.68C194.878 186.752 194.914 186.916 194.914 187.172C194.914 187.364 194.882 187.532 194.818 187.676C194.754 187.82 194.642 187.924 194.482 187.988C194.378 188.028 194.234 188.06 194.05 188.084C193.874 188.116 193.722 188.132 193.594 188.132ZM198.555 188.132C197.859 188.132 197.259 188.008 196.755 187.76C196.259 187.504 195.875 187.148 195.603 186.692C195.339 186.228 195.207 185.684 195.207 185.06C195.207 184.452 195.335 183.92 195.591 183.464C195.847 183 196.203 182.64 196.659 182.384C197.123 182.12 197.647 181.988 198.231 181.988C198.655 181.988 199.039 182.06 199.383 182.204C199.727 182.34 200.023 182.54 200.271 182.804C200.519 183.06 200.707 183.376 200.835 183.752C200.963 184.12 201.027 184.532 201.027 184.988C201.027 185.14 200.979 185.256 200.883 185.336C200.787 185.408 200.647 185.444 200.463 185.444H196.695V184.508H199.719L199.527 184.676C199.527 184.348 199.479 184.076 199.383 183.86C199.287 183.636 199.147 183.468 198.963 183.356C198.787 183.244 198.567 183.188 198.303 183.188C198.007 183.188 197.755 183.256 197.547 183.392C197.339 183.528 197.179 183.724 197.067 183.98C196.955 184.236 196.899 184.544 196.899 184.904V185C196.899 185.608 197.039 186.056 197.319 186.344C197.607 186.632 198.031 186.776 198.591 186.776C198.783 186.776 199.003 186.752 199.251 186.704C199.499 186.656 199.731 186.58 199.947 186.476C200.131 186.388 200.295 186.36 200.439 186.392C200.583 186.416 200.695 186.48 200.775 186.584C200.855 186.688 200.899 186.808 200.907 186.944C200.923 187.08 200.895 187.216 200.823 187.352C200.751 187.48 200.631 187.588 200.463 187.676C200.191 187.828 199.883 187.94 199.539 188.012C199.203 188.092 198.875 188.132 198.555 188.132ZM203.017 188.108C202.721 188.108 202.493 188.028 202.333 187.868C202.181 187.708 202.105 187.48 202.105 187.184V182.924C202.105 182.628 202.181 182.404 202.333 182.252C202.493 182.092 202.713 182.012 202.993 182.012C203.281 182.012 203.501 182.092 203.653 182.252C203.805 182.404 203.881 182.628 203.881 182.924V183.692L203.749 183.212C203.909 182.844 204.157 182.548 204.493 182.324C204.829 182.1 205.225 181.988 205.681 181.988C206.137 181.988 206.517 182.096 206.821 182.312C207.125 182.528 207.341 182.86 207.469 183.308H207.301C207.477 182.9 207.745 182.58 208.105 182.348C208.473 182.108 208.893 181.988 209.365 181.988C209.821 181.988 210.193 182.08 210.481 182.264C210.777 182.44 210.997 182.712 211.141 183.08C211.285 183.44 211.357 183.9 211.357 184.46V187.184C211.357 187.48 211.277 187.708 211.117 187.868C210.965 188.028 210.745 188.108 210.457 188.108C210.161 188.108 209.933 188.028 209.773 187.868C209.621 187.708 209.545 187.48 209.545 187.184V184.52C209.545 184.128 209.481 183.844 209.353 183.668C209.233 183.484 209.025 183.392 208.729 183.392C208.385 183.392 208.117 183.512 207.925 183.752C207.733 183.992 207.637 184.332 207.637 184.772V187.184C207.637 187.48 207.557 187.708 207.397 187.868C207.245 188.028 207.025 188.108 206.737 188.108C206.449 188.108 206.225 188.028 206.065 187.868C205.905 187.708 205.825 187.48 205.825 187.184V184.52C205.825 184.128 205.761 183.844 205.633 183.668C205.513 183.484 205.305 183.392 205.009 183.392C204.665 183.392 204.397 183.512 204.205 183.752C204.013 183.992 203.917 184.332 203.917 184.772V187.184C203.917 187.8 203.617 188.108 203.017 188.108ZM214.917 188.132C214.421 188.132 214.009 188.04 213.681 187.856C213.353 187.672 213.109 187.396 212.949 187.028C212.797 186.652 212.721 186.188 212.721 185.636V182.924C212.721 182.62 212.797 182.392 212.949 182.24C213.109 182.088 213.333 182.012 213.621 182.012C213.909 182.012 214.133 182.088 214.293 182.24C214.453 182.392 214.533 182.62 214.533 182.924V185.684C214.533 186.036 214.605 186.3 214.749 186.476C214.893 186.644 215.121 186.728 215.433 186.728C215.777 186.728 216.057 186.608 216.273 186.368C216.497 186.12 216.609 185.796 216.609 185.396V182.924C216.609 182.62 216.685 182.392 216.837 182.24C216.997 182.088 217.221 182.012 217.509 182.012C217.805 182.012 218.029 182.088 218.181 182.24C218.341 182.392 218.421 182.62 218.421 182.924V187.184C218.421 187.8 218.129 188.108 217.545 188.108C217.257 188.108 217.037 188.028 216.885 187.868C216.733 187.708 216.657 187.48 216.657 187.184V186.38L216.837 186.848C216.661 187.256 216.409 187.572 216.081 187.796C215.753 188.02 215.365 188.132 214.917 188.132Z" fill="white"/>
</svg>
