<svg width="64" height="80" viewBox="0 0 64 80" fill="none" xmlns="http://www.w3.org/2000/svg">
<path d="M11.3934 34.3394C10.4124 33.4368 8.92953 29.4961 6.69252 23.411C5.40834 23.7139 4.86414 19.873 5.52339 18.4534C7.45703 14.2897 6.41246 13.2333 8.01361 11.1928C9.43 9.3878 10.9703 9.5515 12.0761 9.45044C15.1657 8.37228 19.5345 3.32978 20.4804 3.89175C21.4263 4.45371 28.5375 7.39952 28.5375 7.39952C30.0026 7.49545 30.7092 7.88334 31.7333 9.26314C32.7359 10.3768 33.1272 10.9795 32.3471 11.866C35.4139 19.7341 36.7463 22.4729 36.5388 24.6589C36.5128 24.9321 36.116 25.3023 35.4393 25.7392C35.6618 28.0525 35.191 30.4488 34.8075 30.2129C36.867 33.568 39.3374 38.8238 39.4392 40.0237C39.5916 41.8194 26.1257 46.6087 24.7831 46.6636C23.8801 46.7006 21.2246 41.6467 19.7805 37.4239C19.7805 37.4239 17.0095 35.8905 15.0176 33.7116C13.0002 34.2743 11.6143 34.5426 11.3934 34.3394Z" fill="white"/>
<path d="M6.69252 23.411C8.92953 29.4961 10.4124 33.4368 11.3934 34.3394C11.7371 34.6556 14.9005 33.8304 18.8746 32.5309M6.69252 23.411C8.7068 22.3885 11.1254 20.5727 13.7305 18.5738M6.69252 23.411C5.40834 23.7139 4.86414 19.873 5.52339 18.4534M32.3471 11.866C35.4139 19.7341 36.7463 22.4729 36.5388 24.6589C36.4848 25.2271 34.8263 26.2149 32.3837 27.35M32.3471 11.866C33.1272 10.9795 32.7359 10.3768 31.7333 9.26314M32.3471 11.866C30.1365 12.0587 28.3601 12.2699 26.7666 12.5369M31.7333 9.26314C28.0071 8.79843 23.5017 11.3805 19.1027 14.5286M31.7333 9.26314C30.7092 7.88334 30.0026 7.49545 28.5375 7.39952M19.1027 14.5286C17.2723 15.8385 15.4603 17.2465 13.7305 18.5738M19.1027 14.5286C21.9338 13.5902 24.0928 12.985 26.7666 12.5369M13.7305 18.5738C15.147 18.0114 16.5416 18.0833 19.5006 18.5154C21.6088 15.086 23.0993 13.6257 26.7666 12.5369M5.52339 18.4534C7.45703 14.2897 6.41246 13.2333 8.01361 11.1928C9.43 9.3878 10.9703 9.5515 12.0761 9.45044M5.52339 18.4534C9.96184 18.4963 23.4512 8.25008 28.5375 7.39952M12.0761 9.45044C12.7091 9.39259 16.532 9.184 20.5503 7.4455C24.5686 5.70699 26.6258 6.66037 28.5375 7.39952M12.0761 9.45044C15.1657 8.37228 19.5345 3.32978 20.4804 3.89175C21.4263 4.45371 28.5375 7.39952 28.5375 7.39952M18.8746 32.5309C23.2961 31.0851 28.7212 29.052 32.3837 27.35M18.8746 32.5309C18.8238 32.7641 18.8088 33.0474 18.8248 33.3714M32.3837 27.35C32.5506 27.3497 32.7709 27.4945 33.0304 27.7536M18.8248 33.3714C15.5886 33.9774 14.5644 24.0336 13.1875 28.5237C11.8106 33.0137 19.7805 37.4239 19.7805 37.4239M18.8248 33.3714C18.8761 34.4067 19.2451 35.8582 19.7805 37.4239M19.7805 37.4239C21.2246 41.6467 23.8801 46.7006 24.7831 46.6636C26.1257 46.6087 39.5916 41.8194 39.4392 40.0237C39.3374 38.8238 36.867 33.568 34.8075 30.2129M33.0304 27.7536C34.1275 25.2015 28.043 22.1505 32.3329 21.6908C36.6228 21.2311 35.5512 30.6704 34.8075 30.2129M33.0304 27.7536C33.5168 28.2392 34.1406 29.1264 34.8075 30.2129" stroke="#D1D1D1"/>
<path d="M11.3934 34.3394C10.4124 33.4368 8.92953 29.4961 6.69252 23.411C5.40834 23.7139 4.86414 19.873 5.52339 18.4534C7.45703 14.2897 6.41246 13.2333 8.01361 11.1928C9.43 9.3878 10.9703 9.5515 12.0761 9.45044C15.1657 8.37228 19.5345 3.32978 20.4804 3.89175C21.4263 4.45371 28.5375 7.39952 28.5375 7.39952C30.0026 7.49545 30.7092 7.88334 31.7333 9.26314C32.7359 10.3768 33.1272 10.9795 32.3471 11.866C35.4139 19.7341 36.7463 22.4729 36.5388 24.6589C36.5128 24.9321 36.116 25.3023 35.4393 25.7392C35.6618 28.0525 35.191 30.4488 34.8075 30.2129C36.867 33.568 39.3374 38.8238 39.4392 40.0237C39.5916 41.8194 26.1257 46.6087 24.7831 46.6636C23.8801 46.7006 21.2246 41.6467 19.7805 37.4239C19.7805 37.4239 17.0095 35.8905 15.0176 33.7116C13.0002 34.2743 11.6143 34.5426 11.3934 34.3394Z" fill="white"/>
<path d="M6.69252 23.411C8.92953 29.4961 10.4124 33.4368 11.3934 34.3394C11.7371 34.6556 14.9005 33.8304 18.8746 32.5309M6.69252 23.411C8.7068 22.3885 11.1254 20.5727 13.7305 18.5738M6.69252 23.411C5.40834 23.7139 4.86414 19.873 5.52339 18.4534M32.3471 11.866C35.4139 19.7341 36.7463 22.4729 36.5388 24.6589C36.4848 25.2271 34.8263 26.2149 32.3837 27.35M32.3471 11.866C33.1272 10.9795 32.7359 10.3768 31.7333 9.26314M32.3471 11.866C30.1365 12.0587 28.3601 12.2699 26.7666 12.5369M31.7333 9.26314C28.0071 8.79843 23.5017 11.3805 19.1027 14.5286M31.7333 9.26314C30.7092 7.88334 30.0026 7.49545 28.5375 7.39952M19.1027 14.5286C17.2723 15.8385 15.4603 17.2465 13.7305 18.5738M19.1027 14.5286C21.9338 13.5902 24.0928 12.985 26.7666 12.5369M13.7305 18.5738C15.147 18.0114 16.5416 18.0833 19.5006 18.5154C21.6088 15.086 23.0993 13.6257 26.7666 12.5369M5.52339 18.4534C7.45703 14.2897 6.41246 13.2333 8.01361 11.1928C9.43 9.3878 10.9703 9.5515 12.0761 9.45044M5.52339 18.4534C9.96184 18.4963 23.4512 8.25008 28.5375 7.39952M12.0761 9.45044C12.7091 9.39259 16.532 9.184 20.5503 7.4455C24.5686 5.70699 26.6258 6.66037 28.5375 7.39952M12.0761 9.45044C15.1657 8.37228 19.5345 3.32978 20.4804 3.89175C21.4263 4.45371 28.5375 7.39952 28.5375 7.39952M18.8746 32.5309C23.2961 31.0851 28.7212 29.052 32.3837 27.35M18.8746 32.5309C18.8238 32.7641 18.8088 33.0474 18.8248 33.3714M32.3837 27.35C32.5506 27.3497 32.7709 27.4945 33.0304 27.7536M18.8248 33.3714C15.5886 33.9774 14.5644 24.0336 13.1875 28.5237C11.8106 33.0137 19.7805 37.4239 19.7805 37.4239M18.8248 33.3714C18.8761 34.4067 19.2451 35.8582 19.7805 37.4239M19.7805 37.4239C21.2246 41.6467 23.8801 46.7006 24.7831 46.6636C26.1257 46.6087 39.5916 41.8194 39.4392 40.0237C39.3374 38.8238 36.867 33.568 34.8075 30.2129M33.0304 27.7536C34.1275 25.2015 28.043 22.1505 32.3329 21.6908C36.6228 21.2311 35.5512 30.6704 34.8075 30.2129M33.0304 27.7536C33.5168 28.2392 34.1406 29.1264 34.8075 30.2129" stroke="#D1D1D1"/>
<path d="M11.3934 34.3394C10.4124 33.4368 8.92953 29.4961 6.69252 23.411C5.40834 23.7139 4.86414 19.873 5.52339 18.4534C7.45703 14.2897 6.41246 13.2333 8.01361 11.1928C9.43 9.3878 10.9703 9.5515 12.0761 9.45044C15.1657 8.37228 19.5345 3.32978 20.4804 3.89175C21.4263 4.45372 28.5375 7.39952 28.5375 7.39952C30.0026 7.49545 30.7092 7.88334 31.7333 9.26314C32.7359 10.3768 33.1272 10.9795 32.3471 11.866C35.4139 19.7341 36.7463 22.4729 36.5388 24.6589C36.5128 24.9321 36.116 25.3023 35.4393 25.7392C35.6618 28.0525 35.191 30.4488 34.8075 30.2129C36.867 33.568 39.3374 38.8238 39.4392 40.0237C39.5916 41.8194 26.1257 46.6087 24.7831 46.6636C23.8801 46.7006 21.2246 41.6467 19.7805 37.4239C19.7805 37.4239 17.0095 35.8905 15.0176 33.7116C13.0002 34.2743 11.6143 34.5426 11.3934 34.3394Z" fill="white"/>
<path d="M6.69252 23.411C8.92953 29.4961 10.4124 33.4368 11.3934 34.3394C11.7371 34.6556 14.9005 33.8304 18.8746 32.5309M6.69252 23.411C8.7068 22.3885 11.1254 20.5727 13.7305 18.5738M6.69252 23.411C5.40834 23.7139 4.86414 19.873 5.52339 18.4534M32.3471 11.866C35.4139 19.7341 36.7463 22.4729 36.5388 24.6589C36.4848 25.2271 34.8263 26.2149 32.3837 27.35M32.3471 11.866C33.1272 10.9795 32.7359 10.3768 31.7333 9.26314M32.3471 11.866C30.1365 12.0587 28.3601 12.2699 26.7666 12.5369M31.7333 9.26314C28.0071 8.79843 23.5017 11.3805 19.1027 14.5286M31.7333 9.26314C30.7092 7.88334 30.0026 7.49545 28.5375 7.39952M19.1027 14.5286C17.2723 15.8385 15.4603 17.2465 13.7305 18.5738M19.1027 14.5286C21.9338 13.5902 24.0928 12.985 26.7666 12.5369M13.7305 18.5738C15.147 18.0114 16.5416 18.0833 19.5006 18.5153C21.6088 15.086 23.0993 13.6257 26.7666 12.5369M5.52339 18.4534C7.45703 14.2897 6.41246 13.2333 8.01361 11.1928C9.43 9.3878 10.9703 9.5515 12.0761 9.45044M5.52339 18.4534C9.96184 18.4963 23.4512 8.25008 28.5375 7.39952M12.0761 9.45044C12.7091 9.39259 16.532 9.184 20.5503 7.4455C24.5686 5.70699 26.6258 6.66037 28.5375 7.39952M12.0761 9.45044C15.1657 8.37228 19.5345 3.32978 20.4804 3.89175C21.4263 4.45372 28.5375 7.39952 28.5375 7.39952M18.8746 32.5309C23.2961 31.0851 28.7212 29.052 32.3837 27.35M18.8746 32.5309C18.8238 32.7641 18.8088 33.0474 18.8248 33.3714M32.3837 27.35C32.5506 27.3497 32.7709 27.4945 33.0304 27.7536M18.8248 33.3714C15.5886 33.9774 14.5644 24.0336 13.1875 28.5237C11.8106 33.0137 19.7805 37.4239 19.7805 37.4239M18.8248 33.3714C18.8761 34.4067 19.2451 35.8582 19.7805 37.4239M19.7805 37.4239C21.2246 41.6467 23.8801 46.7006 24.7831 46.6636C26.1257 46.6087 39.5916 41.8194 39.4392 40.0237C39.3374 38.8238 36.867 33.568 34.8075 30.2129M33.0304 27.7536C34.1275 25.2015 28.043 22.1505 32.3329 21.6908C36.6228 21.2311 35.5511 30.6704 34.8075 30.2129M33.0304 27.7536C33.5168 28.2392 34.1406 29.1264 34.8075 30.2129" stroke="#D1D1D1"/>
<path d="M31.5752 8.64329C32.6146 9.85597 33.0226 10.5101 32.238 11.4536C29.9829 11.6307 28.1715 11.8336 26.5476 12.0991C22.817 13.2207 21.3148 14.7721 19.2088 18.4347C16.1807 17.9289 14.7553 17.8322 13.3163 18.4182C10.6831 20.5341 8.23779 22.4555 6.19457 23.5285C4.88715 23.8368 4.27845 19.6947 4.93224 18.1756C6.84985 13.7201 5.76844 12.5686 7.37569 10.3941C8.79748 8.47048 10.3729 8.6679 11.5009 8.57433C14.6417 7.45624 19.0343 2.08824 20.0082 2.70621C20.982 3.32417 28.2856 6.59316 28.2856 6.59316C29.7833 6.71659 30.5103 7.14387 31.5752 8.64329Z" fill="#202020"/>
<path d="M31.5752 8.64329C32.6146 9.85598 33.0226 10.5101 32.238 11.4536C29.9829 11.6307 28.1715 11.8336 26.5476 12.0991M31.5752 8.64329C27.7631 8.09175 23.1971 10.8092 18.7475 14.1376M31.5752 8.64329C30.5103 7.14387 29.7833 6.71659 28.2856 6.59316M18.7475 14.1376C16.896 15.5225 15.0647 17.0132 13.3163 18.4182M18.7475 14.1376C21.6261 13.1663 23.8229 12.5446 26.5476 12.0991M13.3163 18.4182C10.6831 20.5341 8.23779 22.4555 6.19457 23.5285C4.88715 23.8368 4.27845 19.6947 4.93224 18.1756M13.3163 18.4182C14.7553 17.8322 16.1807 17.9289 19.2088 18.4347C21.3148 14.7721 22.817 13.2207 26.5476 12.0991M4.93224 18.1756C6.84985 13.7201 5.76844 12.5686 7.37569 10.3941C8.79748 8.47048 10.3729 8.6679 11.5009 8.57433M4.93224 18.1756C9.46606 18.2829 23.1024 7.43875 28.2856 6.59316M11.5009 8.57433C12.1466 8.52077 16.0483 8.34885 20.1284 6.5327C24.2086 4.71656 26.3229 5.77116 28.2856 6.59316M11.5009 8.57433C14.6417 7.45624 19.0343 2.08824 20.0082 2.70621C20.982 3.32417 28.2856 6.59316 28.2856 6.59316" stroke="#7A7A7A"/>
<path d="M15.3419 23.6822C17.6023 22.7726 18.771 27.1095 16.9214 27.889C15.0718 28.6685 13.0815 24.5918 15.3419 23.6822Z" fill="#002255" stroke="#D1D1D1"/>
<path d="M26.7865 18.7374C29.0469 17.8278 30.2156 22.1647 28.366 22.9442C26.5164 23.7237 24.5261 19.647 26.7865 18.7374Z" fill="#002255" stroke="#D1D1D1"/>
<path d="M26.3072 47.5689C25.9586 46.4736 30.7897 45.1162 30.2885 47.5895C29.7873 50.0627 26.6559 48.6642 26.3072 47.5689Z" fill="white" stroke="#D1D1D1"/>
<path d="M38.9302 42.7395C38.5122 41.6681 33.8778 43.5814 35.8293 45.2072C37.7808 46.8329 39.3481 43.8108 38.9302 42.7395Z" fill="white" stroke="#D1D1D1"/>
<path d="M21.1943 32.1989L53.472 22.2461L55.1113 31.9212L21.1943 32.1989Z" fill="white"/>
<path d="M11.9174 31.4849C10.8644 31.8187 10.2814 32.9429 10.6152 33.9958C10.949 35.0487 12.0732 35.6317 13.1261 35.2979L11.9174 31.4849ZM55.1378 24.4816L53.182 24.8999L55.1378 24.4816ZM13.1261 35.2979L50.6219 23.4117L49.4132 19.5987L11.9174 31.4849L13.1261 35.2979ZM53.182 24.8999L55.0876 33.8097L58.9991 32.9731L57.0936 24.0633L53.182 24.8999ZM50.6219 23.4117C51.7473 23.0549 52.9351 23.7455 53.182 24.8999L57.0936 24.0633C56.3529 20.6 52.7892 18.5285 49.4132 19.5987L50.6219 23.4117Z" fill="#275AA6"/>
<path d="M9.04346 37.0003C9.04346 34.2388 11.282 32.0002 14.0435 32.0002H58.9998C61.7612 32.0002 63.9998 34.2388 63.9998 37.0002V70.1305C63.9998 72.892 61.7612 75.1306 58.9998 75.1306H14.0435C11.282 75.1306 9.04346 72.892 9.04346 70.1306V37.0003Z" fill="#2B64BA"/>
<mask id="path-16-inside-1_1182_3113" fill="white">
<path d="M47.9998 51.3044C47.9998 49.0953 49.7906 47.3044 51.9998 47.3044H63.9997V60.5218H51.9998C49.7906 60.5218 47.9998 58.7309 47.9998 56.5218V51.3044Z"/>
</mask>
<path d="M47.9998 51.3044C47.9998 49.0953 49.7906 47.3044 51.9998 47.3044H63.9997V60.5218H51.9998C49.7906 60.5218 47.9998 58.7309 47.9998 56.5218V51.3044Z" fill="#002255"/>
<path d="M45.9998 51.3044C45.9998 47.9907 48.686 45.3044 51.9998 45.3044H63.9997V49.3044H51.9998C50.8952 49.3044 49.9998 50.1999 49.9998 51.3044H45.9998ZM63.9997 62.5218H51.9998C48.686 62.5218 45.9998 59.8355 45.9998 56.5218H49.9998C49.9998 57.6264 50.8952 58.5218 51.9998 58.5218H63.9997V62.5218ZM51.9998 62.5218C48.686 62.5218 45.9998 59.8355 45.9998 56.5218V51.3044C45.9998 47.9907 48.686 45.3044 51.9998 45.3044V49.3044C50.8952 49.3044 49.9998 50.1999 49.9998 51.3044V56.5218C49.9998 57.6264 50.8952 58.5218 51.9998 58.5218V62.5218ZM63.9997 47.3044V60.5218V47.3044Z" fill="white" mask="url(#path-16-inside-1_1182_3113)"/>
<ellipse cx="54.2608" cy="53.5652" rx="2.08695" ry="2.08695" fill="#EBF3FF"/>
<path d="M22.8478 67.8262C22.8478 73.7212 18.0689 78.5001 12.1739 78.5001C6.27886 78.5001 1.5 73.7212 1.5 67.8262C1.5 61.9312 6.27886 57.1523 12.1739 57.1523C18.0689 57.1523 22.8478 61.9312 22.8478 67.8262Z" fill="#335384" stroke="white" stroke-width="3"/>
<path d="M6.8479 68.3225L9.88688 70.9823C10.2979 71.342 10.9215 71.3054 11.2876 70.9001L17.5 64.022" stroke="white" stroke-width="3" stroke-linecap="round"/>
</svg>
