<svg width="194" height="255" viewBox="0 0 194 255" fill="none" xmlns="http://www.w3.org/2000/svg">
<g filter="url(#filter0_f_1695_4712)">
<mask id="mask0_1695_4712" style="mask-type:alpha" maskUnits="userSpaceOnUse" x="130" y="97" width="49" height="65">
<path d="M136.499 132.524C149.256 109.08 170.508 88.3789 177.161 101.64C183.813 114.901 165.571 144.266 148.893 156.718C132.215 169.169 123.743 155.967 136.499 132.524Z" fill="#C2C2C2"/>
</mask>
<g mask="url(#mask0_1695_4712)">
<path d="M136.499 132.524C149.256 109.08 170.508 88.3789 177.161 101.64C183.813 114.901 165.571 144.266 148.893 156.718C132.215 169.169 123.743 155.967 136.499 132.524Z" fill="#C2C2C2"/>
<path d="M166.839 101.51C178.36 90.2026 181.242 89.3469 181.243 90.3326" stroke="#F8F8F8" stroke-width="2" stroke-linecap="round"/>
<path d="M174.175 105.123C185.696 93.8152 188.578 92.9595 188.579 93.9451" stroke="#F8F8F8" stroke-width="2" stroke-linecap="round"/>
<path d="M172.748 101.197C184.269 89.8897 187.151 89.0341 187.151 90.0197" stroke="#F8F8F8" stroke-width="2" stroke-linecap="round"/>
</g>
<mask id="mask1_1695_4712" style="mask-type:alpha" maskUnits="userSpaceOnUse" x="10" y="103" width="59" height="56">
<path d="M57.2761 129.844C39.2172 110.177 13.5791 95.2234 10.338 109.697C7.09676 124.171 31.9134 148.258 51.1136 156.312C70.3137 164.366 75.3349 149.51 57.2761 129.844Z" fill="#C2C2C2"/>
</mask>
<g mask="url(#mask1_1695_4712)">
<path d="M57.2761 129.844C39.2172 110.177 13.5791 95.2234 10.338 109.697C7.09676 124.171 31.9134 148.258 51.1136 156.312C70.3137 164.366 75.3349 149.51 57.2761 129.844Z" fill="#C2C2C2"/>
<path d="M20.3213 107.078C6.40167 98.8891 3.39827 98.7547 3.63653 99.7112" stroke="#F8F8F8" stroke-width="2" stroke-linecap="round"/>
<path d="M14.0781 112.355C0.158505 104.166 -2.84489 104.032 -2.60663 104.988" stroke="#F8F8F8" stroke-width="2" stroke-linecap="round"/>
<path d="M14.5132 108.202C0.593564 100.013 -2.40983 99.8783 -2.17158 100.835" stroke="#F8F8F8" stroke-width="2" stroke-linecap="round"/>
</g>
<path d="M90.9945 247.441C90.9945 247.441 75.0218 250.981 63.9783 247.82C52.9348 244.659 51.6628 198.745 54.8294 187.721C57.9961 176.697 67.5961 176.464 81.6545 186.283C95.7128 196.103 95.5048 239.089 90.9945 247.441Z" fill="#C2C2C2"/>
<path d="M106.813 246.428C106.813 246.428 122.785 249.968 133.829 246.807C144.872 243.646 146.144 197.732 142.978 186.708C139.811 175.684 130.211 175.45 116.153 185.27C102.094 195.09 102.302 238.076 106.813 246.428Z" fill="#C2C2C2"/>
<mask id="mask2_1695_4712" style="mask-type:alpha" maskUnits="userSpaceOnUse" x="45" y="116" width="107" height="106">
<path d="M140.029 208.68C119.032 227.259 83.5178 225.107 60.8809 210.078C38.244 195.049 44.075 137.516 58.6484 125.081C73.2217 112.646 124.482 114.709 137.15 126.359C149.817 138.01 161.026 190.101 140.029 208.68Z" fill="#C2C2C2"/>
</mask>
<g mask="url(#mask2_1695_4712)">
<path d="M146.437 208.68C125.44 227.259 74.689 223.75 52.0521 208.721C29.4152 193.691 35.2461 136.158 49.8195 123.723C64.3929 111.288 130.89 114.709 143.557 126.359C156.225 138.01 167.434 190.101 146.437 208.68Z" fill="#C2C2C2"/>
<path d="M146.437 208.68C125.44 227.259 74.689 223.75 52.0521 208.721C29.4152 193.691 35.2461 136.158 49.8195 123.723C64.3929 111.288 130.89 114.709 143.557 126.359C156.225 138.01 167.434 190.101 146.437 208.68Z" fill="#C2C2C2"/>
<path d="M142.378 209.693C121.381 228.271 70.6299 224.762 47.993 209.733C25.3561 194.704 31.1871 137.171 45.7604 124.736C60.3338 112.301 126.831 115.722 139.498 127.372C152.166 139.023 163.375 191.114 142.378 209.693Z" fill="#C2C2C2"/>
<path d="M146.119 129.549C125.122 148.128 73.3554 151.203 50.7185 136.174C28.0816 121.145 33.9126 63.6118 48.486 51.1766C63.0593 38.7415 129.556 42.1624 142.224 53.813C154.892 65.4635 167.115 110.97 146.119 129.549Z" fill="#C2C2C2"/>
</g>
<path d="M144.715 130.285C123.718 148.864 72.9668 145.355 50.3299 130.326C27.693 115.297 33.524 57.7635 48.0973 45.3283C62.6707 32.8932 129.168 36.3141 141.835 47.9647C154.503 59.6152 165.712 111.706 144.715 130.285Z" fill="#C2C2C2"/>
<ellipse cx="48.7052" cy="41.9282" rx="15.2208" ry="15.1943" fill="#C2C2C2"/>
<ellipse cx="139.016" cy="39.9023" rx="15.2208" ry="15.1943" fill="#C2C2C2"/>
</g>
<mask id="mask3_1695_4712" style="mask-type:alpha" maskUnits="userSpaceOnUse" x="129" y="97" width="48" height="64">
<path d="M135.519 131.829C148.09 108.686 169.034 88.2488 175.59 101.34C182.146 114.432 164.169 143.421 147.733 155.714C131.297 168.006 122.947 154.973 135.519 131.829Z" fill="white"/>
</mask>
<g mask="url(#mask3_1695_4712)">
<path d="M135.519 131.829C148.09 108.686 169.034 88.2488 175.59 101.34C182.146 114.432 164.169 143.421 147.733 155.714C131.297 168.006 122.947 154.973 135.519 131.829Z" fill="white"/>
<path d="M165.418 101.212C176.772 90.0491 179.612 89.2044 179.613 90.1774" stroke="#F8F8F8" stroke-width="2" stroke-linecap="round"/>
<path d="M172.648 104.779C184.003 93.6156 186.843 92.7709 186.843 93.7439" stroke="#F8F8F8" stroke-width="2" stroke-linecap="round"/>
<path d="M171.241 100.903C182.595 89.7403 185.435 88.8955 185.436 89.8686" stroke="#F8F8F8" stroke-width="2" stroke-linecap="round"/>
</g>
<mask id="mask4_1695_4712" style="mask-type:alpha" maskUnits="userSpaceOnUse" x="10" y="103" width="59" height="55">
<path d="M57.445 129.183C39.6481 109.769 14.3821 95.0057 11.1879 109.294C7.99374 123.583 32.4503 147.362 51.3719 155.313C70.2934 163.264 75.2418 148.598 57.445 129.183Z" fill="white"/>
</mask>
<g mask="url(#mask4_1695_4712)">
<path d="M57.445 129.183C39.6481 109.769 14.3821 95.0057 11.1879 109.294C7.99374 123.583 32.4503 147.362 51.3719 155.313C70.2934 163.264 75.2418 148.598 57.445 129.183Z" fill="white"/>
<path d="M21.0269 106.709C7.3092 98.6245 4.34939 98.4919 4.58418 99.4362" stroke="#F8F8F8" stroke-width="2" stroke-linecap="round"/>
<path d="M14.874 111.919C1.15637 103.834 -1.80345 103.702 -1.56865 104.646" stroke="#F8F8F8" stroke-width="2" stroke-linecap="round"/>
<path d="M15.3022 107.818C1.58459 99.7335 -1.37522 99.6009 -1.14043 100.545" stroke="#F8F8F8" stroke-width="2" stroke-linecap="round"/>
</g>
<path d="M90.6736 245.277C90.6736 245.277 74.9326 248.772 64.0494 245.651C53.1661 242.53 51.9126 197.204 55.0333 186.321C58.154 175.437 67.6147 175.207 81.4691 184.901C95.3235 194.595 95.1184 237.032 90.6736 245.277Z" fill="white"/>
<path d="M106.262 244.277C106.262 244.277 122.003 247.772 132.887 244.651C143.77 241.53 145.023 196.204 141.903 185.321C138.782 174.437 129.321 174.207 115.467 183.901C101.613 193.595 101.818 236.032 106.262 244.277Z" fill="white"/>
<mask id="mask5_1695_4712" style="mask-type:alpha" maskUnits="userSpaceOnUse" x="46" y="116" width="105" height="105">
<path d="M138.998 207.011C118.306 225.353 83.3063 223.229 60.9979 208.392C38.6894 193.555 44.4358 136.758 58.7978 124.482C73.1597 112.205 123.676 114.242 136.16 125.744C148.644 137.245 159.69 188.67 138.998 207.011Z" fill="white"/>
</mask>
<g mask="url(#mask5_1695_4712)">
<path d="M145.313 207.011C124.621 225.353 74.6061 221.888 52.2977 207.052C29.9892 192.215 35.7356 135.417 50.0975 123.141C64.4594 110.865 129.991 114.242 142.475 125.744C154.959 137.245 166.006 188.67 145.313 207.011Z" fill="white"/>
<path d="M145.313 207.011C124.621 225.353 74.6061 221.888 52.2977 207.052C29.9892 192.215 35.7356 135.417 50.0975 123.141C64.4594 110.865 129.991 114.242 142.475 125.744C154.959 137.245 166.006 188.67 145.313 207.011Z" fill="#F8F8F8"/>
<path d="M141.312 208.011C120.62 226.352 70.6051 222.888 48.2967 208.051C25.9882 193.214 31.7346 136.417 46.0965 124.141C60.4585 111.865 125.99 115.242 138.474 126.743C150.958 138.245 162.005 189.67 141.312 208.011Z" fill="white"/>
<path d="M144.999 128.892C124.307 147.234 73.2916 150.269 50.9832 135.433C28.6747 120.596 34.4211 63.7983 48.783 51.5222C63.1449 39.2461 128.677 42.6232 141.161 54.1248C153.645 65.6263 165.691 110.551 144.999 128.892Z" fill="#F8F8F8"/>
</g>
<path d="M143.615 129.619C122.922 147.96 72.9074 144.496 50.5989 129.659C28.2905 114.822 34.0369 58.0248 48.3988 45.7487C62.7607 33.4726 128.293 36.8497 140.777 48.3513C153.261 59.8529 164.307 111.278 143.615 129.619Z" fill="white"/>
<circle cx="48.998" cy="42.392" r="15" fill="white"/>
<circle cx="137.998" cy="40.392" r="15" fill="white"/>
<path d="M118.998 120.392C118.998 126.467 108.924 134.935 96.498 134.935C84.0716 134.935 73.998 126.467 73.998 120.392C73.998 114.317 84.0716 103.392 96.498 103.392C108.924 103.392 118.998 114.317 118.998 120.392Z" fill="#EBF3FF"/>
<path d="M58.498 40.392C58.498 43.6662 54.8493 51.892 48.498 51.892C42.1468 51.892 39.498 45.6662 39.498 42.392C39.498 39.1178 42.1468 33.2299 48.498 33.2299C54.8493 33.2299 58.498 37.1178 58.498 40.392Z" fill="#EBF3FF"/>
<path d="M140.809 49.888C137.559 50.287 128.95 47.6679 128.176 41.364C127.402 35.0601 133.258 31.6723 136.508 31.2733C139.758 30.8743 145.925 32.7857 146.699 39.0897C147.473 45.3936 144.059 49.4889 140.809 49.888Z" fill="#EBF3FF"/>
<ellipse cx="75.998" cy="90.392" rx="9" ry="11" fill="#002255"/>
<path d="M76.015 96.612C75.7637 96.612 75.5514 96.5253 75.378 96.352C75.2047 96.1787 75.118 95.962 75.118 95.702V94.74L75.508 95.091C74.9274 95.065 74.4247 94.9913 74 94.87C73.5754 94.7487 73.2287 94.6273 72.96 94.506C72.7347 94.402 72.5744 94.2547 72.479 94.064C72.3924 93.8733 72.3577 93.6783 72.375 93.479C72.401 93.2797 72.4747 93.0977 72.596 92.933C72.7174 92.7683 72.8734 92.66 73.064 92.608C73.2634 92.5473 73.493 92.5733 73.753 92.686C73.9264 92.7813 74.1864 92.881 74.533 92.985C74.8884 93.0803 75.326 93.128 75.846 93.128C76.21 93.128 76.496 93.0933 76.704 93.024C76.9207 92.9547 77.0724 92.8637 77.159 92.751C77.2544 92.6297 77.302 92.4997 77.302 92.361C77.302 92.231 77.2674 92.1227 77.198 92.036C77.1374 91.9407 77.0334 91.8583 76.886 91.789C76.7387 91.711 76.535 91.6417 76.275 91.581L74.806 91.269C74 91.087 73.3977 90.7837 72.999 90.359C72.609 89.9257 72.414 89.3667 72.414 88.682C72.414 88.162 72.5397 87.6983 72.791 87.291C73.051 86.875 73.4107 86.537 73.87 86.277C74.338 86.017 74.884 85.8523 75.508 85.783L75.118 86.004V85.133C75.118 84.873 75.2047 84.6563 75.378 84.483C75.5514 84.3097 75.7637 84.223 76.015 84.223C76.275 84.223 76.4917 84.3097 76.665 84.483C76.8384 84.6563 76.925 84.873 76.925 85.133V86.004L76.535 85.757C76.8644 85.7657 77.2197 85.822 77.601 85.926C77.9824 86.0213 78.316 86.1557 78.602 86.329C78.8014 86.433 78.94 86.576 79.018 86.758C79.1047 86.94 79.135 87.1263 79.109 87.317C79.0917 87.499 79.0224 87.6637 78.901 87.811C78.7884 87.9583 78.6324 88.058 78.433 88.11C78.2424 88.1533 78.0127 88.1187 77.744 88.006C77.5447 87.9193 77.3194 87.85 77.068 87.798C76.8254 87.7373 76.5134 87.707 76.132 87.707C75.6727 87.707 75.3174 87.7893 75.066 87.954C74.8234 88.1187 74.702 88.331 74.702 88.591C74.702 88.7643 74.7714 88.9117 74.91 89.033C75.0574 89.1457 75.3217 89.2453 75.703 89.332L77.185 89.657C78.0084 89.839 78.615 90.1423 79.005 90.567C79.4037 90.983 79.603 91.5247 79.603 92.192C79.603 92.712 79.4774 93.1713 79.226 93.57C78.9747 93.9687 78.6237 94.2937 78.173 94.545C77.731 94.7963 77.2154 94.961 76.626 95.039L76.925 94.727V95.702C76.925 95.962 76.8384 96.1787 76.665 96.352C76.5004 96.5253 76.2837 96.612 76.015 96.612Z" fill="white"/>
<ellipse cx="113.998" cy="90" rx="9" ry="11" fill="#002255"/>
<path d="M114.015 96.22C113.764 96.22 113.551 96.1334 113.378 95.96C113.205 95.7867 113.118 95.57 113.118 95.31V94.348L113.508 94.699C112.927 94.673 112.425 94.5994 112 94.478C111.575 94.3567 111.229 94.2354 110.96 94.114C110.735 94.01 110.574 93.8627 110.479 93.672C110.392 93.4814 110.358 93.2864 110.375 93.087C110.401 92.8877 110.475 92.7057 110.596 92.541C110.717 92.3764 110.873 92.268 111.064 92.216C111.263 92.1554 111.493 92.1814 111.753 92.294C111.926 92.3894 112.186 92.489 112.533 92.593C112.888 92.6884 113.326 92.736 113.846 92.736C114.21 92.736 114.496 92.7014 114.704 92.632C114.921 92.5627 115.072 92.4717 115.159 92.359C115.254 92.2377 115.302 92.1077 115.302 91.969C115.302 91.839 115.267 91.7307 115.198 91.644C115.137 91.5487 115.033 91.4664 114.886 91.397C114.739 91.319 114.535 91.2497 114.275 91.189L112.806 90.877C112 90.695 111.398 90.3917 110.999 89.967C110.609 89.5337 110.414 88.9747 110.414 88.29C110.414 87.77 110.54 87.3064 110.791 86.899C111.051 86.483 111.411 86.145 111.87 85.885C112.338 85.625 112.884 85.4604 113.508 85.391L113.118 85.612V84.741C113.118 84.481 113.205 84.2644 113.378 84.091C113.551 83.9177 113.764 83.831 114.015 83.831C114.275 83.831 114.492 83.9177 114.665 84.091C114.838 84.2644 114.925 84.481 114.925 84.741V85.612L114.535 85.365C114.864 85.3737 115.22 85.43 115.601 85.534C115.982 85.6294 116.316 85.7637 116.602 85.937C116.801 86.041 116.94 86.184 117.018 86.366C117.105 86.548 117.135 86.7344 117.109 86.925C117.092 87.107 117.022 87.2717 116.901 87.419C116.788 87.5664 116.632 87.666 116.433 87.718C116.242 87.7614 116.013 87.7267 115.744 87.614C115.545 87.5274 115.319 87.458 115.068 87.406C114.825 87.3454 114.513 87.315 114.132 87.315C113.673 87.315 113.317 87.3974 113.066 87.562C112.823 87.7267 112.702 87.939 112.702 88.199C112.702 88.3724 112.771 88.5197 112.91 88.641C113.057 88.7537 113.322 88.8534 113.703 88.94L115.185 89.265C116.008 89.447 116.615 89.7504 117.005 90.175C117.404 90.591 117.603 91.1327 117.603 91.8C117.603 92.32 117.477 92.7794 117.226 93.178C116.975 93.5767 116.624 93.9017 116.173 94.153C115.731 94.4044 115.215 94.569 114.626 94.647L114.925 94.335V95.31C114.925 95.57 114.838 95.7867 114.665 95.96C114.5 96.1334 114.284 96.22 114.015 96.22Z" fill="white"/>
<ellipse cx="97.2514" cy="113.699" rx="5" ry="6" transform="rotate(87 97.2514 113.699)" fill="#002255"/>
<path d="M97.9807 132.583C93.5576 132.583 92.3574 132.057 92.2296 129.076C92.1017 126.095 94.3712 123.527 97.2986 123.339C100.226 123.152 102.703 125.416 102.831 128.397C102.958 131.378 102.404 132.583 97.9807 132.583Z" fill="#002255"/>
<path d="M97.9715 131.898C94.1675 131.963 93.1405 131.648 93.0599 129.768C92.9793 127.888 94.9563 126.232 97.4757 126.071C99.9952 125.91 102.103 127.303 102.184 129.184C102.264 131.064 101.775 131.833 97.9715 131.898Z" fill="#930E0E"/>
<path d="M59.9039 96.4556C57.0038 96.8125 56.2179 96.795 56.1396 96.1574C56.0613 95.5197 57.5541 94.7783 59.4738 94.5014C61.3935 94.2245 63.0132 94.5169 63.0915 95.1546C63.1698 95.7922 62.8039 96.0988 59.9039 96.4556Z" fill="#75EA73"/>
<path d="M61.0967 100.371C58.3342 101.323 57.5619 101.469 57.3527 100.862C57.1436 100.254 58.4496 99.2186 60.2697 98.5486C62.0899 97.8786 63.735 97.8279 63.9441 98.4353C64.1533 99.0427 63.8592 99.4187 61.0967 100.371Z" fill="#75EA73"/>
<path d="M65.293 104.224C62.8429 105.816 62.1289 106.144 61.779 105.606C61.4291 105.067 62.4458 103.746 64.0498 102.656C65.6538 101.565 67.2377 101.118 67.5876 101.657C67.9375 102.196 67.7431 102.632 65.293 104.224Z" fill="#75EA73"/>
<path d="M129.141 96.4556C132.041 96.8125 132.826 96.795 132.905 96.1574C132.983 95.5197 131.49 94.7783 129.571 94.5014C127.651 94.2245 126.031 94.5169 125.953 95.1546C125.875 95.7922 126.241 96.0988 129.141 96.4556Z" fill="#75EA73"/>
<path d="M127.948 100.371C130.71 101.323 131.483 101.469 131.692 100.862C131.901 100.254 130.595 99.2186 128.775 98.5486C126.955 97.8786 125.309 97.8279 125.1 98.4353C124.891 99.0427 125.185 99.4187 127.948 100.371Z" fill="#75EA73"/>
<path d="M123.751 104.224C126.202 105.816 126.916 106.144 127.265 105.606C127.615 105.067 126.599 103.746 124.995 102.656C123.391 101.565 121.807 101.118 121.457 101.657C121.107 102.196 121.301 102.632 123.751 104.224Z" fill="#75EA73"/>
<defs>
<filter id="filter0_f_1695_4712" x="6.05029" y="20.708" width="176.515" height="232.425" filterUnits="userSpaceOnUse" color-interpolation-filters="sRGB">
<feFlood flood-opacity="0" result="BackgroundImageFix"/>
<feBlend mode="normal" in="SourceGraphic" in2="BackgroundImageFix" result="shape"/>
<feGaussianBlur stdDeviation="2" result="effect1_foregroundBlur_1695_4712"/>
</filter>
</defs>
</svg>
