<svg width="192" height="252" viewBox="0 0 192 252" fill="none" xmlns="http://www.w3.org/2000/svg">
<mask id="mask0_1687_4279" style="mask-type:alpha" maskUnits="userSpaceOnUse" x="128" y="96" width="48" height="64">
<path d="M134.519 130.829C147.09 107.686 168.034 87.2488 174.59 100.34C181.146 113.432 163.169 142.421 146.733 154.714C130.297 167.006 121.947 153.973 134.519 130.829Z" fill="white"/>
</mask>
<g mask="url(#mask0_1687_4279)">
<path d="M134.519 130.829C147.09 107.686 168.034 87.2488 174.59 100.34C181.146 113.432 163.169 142.421 146.733 154.714C130.297 167.006 121.947 153.973 134.519 130.829Z" fill="white"/>
<path d="M164.418 100.212C175.772 89.0491 178.612 88.2044 178.613 89.1774" stroke="#F8F8F8" stroke-width="2" stroke-linecap="round"/>
<path d="M171.648 103.779C183.003 92.6156 185.843 91.7709 185.843 92.7439" stroke="#F8F8F8" stroke-width="2" stroke-linecap="round"/>
<path d="M170.241 99.9032C181.595 88.7403 184.435 87.8955 184.436 88.8686" stroke="#F8F8F8" stroke-width="2" stroke-linecap="round"/>
</g>
<mask id="mask1_1687_4279" style="mask-type:alpha" maskUnits="userSpaceOnUse" x="9" y="102" width="59" height="55">
<path d="M56.445 128.183C38.6481 108.769 13.3821 94.0057 10.1879 108.294C6.99374 122.583 31.4503 146.362 50.3719 154.313C69.2934 162.264 74.2418 147.598 56.445 128.183Z" fill="white"/>
</mask>
<g mask="url(#mask1_1687_4279)">
<path d="M56.445 128.183C38.6481 108.769 13.3821 94.0057 10.1879 108.294C6.99374 122.583 31.4503 146.362 50.3719 154.313C69.2934 162.264 74.2418 147.598 56.445 128.183Z" fill="white"/>
<path d="M20.0269 105.709C6.3092 97.6245 3.34939 97.4919 3.58418 98.4362" stroke="#F8F8F8" stroke-width="2" stroke-linecap="round"/>
<path d="M13.874 110.919C0.156371 102.834 -2.80345 102.702 -2.56865 103.646" stroke="#F8F8F8" stroke-width="2" stroke-linecap="round"/>
<path d="M14.3022 106.818C0.584594 98.7335 -2.37522 98.6009 -2.14043 99.5452" stroke="#F8F8F8" stroke-width="2" stroke-linecap="round"/>
</g>
<path d="M89.6736 244.277C89.6736 244.277 73.9326 247.772 63.0494 244.651C52.1661 241.53 50.9126 196.204 54.0333 185.321C57.154 174.437 66.6147 174.207 80.4691 183.901C94.3235 193.595 94.1184 236.032 89.6736 244.277Z" fill="white"/>
<path d="M105.262 243.277C105.262 243.277 121.003 246.772 131.887 243.651C142.77 240.53 144.023 195.204 140.903 184.321C137.782 173.437 128.321 173.207 114.467 182.901C100.613 192.595 100.818 235.032 105.262 243.277Z" fill="white"/>
<mask id="mask2_1687_4279" style="mask-type:alpha" maskUnits="userSpaceOnUse" x="45" y="115" width="105" height="105">
<path d="M137.998 206.011C117.306 224.353 82.3063 222.229 59.9979 207.392C37.6894 192.555 43.4358 135.758 57.7978 123.482C72.1597 111.205 122.676 113.242 135.16 124.744C147.644 136.245 158.69 187.67 137.998 206.011Z" fill="white"/>
</mask>
<g mask="url(#mask2_1687_4279)">
<path d="M144.313 206.011C123.621 224.353 73.6061 220.888 51.2977 206.052C28.9892 191.215 34.7356 134.417 49.0975 122.141C63.4594 109.865 128.991 113.242 141.475 124.744C153.959 136.245 165.006 187.67 144.313 206.011Z" fill="white"/>
<path d="M144.313 206.011C123.621 224.353 73.6061 220.888 51.2977 206.052C28.9892 191.215 34.7356 134.417 49.0975 122.141C63.4594 109.865 128.991 113.242 141.475 124.744C153.959 136.245 165.006 187.67 144.313 206.011Z" fill="#F8F8F8"/>
<path d="M140.312 207.011C119.62 225.352 69.6051 221.888 47.2967 207.051C24.9882 192.214 30.7346 135.417 45.0965 123.141C59.4585 110.865 124.99 114.242 137.474 125.743C149.958 137.245 161.005 188.67 140.312 207.011Z" fill="white"/>
<path d="M143.999 127.892C123.307 146.234 72.2916 149.269 49.9832 134.433C27.6747 119.596 33.4211 62.7982 47.783 50.5221C62.1449 38.246 127.677 41.6231 140.161 53.1247C152.645 64.6263 164.691 109.551 143.999 127.892Z" fill="#F8F8F8"/>
</g>
<path d="M142.615 128.619C121.922 146.96 71.9074 143.496 49.5989 128.659C27.2905 113.822 33.0369 57.0248 47.3988 44.7487C61.7607 32.4726 127.293 35.8497 139.777 47.3513C152.261 58.8529 163.307 110.278 142.615 128.619Z" fill="white"/>
<circle cx="47.998" cy="41.392" r="15" fill="white"/>
<circle cx="136.998" cy="39.392" r="15" fill="white"/>
<path d="M117.998 119.392C117.998 125.467 107.924 133.935 95.498 133.935C83.0716 133.935 72.998 125.467 72.998 119.392C72.998 113.317 83.0716 102.392 95.498 102.392C107.924 102.392 117.998 113.317 117.998 119.392Z" fill="#EBF3FF"/>
<path d="M57.498 39.392C57.498 42.6662 53.8493 50.892 47.498 50.892C41.1468 50.892 38.498 44.6662 38.498 41.392C38.498 38.1178 41.1468 32.2299 47.498 32.2299C53.8493 32.2299 57.498 36.1178 57.498 39.392Z" fill="#EBF3FF"/>
<path d="M139.809 48.8879C136.559 49.2869 127.95 46.6679 127.176 40.3639C126.402 34.06 132.258 30.6723 135.508 30.2733C138.758 29.8742 144.925 31.7857 145.699 38.0896C146.473 44.3935 143.059 48.4889 139.809 48.8879Z" fill="#EBF3FF"/>
<ellipse cx="74.998" cy="89.392" rx="9" ry="11" fill="#002255"/>
<path d="M75.015 95.612C74.7637 95.612 74.5514 95.5253 74.378 95.352C74.2047 95.1787 74.118 94.962 74.118 94.702V93.74L74.508 94.091C73.9274 94.065 73.4247 93.9913 73 93.87C72.5754 93.7487 72.2287 93.6273 71.96 93.506C71.7347 93.402 71.5744 93.2547 71.479 93.064C71.3924 92.8733 71.3577 92.6783 71.375 92.479C71.401 92.2797 71.4747 92.0977 71.596 91.933C71.7174 91.7683 71.8734 91.66 72.064 91.608C72.2634 91.5473 72.493 91.5733 72.753 91.686C72.9264 91.7813 73.1864 91.881 73.533 91.985C73.8884 92.0803 74.326 92.128 74.846 92.128C75.21 92.128 75.496 92.0933 75.704 92.024C75.9207 91.9547 76.0724 91.8637 76.159 91.751C76.2544 91.6297 76.302 91.4997 76.302 91.361C76.302 91.231 76.2674 91.1227 76.198 91.036C76.1374 90.9407 76.0334 90.8583 75.886 90.789C75.7387 90.711 75.535 90.6417 75.275 90.581L73.806 90.269C73 90.087 72.3977 89.7837 71.999 89.359C71.609 88.9257 71.414 88.3667 71.414 87.682C71.414 87.162 71.5397 86.6983 71.791 86.291C72.051 85.875 72.4107 85.537 72.87 85.277C73.338 85.017 73.884 84.8523 74.508 84.783L74.118 85.004V84.133C74.118 83.873 74.2047 83.6563 74.378 83.483C74.5514 83.3097 74.7637 83.223 75.015 83.223C75.275 83.223 75.4917 83.3097 75.665 83.483C75.8384 83.6563 75.925 83.873 75.925 84.133V85.004L75.535 84.757C75.8644 84.7657 76.2197 84.822 76.601 84.926C76.9824 85.0213 77.316 85.1557 77.602 85.329C77.8014 85.433 77.94 85.576 78.018 85.758C78.1047 85.94 78.135 86.1263 78.109 86.317C78.0917 86.499 78.0224 86.6637 77.901 86.811C77.7884 86.9583 77.6324 87.058 77.433 87.11C77.2424 87.1533 77.0127 87.1187 76.744 87.006C76.5447 86.9193 76.3194 86.85 76.068 86.798C75.8254 86.7373 75.5134 86.707 75.132 86.707C74.6727 86.707 74.3174 86.7893 74.066 86.954C73.8234 87.1187 73.702 87.331 73.702 87.591C73.702 87.7643 73.7714 87.9117 73.91 88.033C74.0574 88.1457 74.3217 88.2453 74.703 88.332L76.185 88.657C77.0084 88.839 77.615 89.1423 78.005 89.567C78.4037 89.983 78.603 90.5247 78.603 91.192C78.603 91.712 78.4774 92.1713 78.226 92.57C77.9747 92.9687 77.6237 93.2937 77.173 93.545C76.731 93.7963 76.2154 93.961 75.626 94.039L75.925 93.727V94.702C75.925 94.962 75.8384 95.1787 75.665 95.352C75.5004 95.5253 75.2837 95.612 75.015 95.612Z" fill="white"/>
<ellipse cx="112.998" cy="89" rx="9" ry="11" fill="#002255"/>
<path d="M113.015 95.22C112.764 95.22 112.551 95.1334 112.378 94.96C112.205 94.7867 112.118 94.57 112.118 94.31V93.348L112.508 93.699C111.927 93.673 111.425 93.5994 111 93.478C110.575 93.3567 110.229 93.2354 109.96 93.114C109.735 93.01 109.574 92.8627 109.479 92.672C109.392 92.4814 109.358 92.2864 109.375 92.087C109.401 91.8877 109.475 91.7057 109.596 91.541C109.717 91.3764 109.873 91.268 110.064 91.216C110.263 91.1554 110.493 91.1814 110.753 91.294C110.926 91.3894 111.186 91.489 111.533 91.593C111.888 91.6884 112.326 91.736 112.846 91.736C113.21 91.736 113.496 91.7014 113.704 91.632C113.921 91.5627 114.072 91.4717 114.159 91.359C114.254 91.2377 114.302 91.1077 114.302 90.969C114.302 90.839 114.267 90.7307 114.198 90.644C114.137 90.5487 114.033 90.4664 113.886 90.397C113.739 90.319 113.535 90.2497 113.275 90.189L111.806 89.877C111 89.695 110.398 89.3917 109.999 88.967C109.609 88.5337 109.414 87.9747 109.414 87.29C109.414 86.77 109.54 86.3064 109.791 85.899C110.051 85.483 110.411 85.145 110.87 84.885C111.338 84.625 111.884 84.4604 112.508 84.391L112.118 84.612V83.741C112.118 83.481 112.205 83.2644 112.378 83.091C112.551 82.9177 112.764 82.831 113.015 82.831C113.275 82.831 113.492 82.9177 113.665 83.091C113.838 83.2644 113.925 83.481 113.925 83.741V84.612L113.535 84.365C113.864 84.3737 114.22 84.43 114.601 84.534C114.982 84.6294 115.316 84.7637 115.602 84.937C115.801 85.041 115.94 85.184 116.018 85.366C116.105 85.548 116.135 85.7344 116.109 85.925C116.092 86.107 116.022 86.2717 115.901 86.419C115.788 86.5664 115.632 86.666 115.433 86.718C115.242 86.7614 115.013 86.7267 114.744 86.614C114.545 86.5274 114.319 86.458 114.068 86.406C113.825 86.3454 113.513 86.315 113.132 86.315C112.673 86.315 112.317 86.3974 112.066 86.562C111.823 86.7267 111.702 86.939 111.702 87.199C111.702 87.3724 111.771 87.5197 111.91 87.641C112.057 87.7537 112.322 87.8534 112.703 87.94L114.185 88.265C115.008 88.447 115.615 88.7504 116.005 89.175C116.404 89.591 116.603 90.1327 116.603 90.8C116.603 91.32 116.477 91.7794 116.226 92.178C115.975 92.5767 115.624 92.9017 115.173 93.153C114.731 93.4044 114.215 93.569 113.626 93.647L113.925 93.335V94.31C113.925 94.57 113.838 94.7867 113.665 94.96C113.5 95.1334 113.284 95.22 113.015 95.22Z" fill="white"/>
<ellipse cx="96.2514" cy="112.699" rx="5" ry="6" transform="rotate(87 96.2514 112.699)" fill="#002255"/>
<path d="M96.9807 131.583C92.5576 131.583 91.3574 131.057 91.2296 128.076C91.1017 125.095 93.3712 122.527 96.2986 122.339C99.226 122.152 101.703 124.416 101.831 127.397C101.958 130.378 101.404 131.583 96.9807 131.583Z" fill="#002255"/>
<path d="M96.9715 130.898C93.1675 130.963 92.1405 130.648 92.0599 128.768C91.9793 126.888 93.9563 125.232 96.4757 125.071C98.9952 124.91 101.103 126.303 101.184 128.184C101.264 130.064 100.775 130.833 96.9715 130.898Z" fill="#930E0E"/>
<path d="M58.9039 95.4556C56.0038 95.8125 55.2179 95.795 55.1396 95.1574C55.0613 94.5197 56.5541 93.7783 58.4738 93.5014C60.3935 93.2245 62.0132 93.5169 62.0915 94.1546C62.1698 94.7922 61.8039 95.0988 58.9039 95.4556Z" fill="#75EA73"/>
<path d="M60.0967 99.3707C57.3342 100.323 56.5619 100.469 56.3527 99.8616C56.1436 99.2541 57.4496 98.2186 59.2697 97.5486C61.0899 96.8786 62.735 96.8279 62.9441 97.4353C63.1533 98.0427 62.8592 98.4187 60.0967 99.3707Z" fill="#75EA73"/>
<path d="M64.293 103.224C61.8429 104.816 61.1289 105.144 60.779 104.606C60.4291 104.067 61.4458 102.746 63.0498 101.656C64.6538 100.565 66.2377 100.118 66.5876 100.657C66.9375 101.196 66.7431 101.632 64.293 103.224Z" fill="#75EA73"/>
<path d="M128.141 95.4556C131.041 95.8125 131.826 95.795 131.905 95.1574C131.983 94.5197 130.49 93.7783 128.571 93.5014C126.651 93.2245 125.031 93.5169 124.953 94.1546C124.875 94.7922 125.241 95.0988 128.141 95.4556Z" fill="#75EA73"/>
<path d="M126.948 99.3707C129.71 100.323 130.483 100.469 130.692 99.8616C130.901 99.2541 129.595 98.2186 127.775 97.5486C125.955 96.8786 124.309 96.8279 124.1 97.4353C123.891 98.0427 124.185 98.4187 126.948 99.3707Z" fill="#75EA73"/>
<path d="M122.751 103.224C125.202 104.816 125.916 105.144 126.265 104.606C126.615 104.067 125.599 102.746 123.995 101.656C122.391 100.565 120.807 100.118 120.457 100.657C120.107 101.196 120.301 101.632 122.751 103.224Z" fill="#75EA73"/>
</svg>
