<svg width="78" height="122" viewBox="0 0 78 122" fill="none" xmlns="http://www.w3.org/2000/svg">
<path d="M69.0672 73.2617C70.9532 70.3772 72.3124 59.4631 74.2815 42.6414C77.6098 42.6414 76.7221 32.5442 74.2815 29.3285C67.1233 19.8967 69.0763 16.5827 63.9636 12.3525C59.4409 8.61045 55.7539 9.95091 52.9805 10.3572C44.7705 9.46795 31.1245 -0.738625 29.1276 1.25838C27.1306 3.25538 11.3765 15.0152 11.3765 15.0152C7.83497 16.1381 6.32456 17.5488 4.6092 21.6731C2.79243 25.1077 2.18043 26.8756 4.6092 28.6625C1.63508 50.5178 -0.050415 58.2844 1.72468 63.7206C1.94653 64.4 3.13532 65.1037 5.04959 65.8093C5.84277 71.8274 8.38605 77.641 9.19102 76.8107C6.07721 86.5812 3.05489 101.433 3.49966 104.547C4.16532 109.206 40 113.311 43.3283 112.645C45.5668 112.198 49.1603 97.7483 50.261 86.1399C50.261 86.1399 56.1767 80.5768 59.8057 73.8388C65.0846 74.0601 68.6425 73.9113 69.0672 73.2617Z" fill="white"/>
<path d="M74.2815 42.6414C72.3124 59.4631 70.9532 70.3772 69.0672 73.2617C68.4065 74.2723 60.162 74.071 49.652 73.1492M74.2815 42.6414C68.744 41.2487 61.7543 38.0803 54.2008 34.5582M74.2815 42.6414C77.6098 42.6414 76.7221 32.5442 74.2815 29.3285M4.6092 28.6626C1.63508 50.5178 -0.0504145 58.2844 1.72468 63.7206C2.18608 65.1337 6.83022 66.6517 13.4846 68.0739M4.6092 28.6626C2.18043 26.8756 2.79243 25.1077 4.6092 21.6731M4.6092 28.6626C10.1482 27.8267 14.6319 27.2984 18.699 27.0217M4.6092 21.6731C13.4888 18.2556 26.0455 22.1211 38.6688 27.4907M4.6092 21.6731C6.32456 17.5488 7.83496 16.1381 11.3765 15.0152M38.6688 27.4907C43.9213 29.7249 49.1853 32.2195 54.2008 34.5582M38.6688 27.4907C31.1744 26.8017 25.5233 26.5575 18.699 27.0217M54.2008 34.5582C50.3974 33.9772 47.0149 34.9968 40.0001 37.8711C32.8384 30.4119 28.3336 27.5914 18.699 27.0217M74.2815 29.3285C67.1233 19.8967 69.0763 16.5827 63.9636 12.3525C59.4409 8.61045 55.7539 9.95091 52.9805 10.3572M74.2815 29.3285C63.409 32.1004 24.3569 14.1276 11.3765 15.0152M52.9805 10.3572C51.3929 10.5898 41.886 12.3525 31.0136 10.3406C20.1411 8.32864 15.6423 11.988 11.3765 15.0152M52.9805 10.3572C44.7705 9.46795 31.1245 -0.738625 29.1276 1.25838C27.1306 3.25538 11.3765 15.0152 11.3765 15.0152M49.652 73.1492C37.9592 72.1237 23.4622 70.2065 13.4846 68.0739M49.652 73.1492C49.9118 73.7121 50.1128 74.4236 50.261 75.2575M13.4846 68.0739C13.0747 68.1732 12.6174 68.6736 12.1303 69.4885M50.261 75.2575C58.5576 74.8575 55.3148 48.9476 61.2951 59.5437C67.2754 70.1398 50.261 86.1399 50.261 86.1399M50.261 75.2575C50.7345 77.922 50.6691 81.8357 50.261 86.1399M50.261 86.1399C49.1603 97.7483 45.5668 112.198 43.3283 112.645C40 113.311 4.16532 109.206 3.49966 104.547C3.05489 101.433 6.07721 86.5812 9.19102 76.8107M12.1303 69.4885C7.95915 63.6543 21.1315 52.2431 10.3326 53.6472C-0.466198 55.0513 7.6302 78.4207 9.19102 76.8107M12.1303 69.4885C11.2173 71.0155 10.1994 73.6467 9.19102 76.8107" stroke="#F2F2F2" stroke-width="2"/>
<path d="M69.0672 73.2617C70.9532 70.3772 72.3124 59.4631 74.2815 42.6414C77.6098 42.6414 76.7221 32.5442 74.2815 29.3285C67.1233 19.8967 69.0763 16.5827 63.9636 12.3525C59.4409 8.61045 55.7539 9.95091 52.9805 10.3572C44.7705 9.46795 31.1245 -0.738625 29.1276 1.25838C27.1306 3.25538 11.3765 15.0152 11.3765 15.0152C7.83497 16.1381 6.32456 17.5488 4.6092 21.6731C2.79243 25.1077 2.18043 26.8756 4.6092 28.6625C1.63508 50.5178 -0.050415 58.2844 1.72468 63.7206C1.94653 64.4 3.13532 65.1037 5.04959 65.8093C5.84277 71.8274 8.38605 77.641 9.19102 76.8107C6.07721 86.5812 3.05489 101.433 3.49966 104.547C4.16532 109.206 40 113.311 43.3283 112.645C45.5668 112.198 49.1603 97.7483 50.261 86.1399C50.261 86.1399 56.1767 80.5768 59.8057 73.8388C65.0846 74.0601 68.6425 73.9113 69.0672 73.2617Z" fill="white"/>
<path d="M74.2815 42.6414C72.3124 59.4631 70.9532 70.3772 69.0672 73.2617C68.4065 74.2723 60.162 74.071 49.652 73.1492M74.2815 42.6414C68.744 41.2487 61.7543 38.0803 54.2008 34.5582M74.2815 42.6414C77.6098 42.6414 76.7221 32.5442 74.2815 29.3285M4.6092 28.6626C1.63508 50.5178 -0.0504145 58.2844 1.72468 63.7206C2.18608 65.1337 6.83022 66.6517 13.4846 68.0739M4.6092 28.6626C2.18043 26.8756 2.79243 25.1077 4.6092 21.6731M4.6092 28.6626C10.1482 27.8267 14.6319 27.2984 18.699 27.0217M4.6092 21.6731C13.4888 18.2556 26.0455 22.1211 38.6688 27.4907M4.6092 21.6731C6.32456 17.5488 7.83496 16.1381 11.3765 15.0152M38.6688 27.4907C43.9213 29.7249 49.1853 32.2195 54.2008 34.5582M38.6688 27.4907C31.1744 26.8017 25.5233 26.5575 18.699 27.0217M54.2008 34.5582C50.3974 33.9772 47.0149 34.9968 40.0001 37.8711C32.8384 30.4119 28.3336 27.5914 18.699 27.0217M74.2815 29.3285C67.1233 19.8967 69.0763 16.5827 63.9636 12.3525C59.4409 8.61045 55.7539 9.95091 52.9805 10.3572M74.2815 29.3285C63.409 32.1004 24.3569 14.1276 11.3765 15.0152M52.9805 10.3572C51.3929 10.5898 41.886 12.3525 31.0136 10.3406C20.1411 8.32864 15.6423 11.988 11.3765 15.0152M52.9805 10.3572C44.7705 9.46795 31.1245 -0.738625 29.1276 1.25838C27.1306 3.25538 11.3765 15.0152 11.3765 15.0152M49.652 73.1492C37.9592 72.1237 23.4622 70.2065 13.4846 68.0739M49.652 73.1492C49.9118 73.7121 50.1128 74.4236 50.261 75.2575M13.4846 68.0739C13.0747 68.1732 12.6174 68.6736 12.1303 69.4885M50.261 75.2575C58.5576 74.8575 55.3148 48.9476 61.2951 59.5437C67.2754 70.1398 50.261 86.1399 50.261 86.1399M50.261 75.2575C50.7345 77.922 50.6691 81.8357 50.261 86.1399M50.261 86.1399C49.1603 97.7483 45.5668 112.198 43.3283 112.645C40 113.311 4.16532 109.206 3.49966 104.547C3.05489 101.433 6.07721 86.5812 9.19102 76.8107M12.1303 69.4885C7.95915 63.6543 21.1315 52.2431 10.3326 53.6472C-0.466198 55.0513 7.6302 78.4207 9.19102 76.8107M12.1303 69.4885C11.2173 71.0155 10.1994 73.6467 9.19102 76.8107" stroke="white" stroke-width="2"/>
<path d="M69.0672 73.2617C70.9532 70.3772 72.3124 59.4631 74.2815 42.6414C77.6098 42.6414 76.7221 32.5442 74.2815 29.3285C67.1233 19.8967 69.0763 16.5827 63.9636 12.3525C59.4409 8.61045 55.7539 9.95091 52.9804 10.3572C44.7705 9.46795 31.1245 -0.738625 29.1275 1.25838C27.1306 3.25538 11.3765 15.0152 11.3765 15.0152C7.83495 16.1381 6.32455 17.5488 4.60919 21.6731C2.79242 25.1077 2.18042 26.8756 4.60919 28.6625C1.63507 50.5178 -0.0504227 58.2844 1.72467 63.7206C1.94652 64.4 3.13531 65.1037 5.04958 65.8093C5.84277 71.8274 8.38605 77.641 9.19102 76.8107C6.07721 86.5812 3.05489 101.433 3.49966 104.547C4.16531 109.206 40 113.311 43.3283 112.645C45.5668 112.198 49.1603 97.7483 50.261 86.1399C50.261 86.1399 56.1767 80.5768 59.8057 73.8388C65.0846 74.0602 68.6425 73.9113 69.0672 73.2617Z" fill="white"/>
<path d="M74.2815 42.6414C72.3124 59.4631 70.9532 70.3772 69.0672 73.2617C68.4065 74.2723 60.162 74.071 49.652 73.1492M74.2815 42.6414C68.744 41.2487 61.7543 38.0803 54.2008 34.5582M74.2815 42.6414C77.6098 42.6414 76.7221 32.5442 74.2815 29.3285M4.60919 28.6625C1.63507 50.5178 -0.0504228 58.2844 1.72467 63.7206C2.18607 65.1337 6.83021 66.6517 13.4846 68.0739M4.60919 28.6625C2.18042 26.8756 2.79242 25.1077 4.60919 21.6731M4.60919 28.6625C10.1482 27.8267 14.6319 27.2984 18.699 27.0217M4.60919 21.6731C13.4888 18.2556 26.0454 22.1211 38.6688 27.4907M4.60919 21.6731C6.32455 17.5488 7.83495 16.1381 11.3765 15.0152M38.6688 27.4907C43.9213 29.7249 49.1853 32.2195 54.2008 34.5582M38.6688 27.4907C31.1744 26.8017 25.5233 26.5575 18.699 27.0217M54.2008 34.5582C50.3974 33.9772 47.0149 34.9968 40.0001 37.8711C32.8384 30.4119 28.3335 27.5914 18.699 27.0217M74.2815 29.3285C67.1233 19.8967 69.0763 16.5827 63.9636 12.3525C59.4409 8.61045 55.7539 9.95091 52.9804 10.3572M74.2815 29.3285C63.409 32.1004 24.3569 14.1276 11.3765 15.0152M52.9804 10.3572C51.3929 10.5898 41.886 12.3525 31.0136 10.3406C20.1411 8.32864 15.6423 11.988 11.3765 15.0152M52.9804 10.3572C44.7705 9.46795 31.1245 -0.738625 29.1275 1.25838C27.1306 3.25538 11.3765 15.0152 11.3765 15.0152M49.652 73.1492C37.9592 72.1237 23.4622 70.2065 13.4846 68.0739M49.652 73.1492C49.9118 73.7121 50.1128 74.4236 50.261 75.2575M13.4846 68.0739C13.0746 68.1732 12.6174 68.6736 12.1303 69.4885M50.261 75.2575C58.5576 74.8575 55.3148 48.9476 61.2951 59.5437C67.2754 70.1398 50.261 86.1399 50.261 86.1399M50.261 75.2575C50.7345 77.922 50.6691 81.8356 50.261 86.1399M50.261 86.1399C49.1603 97.7483 45.5668 112.198 43.3283 112.645C40 113.311 4.16532 109.206 3.49966 104.547C3.05489 101.433 6.07721 86.5812 9.19102 76.8107M12.1303 69.4885C7.95914 63.6543 21.1315 52.2431 10.3326 53.6472C-0.466207 55.0513 7.63019 78.4207 9.19102 76.8107M12.1303 69.4885C11.2173 71.0155 10.1994 73.6467 9.19102 76.8107" stroke="#D9D9D9"/>
<path d="M4.60919 21.6731C2.79242 25.1077 2.18042 26.8756 4.60919 28.6626C10.1482 27.8267 14.6319 27.2984 18.699 27.0217C28.3335 27.5914 32.8384 30.4119 40.0001 37.8711C47.0149 34.9968 50.3974 33.9772 54.2008 34.5582C61.7543 38.0803 68.744 41.2487 74.2815 42.6414C77.6098 42.6414 76.7221 32.5442 74.2815 29.3285C67.1233 19.8967 69.0763 16.5827 63.9636 12.3525C59.4409 8.61045 55.7539 9.95092 52.9804 10.3572C44.7705 9.46795 31.1245 -0.738625 29.1275 1.25838C27.1306 3.25538 11.3765 15.0152 11.3765 15.0152C7.83495 16.1381 6.32455 17.5488 4.60919 21.6731Z" fill="#202020"/>
<path d="M4.60919 21.6731C2.79242 25.1077 2.18042 26.8756 4.60919 28.6626C10.1482 27.8267 14.6319 27.2984 18.699 27.0217M4.60919 21.6731C13.4888 18.2556 26.0454 22.1211 38.6688 27.4907M4.60919 21.6731C6.32455 17.5488 7.83495 16.1381 11.3765 15.0152M38.6688 27.4907C43.9213 29.7249 49.1853 32.2195 54.2008 34.5582M38.6688 27.4907C31.1744 26.8017 25.5232 26.5575 18.699 27.0217M54.2008 34.5582C61.7543 38.0803 68.744 41.2487 74.2815 42.6414C77.6098 42.6414 76.7221 32.5442 74.2815 29.3285M54.2008 34.5582C50.3974 33.9772 47.0149 34.9968 40.0001 37.8711C32.8384 30.4119 28.3335 27.5914 18.699 27.0217M74.2815 29.3285C67.1233 19.8967 69.0763 16.5827 63.9636 12.3525C59.4409 8.61045 55.7539 9.95092 52.9804 10.3572M74.2815 29.3285C63.409 32.1004 24.3569 14.1276 11.3765 15.0152M52.9804 10.3572C51.3929 10.5898 41.886 12.3525 31.0136 10.3406C20.1411 8.32864 15.6423 11.988 11.3765 15.0152M52.9804 10.3572C44.7705 9.46795 31.1245 -0.738625 29.1275 1.25838C27.1306 3.25538 11.3765 15.0152 11.3765 15.0152" stroke="#727272" stroke-width="2"/>
<path d="M53.2023 48.5202C47.1258 47.5623 46.7676 59.2958 51.76 60.1692C56.7524 61.0426 59.2787 49.478 53.2023 48.5202Z" fill="#002255" stroke="#F2F2F2" stroke-width="2"/>
<path d="M22.2403 42.8068C16.1639 41.8489 15.8056 53.5825 20.7981 54.4558C25.7905 55.3292 28.3168 43.7647 22.2403 42.8068Z" fill="#002255" stroke="#F2F2F2" stroke-width="2"/>
<path d="M40.1108 115.863C40.3327 112.867 27.6852 112.313 30.3478 118.304C33.0105 124.295 39.889 118.858 40.1108 115.863Z" fill="white" stroke="#F2F2F2" stroke-width="2"/>
<path d="M6.32204 111.15C6.72779 108.173 19.2143 110.26 15.3642 115.567C11.5142 120.873 5.91628 114.126 6.32204 111.15Z" fill="white" stroke="#F2F2F2" stroke-width="2"/>
</svg>
