<svg width="352" height="342" viewBox="0 0 352 342" fill="none" xmlns="http://www.w3.org/2000/svg">
<path d="M185.405 102.257C169.721 113.401 153.107 123.833 133.94 128.488C115.149 133.078 93.6689 131.342 72.3917 126.797C58.4968 123.87 46.5531 122.182 37.0837 130.445C27.6584 138.319 21.9285 150.46 20.7418 165.071C19.2133 190.383 42.5716 219.13 62.804 236.611C93.2479 262.947 132.661 268.173 163.081 268.282C198.212 268.393 230.672 259.865 260.291 247.218C286.247 236.124 303.2 211.664 307.742 176.781C311.911 144.748 299.956 104.646 274.41 77.9794C267.09 69.9284 258.171 64.3055 249.328 62.1668C227.413 57.9537 214.89 80.0554 201.085 90.5507C195.952 94.4398 190.745 98.4223 185.405 102.257Z" fill="#EBF3FF"/>
<mask id="mask0_1877_4205" style="mask-type:alpha" maskUnits="userSpaceOnUse" x="185" y="122" width="76" height="44">
<path d="M205.891 136.131C230.74 123.201 261.361 117.637 259.356 133.08C257.35 148.522 224.258 163.391 202.455 164.455C180.653 165.518 181.042 149.06 205.891 136.131Z" fill="white" stroke="#D1D1D1" stroke-width="1.5" stroke-linecap="round"/>
</mask>
<g mask="url(#mask0_1877_4205)">
<path d="M205.891 136.131C230.74 123.201 261.361 117.637 259.356 133.08C257.35 148.522 224.258 163.391 202.455 164.455C180.653 165.518 181.042 149.06 205.891 136.131Z" fill="white" stroke="#D1D1D1" stroke-width="1.5" stroke-linecap="round"/>
<path d="M250.463 126.917C267.113 123.827 270.12 124.771 269.542 125.629" stroke="#D1D1D1" stroke-width="1.5" stroke-linecap="round"/>
<path d="M254.717 134.362C271.368 131.272 274.374 132.216 273.796 133.074" stroke="#D1D1D1" stroke-width="1.5" stroke-linecap="round"/>
<path d="M255.781 130.107C272.431 127.018 275.438 127.962 274.859 128.82" stroke="#D1D1D1" stroke-width="1.5" stroke-linecap="round"/>
</g>
<mask id="mask1_1877_4205" style="mask-type:alpha" maskUnits="userSpaceOnUse" x="58" y="138" width="78" height="38">
<path d="M106.071 139.895C78.4441 144.523 50.6405 158.508 61.5354 169.634C72.4303 180.76 107.807 172.72 125.86 160.448C143.913 148.176 133.697 135.267 106.071 139.895Z" fill="white" stroke="#D1D1D1" stroke-width="1.5" stroke-linecap="round"/>
</mask>
<g mask="url(#mask1_1877_4205)">
<path d="M106.071 139.895C78.4441 144.523 50.6405 158.508 61.5354 169.634C72.4303 180.76 107.807 172.72 125.86 160.448C143.913 148.176 133.697 135.267 106.071 139.895Z" fill="white" stroke="#D1D1D1" stroke-width="1.5" stroke-linecap="round"/>
<path d="M64.9287 159.361C49.7715 166.913 47.9388 169.477 48.917 169.814" stroke="#D1D1D1" stroke-width="1.5" stroke-linecap="round"/>
<path d="M66.0117 167.866C50.8546 175.419 49.0218 177.983 50 178.32" stroke="#D1D1D1" stroke-width="1.5" stroke-linecap="round"/>
<path d="M62.6021 165.109C47.4449 172.662 45.6121 175.225 46.5904 175.563" stroke="#D1D1D1" stroke-width="1.5" stroke-linecap="round"/>
</g>
<path d="M155.091 256.327C154.546 258.796 152.425 260.466 149.79 260.861C144.024 261.726 133.958 262.679 126.288 260.48C125.074 260.131 123.914 259.17 122.828 257.587C121.745 256.009 120.784 253.881 119.945 251.334C118.269 246.242 117.128 239.604 116.448 232.673C115.768 225.748 115.552 218.564 115.712 212.395C115.873 206.203 116.411 201.102 117.213 198.306C118.016 195.504 119.209 193.455 120.717 192.086C122.216 190.725 124.074 189.989 126.303 189.887C130.818 189.679 136.843 192.072 144.178 197.204C147.265 199.364 149.725 203.196 151.612 208.063C153.493 212.915 154.772 218.714 155.551 224.7C157.11 236.684 156.646 249.284 155.091 256.327Z" fill="white" stroke="#D1D1D1" stroke-width="1.5"/>
<path d="M170.283 255.263C170.829 257.733 172.95 259.402 175.585 259.798C181.35 260.663 191.417 261.615 199.087 259.416C200.301 259.068 201.46 258.106 202.547 256.523C203.629 254.945 204.591 252.818 205.429 250.27C207.106 245.178 208.247 238.541 208.927 231.609C209.606 224.684 209.823 217.501 209.663 211.331C209.502 205.14 208.963 200.038 208.162 197.242C207.358 194.44 206.166 192.392 204.657 191.022C203.159 189.661 201.301 188.926 199.071 188.823C194.557 188.616 188.532 191.008 181.197 196.141C178.109 198.301 175.649 202.133 173.762 206.999C171.881 211.852 170.602 217.65 169.824 223.636C168.265 235.62 168.729 248.221 170.283 255.263Z" fill="white" stroke="#D1D1D1" stroke-width="1.5"/>
<mask id="mask2_1877_4205" style="mask-type:alpha" maskUnits="userSpaceOnUse" x="107" y="123" width="112" height="112">
<path d="M205.296 219.544C194.463 229.146 179.849 233.42 164.964 233.322C150.079 233.224 134.986 228.753 123.251 220.949C117.516 217.135 113.525 210.58 111.029 202.585C108.535 194.597 107.556 185.244 107.79 175.949C108.025 166.656 109.47 157.456 111.799 149.781C114.137 142.076 117.331 136.022 120.983 132.9C124.654 129.763 130.721 127.481 138.073 126.047C145.4 124.618 153.907 124.049 162.365 124.267C170.823 124.486 179.208 125.49 186.29 127.195C193.402 128.907 199.093 131.299 202.267 134.224C205.454 137.16 208.628 142.737 211.239 149.853C213.841 156.945 215.854 165.477 216.77 174.239C217.687 183.002 217.505 191.966 215.741 199.928C213.977 207.894 210.641 214.806 205.296 219.544Z" fill="white" stroke="#D1D1D1" stroke-width="1.5"/>
</mask>
<g mask="url(#mask2_1877_4205)">
<path d="M208.479 202.326C199.798 209.974 184.571 212.932 169.042 212.266C153.532 211.601 137.98 207.333 128.758 200.806C124.216 197.591 120.635 192.499 118.02 186.446C115.408 180.398 113.78 173.437 113.115 166.549C112.451 159.659 112.752 152.873 113.975 147.178C115.204 141.459 117.338 136.952 120.243 134.487C121.681 133.267 123.822 132.217 126.546 131.352C129.261 130.491 132.508 129.828 136.118 129.353C143.337 128.405 151.947 128.219 160.532 128.679C169.115 129.138 177.648 130.241 184.71 131.858C188.241 132.667 191.392 133.601 193.992 134.642C196.602 135.686 198.609 136.82 199.893 138.003C202.562 140.463 205.544 144.757 208.237 150.105C210.924 155.441 213.298 161.775 214.778 168.275C217.752 181.346 217.05 194.775 208.479 202.326Z" fill="white" stroke="#D1D1D1" stroke-width="1.5"/>
<path opacity="0.1" d="M206.061 206.988C187.944 222.938 143.42 219.098 123.357 205.595C103.294 192.092 107.532 141.802 120.113 131.133C132.694 120.465 191.013 124.467 202.29 134.86C213.566 145.254 224.177 191.037 206.061 206.988Z" fill="#F8F8F8"/>
<path d="M107.631 181.231L107.63 181.214L107.629 181.197C106.7 172.14 108.454 163.26 111.248 156.143C112.644 152.587 114.295 149.484 115.989 147.031C117.69 144.567 119.402 142.802 120.905 141.87C122.097 141.13 124.137 140.403 126.891 139.733C129.626 139.069 132.998 138.475 136.805 137.975C144.42 136.975 153.733 136.351 163.085 136.257C172.44 136.164 181.811 136.601 189.546 137.717C193.415 138.274 196.856 138.999 199.674 139.905C202.507 140.815 204.643 141.886 205.96 143.099C208.691 145.615 211.183 150.189 213.095 156.038C215.001 161.865 216.304 168.871 216.714 176.163C217.536 190.786 214.76 206.353 206.296 215.872C202.106 220.585 195.516 223.831 187.723 225.836C179.94 227.838 171.032 228.582 162.293 228.351C153.556 228.12 145.019 226.913 137.985 225.031C130.912 223.139 125.491 220.598 122.851 217.785C117.273 211.842 113.772 207.585 111.506 202.403C109.24 197.219 108.182 191.046 107.631 181.231Z" fill="white" stroke="#D1D1D1" stroke-width="1.5"/>
<path d="M212.176 137.021C190.168 156.528 135.911 159.757 112.185 143.977C88.4582 128.197 94.5699 67.7896 109.845 54.7332C125.119 41.6769 194.816 45.2687 208.094 57.5013C221.371 69.7338 234.183 117.514 212.176 137.021Z" fill="#E3E3E3"/>
</g>
<path d="M210.206 137.233C199.415 146.797 180.851 150.752 161.902 150.298C142.972 149.845 123.897 144.997 112.191 137.212C106.456 133.398 102.465 126.843 99.9686 118.848C97.4745 110.86 96.496 101.507 96.7303 92.2122C96.9645 82.9193 98.41 73.7188 100.739 66.044C103.076 58.3394 106.27 52.2853 109.923 49.1629C111.729 47.6195 114.387 46.2856 117.735 45.1732C121.075 44.0636 125.057 43.1889 129.473 42.539C138.306 41.2392 148.817 40.8467 159.281 41.2429C169.744 41.6392 180.134 42.823 188.723 44.665C193.018 45.586 196.848 46.6687 200.007 47.8936C203.176 49.1227 205.617 50.4756 207.177 51.9124C210.364 54.8487 213.537 60.4253 216.149 67.5418C218.751 74.6336 220.763 83.1659 221.68 91.9275C222.597 100.691 222.415 109.654 220.651 117.617C218.886 125.583 215.551 132.494 210.206 137.233Z" fill="white" stroke="#D1D1D1" stroke-width="1.5"/>
<circle cx="110.073" cy="45.0229" r="15.2034" fill="white" stroke="#D1D1D1" stroke-width="1.5"/>
<circle cx="204.73" cy="42.8958" r="15.2034" fill="white" stroke="#D1D1D1" stroke-width="1.5"/>
<path d="M207.719 52.9951C204.263 53.4194 195.106 50.6339 194.283 43.9293C193.46 37.2247 199.689 33.6217 203.145 33.1973C206.601 32.7729 213.16 34.8058 213.983 41.5104C214.807 48.215 211.175 52.5707 207.719 52.9951Z" fill="#EBF3FF"/>
<path d="M181.227 55.1463C181.76 59.7806 194.29 69.7022 205.239 68.4426C216.188 67.183 211.111 60.0273 210.047 55.2413C207.441 55.5412 202.409 58.1507 198.376 55.3147C193.419 51.8285 193.03 45.6692 190.903 45.6692C180.268 44.6056 180.694 50.5119 181.227 55.1463Z" fill="white"/>
<path d="M120.177 42.8959C120.177 46.3782 116.296 55.1268 109.541 55.1268C102.786 55.1268 99.9692 48.5053 99.9692 45.023C99.9692 41.5407 102.786 35.2786 109.541 35.2786C116.296 35.2786 120.177 39.4136 120.177 42.8959Z" fill="#EBF3FF"/>
<path d="M134.004 52.0506C134.004 56.7155 122.69 68.0039 111.669 68.0039C100.648 68.0039 103.16 62.6862 104.224 57.9001C106.847 57.9001 113.304 57.456 116.986 54.1778C121.512 50.1478 122.304 44.0742 124.431 44.0741C135.067 43.0106 134.004 47.3857 134.004 52.0506Z" fill="white"/>
<path d="M184.522 127.98C184.522 134.442 173.808 143.448 160.592 143.448C147.376 143.448 136.662 134.442 136.662 127.98C136.662 121.519 147.376 109.9 160.592 109.9C173.808 109.9 184.522 121.519 184.522 127.98Z" fill="#EBF3FF"/>
<path d="M148.361 126.917C149.425 139.679 160.592 133.298 160.592 133.298" stroke="#002255" stroke-width="1.5" stroke-linecap="round"/>
<path d="M173.355 126.917C172.291 139.679 161.124 133.298 161.124 133.298" stroke="#002255" stroke-width="1.5" stroke-linecap="round"/>
<ellipse cx="138.789" cy="96.0736" rx="9.57202" ry="11.6991" fill="#002255"/>
<ellipse cx="138.789" cy="88.0969" rx="3.19067" ry="2.65889" fill="white"/>
<ellipse cx="161.394" cy="120.862" rx="5.31779" ry="6.38135" transform="rotate(87 161.394 120.862)" fill="#002255"/>
<ellipse cx="182.395" cy="95.0102" rx="9.57202" ry="11.6991" fill="#002255"/>
<ellipse cx="182.395" cy="87.0334" rx="3.19067" ry="2.65889" fill="white"/>
<rect x="217.666" y="178.623" width="26.5889" height="32.9703" rx="3" transform="rotate(4 217.666 178.623)" fill="#494949"/>
<path d="M218.016 181.906C216.647 179.781 219.829 177.758 222.343 178.022L242.266 180.116C244.018 180.3 245.289 181.87 245.105 183.623C245.043 184.212 244.526 184.646 243.935 184.603C239.176 184.252 219.954 182.811 218.557 182.345C218.327 182.268 218.15 182.114 218.016 181.906Z" fill="#595959"/>
<path d="M111.137 138.084C121.736 135.717 167.505 175.309 219.086 183.818C219.086 183.818 221.748 183.286 219.086 193.39C216.424 203.494 99.4356 142.339 99.9691 140.743C100.503 139.147 100.538 140.451 111.137 138.084Z" fill="#8F8F8F"/>
</svg>
