<svg width="410" height="301" viewBox="0 0 410 301" fill="none" xmlns="http://www.w3.org/2000/svg">
<path d="M407 160.047C407 258.23 388.182 176.818 265.172 176.818C231.389 176.818 248.257 243.381 212.248 261.633C117.142 309.841 0 298.83 0 227.611C0 129.428 85.7364 0 208.747 0C331.757 0 407 61.8635 407 160.047Z" fill="#F2F2F2" fill-opacity="0.6"/>
<circle cx="381.5" cy="180.5" r="23.5" fill="#83B4FF" stroke="#1D77FF" stroke-width="4"/>
<ellipse cx="374.299" cy="184.907" rx="18" ry="20" transform="rotate(10.3445 374.299 184.907)" fill="#D4E5FF"/>
<path d="M378.169 174C378.169 191.574 378.169 196.456 378.169 195.967M381.45 176.929C381.45 176.929 373.479 176.945 373.015 181.322C372.551 185.7 383.021 184.984 381.919 190.598C381.164 194.443 373.484 193.038 373.484 193.038" stroke="#EBF3FF" stroke-width="3" stroke-linecap="round"/>
<circle cx="370.5" cy="178.5" r="23.5" fill="#83B4FF" stroke="#1D77FF" stroke-width="4"/>
<ellipse cx="367.299" cy="177.907" rx="18" ry="20" transform="rotate(10.3445 367.299 177.907)" fill="#D4E5FF"/>
<path d="M371.169 167C371.169 184.574 371.169 189.456 371.169 188.967M374.45 169.929C374.45 169.929 366.479 169.945 366.015 174.322C365.551 178.7 376.021 177.984 374.919 183.598C374.164 187.443 366.484 186.038 366.484 186.038" stroke="#EBF3FF" stroke-width="3" stroke-linecap="round"/>
<ellipse cx="186.5" cy="294.5" rx="91.5" ry="3.5" fill="#D9D9D9"/>
<path d="M339.862 182.781C339.4 178.077 343.096 174 347.823 174H401.339C406.007 174 409.684 177.98 409.314 182.634L402.085 273.634C401.755 277.793 398.283 281 394.11 281H356.753C352.638 281 349.194 277.877 348.792 273.781L339.862 182.781Z" fill="#003D99"/>
<path d="M339.862 182.781C339.4 178.077 343.096 174 347.823 174H394.782C401.225 174 405.025 181.228 401.371 186.536L383.823 212.031C383.608 212.343 383.415 212.67 383.247 213.01L361.903 256.011C358.33 263.211 347.56 261.235 346.775 253.236L339.862 182.781Z" fill="#002F77"/>
<mask id="mask0_1942_363" style="mask-type:alpha" maskUnits="userSpaceOnUse" x="214" y="132" width="55" height="59">
<path d="M223.326 161.853C239.363 140.961 263.246 124.052 267.673 138.008C272.101 151.964 249.81 177.784 231.653 187.354C213.496 196.924 207.289 182.745 223.326 161.853Z" fill="white"/>
</mask>
<g mask="url(#mask0_1942_363)">
<path d="M223.326 161.853C239.363 140.961 263.246 124.052 267.673 138.008C272.101 151.964 249.81 177.784 231.653 187.354C213.496 196.924 207.289 182.745 223.326 161.853Z" fill="white"/>
<path d="M257.646 136.29C270.607 127.041 273.544 126.65 273.393 127.612" stroke="#F8F8F8" stroke-width="2" stroke-linecap="round"/>
<path d="M264.23 140.943C277.191 131.694 280.128 131.304 279.976 132.265" stroke="#F8F8F8" stroke-width="2" stroke-linecap="round"/>
<path d="M263.446 136.896C276.407 127.646 279.344 127.256 279.192 128.217" stroke="#F8F8F8" stroke-width="2" stroke-linecap="round"/>
</g>
<mask id="mask1_1942_363" style="mask-type:alpha" maskUnits="userSpaceOnUse" x="107" y="177" width="41" height="68">
<path d="M120.774 194.519C107.411 217.214 100.68 245.693 115.278 244.57C129.877 243.447 145.467 213.106 147.538 192.687C149.61 172.267 134.137 171.823 120.774 194.519Z" fill="white"/>
</mask>
<g mask="url(#mask1_1942_363)">
<path d="M120.774 194.519C107.411 217.214 100.68 245.693 115.278 244.57C129.877 243.447 145.467 213.106 147.538 192.687C149.61 172.267 134.137 171.823 120.774 194.519Z" fill="white"/>
<path d="M109.93 235.916C106.209 251.398 106.948 254.268 107.782 253.767" stroke="#F8F8F8" stroke-width="2" stroke-linecap="round"/>
<path d="M116.71 240.277C112.99 255.759 113.728 258.629 114.563 258.128" stroke="#F8F8F8" stroke-width="2" stroke-linecap="round"/>
<path d="M112.664 241.067C108.943 256.549 109.682 259.418 110.516 258.917" stroke="#F8F8F8" stroke-width="2" stroke-linecap="round"/>
</g>
<path d="M171.167 293.119C171.167 293.119 155.426 296.613 144.543 293.493C133.66 290.372 132.406 245.046 135.527 234.162C138.648 223.279 148.108 223.049 161.963 232.743C175.817 242.437 175.612 284.874 171.167 293.119Z" fill="white"/>
<path d="M186.756 292.119C186.756 292.119 202.497 295.613 213.38 292.493C224.264 289.372 225.517 244.046 222.396 233.162C219.276 222.279 209.815 222.049 195.961 231.743C182.106 241.437 182.311 283.874 186.756 292.119Z" fill="white"/>
<mask id="mask2_1942_363" style="mask-type:alpha" maskUnits="userSpaceOnUse" x="126" y="163" width="106" height="105">
<path d="M219.492 254.853C198.799 273.194 163.8 271.071 141.492 256.234C119.183 241.397 124.929 184.599 139.291 172.323C153.653 160.047 204.17 162.084 216.654 173.585C229.138 185.087 240.184 236.512 219.492 254.853Z" fill="white"/>
</mask>
<g mask="url(#mask2_1942_363)">
<path d="M225.807 254.853C205.115 273.194 155.1 269.73 132.791 254.893C110.483 240.056 116.229 183.259 130.591 170.983C144.953 158.707 210.485 162.084 222.969 173.585C235.453 185.087 246.499 236.512 225.807 254.853Z" fill="white"/>
<path d="M225.807 254.853C205.115 273.194 155.1 269.73 132.791 254.893C110.483 240.056 116.229 183.259 130.591 170.983C144.953 158.707 210.485 162.084 222.969 173.585C235.453 185.087 246.499 236.512 225.807 254.853Z" fill="#F8F8F8"/>
<path d="M221.806 255.853C201.114 274.194 151.099 270.73 128.79 255.893C106.482 241.056 112.228 184.258 126.59 171.982C140.952 159.706 206.484 163.083 218.968 174.585C231.452 186.087 242.498 237.511 221.806 255.853Z" fill="white"/>
<path d="M225.493 176.734C204.8 195.075 153.785 198.111 131.477 183.274C109.168 168.437 114.915 111.64 129.277 99.3638C143.639 87.0877 209.171 90.4648 221.655 101.966C234.139 113.468 246.185 158.393 225.493 176.734Z" fill="#F8F8F8"/>
</g>
<path d="M233.963 161.489C219.537 185.079 170.695 196.389 145.023 188.722C119.352 181.056 108.241 125.06 118.386 109.122C128.531 93.183 192.187 77.2528 207.489 84.6019C222.79 91.9509 248.389 137.899 233.963 161.489Z" fill="white"/>
<circle cx="117.978" cy="105.736" r="15" transform="rotate(-17 117.978 105.736)" fill="white"/>
<circle cx="202.504" cy="77.8027" r="15" transform="rotate(-17 202.504 77.8027)" fill="white"/>
<path d="M207.724 159.862C209.5 165.672 202.342 176.715 190.459 180.348C178.575 183.981 166.466 178.829 164.69 173.019C162.914 167.209 169.353 153.816 181.237 150.183C193.12 146.55 205.948 154.052 207.724 159.862Z" fill="#EBF3FF"/>
<path d="M126.478 101.046C127.435 104.177 126.351 113.111 120.277 114.968C114.203 116.824 109.85 111.645 108.893 108.514C107.935 105.383 108.747 98.9778 114.821 97.1209C120.894 95.2639 125.52 97.9152 126.478 101.046Z" fill="#EBF3FF"/>
<path d="M207.968 86.0619C204.977 87.3937 195.978 87.4061 193.395 81.604C190.812 75.8018 195.422 70.8498 198.413 69.5181C201.404 68.1863 207.861 68.2112 210.444 74.0134C213.027 79.8156 210.959 84.7302 207.968 86.0619Z" fill="#EBF3FF"/>
<ellipse cx="157.832" cy="143.745" rx="9" ry="11" transform="rotate(-17 157.832 143.745)" fill="#002255"/>
<ellipse cx="155.639" cy="136.573" rx="3" ry="2.5" transform="rotate(-17 155.639 136.573)" fill="white"/>
<ellipse cx="184.971" cy="159.82" rx="5" ry="6" transform="rotate(70 184.971 159.82)" fill="#002255"/>
<ellipse cx="196.748" cy="130.801" rx="9" ry="11" transform="rotate(-17 196.748 130.801)" fill="#002255"/>
<ellipse cx="194.555" cy="123.629" rx="3" ry="2.5" transform="rotate(-17 194.555 123.629)" fill="white"/>
<circle cx="270.5" cy="131.5" r="23.5" fill="#83B4FF" stroke="#1D77FF" stroke-width="4"/>
<ellipse cx="267.299" cy="130.907" rx="18" ry="20" transform="rotate(10.3445 267.299 130.907)" fill="#D4E5FF"/>
<path d="M271.169 120C271.169 137.574 271.169 142.456 271.169 141.967M274.45 122.929C274.45 122.929 266.479 122.945 266.015 127.322C265.551 131.7 276.021 130.984 274.919 136.598C274.164 140.443 266.484 139.038 266.484 139.038" stroke="#EBF3FF" stroke-width="3" stroke-linecap="round"/>
</svg>
