<svg width="496" height="310" viewBox="0 0 496 310" fill="none" xmlns="http://www.w3.org/2000/svg">
<path d="M492.098 75.9457C486.432 146.758 397.997 261.616 273.483 281.067C171.533 296.994 -0.311073 275.344 5.35466 204.531C11.0204 133.719 53.7876 19.6144 203.389 31.5841C352.99 43.5537 497.763 5.13318 492.098 75.9457Z" fill="#EBF3FF" fill-opacity="0.82"/>
<mask id="mask0_1946_418" style="mask-type:alpha" maskUnits="userSpaceOnUse" x="253" y="111" width="48" height="64">
<path d="M259.507 145.648C272.078 122.504 293.022 102.068 299.578 115.159C306.134 128.251 288.157 157.24 271.721 169.533C255.285 181.825 246.936 168.792 259.507 145.648Z" fill="white"/>
</mask>
<g mask="url(#mask0_1946_418)">
<path d="M259.507 145.648C272.078 122.504 293.022 102.068 299.578 115.159C306.134 128.251 288.157 157.24 271.721 169.533C255.285 181.825 246.936 168.792 259.507 145.648Z" fill="white"/>
<path d="M289.406 115.031C300.761 103.868 303.6 103.023 303.601 103.996" stroke="#F8F8F8" stroke-width="2" stroke-linecap="round"/>
<path d="M296.637 118.597C307.991 107.434 310.831 106.59 310.832 107.563" stroke="#F8F8F8" stroke-width="2" stroke-linecap="round"/>
<path d="M295.229 114.722C306.583 103.559 309.423 102.714 309.424 103.687" stroke="#F8F8F8" stroke-width="2" stroke-linecap="round"/>
</g>
<mask id="mask1_1946_418" style="mask-type:alpha" maskUnits="userSpaceOnUse" x="134" y="117" width="59" height="55">
<path d="M181.433 143.002C163.636 123.587 138.37 108.825 135.176 123.113C131.982 137.402 156.439 161.181 175.36 169.132C194.282 177.083 199.23 162.417 181.433 143.002Z" fill="white"/>
</mask>
<g mask="url(#mask1_1946_418)">
<path d="M181.433 143.002C163.636 123.587 138.37 108.825 135.176 123.113C131.982 137.402 156.439 161.181 175.36 169.132C194.282 177.083 199.23 162.417 181.433 143.002Z" fill="white"/>
<path d="M145.015 120.528C131.297 112.443 128.338 112.311 128.572 113.255" stroke="#F8F8F8" stroke-width="2" stroke-linecap="round"/>
<path d="M138.862 125.738C125.145 117.653 122.185 117.521 122.42 118.465" stroke="#F8F8F8" stroke-width="2" stroke-linecap="round"/>
<path d="M139.291 121.637C125.573 113.552 122.613 113.42 122.848 114.364" stroke="#F8F8F8" stroke-width="2" stroke-linecap="round"/>
</g>
<path d="M214.662 259.096C214.662 259.096 198.921 262.59 188.038 259.47C177.154 256.349 175.901 211.023 179.022 200.139C182.142 189.256 191.603 189.026 205.457 198.72C219.312 208.414 219.107 250.851 214.662 259.096Z" fill="white"/>
<path d="M230.251 258.096C230.251 258.096 245.992 261.59 256.875 258.47C267.758 255.349 269.012 210.023 265.891 199.139C262.77 188.256 253.31 188.026 239.455 197.72C225.601 207.414 225.806 249.851 230.251 258.096Z" fill="white"/>
<mask id="mask2_1946_418" style="mask-type:alpha" maskUnits="userSpaceOnUse" x="170" y="129" width="105" height="105">
<path d="M262.986 220.83C242.294 239.171 207.295 237.048 184.986 222.211C162.678 207.374 168.424 150.577 182.786 138.3C197.148 126.024 247.664 128.061 260.148 139.562C272.632 151.064 283.678 202.489 262.986 220.83Z" fill="white"/>
</mask>
<g mask="url(#mask2_1946_418)">
<path d="M269.302 220.83C248.609 239.172 198.594 235.707 176.286 220.87C153.978 206.034 159.724 149.236 174.086 136.96C188.448 124.684 253.98 128.061 266.464 139.563C278.948 151.064 289.994 202.489 269.302 220.83Z" fill="white"/>
<path d="M269.302 220.83C248.609 239.172 198.594 235.707 176.286 220.87C153.978 206.034 159.724 149.236 174.086 136.96C188.448 124.684 253.98 128.061 266.464 139.563C278.948 151.064 289.994 202.489 269.302 220.83Z" fill="#F8F8F8"/>
<path d="M265.301 221.83C244.608 240.171 194.593 236.707 172.285 221.87C149.977 207.033 155.723 150.236 170.085 137.96C184.447 125.683 249.979 129.061 262.463 140.562C274.947 152.064 285.993 203.489 265.301 221.83Z" fill="white"/>
<path d="M268.987 142.711C248.295 161.053 197.28 164.088 174.971 149.251C152.663 134.415 158.409 77.6171 172.771 65.341C187.133 53.0649 252.665 56.442 265.149 67.9436C277.633 79.4451 289.68 124.37 268.987 142.711Z" fill="#F8F8F8"/>
</g>
<path d="M267.603 143.438C246.911 161.779 196.896 158.315 174.587 143.478C152.279 128.641 158.025 71.8437 172.387 59.5676C186.749 47.2914 252.281 50.6686 264.765 62.1701C277.249 73.6717 288.295 125.097 267.603 143.438Z" fill="white"/>
<circle cx="172.986" cy="56.2108" r="15" fill="white"/>
<circle cx="261.986" cy="54.2108" r="15" fill="white"/>
<path d="M242.986 134.211C242.986 140.286 232.913 148.754 220.486 148.754C208.06 148.754 197.986 140.286 197.986 134.211C197.986 128.136 208.06 117.211 220.486 117.211C232.913 117.211 242.986 128.136 242.986 134.211Z" fill="#EBF3FF"/>
<path d="M182.486 54.2108C182.486 57.485 178.838 65.7108 172.486 65.7108C166.135 65.7108 163.486 59.4851 163.486 56.2109C163.486 52.9367 166.135 47.0487 172.486 47.0487C178.838 47.0487 182.486 50.9366 182.486 54.2108Z" fill="#EBF3FF"/>
<path d="M264.797 63.7068C261.547 64.1058 252.938 61.4867 252.164 55.1828C251.39 48.8789 257.247 45.4911 260.496 45.0921C263.746 44.6931 269.913 46.6045 270.687 52.9085C271.461 59.2124 268.047 63.3077 264.797 63.7068Z" fill="#EBF3FF"/>
<ellipse cx="199.986" cy="104.211" rx="9" ry="11" fill="#002255"/>
<path d="M200.003 110.431C199.752 110.431 199.54 110.344 199.366 110.171C199.193 109.998 199.106 109.781 199.106 109.521V108.559L199.496 108.91C198.916 108.884 198.413 108.81 197.988 108.689C197.564 108.568 197.217 108.446 196.948 108.325C196.723 108.221 196.563 108.074 196.467 107.883C196.381 107.692 196.346 107.497 196.363 107.298C196.389 107.099 196.463 106.917 196.584 106.752C196.706 106.587 196.862 106.479 197.052 106.427C197.252 106.366 197.481 106.392 197.741 106.505C197.915 106.6 198.175 106.7 198.521 106.804C198.877 106.899 199.314 106.947 199.834 106.947C200.198 106.947 200.484 106.912 200.692 106.843C200.909 106.774 201.061 106.683 201.147 106.57C201.243 106.449 201.29 106.319 201.29 106.18C201.29 106.05 201.256 105.942 201.186 105.855C201.126 105.76 201.022 105.677 200.874 105.608C200.727 105.53 200.523 105.461 200.263 105.4L198.794 105.088C197.988 104.906 197.386 104.603 196.987 104.178C196.597 103.745 196.402 103.186 196.402 102.501C196.402 101.981 196.528 101.517 196.779 101.11C197.039 100.694 197.399 100.356 197.858 100.096C198.326 99.8359 198.872 99.6712 199.496 99.6019L199.106 99.8229V98.9519C199.106 98.6919 199.193 98.4752 199.366 98.3019C199.54 98.1285 199.752 98.0419 200.003 98.0419C200.263 98.0419 200.48 98.1285 200.653 98.3019C200.827 98.4752 200.913 98.6919 200.913 98.9519V99.8229L200.523 99.5759C200.853 99.5845 201.208 99.6409 201.589 99.7449C201.971 99.8402 202.304 99.9745 202.59 100.148C202.79 100.252 202.928 100.395 203.006 100.577C203.093 100.759 203.123 100.945 203.097 101.136C203.08 101.318 203.011 101.483 202.889 101.63C202.777 101.777 202.621 101.877 202.421 101.929C202.231 101.972 202.001 101.938 201.732 101.825C201.533 101.738 201.308 101.669 201.056 101.617C200.814 101.556 200.502 101.526 200.12 101.526C199.661 101.526 199.306 101.608 199.054 101.773C198.812 101.938 198.69 102.15 198.69 102.41C198.69 102.583 198.76 102.731 198.898 102.852C199.046 102.965 199.31 103.064 199.691 103.151L201.173 103.476C201.997 103.658 202.603 103.961 202.993 104.386C203.392 104.802 203.591 105.344 203.591 106.011C203.591 106.531 203.466 106.99 203.214 107.389C202.963 107.788 202.612 108.113 202.161 108.364C201.719 108.615 201.204 108.78 200.614 108.858L200.913 108.546V109.521C200.913 109.781 200.827 109.998 200.653 110.171C200.489 110.344 200.272 110.431 200.003 110.431Z" fill="white"/>
<ellipse cx="237.986" cy="103.819" rx="9" ry="11" fill="#002255"/>
<path d="M238.003 110.039C237.752 110.039 237.54 109.952 237.366 109.779C237.193 109.606 237.106 109.389 237.106 109.129V108.167L237.496 108.518C236.916 108.492 236.413 108.418 235.988 108.297C235.564 108.176 235.217 108.054 234.948 107.933C234.723 107.829 234.563 107.682 234.467 107.491C234.381 107.3 234.346 107.105 234.363 106.906C234.389 106.707 234.463 106.525 234.584 106.36C234.706 106.195 234.862 106.087 235.052 106.035C235.252 105.974 235.481 106 235.741 106.113C235.915 106.208 236.175 106.308 236.521 106.412C236.877 106.507 237.314 106.555 237.834 106.555C238.198 106.555 238.484 106.52 238.692 106.451C238.909 106.382 239.061 106.291 239.147 106.178C239.243 106.057 239.29 105.927 239.29 105.788C239.29 105.658 239.256 105.55 239.186 105.463C239.126 105.368 239.022 105.285 238.874 105.216C238.727 105.138 238.523 105.069 238.263 105.008L236.794 104.696C235.988 104.514 235.386 104.211 234.987 103.786C234.597 103.353 234.402 102.794 234.402 102.109C234.402 101.589 234.528 101.125 234.779 100.718C235.039 100.302 235.399 99.9639 235.858 99.7039C236.326 99.4439 236.872 99.2792 237.496 99.2099L237.106 99.4309V98.5599C237.106 98.2999 237.193 98.0832 237.366 97.9099C237.54 97.7366 237.752 97.6499 238.003 97.6499C238.263 97.6499 238.48 97.7366 238.653 97.9099C238.827 98.0832 238.913 98.2999 238.913 98.5599V99.4309L238.523 99.1839C238.853 99.1926 239.208 99.2489 239.589 99.3529C239.971 99.4482 240.304 99.5826 240.59 99.7559C240.79 99.8599 240.928 100.003 241.006 100.185C241.093 100.367 241.123 100.553 241.097 100.744C241.08 100.926 241.011 101.091 240.889 101.238C240.777 101.385 240.621 101.485 240.421 101.537C240.231 101.58 240.001 101.546 239.732 101.433C239.533 101.346 239.308 101.277 239.056 101.225C238.814 101.164 238.502 101.134 238.12 101.134C237.661 101.134 237.306 101.216 237.054 101.381C236.812 101.546 236.69 101.758 236.69 102.018C236.69 102.191 236.76 102.339 236.898 102.46C237.046 102.573 237.31 102.672 237.691 102.759L239.173 103.084C239.997 103.266 240.603 103.569 240.993 103.994C241.392 104.41 241.591 104.952 241.591 105.619C241.591 106.139 241.466 106.598 241.214 106.997C240.963 107.396 240.612 107.721 240.161 107.972C239.719 108.223 239.204 108.388 238.614 108.466L238.913 108.154V109.129C238.913 109.389 238.827 109.606 238.653 109.779C238.489 109.952 238.272 110.039 238.003 110.039Z" fill="white"/>
<ellipse cx="221.24" cy="127.518" rx="5" ry="6" transform="rotate(87 221.24 127.518)" fill="#002255"/>
<path d="M221.969 146.402C217.546 146.402 216.346 145.876 216.218 142.895C216.09 139.914 218.36 137.346 221.287 137.158C224.214 136.971 226.691 139.235 226.819 142.216C226.947 145.197 226.392 146.402 221.969 146.402Z" fill="#002255"/>
<path d="M221.96 145.716C218.156 145.781 217.129 145.467 217.048 143.587C216.968 141.706 218.945 140.051 221.464 139.89C223.983 139.729 226.091 141.122 226.172 143.002C226.253 144.883 225.764 145.652 221.96 145.716Z" fill="#930E0E"/>
<path d="M183.892 110.274C180.992 110.631 180.206 110.614 180.128 109.976C180.05 109.339 181.542 108.597 183.462 108.32C185.382 108.043 187.001 108.336 187.08 108.973C187.158 109.611 186.792 109.918 183.892 110.274Z" fill="#75EA73"/>
<path d="M185.085 114.19C182.323 115.142 181.55 115.288 181.341 114.68C181.132 114.073 182.438 113.037 184.258 112.367C186.078 111.697 187.723 111.647 187.932 112.254C188.142 112.862 187.847 113.238 185.085 114.19Z" fill="#75EA73"/>
<path d="M189.281 118.042C186.831 119.634 186.117 119.963 185.767 119.424C185.417 118.886 186.434 117.565 188.038 116.475C189.642 115.384 191.226 114.937 191.576 115.476C191.926 116.014 191.731 116.45 189.281 118.042Z" fill="#75EA73"/>
<path d="M253.129 110.274C256.029 110.631 256.815 110.614 256.893 109.976C256.971 109.339 255.479 108.597 253.559 108.32C251.639 108.043 250.02 108.336 249.941 108.973C249.863 109.611 250.229 109.918 253.129 110.274Z" fill="#75EA73"/>
<path d="M251.936 114.19C254.698 115.142 255.471 115.288 255.68 114.68C255.889 114.073 254.583 113.037 252.763 112.367C250.943 111.697 249.298 111.647 249.089 112.254C248.879 112.862 249.174 113.238 251.936 114.19Z" fill="#75EA73"/>
<path d="M247.74 118.042C250.19 119.634 250.904 119.963 251.254 119.424C251.604 118.886 250.587 117.565 248.983 116.475C247.379 115.384 245.795 114.937 245.445 115.476C245.095 116.014 245.29 116.45 247.74 118.042Z" fill="#75EA73"/>
</svg>
