<svg width="352" height="342" viewBox="0 0 352 342" fill="none" xmlns="http://www.w3.org/2000/svg">
<path d="M185.405 102.257C169.721 113.401 153.107 123.833 133.94 128.488C115.149 133.078 93.6689 131.342 72.3917 126.797C58.4968 123.87 46.5531 122.182 37.0837 130.445C27.6584 138.319 21.9285 150.46 20.7418 165.071C19.2133 190.383 42.5716 219.13 62.804 236.611C93.2479 262.947 132.661 268.173 163.081 268.282C198.212 268.393 230.672 259.865 260.291 247.218C286.247 236.124 303.2 211.664 307.742 176.781C311.911 144.748 299.956 104.646 274.41 77.9794C267.09 69.9284 258.171 64.3055 249.328 62.1668C227.413 57.9537 214.89 80.0554 201.085 90.5507C195.952 94.4398 190.745 98.4223 185.405 102.257Z" fill="#EBF3FF"/>
<path d="M169.614 254.461C170.133 256.808 172.153 258.419 174.709 258.802C180.477 259.668 190.51 260.614 198.133 258.428C199.271 258.102 200.39 257.19 201.46 255.631C202.525 254.078 203.479 251.973 204.314 249.435C205.984 244.362 207.124 237.739 207.804 230.809C208.483 223.888 208.699 216.707 208.539 210.541C208.378 204.347 207.839 199.267 207.046 196.501C206.251 193.726 205.077 191.722 203.61 190.39C202.157 189.071 200.354 188.354 198.175 188.254C193.742 188.05 187.768 190.404 180.437 195.534C177.405 197.655 174.965 201.438 173.084 206.29C171.211 211.124 169.934 216.907 169.156 222.888C167.599 234.865 168.065 247.449 169.614 254.461Z" fill="white" stroke="#D1D1D1" stroke-width="2"/>
<path d="M153.918 255.526C153.4 257.873 151.38 259.483 148.824 259.867C143.056 260.733 133.023 261.678 125.399 259.492C124.262 259.166 123.143 258.255 122.073 256.695C121.008 255.142 120.054 253.037 119.219 250.499C117.549 245.427 116.409 238.803 115.729 231.873C115.05 224.952 114.834 217.771 114.994 211.606C115.154 205.411 115.693 200.331 116.486 197.565C117.282 194.791 118.456 192.786 119.922 191.455C121.375 190.135 123.178 189.418 125.358 189.318C129.791 189.114 135.764 191.468 143.096 196.598C146.128 198.72 148.567 202.502 150.448 207.355C152.322 212.188 153.599 217.972 154.376 223.952C155.934 235.93 155.467 248.513 153.918 255.526Z" fill="white" stroke="#D1D1D1" stroke-width="2"/>
<mask id="mask0_1877_4204" style="mask-type:alpha" maskUnits="userSpaceOnUse" x="197" y="100" width="53" height="70">
<path d="M204.406 138.213C217.79 113.574 240.087 91.8167 247.067 105.754C254.046 119.691 234.908 150.554 217.41 163.641C199.912 176.727 191.023 162.852 204.406 138.213Z" fill="#D4E5FF" stroke="#A3A3A3" stroke-width="1.5" stroke-linecap="round"/>
</mask>
<g mask="url(#mask0_1877_4204)">
<path d="M204.406 138.213C217.79 113.574 240.087 91.8167 247.067 105.754C254.046 119.691 234.908 150.554 217.41 163.641C199.912 176.727 191.023 162.852 204.406 138.213Z" fill="white" stroke="#D1D1D1" stroke-width="1.5" stroke-linecap="round"/>
<path d="M236.237 105.618C248.325 93.7335 251.349 92.8342 251.349 93.87" stroke="#D1D1D1" stroke-width="1.5" stroke-linecap="round"/>
<path d="M243.935 109.415C256.023 97.5303 259.046 96.631 259.047 97.6669" stroke="#D1D1D1" stroke-width="1.5" stroke-linecap="round"/>
<path d="M242.437 105.289C254.525 93.4046 257.548 92.5053 257.548 93.5412" stroke="#D1D1D1" stroke-width="1.5" stroke-linecap="round"/>
</g>
<mask id="mask1_1877_4204" style="mask-type:alpha" maskUnits="userSpaceOnUse" x="67" y="108" width="64" height="60">
<path d="M118.092 136.461C99.1454 115.792 72.2468 100.075 68.8463 115.287C65.4457 130.499 91.4825 155.814 111.627 164.279C131.771 172.744 137.039 157.13 118.092 136.461Z" fill="#83B4FF" stroke="#A3A3A3" stroke-width="1.5" stroke-linecap="round"/>
</mask>
<g mask="url(#mask1_1877_4204)">
<path d="M118.092 136.461C99.1454 115.792 72.2468 100.075 68.8463 115.287C65.4457 130.499 91.4825 155.814 111.627 164.279C131.771 172.744 137.039 157.13 118.092 136.461Z" fill="white" stroke="#D1D1D1" stroke-width="1.5" stroke-linecap="round"/>
<path d="M79.3208 112.534C64.7168 103.928 61.5657 103.786 61.8157 104.792" stroke="#D1D1D1" stroke-width="1.5" stroke-linecap="round"/>
<path d="M72.7705 118.081C58.1665 109.474 55.0155 109.333 55.2654 110.338" stroke="#D1D1D1" stroke-width="1.5" stroke-linecap="round"/>
<path d="M73.2266 113.715C58.6226 105.108 55.4715 104.967 55.7215 105.972" stroke="#D1D1D1" stroke-width="1.5" stroke-linecap="round"/>
</g>
<mask id="mask2_1877_4204" style="mask-type:alpha" maskUnits="userSpaceOnUse" x="106" y="122" width="112" height="112">
<path d="M204.417 218.756C193.572 228.369 178.944 232.646 164.044 232.548C149.144 232.45 134.036 227.975 122.29 220.163C116.549 216.345 112.554 209.784 110.055 201.78C107.558 193.784 106.579 184.422 106.813 175.118C107.048 165.816 108.494 156.606 110.825 148.924C113.166 141.211 116.363 135.151 120.019 132.025C123.693 128.885 129.767 126.601 137.126 125.166C144.461 123.735 152.976 123.166 161.443 123.384C169.909 123.603 178.302 124.608 185.392 126.315C192.51 128.028 198.207 130.423 201.385 133.351C204.575 136.29 207.752 141.872 210.366 148.996C212.971 156.095 214.985 164.635 215.903 173.406C216.82 182.178 216.638 191.15 214.872 199.121C213.106 207.095 209.768 214.013 204.417 218.756Z" fill="#83B4FF" stroke="#A3A3A3" stroke-width="1.5"/>
</mask>
<g mask="url(#mask2_1877_4204)">
<path d="M205.77 214.145C196.431 222.466 180.499 226.076 164.274 225.907C148.063 225.738 131.795 221.799 121.879 215.267C117.043 212.082 113.711 206.532 111.669 199.708C109.628 192.892 108.899 184.884 109.208 176.907C109.516 168.931 110.861 161.021 112.944 154.411C115.036 147.772 117.838 142.553 120.989 139.844C124.129 137.143 130.158 135.172 137.781 133.947C145.36 132.729 154.368 132.27 163.328 132.488C172.288 132.707 181.174 133.602 188.506 135.082C192.173 135.822 195.437 136.706 198.122 137.718C200.819 138.735 202.878 139.861 204.18 141.06C206.854 143.523 209.501 148.251 211.654 154.327C213.799 160.378 215.423 167.673 216.106 175.178C216.789 182.685 216.529 190.374 214.927 197.221C213.324 204.071 210.392 210.028 205.77 214.145Z" fill="white" stroke="#D1D1D1" stroke-width="1.5"/>
</g>
<path d="M209.332 136.363C198.515 145.952 179.804 150.698 160.909 150.953C142.018 151.207 123.2 146.968 112.209 138.856C106.796 134.861 102.91 128.217 100.387 120.196C97.867 112.185 96.7306 102.875 96.7642 93.6483C96.7978 84.4231 98.0009 75.3152 100.138 67.7166C102.283 60.0881 105.337 54.0966 108.987 50.976C112.644 47.8506 119.689 45.4762 128.573 43.9089C137.413 42.3493 147.931 41.6117 158.4 41.6631C168.87 41.7145 179.264 42.5547 187.855 44.1398C192.151 44.9325 195.981 45.9087 199.139 47.059C202.308 48.2134 204.744 49.5241 206.3 50.9575C209.491 53.8968 212.667 59.4791 215.281 66.6027C217.886 73.7016 219.9 82.2424 220.818 91.0127C221.736 99.7852 221.554 108.757 219.788 116.728C218.022 124.702 214.683 131.62 209.332 136.363Z" fill="white" stroke="#D1D1D1" stroke-width="1.5"/>
<circle cx="106.1" cy="46.0615" r="15.2192" fill="white" stroke="#D1D1D1" stroke-width="1.5"/>
<path d="M116.213 43.9322C116.213 47.418 112.329 56.1753 105.567 56.1753C98.8057 56.1753 95.9858 49.5473 95.9858 46.0615C95.9858 42.5758 98.8057 36.3074 105.567 36.3074C112.329 36.3074 116.213 40.4465 116.213 43.9322Z" fill="#EBF3FF"/>
<path d="M133.451 52.7866C133.451 57.4562 122.126 68.7558 111.094 68.7558C100.062 68.7558 102.435 63.2908 103.5 58.5001C106.127 58.5001 112.731 58.1974 116.416 54.9159C120.947 50.882 117.371 46.0001 119.5 46C130.146 44.9355 133.451 48.1171 133.451 52.7866Z" fill="white"/>
<circle cx="202.85" cy="42.4553" r="15.2192" fill="white" stroke="#D1D1D1" stroke-width="1.5"/>
<path d="M181.964 54.7048C182.517 59.506 195.104 69.8299 206.064 68.5691C217.023 67.3083 210.24 58.5535 208.111 53.7628C205.502 54.0629 204.643 55.0816 200.593 52.1289C195.615 48.499 193.747 44.9379 191.617 44.9295C180.962 43.7857 181.412 49.9037 181.964 54.7048Z" fill="white"/>
<path d="M206.842 52.042C203.383 52.4668 194.217 49.6785 193.393 42.9673C192.569 36.256 198.804 32.6494 202.264 32.2246C205.724 31.7998 212.289 33.8347 213.113 40.546C213.937 47.2572 210.302 51.6172 206.842 52.042Z" fill="#EBF3FF"/>
<path d="M183.623 127.101C183.623 133.569 172.898 142.584 159.669 142.584C146.44 142.584 135.715 133.569 135.715 127.101C135.715 120.634 146.44 109.003 159.669 109.003C172.898 109.003 183.623 120.634 183.623 127.101Z" fill="#EBF3FF"/>
<ellipse cx="137.844" cy="95.1629" rx="9.58152" ry="11.7107" fill="#002255"/>
<path d="M137.603 100.841C137.352 100.841 137.139 100.754 136.966 100.581C136.793 100.407 136.706 100.191 136.706 99.9308V98.9688L137.096 99.3198C136.515 99.2938 136.013 99.2201 135.588 99.0988C135.163 98.9774 134.817 98.8561 134.548 98.7348C134.323 98.6308 134.162 98.4834 134.067 98.2928C133.98 98.1021 133.946 97.9071 133.963 97.7078C133.989 97.5084 134.063 97.3264 134.184 97.1618C134.305 96.9971 134.461 96.8888 134.652 96.8368C134.851 96.7761 135.081 96.8021 135.341 96.9148C135.514 97.0101 135.774 97.1098 136.121 97.2138C136.476 97.3091 136.914 97.3568 137.434 97.3568C137.798 97.3568 138.084 97.3221 138.292 97.2528C138.509 97.1834 138.66 97.0924 138.747 96.9798C138.842 96.8584 138.89 96.7284 138.89 96.5898C138.89 96.4598 138.855 96.3514 138.786 96.2648C138.725 96.1694 138.621 96.0871 138.474 96.0178C138.327 95.9398 138.123 95.8704 137.863 95.8098L136.394 95.4978C135.588 95.3158 134.986 95.0124 134.587 94.5878C134.197 94.1544 134.002 93.5954 134.002 92.9108C134.002 92.3908 134.128 91.9271 134.379 91.5198C134.639 91.1038 134.999 90.7658 135.458 90.5058C135.926 90.2458 136.472 90.0811 137.096 90.0118L136.706 90.2328V89.3618C136.706 89.1018 136.793 88.8851 136.966 88.7118C137.139 88.5384 137.352 88.4518 137.603 88.4518C137.863 88.4518 138.08 88.5384 138.253 88.7118C138.426 88.8851 138.513 89.1018 138.513 89.3618V90.2328L138.123 89.9858C138.452 89.9944 138.808 90.0508 139.189 90.1548C139.57 90.2501 139.904 90.3844 140.19 90.5578C140.389 90.6618 140.528 90.8048 140.606 90.9868C140.693 91.1688 140.723 91.3551 140.697 91.5458C140.68 91.7278 140.61 91.8924 140.489 92.0398C140.376 92.1871 140.22 92.2868 140.021 92.3388C139.83 92.3821 139.601 92.3474 139.332 92.2348C139.133 92.1481 138.907 92.0788 138.656 92.0268C138.413 91.9661 138.101 91.9358 137.72 91.9358C137.261 91.9358 136.905 92.0181 136.654 92.1828C136.411 92.3474 136.29 92.5598 136.29 92.8198C136.29 92.9931 136.359 93.1404 136.498 93.2618C136.645 93.3744 136.91 93.4741 137.291 93.5608L138.773 93.8858C139.596 94.0678 140.203 94.3711 140.593 94.7958C140.992 95.2118 141.191 95.7534 141.191 96.4208C141.191 96.9408 141.065 97.4001 140.814 97.7988C140.563 98.1974 140.212 98.5224 139.761 98.7738C139.319 99.0251 138.803 99.1898 138.214 99.2678L138.513 98.9558V99.9308C138.513 100.191 138.426 100.407 138.253 100.581C138.088 100.754 137.872 100.841 137.603 100.841Z" fill="#75EA73"/>
<ellipse cx="178.299" cy="94.7459" rx="9.58152" ry="11.7107" fill="#002255"/>
<path d="M178.058 100.424C177.806 100.424 177.594 100.337 177.421 100.164C177.247 99.9902 177.161 99.7735 177.161 99.5135V98.5515L177.551 98.9025C176.97 98.8765 176.467 98.8029 176.043 98.6815C175.618 98.5602 175.271 98.4389 175.003 98.3175C174.777 98.2135 174.617 98.0662 174.522 97.8755C174.435 97.6849 174.4 97.4899 174.418 97.2905C174.444 97.0912 174.517 96.9092 174.639 96.7445C174.76 96.5799 174.916 96.4715 175.107 96.4195C175.306 96.3589 175.536 96.3849 175.796 96.4975C175.969 96.5929 176.229 96.6925 176.576 96.7965C176.931 96.8919 177.369 96.9395 177.889 96.9395C178.253 96.9395 178.539 96.9049 178.747 96.8355C178.963 96.7662 179.115 96.6752 179.202 96.5625C179.297 96.4412 179.345 96.3112 179.345 96.1725C179.345 96.0425 179.31 95.9342 179.241 95.8475C179.18 95.7522 179.076 95.6699 178.929 95.6005C178.781 95.5225 178.578 95.4532 178.318 95.3925L176.849 95.0805C176.043 94.8985 175.44 94.5952 175.042 94.1705C174.652 93.7372 174.457 93.1782 174.457 92.4935C174.457 91.9735 174.582 91.5099 174.834 91.1025C175.094 90.6865 175.453 90.3485 175.913 90.0885C176.381 89.8285 176.927 89.6639 177.551 89.5945L177.161 89.8155V88.9445C177.161 88.6845 177.247 88.4679 177.421 88.2945C177.594 88.1212 177.806 88.0345 178.058 88.0345C178.318 88.0345 178.534 88.1212 178.708 88.2945C178.881 88.4679 178.968 88.6845 178.968 88.9445V89.8155L178.578 89.5685C178.907 89.5772 179.262 89.6335 179.644 89.7375C180.025 89.8329 180.359 89.9672 180.645 90.1405C180.844 90.2445 180.983 90.3875 181.061 90.5695C181.147 90.7515 181.178 90.9379 181.152 91.1285C181.134 91.3105 181.065 91.4752 180.944 91.6225C180.831 91.7699 180.675 91.8695 180.476 91.9215C180.285 91.9649 180.055 91.9302 179.787 91.8175C179.587 91.7309 179.362 91.6615 179.111 91.6095C178.868 91.5489 178.556 91.5185 178.175 91.5185C177.715 91.5185 177.36 91.6009 177.109 91.7655C176.866 91.9302 176.745 92.1425 176.745 92.4025C176.745 92.5759 176.814 92.7232 176.953 92.8445C177.1 92.9572 177.364 93.0569 177.746 93.1435L179.228 93.4685C180.051 93.6505 180.658 93.9539 181.048 94.3785C181.446 94.7945 181.646 95.3362 181.646 96.0035C181.646 96.5235 181.52 96.9829 181.269 97.3815C181.017 97.7802 180.666 98.1052 180.216 98.3565C179.774 98.6079 179.258 98.7725 178.669 98.8505L178.968 98.5385V99.5135C178.968 99.7735 178.881 99.9902 178.708 100.164C178.543 100.337 178.326 100.424 178.058 100.424Z" fill="#75EA73"/>
<ellipse cx="160.471" cy="119.976" rx="5.32307" ry="6.38768" transform="rotate(87 160.471 119.976)" fill="#002255"/>
<path d="M161.247 140.08C156.538 140.08 155.26 139.521 155.124 136.347C154.988 133.174 157.404 130.439 160.521 130.24C163.637 130.04 166.274 132.451 166.41 135.624C166.546 138.798 165.956 140.08 161.247 140.08Z" fill="#002255"/>
<path d="M161.237 139.35C157.187 139.42 156.094 139.085 156.008 137.083C155.922 135.081 158.027 133.319 160.709 133.147C163.392 132.976 165.636 134.459 165.721 136.461C165.807 138.463 165.287 139.281 161.237 139.35Z" fill="#930E0E"/>
<path d="M120.712 101.623C117.625 102.003 116.788 101.985 116.705 101.306C116.621 100.627 118.21 99.8376 120.254 99.5428C122.298 99.248 124.022 99.5593 124.106 100.238C124.189 100.917 123.799 101.243 120.712 101.623Z" fill="#75EA73"/>
<path d="M121.982 105.791C119.041 106.805 118.218 106.961 117.996 106.314C117.773 105.667 119.163 104.565 121.101 103.852C123.039 103.138 124.79 103.084 125.013 103.731C125.236 104.378 124.923 104.778 121.982 105.791Z" fill="#75EA73"/>
<path d="M126.449 109.893C123.841 111.588 123.081 111.938 122.708 111.364C122.336 110.791 123.418 109.385 125.126 108.224C126.833 107.063 128.52 106.587 128.892 107.16C129.265 107.734 129.058 108.198 126.449 109.893Z" fill="#75EA73"/>
<path d="M194.422 101.623C197.51 102.003 198.346 101.985 198.43 101.306C198.513 100.627 196.924 99.8376 194.88 99.5428C192.836 99.248 191.112 99.5593 191.029 100.238C190.945 100.917 191.335 101.243 194.422 101.623Z" fill="#75EA73"/>
<path d="M193.152 105.791C196.093 106.805 196.915 106.961 197.138 106.314C197.361 105.667 195.97 104.565 194.033 103.852C192.095 103.138 190.343 103.084 190.121 103.731C189.898 104.378 190.211 104.778 193.152 105.791Z" fill="#75EA73"/>
<path d="M188.685 109.893C191.293 111.588 192.054 111.938 192.426 111.364C192.799 110.791 191.716 109.385 190.008 108.224C188.301 107.063 186.615 106.587 186.242 107.16C185.87 107.734 186.077 108.198 188.685 109.893Z" fill="#75EA73"/>
</svg>
