<svg width="332" height="280" viewBox="0 0 332 280" fill="none" xmlns="http://www.w3.org/2000/svg">
<path fill-rule="evenodd" clip-rule="evenodd" d="M178.449 3.60083C140.15 3.60083 144.556 71.0479 116.933 91.723C80.3279 119.007 17.626 105.45 17.626 152.222C17.626 234.244 99.1391 264.07 187.94 264.07C276.74 264.07 352.491 218.484 326.054 136.631C299.617 54.7806 267.25 3.60083 178.449 3.60083Z" fill="#F3F8FF"/>
<path fill-rule="evenodd" clip-rule="evenodd" d="M149.639 266.273C232.339 266.273 299.447 269.324 299.447 273.052C299.447 276.949 232.339 280 149.639 280C67.1079 280 0 276.949 0 273.052C0 269.324 67.1096 266.273 149.639 266.273Z" fill="#F3F8FF"/>
<path d="M30.3346 209.163H112.357C112.696 209.163 113.035 208.484 113.035 207.808V206.96C113.035 206.281 112.696 205.605 112.357 205.605H30.3346C29.9954 205.605 29.6563 206.283 29.6563 206.96V207.808C29.6562 208.486 29.9954 209.163 30.3346 209.163Z" fill="#002F77"/>
<path d="M42.0281 157.476C40.6731 161.882 43.8919 166.627 47.2821 167.475C50.6723 168.493 53.2128 165.442 54.3999 161.036C55.755 156.46 54.0607 152.054 50.5027 151.036C47.1125 150.021 43.2136 152.9 42.0281 157.476Z" fill="#FFB27D"/>
<path d="M61.3462 244.752C61.3462 244.752 52.5342 258.479 51.347 258.987C50.1616 259.666 47.1106 259.835 48.296 262.038C49.3136 264.241 49.8207 273.053 50.8382 273.562C51.8558 273.901 60.8374 274.917 59.4807 273.562C58.1256 272.038 57.2777 272.714 56.5993 270.002C55.9209 267.46 55.0747 262.376 56.2601 261.36C57.6152 260.174 65.2418 250.854 65.2418 250.854L61.3462 244.752Z" fill="#FFB27D"/>
<path d="M105.748 250.682C105.748 250.682 116.424 268.306 118.457 269.831C120.321 271.525 126.93 273.898 121.508 274.237C116.254 274.746 113.544 272.543 110.154 271.525C106.933 270.509 102.697 269.831 104.223 267.289C105.917 264.747 105.241 259.154 101.851 255.595C98.2908 252.039 105.748 250.682 105.748 250.682Z" fill="#FFB27D"/>
<path d="M51.0103 209.671C51.0103 209.671 77.4464 208.993 87.9544 217.635C94.2243 226.956 109.138 254.41 110.154 257.459C109.476 258.307 104.9 259.662 103.036 259.493C97.1057 252.544 89.3095 246.444 86.2585 241.021C82.5308 234.242 81.3437 230.854 75.2434 230.345C68.9736 229.666 55.0771 227.803 51.0103 227.803C46.7739 227.804 51.0103 209.671 51.0103 209.671Z" fill="#0C326D"/>
<path d="M27.793 274.239H29.3176L39.1472 232.719H36.0962L27.793 274.239Z" fill="#002255"/>
<path d="M69.4826 274.239H68.1259L56.6021 231.194H59.653L69.4826 274.239Z" fill="#002255"/>
<path d="M35.9278 207.808L51.3489 210.519C51.3489 210.519 71.8544 210.689 81.1752 212.553C89.648 214.077 91.0048 223.737 81.1752 237.125C75.582 244.582 70.8385 250.682 61.3481 257.461C58.8059 255.767 57.9579 255.088 57.2812 250.682C57.9596 249.834 59.8234 243.734 60.3322 242.718C65.5862 231.534 72.704 227.467 72.8719 226.449C71.6865 224.416 41.1818 236.448 35.2511 229.5C29.4866 222.722 35.9278 207.808 35.9278 207.808Z" fill="#0E397C"/>
<path d="M35.25 172.899C39.3169 172.39 43.3837 173.238 47.2827 175.95C50.6728 179.34 54.5701 185.101 54.2309 194.422C53.8917 206.454 56.0947 207.131 53.8917 210.352C44.5709 214.249 28.641 230.857 32.3686 213.063C35.0804 200.185 26.438 190.694 33.3862 176.458C34.0629 175.271 34.7413 174.254 35.25 172.899Z" fill="#699DEE"/>
<path d="M54.2287 198.996C54.3983 205.096 55.2463 206.96 54.7375 208.995C50.8402 209.334 43.892 210.859 42.1978 213.231C40.1644 216.113 38.131 216.452 39.1468 214.417C39.9948 212.383 42.537 209.502 38.8076 199.504C34.9104 189.505 33.2144 182.727 36.9438 175.778L54.2287 198.996Z" fill="#4A75CB"/>
<path d="M35.2495 172.899C37.7917 166.968 38.3005 160.357 38.3005 160.357L44.9095 162.391C44.9095 162.391 41.1819 170.696 44.7399 173.575C45.4183 174.254 46.4342 175.1 47.2821 175.948C43.3832 173.236 39.3163 172.39 35.2495 172.899Z" fill="#FFB27D"/>
<path d="M38.131 161.882C38.4702 161.543 38.979 161.204 39.4861 160.697L44.9096 162.391C44.7401 162.56 43.385 165.781 43.2154 168.83C41.6908 167.982 39.8252 166.288 37.9614 163.578C37.9614 162.9 38.131 162.391 38.131 161.882Z" fill="#F08261"/>
<path d="M39.8256 174.762C46.6042 177.135 45.7562 184.253 52.0278 194.759C55.2484 200.183 58.2976 200.183 58.2976 200.183C58.2976 200.183 65.7546 200.183 74.9059 198.997C80.6669 198.319 81.0061 200.015 76.9393 201.539C68.9752 204.419 60.6702 207.47 53.8916 206.624C47.2826 205.945 35.7587 188.83 35.2499 184.424C34.402 178.32 36.4354 173.575 39.8256 174.762Z" fill="#F09959"/>
<path d="M43.2139 234.246C43.7227 234.246 44.0619 234.246 44.569 234.246C49.9925 234.076 53.7202 233.398 56.7712 232.721C60.3292 232.043 62.3644 231.705 64.5674 232.721C65.4153 233.06 66.2616 232.721 66.7704 232.043C67.1096 231.195 66.7704 230.348 65.9224 230.009C62.7018 228.315 59.9918 228.992 56.2624 229.67C53.381 230.348 49.6534 231.027 44.569 231.195C38.6383 231.364 35.0785 230.347 33.2147 228.313C31.5205 226.619 31.1813 223.568 31.6901 218.823C31.8597 217.298 32.1989 215.941 32.3685 214.756C32.8772 211.535 33.2164 209.334 32.7076 206.114C32.3685 202.893 31.3526 198.826 28.98 190.862C28.6408 190.014 27.7945 189.507 26.9466 189.677C26.0986 190.016 25.7611 190.862 25.929 191.71C30.335 206.622 30.1654 208.149 29.1496 214.249C28.98 215.434 28.8104 216.791 28.6408 218.485C27.9624 224.079 28.6408 227.976 30.8438 230.518C33.2164 233.058 37.1137 234.246 43.2139 234.246Z" fill="#1D77FF"/>
<path d="M104.9 265.596C112.018 268.987 115.915 271.02 118.118 270.85C118.627 270.85 119.136 270.681 119.473 270.681C122.015 272.205 126.082 273.901 121.506 274.239C116.252 274.748 113.542 272.545 110.152 271.527C106.932 270.511 102.695 269.833 104.222 267.291C104.561 266.782 104.73 266.273 104.9 265.596Z" fill="#233862"/>
<path d="M50.5014 259.327C50.671 264.92 51.519 270.511 54.9074 271.697C55.7554 271.866 56.6016 271.866 57.4496 271.866C57.9584 272.545 58.6351 272.545 59.483 273.561C60.8381 274.916 51.8564 273.9 50.8406 273.561C49.823 273.052 49.3159 264.24 48.2984 262.037C47.2825 260.173 49.1464 259.834 50.5014 259.327Z" fill="#233862"/>
<path d="M35.9279 167.475L35.2495 172.899C35.2495 172.899 41.1802 173.238 44.0616 174.932C46.9429 176.626 51.349 181.372 51.349 181.372L47.7909 175.271L47.2821 171.374L35.9279 167.475Z" fill="#4A75CB"/>
<path d="M51.3492 147.139C59.6525 147.648 58.2974 160.018 58.2974 160.018C58.2974 160.018 56.264 160.696 51.6884 160.018C52.0276 158.663 51.858 155.273 51.858 155.273C51.858 155.273 51.3492 157.985 50.6725 159.679C49.655 160.188 48.6391 159.679 46.7753 159.34C45.9273 163.237 43.2172 164.933 41.3517 165.44C39.3183 166.118 37.2849 166.965 34.9123 165.779C32.5397 164.594 33.7268 152.391 35.0819 149.849C36.9457 146.291 40.1663 142.901 45.5881 144.597C48.2982 145.615 51.3492 147.139 51.3492 147.139Z" fill="#22407A"/>
<path d="M38.8075 167.136C39.3163 167.136 39.825 166.966 40.5017 166.966C43.3831 166.458 47.2803 164.763 47.6195 155.612C47.6195 155.443 47.4499 155.273 47.2803 155.273C47.1107 155.273 46.9411 155.443 46.9411 155.612C46.9411 159.34 46.0932 162.221 44.7381 163.915C43.7206 165.272 42.3655 166.118 40.3321 166.458C37.7899 166.797 35.9261 166.288 35.0781 164.933C35.0781 164.763 34.9085 164.763 34.7389 164.763C34.5693 164.933 34.5693 165.103 34.5693 165.103C35.419 166.458 36.7741 167.136 38.8075 167.136Z" fill="#22407A"/>
<path d="M54.06 161.036C53.7208 161.205 52.8745 160.527 52.5353 160.357C52.1962 160.188 51.5178 160.188 51.3499 160.018C50.8411 159.509 53.3833 159.679 54.2313 160.527C54.3975 160.696 54.2279 161.036 54.06 161.036Z" fill="#22407A"/>
<path d="M52.5343 162.391C52.1951 162.221 52.5343 160.866 53.3822 161.205C53.891 161.545 53.0431 162.73 52.5343 162.391Z" fill="#22407A"/>
<path d="M51.1793 166.627C51.3489 166.457 51.1793 166.457 49.485 165.949C48.9763 165.781 49.9921 167.984 51.1793 166.627Z" fill="#FEFEFE"/>
<path fill-rule="evenodd" clip-rule="evenodd" d="M94.9023 204.08H99.6475L96.9357 187.472H103.545L106.087 204.08H110.832C111.511 204.08 112.187 204.759 112.357 205.605H94.2239C93.8847 204.759 94.2239 204.08 94.9023 204.08Z" fill="#002255"/>
<path fill-rule="evenodd" clip-rule="evenodd" d="M98.7989 205.581H105.238L102.527 187.472H95.9175L98.7989 205.581Z" fill="#002F77"/>
<path fill-rule="evenodd" clip-rule="evenodd" d="M80.6665 197.81L81.1753 193.913L83.7175 169.849C83.8871 168.664 84.7351 167.646 85.5813 167.646L122.525 166.121H123.034C123.713 166.291 124.22 167.137 124.052 168.155L120.662 197.811C120.492 198.659 119.983 199.336 119.476 199.336H81.5128V199.167C81.0057 199.165 80.6665 198.486 80.6665 197.81Z" fill="#83B4FF"/>
<path fill-rule="evenodd" clip-rule="evenodd" d="M79.9883 193.911L82.5305 169.848C82.7001 168.662 83.548 167.645 84.3943 167.645L121.338 166.12C122.356 166.12 122.863 167.136 122.863 168.154L119.812 193.913H79.9883V193.911Z" fill="#D4E5FF"/>
<path fill-rule="evenodd" clip-rule="evenodd" d="M119.814 193.911L119.475 197.808C119.305 198.487 118.796 199.165 118.289 199.165H80.3275C79.8187 199.165 79.4795 198.487 79.4795 197.808L79.9883 193.911H119.814Z" fill="#D4E5FF"/>
<path fill-rule="evenodd" clip-rule="evenodd" d="M81.0059 192.895L83.5481 169.848C83.5481 169.339 84.0568 168.83 84.5656 168.83L121.171 167.136C121.679 167.136 122.019 167.645 121.849 168.323L118.968 192.895H81.0059Z" fill="white"/>
<path fill-rule="evenodd" clip-rule="evenodd" d="M112.865 186.963H111.339L113.035 171.881H114.559L112.865 186.963Z" fill="#83B4FF"/>
<path fill-rule="evenodd" clip-rule="evenodd" d="M110.832 186.963H109.306L110.493 176.457H112.017L110.832 186.963Z" fill="#83B4FF"/>
<path fill-rule="evenodd" clip-rule="evenodd" d="M115.069 186.963H113.542L114.899 175.1H116.424L115.069 186.963Z" fill="#83B4FF"/>
<path fill-rule="evenodd" clip-rule="evenodd" d="M108.629 186.963H107.103L108.46 174.593H109.984L108.629 186.963Z" fill="#83B4FF"/>
<path fill-rule="evenodd" clip-rule="evenodd" d="M106.593 186.963H105.069L105.917 178.321H107.441L106.593 186.963Z" fill="#83B4FF"/>
<path fill-rule="evenodd" clip-rule="evenodd" d="M112.865 186.963H111.339L112.696 175.271H114.22L112.865 186.963Z" fill="#004BBB"/>
<path fill-rule="evenodd" clip-rule="evenodd" d="M110.832 186.963H109.306L110.154 178.829H111.678L110.832 186.963Z" fill="#004BBB"/>
<path fill-rule="evenodd" clip-rule="evenodd" d="M115.069 186.963H113.542L114.56 177.813H116.085L115.069 186.963Z" fill="#004BBB"/>
<path fill-rule="evenodd" clip-rule="evenodd" d="M108.629 186.963H107.103L108.121 177.473H109.645L108.629 186.963Z" fill="#004BBB"/>
<path fill-rule="evenodd" clip-rule="evenodd" d="M106.593 186.963H105.069L105.747 180.184H107.272L106.593 186.963Z" fill="#004BBB"/>
<path fill-rule="evenodd" clip-rule="evenodd" d="M116.933 174.254L115.576 175.441H115.915L113.203 180.015L112.018 177.135L108.629 184.421L107.442 182.388L106.087 185.269L105.578 184.591L104.222 187.133L104.561 187.302L105.578 185.439L106.087 185.947L107.442 183.236L108.629 185.269L112.018 178.151L113.035 181.033L116.254 175.779L116.424 176.118L116.933 174.254Z" fill="#002F77"/>
<path fill-rule="evenodd" clip-rule="evenodd" d="M86.428 187.302H86.0888L86.428 184.76H86.7672L86.428 187.302ZM92.1907 187.472H91.682L92.0211 184.421H92.5299L92.1907 187.472ZM91.5124 187.133H91.0036L91.3428 184.76H91.682L91.5124 187.133ZM95.0704 187.472H94.5616L94.9008 184.421H95.4096L95.0704 187.472ZM94.3937 186.963H93.885L94.2242 184.93H94.5633L94.3937 186.963ZM90.834 186.793H90.3252L90.4948 185.269H91.0036L90.834 186.793ZM89.9877 186.963H89.6485L89.8181 184.93H90.3269L89.9877 186.963ZM93.5458 187.811H93.037L93.5458 184.253H93.885L93.5458 187.811ZM92.6995 188.489H92.3603L92.8691 183.405H93.2083L92.6995 188.489ZM85.9209 186.626H85.4121L85.5817 185.269H86.0905L85.9209 186.626ZM102.527 186.286H102.019L102.188 185.438H102.527V186.286ZM101.849 186.626H101.34L101.51 185.101H102.019L101.849 186.626ZM101.003 187.472H100.664L101.003 184.421H101.342L101.003 187.472ZM100.324 188.489H99.8156L100.494 183.405H100.833L100.324 188.489ZM99.8156 187.472H99.3068L99.646 184.421H100.155L99.8156 187.472ZM99.139 186.963H98.7998L98.9694 184.93H99.3086L99.139 186.963ZM98.291 188.32H97.9518L98.4606 183.575H98.7998L98.291 188.32ZM97.7822 187.133H97.443L97.6126 184.76H97.9518L97.7822 187.133ZM97.1055 186.793H96.7664L96.936 185.269H97.2751L97.1055 186.793ZM96.4272 187.472H96.088L96.4272 184.421H96.7664L96.4272 187.472ZM95.5792 188.489H95.24L95.7488 183.405H96.088L95.5792 188.489ZM89.3094 187.811H88.8006L89.3094 184.253H89.6485L89.3094 187.811ZM88.4614 188.489H88.1222L88.631 183.405H88.9702L88.4614 188.489ZM87.9543 187.302H87.4455L87.7847 184.76H88.1239L87.9543 187.302ZM87.2759 186.963H86.7672L87.1063 184.93H87.4455L87.2759 186.963Z" fill="#004BBB"/>
<path fill-rule="evenodd" clip-rule="evenodd" d="M93.037 176.626C92.6978 179.169 91.0036 181.202 88.9701 181.202C87.1063 181.202 85.7496 179.169 86.0888 176.626C86.2583 174.084 88.1222 172.22 89.986 172.22C92.0211 172.051 93.3762 174.084 93.037 176.626Z" fill="#004BBB"/>
<path fill-rule="evenodd" clip-rule="evenodd" d="M98.8002 181.202C97.1059 181.033 95.9188 179.338 96.0884 177.135H99.309L98.8002 181.202ZM96.0884 176.626C96.4276 174.254 97.9522 172.22 99.816 172.22L99.3072 176.626H96.0884Z" fill="#1D77FF"/>
<path fill-rule="evenodd" clip-rule="evenodd" d="M99.8154 176.626L102.866 174.423C102.527 173.238 101.511 172.22 100.324 172.22L99.8154 176.626Z" fill="#002F77"/>
<path fill-rule="evenodd" clip-rule="evenodd" d="M99.6458 177.305L99.3066 181.202C101.17 181.032 102.865 178.999 103.034 176.626C103.204 176.118 103.034 175.441 103.034 174.932L99.6458 177.305Z" fill="#004BBB"/>
<path d="M73.2093 199.335C77.7849 199.165 82.1909 196.453 84.5635 196.793C86.7665 197.301 94.0539 202.386 93.206 202.554C92.1884 202.723 86.4273 199.672 86.2578 199.672C86.0882 199.672 84.7331 201.706 81.6821 202.554C78.6312 203.402 81.6821 200.181 72.0221 203.062C65.7523 205.096 73.2093 199.335 73.2093 199.335Z" fill="#FFB27D"/>
<path d="M38.4686 174.254C42.8747 173.406 44.9081 177.305 47.6199 183.744C50.5013 190.184 55.4161 197.98 56.2623 198.996C57.2799 199.844 72.5314 198.996 72.5314 198.996C72.5314 198.996 73.0402 203.402 72.5314 203.91C72.1922 204.417 69.4804 204.417 69.4804 204.417C69.4804 204.417 68.4628 205.265 67.447 205.774C66.4294 206.453 58.1261 207.808 54.2289 207.638C50.3317 207.299 46.6023 207.131 46.0952 206.453C45.5864 205.944 34.9106 189.505 34.2322 183.574C33.7251 177.642 36.096 174.593 38.4686 174.254Z" fill="#699DEE"/>
<path d="M35.5888 162.052L33.5554 164.933C33.5554 164.933 27.6247 164.594 27.4551 171.542C27.2855 176.796 23.8971 177.473 19.8285 176.457C15.9313 175.441 14.2354 179.845 14.2354 179.845C14.2354 179.845 17.963 179.167 20.3356 183.405C23.3866 189.336 32.3682 188.15 34.9104 182.048C37.1134 176.964 33.725 176.794 35.928 173.067C38.131 169.339 34.4034 165.27 34.4034 165.27L36.2672 162.559L35.5888 162.052Z" fill="#22407A"/>
<path d="M99.4761 203.741H83.7158V205.774H99.4761V203.741Z" fill="#83B4FF"/>
<path fill-rule="evenodd" clip-rule="evenodd" d="M170.144 70.7081C179.295 79.8593 179.295 94.9412 170.144 104.092C160.823 113.244 145.911 113.244 136.59 104.092C127.439 94.9412 127.439 79.8593 136.59 70.7081C145.911 61.389 160.823 61.389 170.144 70.7081Z" fill="#002255"/>
<path fill-rule="evenodd" clip-rule="evenodd" d="M97.7822 26.3092C129.303 -2.32995 177.432 -2.32995 208.952 26.3092L172.856 62.2358C161.332 53.4237 145.233 53.4237 133.878 62.2358L97.7822 26.3092Z" fill="#83B4FF"/>
<path fill-rule="evenodd" clip-rule="evenodd" d="M92.1908 142.903C63.5516 111.552 63.5516 63.2535 92.1908 31.9026L128.287 67.8291C119.305 79.353 119.305 95.4524 128.287 106.807L92.1908 142.903Z" fill="#1D77FF"/>
<path fill-rule="evenodd" clip-rule="evenodd" d="M208.952 148.494C177.432 177.133 129.303 177.133 97.7822 148.494L133.878 112.398C145.233 121.38 161.332 121.38 172.856 112.398L208.952 148.494Z" fill="#83B4FF"/>
<path fill-rule="evenodd" clip-rule="evenodd" d="M214.545 31.9026C243.184 63.2535 243.184 111.552 214.545 142.903L178.449 106.807C187.261 95.4524 187.261 79.353 178.449 67.8291L214.545 31.9026Z" fill="#1D77FF"/>
<path fill-rule="evenodd" clip-rule="evenodd" d="M136.928 151.884L143.368 144.597L155.061 153.579L166.246 148.155L170.143 137.31L172.855 133.919C172.855 133.919 180.312 155.782 157.773 161.712C146.927 164.933 137.946 154.257 136.928 151.884Z" fill="#EBF3FF"/>
<path fill-rule="evenodd" clip-rule="evenodd" d="M155.232 154.257L143.369 145.275L137.269 152.054L136.251 152.393L136.082 151.884L143.369 143.581L155.232 152.9L165.569 147.648L171.501 133.242L177.262 129.345L177.94 130.361L172.347 134.43L166.756 148.324L155.232 154.257Z" fill="#003D99"/>
<path fill-rule="evenodd" clip-rule="evenodd" d="M172.856 129.176L179.635 128.328L176.923 134.43L172.856 129.176Z" fill="#003D99"/>
<path fill-rule="evenodd" clip-rule="evenodd" d="M169.974 133.752C169.974 132.736 170.822 131.718 172.008 131.718C173.025 131.718 174.041 132.736 174.041 133.752C174.041 134.937 173.023 135.785 172.008 135.785C170.822 135.785 169.974 134.937 169.974 133.752Z" fill="#003D99"/>
<path fill-rule="evenodd" clip-rule="evenodd" d="M164.213 147.648C164.213 146.462 165.061 145.615 166.247 145.615C167.264 145.615 168.28 146.462 168.28 147.648C168.28 148.666 167.263 149.681 166.247 149.681C165.061 149.681 164.213 148.664 164.213 147.648Z" fill="#003D99"/>
<path fill-rule="evenodd" clip-rule="evenodd" d="M153.029 153.239C153.029 152.054 154.046 151.206 155.062 151.206C156.248 151.206 157.096 152.054 157.096 153.239C157.096 154.257 156.248 155.273 155.062 155.273C154.045 155.273 153.029 154.257 153.029 153.239Z" fill="#003D99"/>
<path fill-rule="evenodd" clip-rule="evenodd" d="M141.335 145.106C141.335 144.09 142.353 143.242 143.368 143.242C144.554 143.242 145.402 144.09 145.402 145.106C145.402 146.293 144.554 147.139 143.368 147.139C142.353 147.139 141.335 146.291 141.335 145.106Z" fill="#003D99"/>
<path fill-rule="evenodd" clip-rule="evenodd" d="M152.35 122.736L152.18 122.227C153.198 122.227 154.214 122.058 155.231 122.227V122.736C154.214 122.736 153.198 122.736 152.35 122.736ZM160.823 123.922C159.975 123.583 158.959 123.243 158.111 123.074V122.565C159.129 122.735 160.144 123.074 160.992 123.413L160.823 123.922ZM146.759 124.261L146.419 123.583C147.437 123.243 148.283 122.904 149.301 122.735L149.47 123.243C148.453 123.583 147.605 123.752 146.759 124.261ZM165.907 126.633C165.059 126.125 164.213 125.618 163.365 125.109L163.704 124.6C164.552 125.109 165.398 125.618 166.246 126.125L165.907 126.633ZM141.674 127.142L141.335 126.633C142.183 126.125 143.029 125.448 143.877 124.939L144.047 125.448C143.199 125.955 142.522 126.464 141.674 127.142ZM169.974 130.7C169.296 130.022 168.789 129.176 168.11 128.497L168.449 128.158C169.128 128.837 169.805 129.683 170.313 130.361L169.974 130.7ZM137.777 131.379L137.438 131.04C137.946 130.192 138.623 129.515 139.132 128.667L139.641 129.176C138.962 129.854 138.454 130.531 137.777 131.379ZM135.404 136.633L134.896 136.463C135.065 135.446 135.404 134.599 135.913 133.582L136.422 133.921C136.081 134.767 135.574 135.615 135.404 136.633ZM134.556 142.224H133.878C133.878 141.376 134.048 140.36 134.217 139.343H134.726C134.556 140.36 134.556 141.378 134.556 142.224ZM134.726 148.155C134.556 147.139 134.387 146.291 134.217 145.273L134.726 145.104C134.896 146.121 135.065 147.137 135.404 147.985L134.726 148.155Z" fill="#F6F8FB"/>
<path fill-rule="evenodd" clip-rule="evenodd" d="M172.009 134.43C171.84 134.091 171.67 133.582 171.5 133.243L172.009 132.904C172.179 133.413 172.348 133.752 172.688 134.261L172.009 134.43Z" fill="#003D99"/>
<path fill-rule="evenodd" clip-rule="evenodd" d="M154.045 162.73C146.757 162.73 139.979 158.832 136.251 152.393L137.269 151.715C140.659 157.815 147.098 161.543 154.046 161.543C164.722 161.543 173.366 152.9 173.366 142.394C173.366 139.682 172.858 136.97 171.842 134.598L172.859 134.089C174.045 136.801 174.554 139.511 174.554 142.392C174.55 153.578 165.399 162.73 154.045 162.73Z" fill="#003D99"/>
<path fill-rule="evenodd" clip-rule="evenodd" d="M143.538 159.509H143.199V159.17H143.538V159.509ZM143.538 144.936H143.199V144.597H143.538V144.936ZM143.538 146.461H143.199V145.613H143.538V146.461ZM143.538 147.987H143.199V147.139H143.538V147.987ZM143.538 149.342H143.199V148.664H143.538V149.342ZM143.538 150.867H143.199V150.189H143.538V150.867ZM143.538 152.393H143.199V151.715H143.538V152.393ZM143.538 153.918H143.199V153.24H143.538V153.918ZM143.538 155.443H143.199V154.595H143.538V155.443ZM143.538 156.967H143.199V156.119H143.538V156.967ZM143.538 158.494H143.199V157.646H143.538V158.494Z" fill="#003D99"/>
<path fill-rule="evenodd" clip-rule="evenodd" d="M155.232 162.391H154.893V162.051H155.232V162.391ZM155.232 152.9H154.893V152.561H155.232V152.9ZM155.232 154.257H154.893V153.579H155.232V154.257ZM155.232 155.782H154.893V155.103H155.232V155.782ZM155.232 157.137H154.893V156.458H155.232V157.137ZM155.232 158.493H154.893V157.815H155.232V158.493ZM155.232 159.848H154.893V159.17H155.232V159.848ZM155.232 161.205H154.893V160.527H155.232V161.205Z" fill="#003D99"/>
<path fill-rule="evenodd" clip-rule="evenodd" d="M166.416 158.154H166.077V157.815H166.416V158.154ZM166.416 147.817H166.077V147.478H166.416V147.817ZM166.416 149.342H166.077V148.664H166.416V149.342ZM166.416 150.867H166.077V150.188H166.416V150.867ZM166.416 152.393H166.077V151.715H166.416V152.393ZM166.416 153.918H166.077V153.239H166.416V153.918ZM166.416 155.442H166.077V154.764H166.416V155.442ZM166.416 156.967H166.077V156.289H166.416V156.967Z" fill="#003D99"/>
<path fill-rule="evenodd" clip-rule="evenodd" d="M110.154 80.0295L99.1389 87.317L93.7153 75.2843C95.4096 74.606 97.2734 74.0989 99.1389 74.0989C103.715 74.0989 107.781 76.4715 110.154 80.0295Z" fill="#D4E5FF"/>
<path fill-rule="evenodd" clip-rule="evenodd" d="M102.358 100.367C101.341 100.537 100.325 100.707 99.1375 100.707C95.0707 100.707 91.3414 98.8427 88.9688 95.7917L99.1375 87.3188L102.358 100.367Z" fill="#0C5FDD"/>
<path fill-rule="evenodd" clip-rule="evenodd" d="M99.1382 87.3167L88.9694 95.7896C87.1056 93.5866 85.9185 90.5356 85.9185 87.3167C85.9185 85.2833 86.4272 83.4195 87.2735 81.5557L99.1382 87.3167Z" fill="#004BBB"/>
<path fill-rule="evenodd" clip-rule="evenodd" d="M99.1389 87.317L87.2759 81.556C88.6309 78.8442 90.8339 76.6412 93.7153 75.2861L99.1389 87.317Z" fill="#EBF3FF"/>
<path fill-rule="evenodd" clip-rule="evenodd" d="M112.527 87.3172C112.527 93.587 108.121 98.841 102.358 100.366L99.1372 87.3172L110.152 80.0298C111.679 82.0649 112.527 84.6071 112.527 87.3172Z" fill="#83B4FF"/>
<path fill-rule="evenodd" clip-rule="evenodd" d="M110.662 107.822L109.477 105.45C110.662 104.941 111.85 104.095 112.867 103.247L114.561 105.28C113.373 106.298 112.018 107.144 110.662 107.822Z" fill="#EBF3FF"/>
<path fill-rule="evenodd" clip-rule="evenodd" d="M100.324 110.365C99.985 110.365 99.6458 110.365 99.3066 110.365L99.4762 107.653C101.17 107.822 102.866 107.653 104.561 107.314L105.069 109.856C103.545 110.195 101.849 110.365 100.324 110.365Z" fill="#EBF3FF"/>
<path fill-rule="evenodd" clip-rule="evenodd" d="M93.5453 109.347C92.3598 109.008 91.1726 108.499 89.9872 107.823C81.1752 103.247 76.2604 93.2495 78.2938 83.4199L81.0056 83.9287C79.1417 92.5712 83.3782 101.553 91.3422 105.62C92.1902 106.128 93.3757 106.468 94.3932 106.805L93.5453 109.347Z" fill="#EBF3FF"/>
<path fill-rule="evenodd" clip-rule="evenodd" d="M75.5825 83.5892L81.5132 78.3352L83.2091 86.1314L75.5825 83.5892Z" fill="#EBF3FF"/>
<path fill-rule="evenodd" clip-rule="evenodd" d="M112.018 66.9812C108.797 66.9812 106.257 69.5234 106.257 72.7439C106.257 75.9645 108.799 78.505 112.018 78.505C115.238 78.505 117.779 75.9628 117.779 72.7439C117.779 69.5251 115.238 66.9812 112.018 66.9812ZM112.018 80.8776C107.442 80.8776 103.714 77.3195 103.714 72.7439C103.714 68.1683 107.442 64.4407 112.018 64.4407C116.593 64.4407 120.321 68.1683 120.321 72.7439C120.321 77.3195 116.593 80.8776 112.018 80.8776Z" fill="#003D99"/>
<path fill-rule="evenodd" clip-rule="evenodd" d="M105.069 72.7439C105.069 68.8466 108.12 65.7957 112.017 65.7957C115.914 65.7957 118.965 68.8466 118.965 72.7439C118.965 76.6411 115.914 79.6921 112.017 79.6921C108.12 79.6921 105.069 76.6411 105.069 72.7439Z" fill="white"/>
<path fill-rule="evenodd" clip-rule="evenodd" d="M112.187 73.0814L111.848 72.2352L114.39 71.3872L115.238 71.5568L114.73 72.0656L112.187 73.0814Z" fill="#003D99"/>
<path fill-rule="evenodd" clip-rule="evenodd" d="M112.187 72.7437H111.848L111.678 69.0144L112.017 67.9985L112.187 68.8448V72.7437Z" fill="#003D99"/>
<path fill-rule="evenodd" clip-rule="evenodd" d="M111.169 72.7437C111.169 72.2349 111.509 71.8958 112.017 71.8958C112.526 71.8958 112.865 72.2349 112.865 72.7437C112.865 73.2525 112.526 73.5917 112.017 73.5917C111.509 73.5917 111.169 73.2508 111.169 72.7437Z" fill="#003D99"/>
<path d="M112.187 66.4724H111.848V67.6579H112.187V66.4724Z" fill="#003D99"/>
<path fill-rule="evenodd" clip-rule="evenodd" d="M114.729 68.3378L114.39 68.1682L114.898 67.1506L115.407 67.4898L114.729 68.3378Z" fill="#003D99"/>
<path fill-rule="evenodd" clip-rule="evenodd" d="M116.594 70.3713L116.254 70.0321L117.272 69.3538L117.611 69.6929L116.594 70.3713Z" fill="#003D99"/>
<path d="M118.287 72.5742H117.102V72.9134H118.287V72.5742Z" fill="#003D99"/>
<path fill-rule="evenodd" clip-rule="evenodd" d="M116.254 75.4539L116.594 75.1165L117.611 75.6235L117.272 75.9627L116.254 75.4539Z" fill="#003D99"/>
<path fill-rule="evenodd" clip-rule="evenodd" d="M114.39 77.1498L114.729 76.9802L115.407 77.9961L114.898 78.1657L114.39 77.1498Z" fill="#003D99"/>
<path d="M112.187 77.8267H111.848V79.0138H112.187V77.8267Z" fill="#003D99"/>
<path d="M109.312 76.986L108.803 78.0032L109.141 78.1727L109.651 77.1555L109.312 76.986Z" fill="#003D99"/>
<path fill-rule="evenodd" clip-rule="evenodd" d="M107.442 75.1165L107.781 75.4539L106.764 75.9627L106.594 75.6235L107.442 75.1165Z" fill="#003D99"/>
<path d="M106.933 72.5742H105.748V72.9134H106.933V72.5742Z" fill="#003D99"/>
<path fill-rule="evenodd" clip-rule="evenodd" d="M107.781 70.0321L107.442 70.3713L106.594 69.6929L106.764 69.3538L107.781 70.0321Z" fill="#003D99"/>
<path fill-rule="evenodd" clip-rule="evenodd" d="M109.644 68.1684L109.305 68.338L108.796 67.4901L109.136 67.1509L109.644 68.1684Z" fill="#003D99"/>
<path d="M176.415 12.5825H169.806V46.3061H176.415V12.5825Z" fill="#004BBB"/>
<path d="M158.789 14.7856H152.18V46.3062H158.789V14.7856Z" fill="#004BBB"/>
<path d="M141.165 25.1235H134.556V46.3074H141.165V25.1235Z" fill="#004BBB"/>
<path d="M172.855 26.1396H166.416V46.4755H172.855V26.1396Z" fill="#D4E5FF"/>
<path d="M155.232 28.5125H148.623V46.4757H155.232V28.5125Z" fill="#D4E5FF"/>
<path d="M137.608 34.4448H130.999V46.4774H137.608V34.4448Z" fill="#D4E5FF"/>
<path d="M142.689 22.4119H136.759V24.6149H142.689V22.4119Z" fill="#D4E5FF"/>
<path d="M160.314 11.9058H154.384V14.2784H160.314V11.9058Z" fill="#D4E5FF"/>
<path d="M177.94 9.87085H172.009V12.0739H177.94V9.87085Z" fill="#D4E5FF"/>
<path fill-rule="evenodd" clip-rule="evenodd" d="M153.876 23.2579C153.707 23.2579 153.368 23.0883 153.198 22.9187L144.216 15.8009H134.387C133.878 15.8009 133.369 15.4617 133.369 14.953C133.369 14.4442 133.878 14.105 134.387 14.105H144.723L154.383 21.562C154.723 21.9012 154.723 22.41 154.553 22.9187C154.383 23.09 154.044 23.2579 153.876 23.2579Z" fill="#002F77"/>
<path fill-rule="evenodd" clip-rule="evenodd" d="M135.743 1.73706C135.404 1.73706 135.065 1.90665 134.726 2.07625C134.556 2.41544 134.387 2.75463 134.387 3.09381C134.387 3.433 134.556 3.60259 134.726 3.94178C135.235 4.45056 136.081 4.45056 136.59 3.94178C137.098 3.433 137.098 2.58503 136.59 2.07796C136.42 1.90665 136.081 1.73706 135.743 1.73706ZM135.743 5.97349C134.895 5.97349 134.219 5.6343 133.54 5.12552C133.032 4.61673 132.692 3.77048 132.692 3.0921C132.692 2.24413 133.032 1.39787 133.54 0.889085C134.726 -0.296362 136.761 -0.296362 137.777 0.889085C138.962 2.07453 138.962 3.94007 137.777 5.12552C137.268 5.6343 136.59 5.97349 135.743 5.97349Z" fill="#002F77"/>
<path fill-rule="evenodd" clip-rule="evenodd" d="M135.744 9.87082C135.405 9.87082 135.235 9.87082 135.065 9.70122C134.726 9.36203 134.726 8.68537 135.065 8.34619L141.166 2.41552C141.505 2.07634 142.014 2.07634 142.351 2.41552C142.69 2.75471 142.69 3.2635 142.351 3.60097L136.251 9.70122C136.081 9.87082 135.912 9.87082 135.744 9.87082Z" fill="#002F77"/>
<path fill-rule="evenodd" clip-rule="evenodd" d="M141.674 7.6695C141.335 7.6695 140.996 7.83909 140.826 8.17828C140.487 8.34787 140.487 8.68706 140.487 9.02625C140.487 9.36544 140.487 9.70463 140.826 9.87422C141.335 10.383 142.182 10.383 142.521 9.87422C142.86 9.70463 143.03 9.36544 143.03 9.02625C143.03 8.68706 142.86 8.34787 142.521 8.17828C142.353 7.83738 142.014 7.6695 141.674 7.6695ZM141.674 12.0738C140.826 12.0738 140.15 11.7346 139.641 11.058C138.456 10.0421 138.456 8.00697 139.641 6.82152C140.659 5.80396 142.692 5.80396 143.877 6.82152C144.386 7.4999 144.725 8.17657 144.725 9.02454C144.725 9.87251 144.386 10.5492 143.877 11.058C143.199 11.7363 142.522 12.0738 141.674 12.0738Z" fill="#002F77"/>
<path fill-rule="evenodd" clip-rule="evenodd" d="M222.679 100.274L196.751 100.449V93.4575L206.41 86.8157L211.494 81.0469L214.376 82.2713L222.679 94.1554V100.274Z" fill="#004BBB"/>
<path fill-rule="evenodd" clip-rule="evenodd" d="M217.55 74.4617L208.952 84.4432H212.342V100.449H222.679V84.4432H224.542L225.819 84.4241L217.55 74.4617Z" fill="#EBF3FF"/>
<path fill-rule="evenodd" clip-rule="evenodd" d="M223.758 83.6952L217.407 76.4541L211.053 83.6952H213.108V99.8939H221.703V83.6952H223.758Z" fill="#004BBB"/>
<path fill-rule="evenodd" clip-rule="evenodd" d="M191.666 67.4897L193.021 70.3711H190.142L191.666 67.4897Z" fill="#EBF3FF"/>
<path fill-rule="evenodd" clip-rule="evenodd" d="M226.746 100.188L223.866 101.712L223.697 98.8308L226.746 100.188Z" fill="#EBF3FF"/>
<path fill-rule="evenodd" clip-rule="evenodd" d="M190.649 93.0798C190.649 92.571 190.989 92.0623 191.667 92.0623C192.176 92.2319 192.515 92.571 192.515 93.0798C192.515 93.7582 192.176 94.0974 191.497 94.0974C190.989 94.0957 190.649 93.7565 190.649 93.0798Z" fill="#EBF3FF"/>
<path fill-rule="evenodd" clip-rule="evenodd" d="M190.649 86.6404C190.649 86.1316 190.989 85.6228 191.667 85.6228C192.176 85.6228 192.515 86.1316 192.515 86.6404C192.515 87.3187 192.176 87.6579 191.497 87.6579C190.989 87.6562 190.649 87.1474 190.649 86.6404Z" fill="#EBF3FF"/>
<path fill-rule="evenodd" clip-rule="evenodd" d="M195.903 93.0798C195.903 92.571 196.243 92.0623 196.751 92.0623C197.43 92.0623 197.769 92.571 197.769 93.0798C197.769 93.7582 197.43 94.0974 196.751 94.0974C196.243 94.0957 195.903 93.7565 195.903 93.0798Z" fill="#EBF3FF"/>
<path fill-rule="evenodd" clip-rule="evenodd" d="M195.903 100.187C195.903 99.6787 196.243 99.1699 196.751 99.1699C197.43 99.1699 197.769 99.6787 197.769 100.187C197.769 100.696 197.43 101.205 196.751 101.205C196.243 101.203 195.903 100.695 195.903 100.187Z" fill="#EBF3FF"/>
<path fill-rule="evenodd" clip-rule="evenodd" d="M192.176 93.3207H191.667V92.9102H192.176V93.3207ZM193.701 93.3207H193.023V92.9102H193.701V93.3207ZM195.395 93.3207H194.547V92.9102H195.395V93.3207ZM196.921 93.3207H196.582H196.243V92.9102H196.921V93.3207ZM196.921 95.3716H196.582V94.3451H196.921V95.3716ZM196.921 97.4225H196.582V96.396H196.921V97.4225ZM196.921 99.2681H196.582V98.2416H196.921V99.2681Z" fill="#EBF3FF"/>
<path fill-rule="evenodd" clip-rule="evenodd" d="M205.563 86.6404C205.563 86.1316 205.903 85.6228 206.411 85.6228C207.09 85.6228 207.429 86.1316 207.429 86.6404C207.429 87.1492 207.09 87.6579 206.411 87.6579C205.903 87.6562 205.563 87.1474 205.563 86.6404Z" fill="#EBF3FF"/>
<path fill-rule="evenodd" clip-rule="evenodd" d="M205.563 100.357C205.563 99.6788 205.903 99.3396 206.411 99.3396C207.09 99.3396 207.429 99.6788 207.429 100.357C207.429 100.866 207.09 101.205 206.411 101.205C205.903 101.203 205.563 100.864 205.563 100.357Z" fill="#EBF3FF"/>
<path fill-rule="evenodd" clip-rule="evenodd" d="M192.176 86.8765H191.667V86.4709H192.176V86.8765ZM193.701 86.8765H193.023V86.4709H193.701V86.8765ZM195.395 86.8765H194.547V86.4709H195.395V86.8765ZM196.921 86.8765H196.243V86.4709H196.921V86.8765ZM198.616 86.8765H197.768V86.4709H198.616V86.8765ZM200.31 86.8765H199.462V86.4709H200.31V86.8765ZM201.835 86.8765H200.987V86.4709H201.835V86.8765ZM203.531 86.8765H202.683V86.4709H203.531V86.8765ZM205.055 86.8765H204.207V86.4709H205.055V86.8765ZM206.58 86.8765H206.41H205.901V86.4709H206.58V86.8765ZM206.58 88.9021H206.41V87.8882H206.58V88.9021ZM206.58 90.7249H206.41V89.9138H206.58V90.7249ZM206.58 92.7505H206.41V91.7367H206.58V92.7505ZM206.58 94.5753H206.41V93.7643H206.58V94.5753ZM206.58 96.6009H206.41V95.5871H206.58V96.6009ZM206.58 98.6265H206.41V97.6127H206.58V98.6265ZM206.58 100.449H206.41V99.4355H206.58V100.449Z" fill="#EBF3FF"/>
<path fill-rule="evenodd" clip-rule="evenodd" d="M190.649 74.2685C190.649 73.7598 190.989 73.251 191.667 73.251C192.176 73.251 192.515 73.7598 192.515 74.2685C192.515 74.7773 192.176 75.2844 191.497 75.2844C190.989 75.2861 190.649 74.7773 190.649 74.2685Z" fill="#EBF3FF"/>
<path fill-rule="evenodd" clip-rule="evenodd" d="M216.409 74.2685C216.409 73.7598 216.917 73.251 217.426 73.251C217.935 73.251 218.444 73.7598 218.444 74.2685C218.444 74.7773 217.935 75.2844 217.426 75.2844C216.917 75.2861 216.409 74.7773 216.409 74.2685Z" fill="#EBF3FF"/>
<path d="M217.427 74.0989H217.087V74.4381H217.427V74.0989Z" fill="#D4E5FF"/>
<path fill-rule="evenodd" clip-rule="evenodd" d="M193.531 74.4381H192.853V74.0989H193.531V74.4381ZM195.225 74.4381H194.377V74.0989H195.225V74.4381ZM196.921 74.4381H196.073V74.0989H196.921V74.4381ZM198.446 74.4381H197.598V74.0989H198.446V74.4381ZM200.14 74.4381H199.292V74.0989H200.14V74.4381ZM201.666 74.4381H200.818V74.0989H201.666V74.4381ZM203.361 74.4381H202.513V74.0989H203.361V74.4381ZM204.885 74.4381H204.037V74.0989H204.885V74.4381ZM206.579 74.4381H205.731V74.0989H206.579V74.4381ZM208.106 74.4381H207.427V74.0989H208.106V74.4381ZM209.8 74.4381H208.952V74.0989H209.8V74.4381ZM211.325 74.4381H210.646V74.0989H211.325V74.4381ZM213.019 74.4381H212.171V74.0989H213.019V74.4381ZM214.715 74.4381H213.867V74.0989H214.715V74.4381ZM216.239 74.4381H215.391V74.0989H216.239V74.4381Z" fill="#EBF3FF"/>
<path fill-rule="evenodd" clip-rule="evenodd" d="M191.497 101.722C191.328 101.722 191.328 101.553 191.328 101.383V69.8625C191.328 69.6929 191.328 69.6929 191.497 69.6929C191.667 69.6929 191.836 69.6929 191.836 69.8625V101.383C191.836 101.553 191.667 101.722 191.497 101.722Z" fill="#EBF3FF"/>
<path fill-rule="evenodd" clip-rule="evenodd" d="M223.696 100.525H188.108C187.939 100.525 187.769 100.525 187.769 100.355C187.769 100.186 187.939 100.016 188.108 100.016H223.696C223.865 100.016 224.035 100.186 224.035 100.355C224.035 100.525 223.865 100.525 223.696 100.525Z" fill="#EBF3FF"/>
<path fill-rule="evenodd" clip-rule="evenodd" d="M196.921 93.4189L196.582 92.9197L206.24 86.6012L217.257 74.4617L217.764 74.7945L206.749 87.0987L196.921 93.4189Z" fill="#EBF3FF"/>
<path fill-rule="evenodd" clip-rule="evenodd" d="M221.324 78.5049C221.154 78.5049 220.985 78.3353 220.815 78.1657C220.645 77.9961 220.645 77.4873 220.985 77.3177L225.73 73.5901H233.187C233.526 73.5901 233.865 73.7597 233.865 74.2685C233.865 74.6077 233.526 74.7772 233.187 74.7772H226.239L221.663 78.3353C221.493 78.5049 221.493 78.5049 221.324 78.5049Z" fill="#EBF3FF"/>
<path fill-rule="evenodd" clip-rule="evenodd" d="M226.914 64.7777C226.575 64.7777 226.406 64.7777 226.236 64.9473C226.066 65.1169 225.897 65.4561 225.897 65.6257C225.897 65.7953 226.066 66.1345 226.236 66.3041C226.575 66.6433 227.254 66.6433 227.591 66.3041C227.761 66.1345 227.761 65.7953 227.761 65.6257C227.761 65.4561 227.761 65.1169 227.591 64.9473C227.423 64.7777 227.084 64.7777 226.914 64.7777ZM226.914 67.8287C226.236 67.8287 225.729 67.4895 225.39 67.1503C224.881 66.8111 224.711 66.1328 224.711 65.6257C224.711 65.1169 224.881 64.4403 225.39 64.1011C226.238 63.2531 227.593 63.2531 228.441 64.1011C228.78 64.4403 228.95 65.1169 228.95 65.6257C228.95 66.1345 228.78 66.8111 228.441 67.1503C227.932 67.4895 227.423 67.8287 226.914 67.8287Z" fill="#EBF3FF"/>
<path fill-rule="evenodd" clip-rule="evenodd" d="M226.915 70.5408C226.745 70.5408 226.576 70.5408 226.406 70.3712C226.236 70.2016 226.236 69.6928 226.406 69.5232L230.812 65.1172C230.982 64.9476 231.321 64.9476 231.66 65.1172C231.83 65.4564 231.83 65.7956 231.66 65.9652L227.254 70.3712C227.254 70.5408 227.084 70.5408 226.915 70.5408Z" fill="#EBF3FF"/>
<path fill-rule="evenodd" clip-rule="evenodd" d="M231.153 69.0145C230.984 69.0145 230.644 69.0146 230.475 69.1841C230.305 69.5233 230.305 69.6929 230.305 69.8625C230.305 70.2017 230.305 70.3713 230.475 70.5409C230.814 70.8801 231.492 70.8801 231.83 70.5409C232.169 70.2017 232.169 69.6929 231.83 69.1859C231.66 69.0145 231.491 69.0145 231.153 69.0145ZM231.153 72.0655C230.645 72.0655 230.136 71.8959 229.629 71.3872C228.781 70.5392 228.781 69.1841 229.629 68.3362C230.477 67.4882 231.832 67.4882 232.68 68.3362C233.528 69.1841 233.528 70.5392 232.68 71.3872C232.339 71.8959 231.83 72.0655 231.153 72.0655Z" fill="#EBF3FF"/>
<path fill-rule="evenodd" clip-rule="evenodd" d="M153.367 67.49C164.382 67.49 173.194 76.4716 173.194 87.3171C173.194 98.3321 164.382 107.314 153.367 107.314C142.352 107.314 133.54 98.3321 133.54 87.3171C133.54 76.4716 142.352 67.49 153.367 67.49Z" fill="white"/>
<path fill-rule="evenodd" clip-rule="evenodd" d="M153.368 69.5234C163.198 69.5234 171.162 77.4875 171.162 87.3171C171.162 97.1467 163.198 105.28 153.368 105.28C143.538 105.28 135.574 97.1467 135.574 87.3171C135.574 77.4892 143.538 69.5234 153.368 69.5234Z" fill="#002255"/>
<path fill-rule="evenodd" clip-rule="evenodd" d="M153.198 105.28C143.368 105.111 135.573 97.1467 135.573 87.3171C135.573 77.6571 143.37 69.693 153.198 69.5234V67.49C142.352 67.6596 133.54 76.4716 133.54 87.3171C133.54 98.3321 142.352 107.144 153.198 107.314V105.28Z" fill="white"/>
<path fill-rule="evenodd" clip-rule="evenodd" d="M135.574 87.3171C135.574 97.1467 143.37 105.111 153.198 105.28V69.5234C143.369 69.693 135.574 77.6571 135.574 87.3171Z" fill="#003D99"/>
<path fill-rule="evenodd" clip-rule="evenodd" d="M151.673 97.9945C149.301 97.8249 147.098 97.3161 144.895 96.3003V91.0463C146.08 91.5551 147.437 92.2317 148.962 92.5709C150.486 93.0797 151.673 93.2493 152.859 93.2493C153.707 93.2493 154.383 93.0797 154.892 92.9101C155.231 92.7405 155.571 92.4013 155.571 91.8925C155.571 91.5534 155.401 91.2142 155.062 90.8767C154.723 90.7071 154.214 90.3679 153.537 90.0287C152.859 89.6895 151.843 89.3503 150.656 88.8416C149.301 88.3328 148.114 87.8257 147.266 87.1473C146.418 86.469 145.911 85.7923 145.402 85.1139C145.063 84.2659 144.893 83.2501 144.893 82.0629C144.893 80.3687 145.571 79.0119 146.587 77.9961C147.773 76.9785 149.469 76.3019 151.841 76.1323V72.5742H155.231V76.1323C157.265 76.3019 159.468 76.8106 161.671 77.6569L159.807 82.4021C157.434 81.3863 155.401 80.7079 153.707 80.7079C152.689 80.7079 152.182 80.8775 151.843 81.0471C151.504 81.2167 151.334 81.5559 151.334 82.0646C151.334 82.4038 151.334 82.743 151.673 82.9126C151.843 83.0822 152.352 83.4214 153.028 83.7606C153.537 83.9302 154.383 84.2694 155.571 84.7764C157.774 85.4548 159.468 86.4707 160.485 87.4882C161.333 88.5058 161.84 89.8608 161.84 91.3855C161.84 93.2493 161.332 94.7756 160.146 95.7915C158.961 96.9769 157.265 97.6553 155.062 97.9945V102.231H151.672V97.9945H151.673Z" fill="white"/>
<path fill-rule="evenodd" clip-rule="evenodd" d="M225.561 225.601L223.697 227.637L224.036 225.771L225.73 224.755L225.561 225.601Z" fill="#D4E5FF"/>
<path fill-rule="evenodd" clip-rule="evenodd" d="M226.915 239.667L224.036 242.379L224.543 240.346L226.915 238.652V239.667Z" fill="#D4E5FF"/>
<path fill-rule="evenodd" clip-rule="evenodd" d="M240.642 216.45C240.642 221.535 236.575 225.602 231.66 225.602H225.56L240.642 216.281V216.45Z" fill="#D4E5FF"/>
<path fill-rule="evenodd" clip-rule="evenodd" d="M234.711 216.281H240.642L225.56 225.602V225.432C225.56 220.349 229.627 216.281 234.711 216.281Z" fill="#83B4FF"/>
<path d="M223.866 214.417H223.018V251.191H223.866V214.417Z" fill="#83B4FF"/>
<path d="M224.714 214.417H223.866V251.191H224.714V214.417Z" fill="#D4E5FF"/>
<path fill-rule="evenodd" clip-rule="evenodd" d="M223.866 274.747H212.003L206.749 250.682H223.866V274.747Z" fill="#83B4FF"/>
<path fill-rule="evenodd" clip-rule="evenodd" d="M223.866 274.748H235.729L240.812 250.683H223.866V274.748Z" fill="#1D77FF"/>
<path fill-rule="evenodd" clip-rule="evenodd" d="M206.409 247.464H223.864V250.684H206.409C205.561 250.684 205.054 250.006 205.054 249.16V248.82C205.054 248.14 205.563 247.464 206.409 247.464Z" fill="#0C5FDD"/>
<path fill-rule="evenodd" clip-rule="evenodd" d="M241.321 247.464H223.866V250.684H241.321C241.999 250.684 242.676 250.006 242.676 249.16V248.82C242.676 248.14 241.999 247.464 241.321 247.464Z" fill="#004BBB"/>
<path fill-rule="evenodd" clip-rule="evenodd" d="M223.865 276.951H213.866C212.849 276.951 212.002 275.935 212.002 274.748H223.865V276.951Z" fill="#0C5FDD"/>
<path fill-rule="evenodd" clip-rule="evenodd" d="M223.866 276.951H233.696C234.881 276.951 235.729 275.935 235.729 274.748H223.866V276.951Z" fill="#004BBB"/>
<path fill-rule="evenodd" clip-rule="evenodd" d="M221.832 225.601L223.696 227.636L223.357 225.771L221.832 224.755V225.601Z" fill="#83B4FF"/>
<path fill-rule="evenodd" clip-rule="evenodd" d="M221.493 240.176L223.357 242.379L223.018 240.346L221.493 239.328V240.176Z" fill="#83B4FF"/>
<path fill-rule="evenodd" clip-rule="evenodd" d="M205.054 230.347C205.054 236.108 209.63 240.683 215.223 240.683H221.832L205.054 230.347Z" fill="#D4E5FF"/>
<path fill-rule="evenodd" clip-rule="evenodd" d="M211.663 230.347H205.054L221.832 240.683V240.514C221.832 234.922 217.256 230.347 211.663 230.347Z" fill="#83B4FF"/>
<path fill-rule="evenodd" clip-rule="evenodd" d="M206.749 216.45C206.749 221.535 210.815 225.602 215.9 225.602H221.83L206.749 216.281V216.45Z" fill="#D4E5FF"/>
<path fill-rule="evenodd" clip-rule="evenodd" d="M212.851 216.281H206.75L221.832 225.602V225.432C221.832 220.349 217.764 216.281 212.851 216.281Z" fill="#83B4FF"/>
<path fill-rule="evenodd" clip-rule="evenodd" d="M217.257 200.183C214.206 204.249 215.054 210.012 218.951 213.062L223.696 216.789L217.257 200.183Z" fill="#D4E5FF"/>
<path fill-rule="evenodd" clip-rule="evenodd" d="M222.002 203.741L217.257 200.183L223.696 216.791L223.866 216.622C226.915 212.553 226.069 206.792 222.002 203.741Z" fill="#83B4FF"/>
<path fill-rule="evenodd" clip-rule="evenodd" d="M240.811 237.634C240.811 241.701 237.421 244.921 233.524 244.921C229.627 244.921 226.236 241.701 226.236 237.634C226.236 233.737 229.627 230.516 233.524 230.516C237.421 230.516 240.811 233.737 240.811 237.634Z" fill="#D4E5FF"/>
<path fill-rule="evenodd" clip-rule="evenodd" d="M233.523 244.243C229.965 244.243 226.914 241.361 226.914 237.634C226.914 234.076 229.965 231.025 233.523 231.025C237.081 231.025 240.132 234.076 240.132 237.634C240.134 241.361 237.083 244.243 233.523 244.243ZM233.523 230.855C229.796 230.855 226.745 233.906 226.745 237.634C226.745 241.531 229.796 244.582 233.523 244.582C237.251 244.582 240.302 241.531 240.302 237.634C240.302 233.906 237.253 230.855 233.523 230.855Z" fill="white"/>
<path fill-rule="evenodd" clip-rule="evenodd" d="M233.524 244.921C232.338 244.921 231.321 244.582 230.303 244.243C229.625 243.734 228.948 243.226 228.27 242.718C228.27 242.718 228.27 242.549 228.1 242.549C227.083 241.194 226.236 239.498 226.236 237.634C226.236 237.634 226.236 237.634 226.236 237.464C226.406 237.464 226.406 237.464 226.406 237.464C226.406 237.295 226.406 237.295 226.406 237.295C226.406 236.108 226.745 235.092 227.254 234.244L227.423 234.413C226.915 235.431 226.745 236.447 226.745 237.634C226.745 241.531 229.796 244.582 233.524 244.582C235.218 244.582 236.914 243.904 238.099 242.718L238.439 243.058C237.76 243.566 236.914 244.075 236.066 244.414C235.896 244.414 235.896 244.414 235.896 244.414C235.896 244.414 235.896 244.414 235.896 244.584H235.727C235.218 244.754 234.879 244.754 234.372 244.923C234.372 244.923 234.372 244.923 234.202 244.923C234.033 244.923 234.033 244.923 234.033 244.923C234.033 244.923 234.033 244.923 233.863 244.923C233.693 244.923 233.693 244.923 233.693 244.923C233.524 244.921 233.524 244.921 233.524 244.921ZM233.524 244.243C229.966 244.243 226.915 241.362 226.915 237.634C226.915 236.618 227.254 235.601 227.763 234.583L237.931 242.718C236.744 243.734 235.22 244.243 233.524 244.243Z" fill="#6BA1F2"/>
<path fill-rule="evenodd" clip-rule="evenodd" d="M233.523 244.582C229.796 244.582 226.745 241.531 226.745 237.634C226.745 236.448 226.914 235.431 227.423 234.413L227.762 234.583C227.253 235.6 226.914 236.616 226.914 237.634C226.914 241.362 229.965 244.243 233.523 244.243C235.217 244.243 236.744 243.734 237.929 242.718H238.099C236.913 243.904 235.219 244.582 233.523 244.582Z" fill="white"/>
<path fill-rule="evenodd" clip-rule="evenodd" d="M238.439 237.634C238.439 240.346 236.236 242.549 233.524 242.549C230.812 242.549 228.609 240.346 228.609 237.634C228.609 234.922 230.812 232.719 233.524 232.719C236.236 232.719 238.439 234.922 238.439 237.634Z" fill="#83B4FF"/>
<path fill-rule="evenodd" clip-rule="evenodd" d="M238.269 237.634C238.269 240.176 236.236 242.379 233.694 242.379C231.152 242.379 229.118 240.176 229.118 237.634C229.118 235.092 231.152 233.058 233.694 233.058C236.236 233.058 238.269 235.092 238.269 237.634Z" fill="white"/>
<path fill-rule="evenodd" clip-rule="evenodd" d="M233.356 240.346C232.677 240.346 232.17 240.176 231.662 240.007V238.652C232.001 238.821 232.34 238.991 232.679 238.991C233.018 239.161 233.358 239.161 233.527 239.161C233.866 239.161 234.036 239.161 234.036 239.161C234.206 239.161 234.206 238.991 234.206 238.821C234.206 238.821 234.206 238.652 234.036 238.652C234.036 238.652 233.866 238.482 233.697 238.482C233.527 238.313 233.358 238.313 233.018 238.143C232.679 238.143 232.51 237.973 232.17 237.804C232.001 237.634 231.831 237.465 231.831 237.295C231.662 237.126 231.662 236.786 231.662 236.617C231.662 236.108 231.831 235.769 232.001 235.601C232.34 235.262 232.679 235.092 233.356 235.092V234.244H234.204V235.092C234.713 235.092 235.221 235.262 235.728 235.431L235.22 236.617C234.711 236.278 234.202 236.278 233.695 236.278C233.525 236.278 233.356 236.278 233.356 236.278C233.186 236.278 233.186 236.447 233.186 236.447C233.186 236.617 233.186 236.617 233.356 236.786C233.356 236.786 233.525 236.786 233.525 236.956C233.695 236.956 234.034 237.126 234.204 237.126C234.713 237.295 235.221 237.634 235.389 237.804C235.559 238.143 235.728 238.313 235.728 238.821C235.728 239.161 235.559 239.5 235.389 239.837C235.05 240.176 234.711 240.346 234.204 240.346V241.362H233.356V240.346Z" fill="#83B4FF"/>
<path fill-rule="evenodd" clip-rule="evenodd" d="M255.387 195.777H255.895C253.353 198.149 251.659 201.539 251.659 205.267V257.971C251.659 264.411 256.913 269.665 263.522 269.665H291.824C289.621 271.698 286.739 272.885 283.52 272.885H254.542C248.103 272.885 242.849 267.631 242.849 261.192V208.318C242.845 201.538 248.438 195.777 255.387 195.777ZM294.195 202.555C294.364 202.725 294.364 202.894 294.534 203.064C294.364 202.893 294.364 202.723 294.195 202.555Z" fill="#83B4FF"/>
<path fill-rule="evenodd" clip-rule="evenodd" d="M255.895 195.777H283.01C289.958 195.777 295.719 201.539 295.719 208.486V260.682C295.719 264.24 294.195 267.46 291.822 269.663H263.52C256.911 269.663 251.657 264.409 251.657 257.97V205.265C251.657 201.538 253.353 198.148 255.895 195.777Z" fill="#D4E5FF"/>
<path fill-rule="evenodd" clip-rule="evenodd" d="M253.86 188.15H285.72C287.583 188.15 289.278 189.844 289.278 191.708V192.217C289.278 194.081 287.583 195.775 285.72 195.775H253.86C251.826 195.775 250.302 194.081 250.302 192.217V191.708C250.302 189.844 251.826 188.15 253.86 188.15Z" fill="#003D99"/>
<path fill-rule="evenodd" clip-rule="evenodd" d="M277.077 243.395C283.178 243.395 287.923 244.413 287.923 245.768C287.923 247.123 283.178 248.31 277.077 248.31C271.147 248.31 266.401 247.123 266.401 245.768C266.401 244.413 271.147 243.395 277.077 243.395Z" fill="#83B4FF"/>
<path fill-rule="evenodd" clip-rule="evenodd" d="M275.722 246.615C281.653 246.615 286.398 247.801 286.398 249.158C286.398 250.513 281.653 251.53 275.722 251.53C269.622 251.53 264.876 250.513 264.876 249.158C264.876 247.803 269.622 246.615 275.722 246.615Z" fill="#83B4FF"/>
<path fill-rule="evenodd" clip-rule="evenodd" d="M275.044 240.176C280.975 240.176 285.89 241.194 285.89 242.549C285.89 243.904 280.975 244.921 275.044 244.921C269.114 244.921 264.199 243.904 264.199 242.549C264.199 241.194 269.114 240.176 275.044 240.176Z" fill="#83B4FF"/>
<path fill-rule="evenodd" clip-rule="evenodd" d="M277.077 251.022C283.178 251.022 287.923 249.836 287.923 248.649V245.768C287.923 247.123 283.178 248.31 277.077 248.31C271.147 248.31 266.401 247.123 266.401 245.768V248.649C266.401 249.836 271.147 251.022 277.077 251.022Z" fill="#1D77FF"/>
<path fill-rule="evenodd" clip-rule="evenodd" d="M275.722 254.242C281.653 254.242 286.398 253.226 286.398 251.87V249.158C286.398 250.513 281.653 251.53 275.722 251.53C269.622 251.53 264.876 250.513 264.876 249.158V251.87C264.876 253.225 269.622 254.242 275.722 254.242Z" fill="#FC9774"/>
<path fill-rule="evenodd" clip-rule="evenodd" d="M275.044 247.803C280.975 247.803 285.89 246.617 285.89 245.26V242.549C285.89 243.904 280.975 244.921 275.044 244.921C269.114 244.921 264.199 243.904 264.199 242.549V245.26C264.199 246.615 269.114 247.803 275.044 247.803Z" fill="#1D77FF"/>
<path fill-rule="evenodd" clip-rule="evenodd" d="M277.417 236.786C271.316 236.786 266.571 237.803 266.571 239.158C266.571 240.515 271.316 241.701 277.417 241.701C283.347 241.701 288.093 240.515 288.093 239.158C288.093 237.803 283.347 236.786 277.417 236.786Z" fill="#83B4FF"/>
<path fill-rule="evenodd" clip-rule="evenodd" d="M277.586 229.84C283.517 229.84 288.432 230.857 288.432 232.212C288.432 233.567 283.517 234.585 277.586 234.585C271.656 234.585 266.741 233.567 266.741 232.212C266.741 230.857 271.656 229.84 277.586 229.84Z" fill="#83B4FF"/>
<path fill-rule="evenodd" clip-rule="evenodd" d="M276.908 223.229C283.008 223.229 287.753 224.245 287.753 225.601C287.753 226.958 283.008 228.144 276.908 228.144C270.977 228.144 266.232 226.958 266.232 225.601C266.232 224.246 270.977 223.229 276.908 223.229Z" fill="#83B4FF"/>
<path fill-rule="evenodd" clip-rule="evenodd" d="M275.552 226.449C281.483 226.449 286.228 227.637 286.228 228.992C286.228 230.348 281.483 231.364 275.552 231.364C269.452 231.364 264.707 230.348 264.707 228.992C264.707 227.637 269.452 226.449 275.552 226.449Z" fill="#83B4FF"/>
<path fill-rule="evenodd" clip-rule="evenodd" d="M274.874 220.01C280.805 220.01 285.72 221.026 285.72 222.383C285.72 223.739 280.805 224.755 274.874 224.755C268.944 224.755 264.029 223.739 264.029 222.383C264.029 221.026 268.944 220.01 274.874 220.01Z" fill="#83B4FF"/>
<path fill-rule="evenodd" clip-rule="evenodd" d="M277.416 244.412C271.316 244.412 266.571 243.225 266.571 241.87V239.158C266.571 240.515 271.316 241.7 277.416 241.7C283.347 241.7 288.092 240.515 288.092 239.158V241.87C288.092 243.225 283.347 244.412 277.416 244.412Z" fill="#1D77FF"/>
<path fill-rule="evenodd" clip-rule="evenodd" d="M277.586 237.295C283.517 237.295 288.432 236.277 288.432 234.922V232.21C288.432 233.565 283.517 234.583 277.586 234.583C271.656 234.583 266.741 233.565 266.741 232.21V234.922C266.741 236.279 271.656 237.295 277.586 237.295Z" fill="#1D77FF"/>
<path fill-rule="evenodd" clip-rule="evenodd" d="M276.908 230.855C283.008 230.855 287.753 229.668 287.753 228.313V225.601C287.753 226.958 283.008 228.144 276.908 228.144C270.977 228.144 266.232 226.958 266.232 225.601V228.313C266.232 229.668 270.977 230.855 276.908 230.855Z" fill="#1D77FF"/>
<path fill-rule="evenodd" clip-rule="evenodd" d="M275.552 234.076C281.483 234.076 286.228 233.059 286.228 231.703V228.992C286.228 230.348 281.483 231.364 275.552 231.364C269.452 231.364 264.707 230.348 264.707 228.992V231.703C264.707 233.059 269.452 234.076 275.552 234.076Z" fill="#1D77FF"/>
<path fill-rule="evenodd" clip-rule="evenodd" d="M274.874 227.466C280.805 227.466 285.72 226.449 285.72 225.094V222.382C285.72 223.739 280.805 224.755 274.874 224.755C268.944 224.755 264.029 223.739 264.029 222.382V225.094C264.029 226.449 268.944 227.466 274.874 227.466Z" fill="#1D77FF"/>
<path fill-rule="evenodd" clip-rule="evenodd" d="M264.028 259.326C259.114 259.326 255.216 260.174 255.216 261.36C255.216 262.377 259.114 263.393 264.028 263.393C268.943 263.393 272.84 262.376 272.84 261.36C272.84 260.173 268.943 259.326 264.028 259.326Z" fill="#83B4FF"/>
<path fill-rule="evenodd" clip-rule="evenodd" d="M265.216 253.055C260.301 253.055 256.404 254.071 256.404 255.089C256.404 256.276 260.301 257.122 265.216 257.122C270.131 257.122 274.028 256.274 274.028 255.089C274.028 254.073 270.129 253.055 265.216 253.055Z" fill="#83B4FF"/>
<path fill-rule="evenodd" clip-rule="evenodd" d="M265.723 256.615C260.808 256.615 256.911 257.632 256.911 258.648C256.911 259.834 260.808 260.682 265.723 260.682C270.638 260.682 274.535 259.834 274.535 258.648C274.535 257.631 270.638 256.615 265.723 256.615Z" fill="#83B4FF"/>
<path fill-rule="evenodd" clip-rule="evenodd" d="M266.91 250.513C261.995 250.513 258.098 251.361 258.098 252.377C258.098 253.562 261.995 254.41 266.91 254.41C271.825 254.41 275.891 253.562 275.891 252.377C275.891 251.361 271.825 250.513 266.91 250.513Z" fill="#83B4FF"/>
<path fill-rule="evenodd" clip-rule="evenodd" d="M264.028 265.597C259.114 265.597 255.216 264.749 255.216 263.563V261.36C255.216 262.378 259.114 263.394 264.028 263.394C268.943 263.394 272.84 262.376 272.84 261.36V263.563C272.84 264.749 268.943 265.597 264.028 265.597Z" fill="#1D77FF"/>
<path fill-rule="evenodd" clip-rule="evenodd" d="M265.216 259.327C260.301 259.327 256.404 258.479 256.404 257.293V255.09C256.404 256.277 260.301 257.124 265.216 257.124C270.131 257.124 274.028 256.276 274.028 255.09V257.293C274.028 258.479 270.129 259.327 265.216 259.327Z" fill="#1D77FF"/>
<path fill-rule="evenodd" clip-rule="evenodd" d="M265.723 262.885C260.808 262.885 256.911 262.037 256.911 260.851V258.648C256.911 259.834 260.808 260.682 265.723 260.682C270.638 260.682 274.535 259.834 274.535 258.648V260.851C274.535 262.037 270.638 262.885 265.723 262.885Z" fill="#1D77FF"/>
<path fill-rule="evenodd" clip-rule="evenodd" d="M266.91 256.615C261.995 256.615 258.098 255.767 258.098 254.751V252.378C258.098 253.564 261.995 254.412 266.91 254.412C271.825 254.412 275.891 253.564 275.891 252.378V254.751C275.891 255.767 271.825 256.615 266.91 256.615Z" fill="#1D77FF"/>
<path d="M262.843 251.361C262.673 251.53 262.503 251.87 262.334 252.209H261.148V252.716H262.334C262.673 253.225 263.351 253.564 264.537 253.564C265.722 253.564 266.401 253.225 266.91 252.716C267.418 252.209 267.927 252.037 268.434 251.868C268.943 251.868 269.452 252.037 269.452 252.546C269.282 252.885 269.113 253.225 268.773 253.394L269.959 253.564C270.298 253.225 270.637 252.885 270.637 252.546H271.992V252.037H270.637C270.468 251.529 269.62 251.189 268.434 251.189C267.249 251.189 266.57 251.529 265.892 252.207C265.383 252.546 265.044 252.885 264.537 252.885C264.03 252.885 263.519 252.716 263.689 252.377C263.689 252.037 263.859 251.698 264.198 251.529L262.843 251.361Z" fill="white"/>
<path fill-rule="evenodd" clip-rule="evenodd" d="M268.096 262.715C273.35 262.715 277.756 263.731 277.756 264.918C277.756 266.104 273.35 267.121 268.096 267.121C262.842 267.121 258.605 266.104 258.605 264.918C258.605 263.731 262.844 262.715 268.096 262.715Z" fill="#83B4FF"/>
<path fill-rule="evenodd" clip-rule="evenodd" d="M268.096 269.494C273.35 269.494 277.756 268.476 277.756 267.291V264.918C277.756 266.104 273.35 267.121 268.096 267.121C262.842 267.121 258.605 266.104 258.605 264.918V267.291C258.605 268.476 262.844 269.494 268.096 269.494Z" fill="#1D77FF"/>
<path d="M264.198 263.901C263.859 264.07 263.69 264.409 263.52 264.749H262.335L262.165 265.257H263.69C263.859 265.936 264.707 266.275 265.893 266.275C267.248 266.105 267.926 265.766 268.604 265.257C269.113 264.579 269.452 264.409 270.129 264.409C270.807 264.409 271.315 264.579 271.147 265.088C271.147 265.427 270.808 265.766 270.468 265.936L271.823 266.105C272.163 265.936 272.502 265.597 272.502 265.09H273.857L274.026 264.581H272.502C272.332 263.902 271.316 263.565 270.129 263.565C268.774 263.565 268.096 263.904 267.248 264.581C266.739 265.09 266.4 265.429 265.893 265.429C265.384 265.429 264.875 265.259 264.875 264.75C265.045 264.411 265.214 264.242 265.554 264.072L264.198 263.901Z" fill="white"/>
<path d="M259.283 246.955C258.098 242.719 260.469 238.482 264.537 237.465C268.774 236.279 273.01 238.65 274.028 242.719C275.213 246.785 272.842 251.022 268.774 252.209C264.707 253.394 260.47 251.022 259.283 246.955Z" fill="#1D77FF"/>
<path d="M260.47 246.615C259.453 243.056 261.488 239.498 264.876 238.48C268.434 237.632 271.994 239.667 273.01 243.056C273.858 246.615 271.825 250.173 268.434 251.02C264.876 252.039 261.317 250.006 260.47 246.615Z" fill="#83B4FF"/>
<path d="M268.435 238.482C269.283 239.33 270.129 240.346 270.468 241.702C271.316 245.093 269.283 248.651 265.893 249.667C264.707 250.006 263.52 250.006 262.334 249.667C263.859 251.022 266.232 251.7 268.435 251.022C271.825 250.174 273.858 246.616 273.01 243.058C272.332 240.853 270.638 239.159 268.435 238.482Z" fill="#D4E5FF"/>
<path d="M261.656 246.785C260.808 243.734 262.674 240.685 265.723 239.837C267.417 239.328 269.281 239.667 270.638 240.685C269.283 239.33 267.08 238.652 265.044 239.33C261.993 240.178 260.299 243.227 261.147 246.278C261.486 247.635 262.165 248.651 263.181 249.329C262.504 248.649 261.995 247.803 261.656 246.785Z" fill="white"/>
<path d="M266.062 240.685L266.232 241.363C266.571 241.363 266.91 241.363 267.249 241.533C267.419 241.702 267.758 241.872 267.928 242.042L267.249 242.72C266.91 242.381 266.571 242.211 266.232 242.381C265.892 242.381 265.723 242.55 265.553 242.72C265.553 242.89 265.553 243.059 265.553 243.398C265.553 243.568 265.723 243.738 265.892 243.738C266.062 243.907 266.401 243.907 266.74 244.077C267.08 244.077 267.419 244.077 267.758 244.246C267.928 244.246 268.097 244.416 268.267 244.416C268.606 244.755 268.945 245.094 269.115 245.601C269.115 245.941 269.115 246.449 268.945 246.788C268.776 247.297 268.436 247.636 268.097 247.804L268.267 248.652L267.588 248.992L267.419 248.144C266.74 248.144 266.401 248.144 266.064 247.974C265.725 247.635 265.385 247.296 265.046 246.788L265.894 246.28C266.064 246.788 266.403 246.958 266.572 247.128C266.742 247.297 267.081 247.297 267.42 247.128C267.76 247.128 267.929 246.958 268.099 246.619C268.268 246.449 268.268 246.11 268.099 245.771C268.099 245.601 267.929 245.432 267.76 245.262C267.59 245.262 267.42 245.093 267.251 245.093C267.081 245.093 266.912 244.923 266.572 244.923C265.894 244.923 265.555 244.753 265.387 244.584C265.048 244.414 264.709 244.075 264.709 243.568C264.539 243.398 264.539 243.229 264.539 243.059C264.539 242.89 264.709 242.72 264.709 242.55C264.878 242.381 264.878 242.211 265.048 242.042C265.217 241.872 265.387 241.702 265.557 241.702L265.387 240.854L266.062 240.685Z" fill="white"/>
<path d="M257.081 179.845C257.081 172.727 262.674 167.136 269.79 167.136C276.738 167.136 282.33 172.729 282.33 179.845C282.33 183.066 281.144 185.946 279.279 188.15H260.298C258.268 185.947 257.081 183.066 257.081 179.845Z" fill="#1D77FF"/>
<path d="M258.944 179.845C258.944 173.915 263.859 169 269.79 169C275.72 169 280.466 173.915 280.466 179.845C280.466 183.235 278.941 186.115 276.568 188.15H263.011C260.471 186.117 258.944 183.235 258.944 179.845Z" fill="#83B4FF"/>
<path d="M275.383 170.696C276.401 172.22 277.077 174.254 277.077 176.457C277.077 182.388 272.162 187.133 266.232 187.133C264.198 187.133 262.335 186.624 260.639 185.608C261.317 186.626 262.163 187.472 263.011 188.15H276.569C278.941 186.117 280.466 183.235 280.466 179.845C280.467 175.948 278.434 172.56 275.383 170.696Z" fill="#D4E5FF"/>
<path d="M260.808 180.863C260.808 175.609 265.044 171.372 270.298 171.372C273.349 171.372 276.229 172.727 277.925 174.931C276.231 172.219 273.18 170.185 269.622 170.185C264.368 170.185 260.131 174.422 260.131 179.676C260.131 181.879 260.979 183.912 262.165 185.437C261.317 184.083 260.808 182.557 260.808 180.863Z" fill="white"/>
<path d="M270.638 172.899V174.254C271.147 174.254 271.656 174.423 271.993 174.763C272.332 175.102 272.671 175.441 273.011 176.118L271.656 176.796C271.147 176.118 270.638 175.61 269.961 175.61C269.622 175.61 269.283 175.78 268.944 176.119C268.774 176.289 268.605 176.628 268.605 176.967C268.605 177.306 268.774 177.646 268.944 177.815C269.113 177.985 269.622 178.322 270.129 178.494C270.808 178.833 271.315 179.002 271.654 179.342C271.993 179.511 272.332 179.681 272.502 179.85C273.011 180.529 273.18 181.207 273.18 182.053C273.18 182.732 273.011 183.41 272.502 184.087C271.993 184.765 271.484 185.104 270.638 185.272V186.797H269.453V185.272C268.435 185.272 267.758 184.933 267.25 184.424C266.91 183.915 266.571 183.239 266.232 182.221L267.757 181.882C267.926 182.56 268.265 183.067 268.605 183.407C268.944 183.576 269.283 183.746 269.79 183.746C270.297 183.746 270.808 183.576 271.145 183.237C271.484 182.898 271.654 182.559 271.654 182.052C271.654 181.543 271.484 181.204 271.145 180.866C270.975 180.866 270.806 180.697 270.636 180.527C270.297 180.357 269.958 180.188 269.451 179.849C268.603 179.509 267.926 179.17 267.757 178.833C267.248 178.324 267.078 177.647 267.078 176.969C267.078 176.63 267.078 176.291 267.248 176.121C267.248 175.782 267.417 175.443 267.587 175.273C267.926 175.103 268.096 174.764 268.435 174.595C268.774 174.425 269.113 174.255 269.453 174.255V172.9H270.638V172.899Z" fill="white"/>
<path d="M251.657 252.039C252.675 251.022 253.86 250.175 255.385 249.836C259.452 248.649 263.688 251.022 264.875 255.089C265.893 259.155 263.52 263.394 259.452 264.579C257.249 265.257 254.876 264.749 253.182 263.563C252.164 261.869 251.657 260.005 251.657 257.97V252.039Z" fill="#1D77FF"/>
<path d="M251.657 254.073C252.505 252.548 253.86 251.361 255.724 250.852C259.114 250.004 262.673 252.038 263.688 255.428C264.706 258.816 262.671 262.546 259.113 263.392C256.401 264.24 253.689 263.053 252.165 261.019C251.825 260.002 251.656 258.986 251.656 257.968V254.073H251.657Z" fill="#83B4FF"/>
<path d="M259.284 250.852C260.131 251.7 260.808 252.716 261.147 254.072C262.165 257.461 260.13 261.021 256.572 262.036C255.386 262.376 254.199 262.376 253.014 262.036C254.708 263.393 256.911 264.07 259.114 263.393C262.672 262.545 264.707 258.818 263.69 255.429C263.011 253.224 261.317 251.53 259.284 250.852Z" fill="#D4E5FF"/>
<path d="M252.336 259.157C251.488 256.106 253.353 252.887 256.402 252.039C258.266 251.7 259.96 252.039 261.317 253.057C259.962 251.7 257.927 251.023 255.894 251.7C253.691 252.209 252.166 254.073 251.657 256.106V257.97V258.309C251.827 258.479 251.827 258.479 251.827 258.648C252.166 260.003 253.012 261.021 253.86 261.699C253.184 261.021 252.675 260.173 252.336 259.157Z" fill="white"/>
<path d="M256.741 253.055L257.08 253.734C257.42 253.734 257.589 253.734 257.928 253.903C258.098 254.073 258.437 254.242 258.776 254.412L258.098 255.09C257.589 254.751 257.25 254.582 256.913 254.751C256.743 254.751 256.573 254.921 256.404 255.09C256.234 255.26 256.234 255.429 256.234 255.769C256.404 255.938 256.404 256.108 256.573 256.108C256.743 256.277 257.082 256.277 257.421 256.447C257.93 256.447 258.1 256.447 258.439 256.617C258.608 256.617 258.948 256.786 258.948 256.786C259.456 257.125 259.626 257.465 259.796 257.972C259.965 258.311 259.965 258.82 259.796 259.157C259.626 259.666 259.287 260.005 258.778 260.175L259.117 261.023L258.439 261.362L258.1 260.514C257.591 260.514 257.082 260.514 256.745 260.175C256.405 260.005 256.066 259.666 255.727 259.157L256.575 258.648C256.914 259.157 257.084 259.327 257.253 259.496C257.593 259.496 257.762 259.666 258.101 259.496C258.441 259.496 258.61 259.327 258.78 258.988C258.949 258.818 258.949 258.479 258.949 258.14C258.78 257.97 258.61 257.8 258.441 257.631C258.271 257.631 258.271 257.461 257.932 257.461C257.762 257.461 257.593 257.292 257.253 257.292C256.745 257.122 256.236 257.122 256.068 256.952C255.729 256.783 255.559 256.444 255.39 255.935C255.39 255.765 255.39 255.596 255.39 255.426C255.39 255.256 255.39 255.087 255.39 254.917C255.559 254.748 255.729 254.578 255.729 254.409C255.898 254.239 256.068 254.069 256.407 253.9L256.068 253.221L256.741 253.055Z" fill="white"/>
<path fill-rule="evenodd" clip-rule="evenodd" d="M319.615 137.31H259.792C256.402 137.31 253.862 134.768 253.862 131.379V81.2169C253.862 75.9629 258.098 71.5569 263.522 71.5569H315.887C321.141 71.5569 325.547 75.9629 325.547 81.2169V131.379C325.545 134.768 322.834 137.31 319.615 137.31Z" fill="#004BBB"/>
<path fill-rule="evenodd" clip-rule="evenodd" d="M325.545 79.1833V80.7079C325.545 75.2843 321.139 70.8783 315.885 70.8783H263.52C258.096 70.8783 253.69 75.2843 253.69 80.7079V79.1833C253.69 73.7597 258.266 69.1841 263.69 69.1841H315.716C321.139 69.1841 325.545 73.7597 325.545 79.1833Z" fill="#004BBB"/>
<path fill-rule="evenodd" clip-rule="evenodd" d="M325.546 80.5384V129.513C325.546 132.902 322.834 135.783 319.445 135.783H259.793C256.572 135.783 253.692 132.902 253.692 129.513V80.5384C253.692 75.1148 258.098 70.7087 263.522 70.7087H315.887C321.139 70.7087 325.546 75.1165 325.546 80.5384Z" fill="#D4E5FF"/>
<path fill-rule="evenodd" clip-rule="evenodd" d="M325.546 80.5384V87.6562H253.692V80.5384C253.692 75.1148 258.098 70.7087 263.522 70.7087H315.887C321.139 70.7087 325.546 75.1165 325.546 80.5384Z" fill="#6795DC"/>
<path fill-rule="evenodd" clip-rule="evenodd" d="M266.232 91.3856C266.232 92.4032 265.553 93.0799 264.537 93.0799C263.69 93.0799 262.843 92.4015 262.843 91.3856C262.843 90.3681 263.691 89.6914 264.537 89.6914C265.553 89.6897 266.232 90.3681 266.232 91.3856Z" fill="#004BBB"/>
<path fill-rule="evenodd" clip-rule="evenodd" d="M266.401 80.7081C266.401 81.7239 265.553 82.5719 264.538 82.5719C263.52 82.5719 262.674 81.7239 262.674 80.7081C262.674 79.6922 263.522 78.8442 264.538 78.8442C265.553 78.8442 266.401 79.6922 266.401 80.7081Z" fill="#004BBB"/>
<path fill-rule="evenodd" clip-rule="evenodd" d="M264.537 92.2317C263.859 92.2317 263.352 91.7229 263.352 91.0462V81.047C263.352 80.3686 263.86 79.8616 264.537 79.8616C265.215 79.8616 265.892 80.3704 265.892 81.047V91.0462C265.892 91.7229 265.215 92.2317 264.537 92.2317Z" fill="#004BBB"/>
<path d="M270.808 96.9771H261.148V103.247H270.808V96.9771Z" fill="#003D99"/>
<path d="M270.808 108.162H261.148V114.262H270.808V108.162Z" fill="#003D99"/>
<path d="M270.808 119.177H261.148V125.447H270.808V119.177Z" fill="#003D99"/>
<path d="M270.638 241.362C270.299 241.531 270.129 241.87 269.96 242.378H268.435V243.056H269.96C270.299 243.734 271.315 244.073 272.672 244.073C274.027 244.073 274.875 243.565 275.553 242.888C276.231 242.21 276.57 242.04 277.417 242.04C278.095 242.04 278.602 242.21 278.434 242.718C278.434 243.058 278.095 243.566 277.756 243.734L279.281 243.904C279.62 243.734 279.959 243.225 279.959 242.888H281.653V242.21H279.959C279.789 241.531 278.773 241.024 277.247 241.024C275.892 241.194 275.044 241.533 274.196 242.21C273.518 242.718 273.179 243.058 272.502 243.058C271.993 243.058 271.484 242.888 271.484 242.549C271.484 242.04 271.824 241.701 272.163 241.531L270.638 241.362Z" fill="white"/>
<path fill-rule="evenodd" clip-rule="evenodd" d="M279.45 233.567C273.519 233.567 268.604 234.585 268.604 235.94C268.604 237.296 273.519 238.312 279.45 238.312C285.381 238.312 290.295 237.296 290.295 235.94C290.295 234.583 285.382 233.567 279.45 233.567Z" fill="#83B4FF"/>
<path fill-rule="evenodd" clip-rule="evenodd" d="M279.45 241.194C273.519 241.194 268.604 240.007 268.604 238.652V235.94C268.604 237.296 273.519 238.312 279.45 238.312C285.381 238.312 290.295 237.296 290.295 235.94V238.652C290.295 240.007 285.382 241.194 279.45 241.194Z" fill="#1D77FF"/>
<path d="M270.468 221.195C270.129 221.365 269.79 221.704 269.79 222.213H268.265V222.891L269.79 222.722C270.129 223.4 271.145 223.907 272.502 223.907C273.857 223.738 274.535 223.398 275.383 222.722C276.061 222.043 276.401 221.874 277.247 221.874C277.925 221.874 278.432 222.043 278.264 222.552C278.264 222.891 277.925 223.4 277.586 223.57L279.111 223.739C279.45 223.57 279.789 223.061 279.789 222.722L281.483 222.552V222.043H279.789C279.619 221.195 278.604 220.858 277.077 220.858C275.722 220.858 274.874 221.367 274.026 222.043C273.348 222.552 273.009 222.891 272.332 222.891C271.823 222.891 271.147 222.722 271.314 222.213C271.314 221.874 271.654 221.535 271.823 221.365L270.468 221.195Z" fill="white"/>
<path d="M270.977 257.122C270.977 251.529 275.383 247.123 280.807 247.123C286.23 247.123 290.806 251.529 290.806 257.122C290.806 262.546 286.23 266.95 280.807 266.95C275.383 266.952 270.977 262.546 270.977 257.122Z" fill="#1D77FF"/>
<path d="M272.501 257.122C272.501 252.377 276.229 248.649 280.804 248.649C285.549 248.649 289.277 252.377 289.277 257.122C289.277 261.697 285.549 265.425 280.804 265.425C276.23 265.427 272.501 261.699 272.501 257.122Z" fill="#83B4FF"/>
<path d="M285.213 249.836C286.061 251.191 286.568 252.716 286.568 254.412C286.568 258.987 282.84 262.885 278.095 262.885C276.57 262.885 275.044 262.376 273.689 261.53C275.214 263.902 277.925 265.427 280.807 265.427C285.552 265.427 289.28 261.699 289.28 257.124C289.28 254.073 287.585 251.361 285.213 249.836Z" fill="#D4E5FF"/>
<path d="M273.858 257.8C273.858 253.733 277.249 250.343 281.315 250.343C283.688 250.343 285.891 251.53 287.246 253.394C285.891 251.022 283.518 249.667 280.807 249.667C276.74 249.667 273.35 252.887 273.35 256.954C273.35 258.648 273.858 260.342 274.874 261.53C274.198 260.512 273.858 259.157 273.858 257.8Z" fill="white"/>
<path d="M281.483 251.7V252.716C281.991 252.716 282.331 252.885 282.5 253.225C282.839 253.394 283.179 253.733 283.348 254.073L282.331 254.751C281.991 254.073 281.483 253.903 280.976 253.903C280.636 253.903 280.467 253.903 280.297 254.073C279.958 254.412 279.958 254.581 279.958 254.921C279.958 255.09 279.958 255.26 280.128 255.429C280.297 255.599 280.636 255.938 281.145 256.108C281.654 256.277 281.993 256.447 282.331 256.616C282.5 256.786 282.839 256.956 283.009 257.125C283.348 257.634 283.518 258.141 283.518 258.82C283.518 259.328 283.348 260.005 283.009 260.344C282.67 260.853 282.161 261.192 281.484 261.36V262.547H280.636V261.36C279.788 261.19 279.281 261.021 278.942 260.682C278.603 260.342 278.264 259.664 278.094 258.987L279.28 258.648C279.449 259.157 279.619 259.664 279.958 259.834C280.128 260.003 280.467 260.173 280.976 260.173C281.315 260.173 281.654 260.003 281.824 259.834C282.163 259.494 282.332 259.155 282.332 258.818C282.332 258.479 282.163 258.139 281.993 257.97C281.824 257.8 281.654 257.8 281.484 257.631C281.315 257.461 280.976 257.291 280.636 257.122C279.958 256.783 279.451 256.613 279.281 256.274C278.942 255.935 278.773 255.426 278.773 254.917C278.773 254.578 278.773 254.408 278.773 254.069C278.942 253.9 279.112 253.73 279.112 253.56C279.281 253.391 279.621 253.221 279.79 253.052C279.96 252.882 280.299 252.712 280.638 252.712V251.697H281.483V251.7Z" fill="white"/>
<path fill-rule="evenodd" clip-rule="evenodd" d="M316.394 91.3854C316.394 92.403 315.716 93.0796 314.7 93.0796C313.852 93.0796 313.006 92.4012 313.006 91.3854C313.006 90.3678 313.854 89.6912 314.7 89.6912C315.716 89.6895 316.394 90.3678 316.394 91.3854Z" fill="#004BBB"/>
<path fill-rule="evenodd" clip-rule="evenodd" d="M316.564 80.7078C316.564 81.7237 315.716 82.5716 314.7 82.5716C313.684 82.5716 313.006 81.7237 313.006 80.7078C313.006 79.692 313.684 78.844 314.7 78.844C315.716 78.844 316.564 79.692 316.564 80.7078Z" fill="#004BBB"/>
<path fill-rule="evenodd" clip-rule="evenodd" d="M314.87 92.2317H314.7C314.022 92.2317 313.515 91.7229 313.515 91.0462V81.047C313.515 80.3686 314.023 79.8616 314.7 79.8616H314.87C315.548 79.8616 316.055 80.3704 316.055 81.047V91.0462C316.055 91.7229 315.546 92.2317 314.87 92.2317Z" fill="#004BBB"/>
<path fill-rule="evenodd" clip-rule="evenodd" d="M319.445 117.482L302.498 135.446C302.498 135.446 303.176 132.225 303.176 130.361C303.176 129.005 303.007 127.989 302.837 126.125C302.668 121.04 305.549 119.855 306.904 119.007C309.107 117.822 312.497 118.668 314.531 118.668C315.547 118.5 318.937 118.33 319.445 117.482Z" fill="#C1CDE5"/>
<path fill-rule="evenodd" clip-rule="evenodd" d="M325.207 116.465L302.498 135.446C302.498 135.446 303.683 131.718 303.853 129.515C304.023 127.991 303.853 126.634 303.853 124.601C304.192 118.67 307.92 117.483 309.614 116.804C312.326 115.619 316.562 116.974 319.105 117.144C320.122 117.144 324.191 117.313 325.207 116.465Z" fill="#003D99"/>
<path d="M286.061 108.162H276.401V114.262H286.061V108.162Z" fill="#003D99"/>
<path d="M301.312 108.162H291.652V114.262H301.312V108.162Z" fill="#003D99"/>
<path d="M316.224 108.162H306.564V114.262H316.224V108.162Z" fill="#003D99"/>
<path d="M286.061 119.177H276.401V125.447H286.061V119.177Z" fill="#003D99"/>
<path d="M301.312 119.177H291.652V125.447H301.312V119.177Z" fill="#003D99"/>
<path d="M286.061 96.9771H276.401V103.247H286.061V96.9771Z" fill="#003D99"/>
<path d="M301.312 96.9771H291.652V103.247H301.312V96.9771Z" fill="#003D99"/>
<path d="M316.563 96.9771H306.903V103.247H316.563V96.9771Z" fill="#003D99"/>
</svg>
