<svg width="371" height="297" viewBox="0 0 371 297" fill="none" xmlns="http://www.w3.org/2000/svg">
<path d="M368.01 90.0885C363.001 152.695 295.968 255.136 203.19 273.718C127.224 288.933 -0.274819 271.746 4.73437 209.139C9.74356 146.532 42.8202 45.2718 153.894 54.1588C264.967 63.0458 373.019 27.4816 368.01 90.0885Z" fill="#EBF3FF" fill-opacity="0.82"/>
<mask id="mask0_1946_465" style="mask-type:alpha" maskUnits="userSpaceOnUse" x="199" y="115" width="69" height="39">
<path d="M217.092 127.055C240.455 114.898 269.247 109.667 267.361 124.187C265.476 138.706 234.361 152.687 213.861 153.687C193.362 154.687 193.728 139.212 217.092 127.055Z" fill="white"/>
</mask>
<g mask="url(#mask0_1946_465)">
<path d="M217.092 127.055C240.455 114.898 269.247 109.667 267.361 124.187C265.476 138.706 234.361 152.687 213.861 153.687C193.362 154.687 193.728 139.212 217.092 127.055Z" fill="white"/>
<path d="M259 118.392C274.655 115.487 277.482 116.374 276.939 117.181" stroke="#F8F8F8" stroke-width="2" stroke-linecap="round"/>
<path d="M263 125.392C278.655 122.487 281.482 123.374 280.939 124.181" stroke="#F8F8F8" stroke-width="2" stroke-linecap="round"/>
<path d="M264 121.392C279.655 118.487 282.482 119.374 281.939 120.181" stroke="#F8F8F8" stroke-width="2" stroke-linecap="round"/>
</g>
<mask id="mask1_1946_465" style="mask-type:alpha" maskUnits="userSpaceOnUse" x="79" y="129" width="72" height="35">
<path d="M123.237 130.594C97.2611 134.946 71.119 148.096 81.3628 158.557C91.6066 169.018 124.87 161.458 141.843 149.919C158.817 138.381 149.212 126.243 123.237 130.594Z" fill="white"/>
</mask>
<g mask="url(#mask1_1946_465)">
<path d="M123.237 130.594C97.2611 134.946 71.119 148.096 81.3628 158.557C91.6066 169.018 124.87 161.458 141.843 149.919C158.817 138.381 149.212 126.243 123.237 130.594Z" fill="white"/>
<path d="M84.5532 148.897C70.3018 155.998 68.5786 158.408 69.4984 158.726" stroke="#F8F8F8" stroke-width="2" stroke-linecap="round"/>
<path d="M85.5713 156.895C71.3199 163.996 69.5967 166.406 70.5165 166.723" stroke="#F8F8F8" stroke-width="2" stroke-linecap="round"/>
<path d="M82.3657 154.302C68.1143 161.403 66.3911 163.813 67.3109 164.131" stroke="#F8F8F8" stroke-width="2" stroke-linecap="round"/>
</g>
<path d="M168.676 244.277C168.676 244.277 152.935 247.772 142.051 244.651C131.168 241.53 129.915 196.204 133.035 185.321C136.156 174.437 145.617 174.207 159.471 183.901C173.325 193.595 173.12 236.032 168.676 244.277Z" fill="white"/>
<path d="M184.264 243.277C184.264 243.277 200.005 246.772 210.889 243.651C221.772 240.53 223.025 195.204 219.905 184.321C216.784 173.437 207.323 173.207 193.469 182.901C179.615 192.595 179.82 235.032 184.264 243.277Z" fill="white"/>
<mask id="mask2_1946_465" style="mask-type:alpha" maskUnits="userSpaceOnUse" x="124" y="115" width="105" height="105">
<path d="M217 206.011C196.308 224.353 161.308 222.229 139 207.392C116.691 192.555 122.438 135.758 136.8 123.482C151.162 111.205 201.678 113.242 214.162 124.744C226.646 136.245 237.692 187.67 217 206.011Z" fill="white"/>
</mask>
<g mask="url(#mask2_1946_465)">
<path d="M223.315 206.011C202.623 224.353 152.608 220.888 130.3 206.052C107.991 191.215 113.738 134.417 128.099 122.141C142.461 109.865 207.993 113.242 220.477 124.744C232.961 136.245 244.008 187.67 223.315 206.011Z" fill="white"/>
<path d="M223.315 206.011C202.623 224.353 152.608 220.888 130.3 206.052C107.991 191.215 113.738 134.417 128.099 122.141C142.461 109.865 207.993 113.242 220.477 124.744C232.961 136.245 244.008 187.67 223.315 206.011Z" fill="#F8F8F8"/>
<path d="M219.314 207.011C198.622 225.352 148.607 221.888 126.299 207.051C103.99 192.214 109.737 135.417 124.098 123.141C138.46 110.865 203.992 114.242 216.476 125.743C228.96 137.245 240.007 188.67 219.314 207.011Z" fill="white"/>
<path d="M223.001 127.892C202.309 146.234 151.294 149.269 128.985 134.433C106.677 119.596 112.423 62.7983 126.785 50.5222C141.147 38.2461 206.679 41.6232 219.163 53.1248C231.647 64.6263 243.693 109.551 223.001 127.892Z" fill="#F8F8F8"/>
</g>
<path d="M221.617 128.619C200.924 146.96 150.909 143.496 128.601 128.659C106.292 113.822 112.039 57.0248 126.401 44.7487C140.763 32.4726 206.295 35.8497 218.779 47.3513C231.263 58.8529 242.309 110.278 221.617 128.619Z" fill="white"/>
<circle cx="127" cy="41.392" r="15" fill="white"/>
<circle cx="216" cy="39.392" r="15" fill="white"/>
<path d="M197 119.392C197 125.467 186.926 133.935 174.5 133.935C162.074 133.935 152 125.467 152 119.392C152 113.317 162.074 102.392 174.5 102.392C186.926 102.392 197 113.317 197 119.392Z" fill="#EBF3FF"/>
<path d="M136.5 39.392C136.5 42.6662 132.851 50.892 126.5 50.892C120.149 50.892 117.5 44.6662 117.5 41.392C117.5 38.1178 120.149 32.2299 126.5 32.2299C132.851 32.2299 136.5 36.1178 136.5 39.392Z" fill="#EBF3FF"/>
<path d="M218.811 48.888C215.561 49.287 206.952 46.6679 206.178 40.364C205.404 34.0601 211.26 30.6723 214.51 30.2733C217.76 29.8743 223.927 31.7857 224.701 38.0897C225.475 44.3936 222.061 48.4889 218.811 48.888Z" fill="#EBF3FF"/>
<path d="M163 118.392C164 130.392 174.5 124.392 174.5 124.392" stroke="#002255" stroke-width="2" stroke-linecap="round"/>
<path d="M186.5 118.392C185.5 130.392 175 124.392 175 124.392" stroke="#002255" stroke-width="2" stroke-linecap="round"/>
<ellipse cx="154" cy="89.392" rx="9" ry="11" fill="#002255"/>
<ellipse cx="154" cy="81.892" rx="3" ry="2.5" fill="white"/>
<ellipse cx="175.253" cy="112.699" rx="5" ry="6" transform="rotate(87 175.253 112.699)" fill="#002255"/>
<ellipse cx="195" cy="88.392" rx="9" ry="11" fill="#002255"/>
<ellipse cx="195" cy="80.892" rx="3" ry="2.5" fill="white"/>
<rect x="228.163" y="167.008" width="25" height="31" rx="3" transform="rotate(4 228.163 167.008)" fill="#494949"/>
<path d="M228.659 170.3C226.835 168.549 230.309 166.207 232.824 166.471L251.292 168.412C252.94 168.585 254.136 170.061 253.962 171.709V171.709V171.709C253.904 172.264 253.418 172.672 252.862 172.631C248.388 172.301 230.314 170.946 229 170.508C228.869 170.464 228.755 170.393 228.659 170.3Z" fill="#595959"/>
<path d="M128 128.892C137.966 126.666 181 163.892 229.498 171.893C229.498 171.893 232.001 171.392 229.498 180.893C226.996 190.393 116.998 132.893 117.5 131.392C118.001 129.891 118.034 131.117 128 128.892Z" fill="#8F8F8F"/>
</svg>
