<svg width="624" height="377" viewBox="0 0 624 377" fill="none" xmlns="http://www.w3.org/2000/svg">
<ellipse cx="142.5" cy="334.5" rx="91.5" ry="3.5" fill="#D9D9D9"/>
<path d="M582 115C582 212.202 432.911 291 249 291C65.0892 291 0 440.702 0 343.5C0 246.298 41.0892 86 225 86C408.911 86 582 17.7979 582 115Z" fill="#E5E5E5" fill-opacity="0.33"/>
<path d="M360.435 8.70046C362.89 3.39561 368.203 0 374.048 0H609C617.284 0 624 6.71573 624 15V132.489C624 140.056 618.364 146.438 610.856 147.374L303.82 185.656C292.136 187.113 283.406 175.157 288.351 164.472L360.435 8.70046Z" fill="#D4E5FF"/>
<path d="M552.5 37.5L553.431 35.0793C554.366 32.6481 556.763 31.0979 559.364 31.2424L559.798 31.2665C562.283 31.4046 564.373 33.1788 564.913 35.6086L565.047 36.2105C565.588 38.6478 564.2 41.1 561.831 41.8895V41.8895C559.842 42.5527 558.5 44.4145 558.5 46.5116V49.5M558.5 49.5L544 53.5M558.5 49.5L574 53.5" stroke="#1D77FF" stroke-width="5" stroke-linecap="round"/>
<path d="M537.112 78V90.5M549.698 124.87H540.112C538.455 124.87 537.112 123.526 537.112 121.87V90.5M581 78L580.77 90.5M562 125H577.98C579.645 125 580.991 123.645 580.98 121.98L580.77 90.5M537.112 90.5L518.542 84.6701C518.254 84.5799 518.111 84.2578 518.237 83.9841L529.016 60.5516C529.336 59.857 529.78 59.2229 530.357 58.7211C534.199 55.3792 537.812 54.2618 543.278 53.1455C543.689 53.0615 544.098 53.302 544.231 53.7002C545.457 57.3869 546.41 59.6091 548.938 61.8772C550.233 63.0394 551.839 63.7796 553.49 64.3299L554.767 64.7556C558.135 65.8785 561.801 65.7122 565.054 64.289V64.289C566.994 63.4402 568.749 62.1929 570.088 60.5527C572.001 58.2101 573.064 56.4339 573.882 53.4469C573.951 53.1947 574.199 53.0317 574.457 53.0747C579.875 53.9783 582.81 55.1712 586.676 58.068C587.897 58.9829 588.831 60.2206 589.469 61.6065L599.762 83.9832C599.888 84.2572 599.745 84.5796 599.457 84.6694L580.77 90.5" stroke="#002F77" stroke-width="6" stroke-linecap="round"/>
<path d="M374.997 93.3125H453.001M388 31L396 50M374.997 40.5L389.5 57.5" stroke="#1D77FF" stroke-width="6" stroke-linecap="round"/>
<path d="M436.684 125H397.286M399.306 121.966C381.098 114.5 374.58 105.153 371.394 93.5001C370.419 89.9337 369.756 86.1515 369.165 82.1413C369.077 81.5392 369.544 81.0001 370.153 81.0001H461.98C462.52 81.0001 462.963 81.4302 462.975 81.9702C463.217 92.6388 461.735 97.9498 455.878 105.276M447.291 114.885C442.5 118.689 438.279 121.106 432.5 123M375 78.5001C382 51.0001 414 55.0001 418 78.5001M388 78.5001C392.5 69 403 70 406 78.5001M425 78.5001C427 63.5 444 67 444 78.5001M415 67.5C431.5 45 458.5 60.5001 455.878 78.5001M407 60.0001C410.5 50.5 420.5 51.5 423.5 58.0001M394.5 57C402.5 36 426.5 36.5 435.5 53" stroke="#002F77" stroke-width="6" stroke-linecap="round"/>
<mask id="mask0_1942_362" style="mask-type:alpha" maskUnits="userSpaceOnUse" x="169" y="204" width="69" height="39">
<path d="M187.092 216.055C210.455 203.898 239.247 198.667 237.361 213.187C235.476 227.706 204.361 241.687 183.861 242.687C163.362 243.687 163.728 228.212 187.092 216.055Z" fill="white"/>
</mask>
<g mask="url(#mask0_1942_362)">
<path d="M187.092 216.055C210.455 203.898 239.247 198.667 237.361 213.187C235.476 227.706 204.361 241.687 183.861 242.687C163.362 243.687 163.728 228.212 187.092 216.055Z" fill="white"/>
<path d="M229 207.392C244.655 204.487 247.482 205.374 246.939 206.181" stroke="#F8F8F8" stroke-width="2" stroke-linecap="round"/>
<path d="M233 214.392C248.655 211.487 251.482 212.374 250.939 213.181" stroke="#F8F8F8" stroke-width="2" stroke-linecap="round"/>
<path d="M234 210.392C249.655 207.487 252.482 208.374 251.939 209.181" stroke="#F8F8F8" stroke-width="2" stroke-linecap="round"/>
</g>
<mask id="mask1_1942_362" style="mask-type:alpha" maskUnits="userSpaceOnUse" x="49" y="218" width="72" height="35">
<path d="M93.2366 219.594C67.2611 223.946 41.119 237.096 51.3628 247.557C61.6066 258.018 94.8696 250.458 111.843 238.919C128.817 227.381 119.212 215.243 93.2366 219.594Z" fill="white"/>
</mask>
<g mask="url(#mask1_1942_362)">
<path d="M93.2366 219.594C67.2611 223.946 41.119 237.096 51.3628 247.557C61.6066 258.018 94.8696 250.458 111.843 238.919C128.817 227.381 119.212 215.243 93.2366 219.594Z" fill="white"/>
<path d="M54.5532 237.897C40.3018 244.998 38.5786 247.408 39.4984 247.726" stroke="#F8F8F8" stroke-width="2" stroke-linecap="round"/>
<path d="M55.5713 245.894C41.3199 252.996 39.5967 255.406 40.5165 255.723" stroke="#F8F8F8" stroke-width="2" stroke-linecap="round"/>
<path d="M52.3657 243.302C38.1143 250.403 36.3911 252.813 37.3109 253.131" stroke="#F8F8F8" stroke-width="2" stroke-linecap="round"/>
</g>
<path d="M138.676 333.277C138.676 333.277 122.935 336.772 112.051 333.651C101.168 330.53 99.9145 285.204 103.035 274.321C106.156 263.437 115.617 263.207 129.471 272.901C143.325 282.595 143.12 325.032 138.676 333.277Z" fill="white"/>
<path d="M154.264 332.277C154.264 332.277 170.005 335.772 180.889 332.651C191.772 329.53 193.025 284.204 189.905 273.321C186.784 262.437 177.323 262.207 163.469 271.901C149.615 281.595 149.82 324.032 154.264 332.277Z" fill="white"/>
<mask id="mask2_1942_362" style="mask-type:alpha" maskUnits="userSpaceOnUse" x="94" y="204" width="105" height="105">
<path d="M187 295.011C166.308 313.353 131.308 311.229 109 296.392C86.6914 281.555 92.4378 224.758 106.8 212.482C121.162 200.205 171.678 202.242 184.162 213.744C196.646 225.245 207.692 276.67 187 295.011Z" fill="white"/>
</mask>
<g mask="url(#mask2_1942_362)">
<path d="M193.315 295.011C172.623 313.353 122.608 309.888 100.3 295.052C77.9912 280.215 83.7376 223.417 98.0995 211.141C112.461 198.865 177.993 202.242 190.477 213.744C202.961 225.245 214.008 276.67 193.315 295.011Z" fill="white"/>
<path d="M193.315 295.011C172.623 313.353 122.608 309.888 100.3 295.052C77.9912 280.215 83.7376 223.417 98.0995 211.141C112.461 198.865 177.993 202.242 190.477 213.744C202.961 225.245 214.008 276.67 193.315 295.011Z" fill="#F8F8F8"/>
<path d="M189.314 296.011C168.622 314.352 118.607 310.888 96.2986 296.051C73.9902 281.214 79.7366 224.417 94.0985 212.141C108.46 199.865 173.992 203.242 186.476 214.743C198.96 226.245 210.007 277.67 189.314 296.011Z" fill="white"/>
<path d="M193.001 216.892C172.309 235.234 121.294 238.269 98.9851 223.433C76.6767 208.596 82.4231 151.798 96.785 139.522C111.147 127.246 176.679 130.623 189.163 142.125C201.647 153.626 213.693 198.551 193.001 216.892Z" fill="#F8F8F8"/>
</g>
<path d="M191.617 217.619C170.924 235.96 120.909 232.496 98.6009 217.659C76.2924 202.822 82.0388 146.025 96.4007 133.749C110.763 121.473 176.295 124.85 188.779 136.351C201.263 147.853 212.309 199.278 191.617 217.619Z" fill="white"/>
<circle cx="97" cy="130.392" r="15" fill="white"/>
<circle cx="186" cy="128.392" r="15" fill="white"/>
<path d="M167 208.392C167 214.467 156.926 222.935 144.5 222.935C132.074 222.935 122 214.467 122 208.392C122 202.317 132.074 191.392 144.5 191.392C156.926 191.392 167 202.317 167 208.392Z" fill="#EBF3FF"/>
<path d="M106.5 128.392C106.5 131.666 102.851 139.892 96.5 139.892C90.1487 139.892 87.5 133.666 87.5 130.392C87.5 127.118 90.1487 121.23 96.5 121.23C102.851 121.23 106.5 125.118 106.5 128.392Z" fill="#EBF3FF"/>
<path d="M188.811 137.888C185.561 138.287 176.952 135.668 176.178 129.364C175.404 123.06 181.26 119.672 184.51 119.273C187.76 118.874 193.927 120.786 194.701 127.09C195.475 133.394 192.061 137.489 188.811 137.888Z" fill="#EBF3FF"/>
<path d="M133 207.392C134 219.392 144.5 213.392 144.5 213.392" stroke="#002255" stroke-width="2" stroke-linecap="round"/>
<path d="M156.5 207.392C155.5 219.392 145 213.392 145 213.392" stroke="#002255" stroke-width="2" stroke-linecap="round"/>
<ellipse cx="124" cy="178.392" rx="9" ry="11" fill="#002255"/>
<ellipse cx="124" cy="170.892" rx="3" ry="2.5" fill="white"/>
<ellipse cx="145.253" cy="201.699" rx="5" ry="6" transform="rotate(87 145.253 201.699)" fill="#002255"/>
<ellipse cx="165" cy="177.392" rx="9" ry="11" fill="#002255"/>
<ellipse cx="165" cy="169.892" rx="3" ry="2.5" fill="white"/>
<rect x="215.042" y="207.818" width="60.2417" height="17.8378" rx="8.91892" transform="rotate(-26 215.042 207.818)" fill="#0C5FDD"/>
<path d="M245.761 198.048C244.853 196.186 245.516 193.939 247.289 192.869L273.159 177.26C275.17 176.046 277.79 176.819 278.82 178.931L284.695 190.975C285.701 193.038 284.768 195.523 282.653 196.415L254.879 208.119C252.922 208.944 250.662 208.096 249.731 206.187L245.761 198.048Z" fill="#0C5FDD"/>
</svg>
