<svg width="305" height="269" viewBox="0 0 305 269" fill="none" xmlns="http://www.w3.org/2000/svg">
<path fill-rule="evenodd" clip-rule="evenodd" d="M144.184 255.094C223.389 255.094 287.68 258.183 287.68 261.961C287.68 265.909 223.391 269 144.184 269C64.979 269 0.859375 265.909 0.859375 261.961C0.859375 258.183 64.9773 255.094 144.184 255.094Z" fill="#F3F8FF"/>
<path d="M73.2051 240.883L75.6055 251.011H79.2053L79.3768 240.883H73.2051Z" fill="#FFB27D"/>
<path d="M101.208 241.397L108.067 251.01L110.637 247.578L106.522 240.025L101.208 241.397Z" fill="#FFB27D"/>
<path d="M75.4341 250.323C75.4341 250.323 75.7773 252.384 75.091 254.444C75.091 254.444 74.4047 257.191 77.1482 257.191C79.7202 257.363 80.4048 257.019 80.0634 255.474C79.7202 253.758 79.2055 251.011 79.2055 251.011L75.4341 250.323Z" fill="#FAB07B"/>
<path d="M75.0908 254.445C75.0908 254.445 74.5761 257.021 74.9192 258.393C74.9192 258.393 75.6055 258.909 77.4912 258.909C79.3769 258.909 80.2348 258.393 80.2348 258.393C80.2348 258.393 80.4064 255.646 79.8916 254.445C79.8916 254.445 78.006 257.191 75.0908 254.445Z" fill="#0C326D"/>
<path d="M116.98 255.646C116.98 255.646 112.179 250.324 110.636 247.578L107.037 249.466L115.094 257.019L116.98 256.676V255.646Z" fill="#FAB07B"/>
<path d="M120.066 258.737C120.066 258.737 114.922 258.737 113.894 258.737C113.036 258.565 112.352 257.364 111.322 255.476C110.979 254.617 110.123 254.103 109.265 253.931V258.395H107.894L106.523 253.588C105.665 252.043 106.523 250.67 107.038 249.468C107.724 249.468 109.61 249.811 113.21 253.931C114.409 255.304 115.61 255.648 116.981 255.648C120.066 257.019 120.066 258.737 120.066 258.737Z" fill="#0C326D"/>
<path fill-rule="evenodd" clip-rule="evenodd" d="M40.4622 240.499L38.5765 256.98C38.2333 260.584 35.1483 263.332 31.5468 263.332H28.9749H28.8033H28.6317C28.4601 263.332 28.4601 263.332 28.4601 263.332C28.2885 263.332 28.2885 263.332 28.2885 263.332C28.117 263.332 28.117 263.332 27.9454 263.332C24.8587 262.816 22.2884 260.241 21.9452 256.98L20.2311 240.499C19.888 239.127 20.2311 238.611 21.089 238.268C21.6037 238.096 23.4894 236.895 30.1759 236.895C33.6041 236.895 35.4898 237.238 36.6908 237.582C38.2333 237.754 38.7481 238.096 39.2628 238.269C40.2906 238.783 40.4622 239.814 40.4622 240.499Z" fill="#002F77"/>
<path fill-rule="evenodd" clip-rule="evenodd" d="M36.3474 241.874C36.3474 241.874 35.4895 242.218 31.2034 242.218C31.0319 247.197 30.6887 252.174 30.0041 255.609C30.0041 255.952 30.0041 256.124 30.0041 256.468C29.8325 256.983 29.8325 257.499 29.6609 258.012C28.803 260.931 25.8896 262.132 24.0039 261.273C24.5186 261.789 25.2033 262.304 25.8896 262.646C26.0612 262.646 26.0612 262.646 26.0612 262.818C26.2327 262.818 26.2327 262.818 26.4043 262.818C26.4043 262.818 26.4043 262.818 26.5759 262.99C26.5759 262.99 26.5759 262.99 26.7475 262.99C27.4338 263.162 28.29 263.333 28.9763 263.333H31.5483C35.1481 263.333 38.2348 260.586 38.5779 256.982L40.4636 240.501C38.9194 242.389 36.3474 241.874 36.3474 241.874Z" fill="#003D99"/>
<path fill-rule="evenodd" clip-rule="evenodd" d="M40.4617 240.5L38.5761 256.98C38.2329 260.585 35.1479 263.332 31.5464 263.332H28.9744H28.8028H28.6313C28.4597 263.332 28.4597 263.332 28.4597 263.332C28.2881 263.332 28.2881 263.332 28.2881 263.332C28.1165 263.332 28.1165 263.332 27.9449 263.332C27.2586 263.16 26.574 262.988 25.8877 262.645H27.0871C30.6868 262.645 34.8013 260.413 35.1445 255.434L36.3438 241.871C36.3438 241.871 39.772 241.699 40.2868 239.811C40.2902 239.814 40.4617 239.814 40.4617 240.5Z" fill="#0C5FDD"/>
<path fill-rule="evenodd" clip-rule="evenodd" d="M39.7741 239.814C39.7741 240.845 35.488 241.702 30.1742 241.702C24.8603 241.702 20.5742 240.843 20.5742 239.814C20.5742 238.613 24.8603 237.754 30.1742 237.754C35.488 237.754 39.7741 238.613 39.7741 239.814Z" fill="#0C5FDD"/>
<path fill-rule="evenodd" clip-rule="evenodd" d="M28.8027 240.329L29.4891 240.157L30.3469 240.329C30.3469 240.329 31.5463 239.986 31.7179 239.986L33.2604 240.499L31.2031 241.015L28.8027 240.329Z" fill="#003D99"/>
<path fill-rule="evenodd" clip-rule="evenodd" d="M162.902 0.162842C127.332 0.162842 131.424 62.8879 105.771 82.1149C71.9324 107.488 13.5435 94.8797 13.5435 138.378C13.5435 214.656 89.2463 242.394 171.716 242.394C254.186 242.394 324.538 200 299.986 123.879C275.431 47.7571 245.371 0.162842 162.902 0.162842Z" fill="#F3F8FF"/>
<path d="M187.4 69.6638C180.475 58.9478 183.465 44.6057 194.168 37.672C204.87 30.7383 219.192 33.8897 226.117 44.6057C233.041 55.1639 229.894 69.5061 219.35 76.4398C208.647 83.3751 194.326 80.3798 187.4 69.6638Z" fill="#1D77FF"/>
<path d="M190.391 67.7725C184.41 58.6322 187.086 46.4967 196.057 40.6655C205.185 34.8343 217.304 37.3563 223.127 46.4967C228.95 55.4792 226.432 67.6148 217.304 73.446C208.332 79.4349 196.214 76.7551 190.391 67.7725Z" fill="#83B4FF"/>
<path d="M206.288 37.5142C209.435 38.9322 212.426 41.4542 214.472 44.6056C220.453 53.7459 217.777 65.8815 208.806 71.7127C205.659 73.7615 202.195 74.864 198.576 74.864C204.556 77.5438 211.481 77.2284 217.304 73.4461C226.432 67.6149 228.951 55.4794 223.127 46.339C219.35 40.5079 212.739 37.3565 206.288 37.5142Z" fill="#D4E5FF"/>
<path d="M194.168 67.457C188.975 59.4192 191.179 48.7032 199.204 43.5014C203.926 40.5061 209.592 39.8768 214.47 41.6102C209.119 38.9304 202.509 39.0881 197.158 42.555C189.131 47.7553 186.927 58.4729 191.965 66.5106C194.168 69.8198 197.315 72.1841 200.778 73.4443C198.103 72.0279 195.899 69.9791 194.168 67.457Z" fill="white"/>
<path d="M210.063 44.1324L209.906 46.6545C211.007 46.8122 211.795 47.2854 212.425 47.757C213.055 48.2302 213.526 49.0172 214.156 50.1213L211.637 51.3816C210.849 50.1213 209.906 49.3327 208.803 49.3327C208.016 49.3327 207.387 49.4904 206.915 49.9636C206.285 50.2791 206.127 50.91 206.127 51.5393C205.97 52.1702 206.285 52.6434 206.6 53.115C206.915 53.4305 207.701 53.9036 208.961 54.533C209.904 55.0062 210.849 55.4793 211.479 55.951C212.11 56.2664 212.581 56.7396 212.896 57.2112C213.839 58.156 214.312 59.4178 214.154 60.9935C214.154 62.4115 213.682 63.6733 212.738 64.7758C211.95 65.7222 210.692 66.5092 209.276 66.8247V69.5045L206.915 69.3467L207.072 66.8247C205.341 66.5092 204.239 65.8799 203.295 64.9335C202.507 64.1449 201.879 62.7269 201.564 60.8358L204.398 60.3626C204.713 61.6228 205.185 62.5692 205.656 63.2001C206.129 63.6733 206.915 63.9887 207.86 63.9887C208.803 64.1465 209.591 63.831 210.221 63.2001C210.851 62.7269 211.322 61.9399 211.322 60.9935C211.322 60.0487 211.007 59.4178 210.534 58.9446C210.377 58.6292 209.904 58.3137 209.433 57.9983C208.961 57.6828 208.332 57.3674 207.545 56.8957C205.971 56.1071 204.869 55.4778 204.398 54.8469C203.61 53.9005 203.139 52.798 203.139 51.38C203.297 50.9068 203.297 50.2775 203.612 49.8043C203.769 49.1734 204.084 48.7018 204.399 48.3863C204.872 47.9132 205.344 47.5977 205.815 47.2838C206.445 46.9684 207.074 46.8106 207.704 46.6529L207.861 44.1309H210.063V44.1324Z" fill="white"/>
<path fill-rule="evenodd" clip-rule="evenodd" d="M237.449 108.749C288.913 154.296 294.108 205.515 253.502 236.246C213.998 255.789 184.095 254.371 156.552 233.882C123.974 202.362 130.112 160.599 174.966 108.591C174.966 108.749 175.123 108.749 175.281 108.749H237.449Z" fill="#004BBB"/>
<path fill-rule="evenodd" clip-rule="evenodd" d="M175.282 102.287H238.551C240.282 102.287 241.698 103.705 241.698 105.438C241.698 107.329 240.282 108.747 238.551 108.747H175.282C173.551 108.747 172.135 107.329 172.135 105.438C172.133 103.705 173.549 102.287 175.282 102.287Z" fill="#0C5FDD"/>
<path fill-rule="evenodd" clip-rule="evenodd" d="M234.931 102.287C242.958 92.3577 249.411 82.1148 254.447 71.2395C250.197 67.2995 244.531 67.4572 237.292 71.7127C228.635 63.5172 221.238 63.2017 214.944 71.0818C201.094 61.3106 190.707 62.4131 183.939 74.3909C175.597 64.1465 169.616 65.2506 165.996 77.7001C157.969 73.6023 152.776 75.3357 149.942 82.5849C163.163 90.4649 172.448 97.0832 177.643 102.285H234.931V102.287Z" fill="#003D99"/>
<path fill-rule="evenodd" clip-rule="evenodd" d="M174.967 108.591C130.111 160.598 123.973 202.361 156.553 233.882C173.078 246.175 190.392 251.691 210.064 249.799C139.554 230.257 138.138 155.714 190.548 108.749H175.282C175.124 108.749 174.967 108.749 174.967 108.591ZM177.641 102.287H221.394C220.293 97.5594 216.987 93.6194 211.793 90.4664C211.951 94.2487 210.062 97.4017 205.813 99.7645C193.851 86.3687 186.927 81.0107 184.88 84.0043C190.389 93.9333 191.334 98.6604 188.028 98.031C179.686 89.3639 172.446 81.9555 166.465 76.1243C166.308 76.5974 166.15 77.0691 165.993 77.7C157.966 73.6022 152.773 75.3356 149.939 82.5848C163.162 90.4664 172.448 97.0862 177.641 102.287ZM194.798 108.749C194.955 113.162 194.167 117.573 192.436 122.144C197.945 117.26 201.722 112.846 204.083 108.749H194.798Z" fill="#002F77"/>
<path d="M215.783 148.778C212.793 147.202 208.386 145.627 202.563 145.469V135.698H193.592V146.1C183.677 148.306 178.011 155.398 178.011 164.382C178.011 173.68 184.307 178.566 193.277 182.82C201.777 186.445 204.767 189.44 204.767 194.167C204.767 198.896 201.462 202.363 194.851 202.363C189.028 202.363 183.677 200.472 180.057 198.265L177.224 208.667C180.843 210.716 186.824 212.449 192.647 212.607V223.167H201.775V211.978C212.163 209.929 218.144 202.364 218.144 192.909C218.144 183.295 213.266 178.095 202.405 173.208C195.009 169.742 191.074 167.062 191.074 162.806C191.074 159.182 194.221 155.399 200.359 155.399C205.71 155.399 210.275 157.448 213.107 158.709L215.783 148.778Z" fill="white"/>
<path fill-rule="evenodd" clip-rule="evenodd" d="M199.938 106.069H197.262L192.697 120.567H172.238L176.96 106.069H174.126L169.562 120.567L169.089 122.301L164.524 136.643L163.894 138.376L159.487 152.718L158.857 154.452L154.45 168.794L153.82 170.527L149.255 184.712L148.782 186.603L144.218 200.787L143.588 202.678L139.18 216.863L138.55 218.754L134.143 232.938L133.513 234.83L128.635 250.117H131.311L136.189 234.83H156.649L151.77 250.117H154.447L159.325 234.83L159.797 232.938L164.362 218.754L164.992 216.863L169.399 202.678L170.029 200.787L174.594 186.603L175.067 184.712L179.632 170.527L180.104 168.794L184.669 154.452L185.299 152.718L189.706 138.376L190.336 136.643L194.743 122.301L195.373 120.567L199.938 106.069ZM136.827 232.937L141.234 218.752H161.694L157.129 232.937H136.827ZM141.863 216.861L146.427 202.677H166.729L162.165 216.861H141.863ZM146.9 200.786L151.465 186.601H171.767L167.36 200.786H146.9ZM152.093 184.71L156.501 170.526H176.96L172.395 184.71H152.093ZM157.131 168.794L161.538 154.452H181.997L177.433 168.794H157.131ZM162.166 152.718L166.731 138.376H187.033L182.468 152.718H162.166ZM167.202 136.643L171.767 122.301H192.069L187.662 136.643H167.202Z" fill="#83B4FF"/>
<path d="M91.1338 155.556L95.541 151.931C95.541 151.931 99.6332 154.767 104.354 157.605C105.928 155.24 109.076 147.676 109.232 147.36C109.39 146.887 107.186 141.844 107.816 141.844C108.446 141.844 108.917 144.524 109.705 144.367C116.158 142.475 112.852 148.937 111.908 149.251C111.436 151.3 109.076 163.12 106.558 163.907C104.354 164.538 91.1338 155.556 91.1338 155.556Z" fill="#FFB27D"/>
<path d="M61.5449 142.632C60.7574 138.376 62.8035 133.963 66.5806 132.387C66.5806 129.865 67.5242 127.503 69.0993 125.768C72.404 122.458 78.3848 120.567 80.7459 124.823C84.0505 126.714 86.4117 130.654 85.4682 134.278C88.6153 137.43 87.3568 143.419 82.9495 146.099C82.9495 149.881 81.2184 153.505 78.0713 154.923C77.2837 155.397 76.1827 155.868 76.0252 156.026C76.1827 155.868 73.664 162.961 65.9522 159.808C57.9252 156.343 56.5092 147.045 61.5449 142.632Z" fill="#002255"/>
<path d="M81.5327 144.838C81.5327 144.996 78.8565 146.256 76.8104 145.784C74.9218 145.311 73.8208 142.789 73.8208 142.789C74.6084 142.631 74.7643 141.529 74.7643 136.8L75.2369 136.958L81.2177 138.061C81.2177 138.061 81.0602 139.952 81.0602 141.843C81.0602 143.262 81.2177 144.68 81.5327 144.838Z" fill="#FFB27D"/>
<path d="M71.7744 125.927C71.7744 125.927 74.1356 122.302 78.3853 124.509C78.3837 124.509 76.1801 124.509 71.7744 125.927Z" fill="#002255"/>
<path d="M81.2186 138.062C81.2186 138.062 81.0611 139.954 81.0611 141.845C77.7564 141.687 75.8678 138.693 75.2378 136.96L81.2186 138.062Z" fill="#F08261"/>
<path d="M73.9782 137.116C73.9782 137.116 71.6171 134.751 70.6736 132.387C70.0435 130.811 69.7301 124.507 76.1819 124.034C76.1819 124.034 77.9129 123.876 79.9591 124.665C81.3751 125.295 83.7362 126.871 82.7912 132.86L82.4761 134.751L73.9782 137.116Z" fill="#002255"/>
<path d="M108.447 241.92C108.447 241.92 106.873 242.235 105.613 242.393C105.298 242.393 104.983 242.393 104.825 242.393C104.195 242.393 102.937 242.077 102.149 241.92C101.834 241.762 101.519 241.762 101.519 241.762H101.362C101.362 241.762 93.4924 232.779 88.9276 218.437C88.7701 218.122 88.7701 217.806 88.6126 217.492C86.0939 210.243 81.0582 201.259 78.382 193.065C77.9095 191.805 77.5945 190.543 77.1235 189.44C77.1235 189.125 76.966 188.652 76.8085 188.336C74.9199 181.403 74.2898 176.989 73.8188 172.103L89.8727 176.201C89.8742 176.201 96.8001 205.672 108.447 241.92Z" fill="#0E397C"/>
<path d="M82.3186 139.007C82.3186 139.007 74.4492 140.74 73.5057 135.855C72.4047 130.969 70.8296 127.975 75.7093 126.557C80.7451 125.297 82.0052 127.031 82.7912 128.606C83.4212 130.024 84.2072 138.534 82.3186 139.007Z" fill="#FFB27D"/>
<path d="M79.3301 125.769C79.3301 125.769 78.2291 131.915 75.2379 133.491C72.0908 134.909 70.5156 134.436 70.5156 134.436C70.5156 134.436 72.5617 131.914 72.4042 128.289C72.4042 128.291 77.1265 123.404 79.3301 125.769Z" fill="#002255"/>
<path d="M78.8579 126.4C78.8579 126.4 80.7465 127.345 81.3766 128.449C82.0066 129.709 82.6351 132.231 83.4227 131.915C83.4227 131.915 84.2102 127.66 82.0066 125.927C79.6455 123.878 78.8579 126.4 78.8579 126.4Z" fill="#002255"/>
<path d="M105.613 242.392C105.298 242.392 104.983 242.392 104.825 242.392C104.195 242.392 102.937 242.077 102.149 241.919L101.519 241.761H101.361C101.361 241.761 93.492 232.779 88.9272 218.437C88.7697 218.121 88.7697 217.806 88.6122 217.492C86.0936 210.243 81.0578 201.259 78.3817 193.065C77.9091 191.804 77.5941 190.543 77.1231 189.44C77.1231 189.125 76.9656 188.651 76.8081 188.336L79.7977 186.129C79.7977 186.129 88.2972 200.156 90.9718 213.236C93.1801 223.952 102.623 238.137 105.613 242.392Z" fill="#0C326D"/>
<path d="M80.8129 213.59C80.9813 220.206 80.6446 235.211 79.636 241.343C79.636 241.343 78.7942 241.989 76.7755 242.15C74.5884 242.15 73.7483 241.343 73.7483 241.343C71.5612 230.531 69.8792 221.658 68.7007 213.913C67.8589 207.62 67.0187 202.135 66.3453 197.617C65.8402 193.421 65.3367 189.872 65.1684 186.807C65.1684 186.484 65.1684 186 65 185.678C65 185.032 65 184.549 65 184.065C65 183.582 65 183.098 65 182.613H65.1684L69.3741 182.29L83 181C82.6633 192.454 80.8129 209.879 80.8129 213.59Z" fill="#0E397C"/>
<path d="M76.0165 242.148C74.2855 242.148 73.1844 241.359 73.1844 241.359C71.1383 230.799 69.5648 222.132 68.4622 214.568C67.6746 208.421 66.8886 203.063 66.2585 198.65C65.786 194.552 65.315 191.085 65.1575 188.091C65.1575 186.673 65.1575 185.254 65.1575 183.994C65 182.733 65 181.787 65 181L69.0922 183.68L73.3419 186.36C73.3419 186.36 67.3611 191.875 68.7772 202.435C70.3508 212.992 73.972 240.57 76.0165 242.148Z" fill="#0C326D"/>
<path d="M79.4873 142.632C79.4873 142.632 86.0982 141.529 88.3002 143.734C91.7624 145.941 104.197 156.185 104.512 156.972C104.354 157.761 103.411 163.434 102.465 162.488C83.107 157.605 81.0609 146.1 79.4873 142.632Z" fill="#699DEE"/>
<path d="M92.2346 158.55C83.4217 153.663 75.5523 150.512 82.3191 146.414C82.3191 146.414 89.8735 150.512 90.8185 152.876C91.1336 153.821 91.9196 156.658 92.2346 158.55Z" fill="#3B7FE7"/>
<path d="M92.2349 185.341C87.3567 186.601 64.692 189.124 64.377 183.45C64.377 182.032 64.377 180.299 64.5345 178.565C64.8495 172.892 65.793 165.958 66.2655 162.176C66.4231 160.442 65.793 152.562 66.2655 148.307C66.4231 147.676 66.4231 147.047 66.5806 146.573C67.5241 143.422 71.9313 142.476 74.2925 142.476L81.0608 142.16C81.0608 142.16 88.1427 150.04 89.0878 152.562C90.0313 154.927 90.3463 163.278 91.1339 167.218C91.9199 171.314 94.596 184.71 92.2349 185.341Z" fill="#679BEC"/>
<path d="M72.5616 168.952C72.5616 168.952 70.358 182.348 64.5347 183.294C64.6922 176.832 65.1647 168.796 65.4782 164.382C65.6357 162.334 65.1632 153.193 65.4782 148.307C65.6357 148.307 65.6357 148.307 65.7932 148.465C72.2481 150.985 73.1916 166.114 72.5616 168.952Z" fill="#3B7FE7"/>
<path d="M78.8562 136.487C80.1148 136.487 80.9023 136.487 82.1609 136.329C82.6334 136.329 81.5308 137.747 78.6987 136.645C78.6987 136.643 78.6987 136.487 78.8562 136.487Z" fill="#F08261"/>
<path d="M78.5413 130.182C79.1714 130.182 79.0139 130.655 78.6988 130.813C73.6631 132.073 76.9677 130.024 78.5413 130.182Z" fill="#002255"/>
<path d="M81.218 129.709C80.5879 129.867 80.7454 130.34 81.3755 130.34C86.4112 130.182 82.634 129.078 81.218 129.709Z" fill="#002255"/>
<path d="M81.0611 135.225C81.6912 135.225 82.0046 135.067 82.0046 134.909C82.1621 134.752 82.0046 134.436 81.8471 134.121C81.6896 133.648 81.3746 133.018 81.0596 131.914C81.0596 131.914 81.0595 131.756 80.902 131.756C80.902 131.914 80.7445 131.914 80.902 132.072C81.0595 133.174 81.3746 133.805 81.5321 134.278C81.6896 134.436 81.8471 134.752 81.8471 134.752C81.6896 134.909 81.3746 134.909 81.0596 135.067C80.902 135.067 80.902 135.067 80.902 135.225H81.0611Z" fill="#F08261"/>
<path d="M82.7919 132.86C83.107 132.86 83.2645 131.442 82.4769 131.442C82.0044 131.6 82.1619 132.86 82.7919 132.86Z" fill="#002255"/>
<path d="M78.3841 133.334C78.6991 133.334 78.8566 131.916 77.9115 132.073C77.4406 132.073 77.7556 133.491 78.3841 133.334Z" fill="#002255"/>
<path d="M78.6987 167.532C78.6987 153.19 90.3453 141.527 104.668 141.527C119.147 141.527 130.793 153.19 130.793 167.532C130.793 182.032 119.147 193.535 104.668 193.535C90.3453 193.536 78.6987 182.032 78.6987 167.532Z" fill="#1D77FF"/>
<path d="M82.6338 167.532C82.6338 155.396 92.5493 145.467 104.668 145.467C116.945 145.467 126.859 155.396 126.859 167.532C126.859 179.825 116.944 189.596 104.668 189.596C92.5493 189.596 82.6338 179.825 82.6338 167.532Z" fill="#83B4FF"/>
<path d="M116.316 148.62C118.519 152.087 119.778 156.185 119.778 160.598C119.778 172.734 109.862 182.663 97.7433 182.663C93.4935 182.663 89.5588 181.56 86.0967 179.511C90.0314 185.658 96.9557 189.598 104.668 189.598C116.944 189.598 126.858 179.669 126.858 167.533C126.86 159.496 122.61 152.56 116.316 148.62Z" fill="#D4E5FF"/>
<path d="M86.5689 169.581C86.5689 158.863 95.2259 150.039 106.085 150.039C112.381 150.039 117.889 153.032 121.509 157.761C118.047 151.772 111.751 147.832 104.511 147.832C93.8098 147.832 85.1528 156.657 85.1528 167.374C85.1528 171.945 86.5689 176.042 89.0875 179.352C87.514 176.516 86.5689 173.207 86.5689 169.581Z" fill="white"/>
<path d="M106.558 153.349V156.185C107.659 156.343 108.604 156.658 109.392 157.288C110.022 157.761 110.808 158.706 111.438 159.81L108.604 161.385C107.816 159.81 106.715 159.021 105.299 159.021C104.512 159.021 103.726 159.336 103.253 159.81C102.623 160.283 102.31 160.912 102.31 161.701C102.31 162.332 102.625 162.961 103.097 163.434C103.412 163.907 104.356 164.381 105.773 165.01C106.874 165.483 107.819 165.956 108.606 166.428C109.393 166.901 109.864 167.374 110.337 167.846C111.438 168.948 111.91 170.368 111.91 172.101C111.91 173.677 111.438 175.095 110.494 176.357C109.551 177.617 108.133 178.406 106.559 178.879V181.873H104.041V178.879C102.152 178.563 100.736 177.933 99.791 176.988C98.8475 176.041 98.0599 174.466 97.5874 172.417L100.735 171.786C101.207 173.204 101.678 174.308 102.308 174.937C102.938 175.41 103.882 175.726 104.984 175.726C105.928 175.726 106.873 175.41 107.503 174.781C108.29 174.15 108.604 173.205 108.604 172.101C108.604 171.157 108.289 170.526 107.66 169.895C107.503 169.579 107.03 169.264 106.402 168.95C105.772 168.635 105.143 168.161 104.198 167.847C102.31 166.901 101.051 166.114 100.579 165.483C99.6351 164.381 99.1625 163.119 99.1625 161.701C99.1625 161.07 99.32 160.441 99.4776 159.81C99.6351 159.179 99.9501 158.707 100.421 158.234C100.894 157.762 101.366 157.289 101.995 156.974C102.625 156.658 103.253 156.343 104.041 156.185V153.349H106.558Z" fill="white"/>
<path d="M81.3759 176.359C81.5335 176.359 81.8485 176.359 82.1635 176.359C82.4785 176.359 82.7936 176.359 82.7936 176.359C82.7936 176.359 82.9511 176.359 83.2661 176.201C83.4236 176.043 83.5811 176.043 83.7386 176.043C83.7386 176.043 83.8961 175.885 84.0537 175.728C84.3687 175.728 84.6837 175.57 84.8412 175.728C84.8412 175.885 82.9526 177.146 82.9526 177.146C81.2215 177.146 79.4905 177.934 75.5558 175.412C73.1946 174.308 61.548 169.266 61.233 168.163C60.2879 166.43 63.4366 161.859 64.8527 157.919C65.9537 158.392 68.1573 159.337 69.575 159.968C68.3164 162.332 67.2138 165.326 67.3713 165.799C67.3713 165.956 67.2138 166.43 74.7682 171.314C74.9257 171.472 75.0832 171.472 75.3982 171.63C75.8708 171.945 76.4993 172.419 76.9718 172.732L79.1754 172.575C79.1754 172.575 82.4801 172.732 82.6376 173.206C82.6376 173.363 82.4801 173.363 82.0075 173.521C82.0075 173.521 82.0075 173.521 81.85 173.521C81.535 173.521 81.0625 173.521 81.0625 173.521C80.905 173.679 80.7475 173.679 80.5899 173.837C82.636 174.783 82.4785 174.467 83.1086 174.31C83.4236 174.31 83.5811 174.467 83.7386 174.31C84.0537 174.31 84.2112 174.152 84.3687 174.152C84.6837 174.152 84.9987 174.31 84.9987 174.31C85.1562 174.467 84.9987 174.625 84.6837 174.625C83.1101 175.414 81.6941 175.098 81.3791 175.256C81.064 175.256 81.5366 175.414 82.3226 175.256C82.6376 175.256 82.9526 175.414 83.1101 175.256C83.2677 175.256 83.4252 175.098 83.7402 175.098C83.8977 175.098 84.0552 175.098 84.2127 175.098C84.3702 174.941 84.5278 174.783 84.6853 174.783C85.3153 174.783 85.4728 174.941 85.6288 174.941C85.7863 175.098 83.2677 176.043 83.2677 176.043C83.2677 176.043 81.5366 176.201 81.2215 176.201C81.2184 176.201 80.9034 176.359 81.3759 176.359Z" fill="#FFB27D"/>
<path d="M76.4955 147.36C76.4955 147.36 70.1997 143.263 67.8386 144.996C63.4313 147.991 60.1267 165.327 60.5992 167.69C60.9142 168.636 64.8489 169.739 67.366 165.799C68.7836 163.75 75.867 151.458 76.4955 147.36Z" fill="#699DEE"/>
<path d="M111.12 141.687C111.12 141.687 110.332 144.838 110.805 144.996C111.435 145.154 111.592 144.996 111.592 144.996L111.907 146.414C111.907 146.414 112.695 147.36 113.323 146.256C113.323 146.256 113.953 147.201 114.582 146.098C114.582 146.098 115.212 146.572 115.526 146.098C115.841 145.625 116.313 143.576 116.313 143.576C116.313 143.576 116.313 142.945 115.526 142.945C115.526 142.945 115.053 142.315 114.424 142.315C114.424 142.315 113.952 141.841 113.166 141.841C113.166 141.841 112.378 140.739 111.277 141.368C111.277 141.371 111.277 141.529 111.12 141.687Z" fill="#FFB27D"/>
<path d="M27.3406 10.8791C32.2188 9.46111 37.5711 10.7214 41.3483 14.9768C45.7555 12.928 51.2638 12.928 55.6711 15.1346C59.9208 17.4989 63.2254 21.9121 64.013 26.7969C66.5316 26.3253 69.2063 26.0083 71.7249 26.6392C74.2435 27.4278 76.6031 29.319 76.9181 31.8395C80.0653 31.9972 83.3715 34.9909 82.2689 37.9861C81.4813 39.5618 79.7503 40.5082 78.0192 40.8221C76.2881 40.9798 74.3995 40.6643 72.6684 40.8221C68.8912 40.9798 65.2715 42.5555 61.6519 43.6596C58.6622 44.7637 55.356 45.0775 52.2089 44.6059C49.8478 44.1328 47.4866 42.8725 46.2281 40.8236C42.7659 43.6611 38.0437 44.4482 33.638 44.7637C30.1758 44.9214 26.8696 44.7637 23.7225 43.5034C20.5753 42.2432 17.7416 39.8788 16.9541 36.5697C12.5468 38.1454 7.35359 37.3583 3.89143 34.2054C1.37278 31.841 1.37278 27.4294 3.89143 24.9073C5.78002 23.0162 8.76964 22.8585 11.4458 22.8585C13.3344 23.0162 15.3805 23.0162 16.9541 24.1187C16.4815 21.2812 17.5841 18.4453 19.4727 16.2387C21.5173 13.5573 24.3494 11.6662 27.3406 10.8791Z" fill="#EBF3FF"/>
<path d="M27.3395 10.8792C24.3498 11.6678 21.5162 13.5574 19.47 16.2372C17.5815 18.4438 16.4804 21.2797 16.9514 24.1172C17.2664 26.3238 18.0524 28.215 19.6276 29.6329C21.3586 31.0509 23.4048 31.8396 25.4509 32.4705C22.4597 25.5352 23.0897 17.0242 27.3395 10.8792Z" fill="#D4E5FF"/>
<path d="M3.88918 34.2023C7.35135 37.3553 12.5462 38.1423 16.9518 36.5666C17.7394 39.8758 20.5715 42.2401 23.7202 43.5004C26.8673 44.7606 30.1736 44.9183 33.6357 44.7606C38.043 44.4451 42.7637 43.6565 46.2258 40.8206C47.4844 42.8695 49.8455 44.1313 52.2066 44.6029C55.3538 45.0761 58.66 44.7606 61.6496 43.6565C65.2693 42.554 68.889 40.9767 72.6662 40.819C74.3973 40.6613 76.2859 40.9767 78.0169 40.819C79.748 40.5036 81.4791 39.5588 82.2667 37.9831C83.3677 34.9894 80.063 31.9942 76.9159 31.8364C76.9159 31.521 76.9159 31.3632 76.7584 31.0478C75.4998 30.8901 74.2397 30.8901 72.9812 31.0478C66.6854 31.9926 61.1771 35.9342 54.8813 36.5635C53.1502 36.879 51.4191 36.879 49.688 36.2481C48.272 35.7749 47.0118 34.8301 45.9108 33.8837C43.8647 31.9926 42.2911 29.4705 41.3461 26.7923C42.2896 30.5746 39.2999 34.6724 35.5228 35.9342C31.9031 37.1944 27.6534 36.5651 23.8762 35.461C21.515 34.6724 18.8404 33.5699 18.2104 31.2055C15.3767 33.5699 10.971 33.8853 8.29486 31.3632C5.14772 28.6835 6.72129 26.0052 7.82232 23.01C6.24876 23.3255 4.8327 23.7986 3.88762 24.9012C1.37053 27.4263 1.37053 31.8396 3.88918 34.2023Z" fill="#D4E5FF"/>
<path d="M46.2268 40.8221C42.7646 43.6596 38.0424 44.4467 33.6367 44.7621C30.1745 44.9199 26.8683 44.7621 23.7212 43.5019C20.574 42.2417 17.7404 39.8773 16.9528 36.5682C12.5456 38.1439 7.3523 37.3568 3.89014 34.2039C8.45489 35.9373 13.4906 36.4105 18.2129 35.1502C19.944 38.7748 23.8787 40.9814 27.8134 41.453C31.7481 41.9262 35.8403 40.8221 39.3025 38.931C39.3025 40.6644 38.2014 42.2401 36.7838 43.0287C40.0885 43.0287 43.2356 42.3978 46.2268 40.8221Z" fill="#83B4FF"/>
<path d="M82.2669 37.9862C81.4793 39.5619 79.7482 40.5083 78.0172 40.8222C76.2861 40.9799 74.3975 40.6645 72.6664 40.8222C68.8892 40.9799 65.2695 42.5556 61.6499 43.6597C58.6602 44.7638 55.354 45.0777 52.2069 44.606C49.8457 44.1329 47.4846 42.8726 46.2261 40.8237C50.0033 42.2417 54.568 42.2417 58.5027 40.9815C60.7063 40.3506 62.7524 39.248 64.9561 38.4594C70.3053 36.5667 76.7586 36.2512 82.2669 37.9862Z" fill="#83B4FF"/>
<path fill-rule="evenodd" clip-rule="evenodd" d="M28.2055 198.123C26.7895 199.541 25.0584 197.966 22.8548 195.445C22.8548 195.445 22.8548 195.445 22.6973 195.287C22.6973 195.287 22.6973 195.288 22.5398 195.13C22.5398 195.13 22.5397 194.972 22.3822 194.972C22.3822 194.814 22.2247 194.814 22.2247 194.657C22.0672 194.499 22.0672 194.499 21.9097 194.341C21.7522 194.183 21.7522 194.183 21.5947 194.026C21.4372 193.868 21.2796 193.71 21.1221 193.553C21.1221 193.553 21.1221 193.395 20.9646 193.395C20.8071 193.079 20.4921 192.922 20.1771 192.606C16.3999 188.824 13.8812 185.357 14.6688 184.568V184.411C14.8263 184.411 14.9838 184.411 15.2988 184.411C16.5574 184.568 19.5486 186.933 22.6957 190.084C26.4745 193.868 30.2516 196.075 28.2055 198.123Z" fill="#0C5FDD"/>
<path fill-rule="evenodd" clip-rule="evenodd" d="M22.8548 195.445C22.8548 195.445 22.8548 195.445 22.6973 195.287C22.6973 195.287 22.6973 195.288 22.5398 195.13C22.5398 195.13 22.5397 194.972 22.3822 194.972C22.3822 194.814 22.2247 194.814 22.2247 194.657C22.0672 194.499 22.0672 194.499 21.9097 194.341C21.7522 194.183 21.7522 194.183 21.5947 194.026C21.4372 193.868 21.2796 193.71 21.1221 193.553C21.1221 193.553 21.1221 193.395 20.9646 193.395C20.8071 193.079 20.4921 192.922 20.1771 192.606C16.3999 188.824 13.8812 185.357 14.6688 184.568V184.411C14.8263 184.411 14.9838 184.411 15.2988 184.411C14.8263 185.513 17.0299 188.824 20.4921 192.448C21.4387 193.554 22.2247 194.657 22.8548 195.445Z" fill="#E5EAF4"/>
<path fill-rule="evenodd" clip-rule="evenodd" d="M38.7506 195.603C35.9169 200.488 35.1309 205.374 31.1962 203.167C27.419 200.961 31.1962 197.809 34.0299 192.923C36.862 188.038 40.0107 184.414 41.5842 185.358C42.9987 186.145 41.5827 190.716 38.7506 195.603Z" fill="#0C5FDD"/>
<path fill-rule="evenodd" clip-rule="evenodd" d="M36.2318 207.107C36.2318 207.423 36.2318 207.738 36.2318 208.054C36.2318 208.211 36.2318 208.369 36.2318 208.685V209.156L36.0743 211.205L35.9168 213.254L35.6018 215.303C35.4442 218.139 35.1292 220.819 34.6567 223.656L34.3417 225.705L34.1841 227.754L34.0266 228.856L33.8691 229.801C33.7116 230.59 33.5541 231.219 33.5541 231.85L33.0816 233.899C33.0816 234.687 32.924 235.317 32.7665 235.948C32.609 236.736 32.4515 237.366 32.4515 237.997C32.294 238.785 32.1365 239.415 32.1365 240.203L30.8779 239.888C31.0354 239.572 31.193 239.257 31.3505 238.943C31.3505 238.785 31.3505 238.628 31.508 238.47C31.508 238.154 31.508 237.997 31.6655 237.839C31.6655 237.523 31.823 237.208 31.823 236.894C31.9805 236.579 31.9805 236.263 31.9805 235.949C32.138 235.161 32.2955 234.531 32.4531 233.9C32.6106 233.112 32.6106 232.482 32.7681 231.852C33.2406 229.014 33.5556 226.336 33.8691 223.498L34.9701 215.303C35.1277 213.885 35.2852 212.465 35.4427 211.205L35.7577 209.156V208.525C35.7577 208.368 35.7577 208.21 35.9152 208.052C35.9152 207.737 35.9152 207.421 36.0727 207.106H36.2318V207.107Z" fill="#0C5FDD"/>
<path fill-rule="evenodd" clip-rule="evenodd" d="M33.8707 204.428C33.8707 204.743 33.8707 205.217 33.8707 205.531C33.8707 205.846 33.8707 206.319 33.8707 206.635V208.841V211.048L33.7132 213.254C33.5556 216.092 33.3981 219.086 33.2406 221.923C33.0831 223.341 32.9256 224.917 32.9256 226.336C32.7681 227.754 32.6106 229.172 32.4531 230.592C32.2955 232.167 32.138 233.585 31.9805 235.005C31.9805 235.32 31.823 235.794 31.823 236.108C31.823 236.423 31.6655 236.896 31.6655 237.21C31.6655 237.368 31.508 237.525 31.508 237.683C31.508 237.841 31.508 238.156 31.3505 238.314C31.3505 238.63 31.193 238.945 31.0354 239.259H30.8779C30.8779 238.943 30.8779 238.628 31.0354 238.156C31.0354 237.999 31.0354 237.841 31.0354 237.683C31.0354 237.525 31.0354 237.21 31.0354 237.052C31.193 236.421 31.193 235.634 31.3505 235.003L31.508 233.901C31.508 233.428 31.508 233.112 31.508 232.798L31.823 230.592C31.823 229.174 31.9805 227.754 32.138 226.179C32.2955 224.761 32.2955 223.341 32.4531 221.923C32.7681 218.928 32.9256 216.092 33.0831 213.098C33.2406 211.68 33.2406 210.261 33.3981 208.843L33.5556 206.636C33.5556 205.848 33.7132 205.218 33.7132 204.43H33.8707V204.428Z" fill="#0C5FDD"/>
<path fill-rule="evenodd" clip-rule="evenodd" d="M26.1587 206.792C26.6312 208.21 26.6312 209.629 26.9463 210.89L27.2613 212.938L27.4188 215.145L28.5198 223.34C28.6773 224.758 28.8349 226.02 29.1499 227.438C29.3074 228.856 29.4649 230.276 29.6224 231.536C29.7799 232.954 30.095 234.372 30.2525 235.634C30.41 235.949 30.41 236.422 30.5675 236.738C30.5675 237.053 30.5675 237.369 30.725 237.683C30.725 237.998 30.8825 238.471 31.04 238.785C31.04 239.101 31.1975 239.416 31.3551 239.732L30.0965 239.889C30.254 238.471 29.939 237.209 29.7815 235.792L29.1514 231.694C28.8364 230.276 28.6789 228.856 28.5214 227.596L27.8913 223.34C27.5763 220.661 27.1038 217.982 26.7903 215.145L26.6328 213.096L26.3178 211.047L26.1603 208.998C26.1603 208.525 26.1603 208.21 26.1603 207.896C26.1603 207.582 26.1587 207.265 26.1587 206.792Z" fill="#0C5FDD"/>
<path fill-rule="evenodd" clip-rule="evenodd" d="M23.3268 221.291C25.8454 224.442 27.419 227.594 28.8351 225.862C30.2511 224.128 27.5765 222.395 25.0579 219.242C22.3817 216.091 20.0221 214.042 19.5496 214.671C18.9195 215.303 20.6506 218.297 23.3268 221.291Z" fill="#002F77"/>
<path fill-rule="evenodd" clip-rule="evenodd" d="M37.3333 229.959C35.2871 232.481 34.0286 235.159 32.926 233.741C31.6675 232.323 33.8695 230.904 35.9156 228.383C38.1193 225.861 40.0079 224.128 40.4804 224.601C40.9545 225.23 39.5369 227.595 37.3333 229.959Z" fill="#003D99"/>
<path fill-rule="evenodd" clip-rule="evenodd" d="M34.6584 213.883C33.0848 219.084 33.2423 223.812 29.7802 222.708C26.1605 221.448 28.8367 217.666 30.4102 212.464C31.8263 207.106 33.8724 203.166 35.2885 203.639C36.7045 204.112 36.232 208.525 34.6584 213.883Z" fill="#0C5FDD"/>
<path fill-rule="evenodd" clip-rule="evenodd" d="M40.3248 209.155C38.7512 214.513 39.3812 219.399 34.659 217.824C29.9367 216.248 33.0854 212.623 34.659 207.108C36.2325 201.75 38.4362 197.81 40.3248 198.44C42.2134 199.07 41.8983 203.797 40.3248 209.155Z" fill="#002F77"/>
<path fill-rule="evenodd" clip-rule="evenodd" d="M40.3248 198.439C38.7512 204.428 35.9175 213.568 34.5015 217.824H34.659C39.3812 219.399 38.7512 214.515 40.3248 209.155C41.8983 203.797 42.2134 199.07 40.3248 198.439Z" fill="#003D99"/>
<path fill-rule="evenodd" clip-rule="evenodd" d="M29.6211 194.499C29.7786 194.972 29.7786 195.445 29.7786 195.917C29.7786 196.074 29.7786 196.39 29.7786 196.547V197.336L29.9361 200.174V203.011L30.0936 205.849V211.522L30.2511 217.195C30.2511 219.087 30.4086 220.978 30.4086 222.869C30.4086 224.76 30.5662 226.651 30.5662 228.542C30.7237 230.434 30.8812 232.325 31.0387 234.216C31.0387 235.162 31.1962 236.107 31.1962 237.053C31.3537 237.211 31.3537 237.369 31.3537 237.684C31.3537 237.842 31.5112 238.157 31.5112 238.315C31.6688 238.631 31.6688 238.788 31.6688 239.104C31.8263 239.262 31.8263 239.419 31.9838 239.735L30.7252 239.892C30.7252 239.735 30.7252 239.419 30.7252 239.262C30.7252 238.946 30.7252 238.788 30.7252 238.473C30.7252 238.315 30.7252 238.315 30.7252 238.157C30.7252 238 30.7252 237.842 30.7252 237.842C30.5677 237.527 30.5677 237.37 30.5677 237.053C30.5677 236.58 30.5677 236.109 30.4102 235.635V234.217C30.2527 233.273 30.2527 232.326 30.2527 231.381L30.0952 228.546C29.9377 226.654 29.9377 224.763 29.7802 222.872C29.7802 220.981 29.6226 219.09 29.6226 217.199C29.6226 215.307 29.4651 213.416 29.4651 211.525C29.4651 210.579 29.4651 209.634 29.4651 208.689V205.852L29.3076 203.014L29.4651 200.177V197.339C29.4651 196.866 29.4651 196.394 29.4651 195.921C29.4636 195.445 29.4636 194.972 29.6211 194.499Z" fill="#0C5FDD"/>
<path fill-rule="evenodd" clip-rule="evenodd" d="M21.2811 208.525C23.9572 213.568 24.7433 218.454 28.5204 216.09C32.2976 213.883 28.5204 210.732 25.8443 205.688C23.1681 200.645 20.1785 197.177 18.7624 198.123C17.1889 199.069 18.6049 203.481 21.2811 208.525Z" fill="#002F77"/>
<path fill-rule="evenodd" clip-rule="evenodd" d="M29.7781 224.916C31.3517 228.225 31.8242 231.536 34.0278 229.958C36.074 228.54 34.0278 226.334 32.2968 223.181C30.7232 219.872 28.9921 217.507 28.2045 217.98C27.261 218.611 28.2045 221.605 29.7781 224.916Z" fill="#003D99"/>
<path fill-rule="evenodd" clip-rule="evenodd" d="M31.0385 191.347C32.4546 197.652 35.9167 202.221 30.095 203.483C24.2717 204.743 25.3727 199.227 23.9567 192.923C22.5406 186.62 22.5406 181.261 24.9002 180.788C27.1038 180.314 29.6209 185.043 31.0385 191.347Z" fill="#002F77"/>
<path fill-rule="evenodd" clip-rule="evenodd" d="M31.0393 191.348C29.6232 185.043 27.1046 180.316 24.901 180.789C24.7435 180.789 24.7435 180.789 24.5859 180.789C27.2621 190.403 28.9932 198.441 29.7792 203.483C29.9367 203.483 29.9367 203.483 30.0942 203.483C35.9175 202.221 32.4553 197.652 31.0393 191.348Z" fill="#003D99"/>
<path fill-rule="evenodd" clip-rule="evenodd" d="M25.0542 193.397C23.4971 186.773 23.1954 181.415 25.5577 180.947C25.5581 180.79 25.7156 180.79 25.8731 180.79C25.5581 180.79 25.2434 180.631 24.928 180.788C22.5657 181.255 22.5524 186.613 23.9544 192.921C25.0441 197.495 24.7204 201.592 26.6051 203.172C25.9786 201.122 25.8305 197.339 25.0542 193.397Z" fill="#E5EAF4"/>
<path fill-rule="evenodd" clip-rule="evenodd" d="M25.8441 205.688C23.168 200.646 20.1783 197.177 18.7623 198.124C18.6048 198.124 18.4473 198.281 18.4473 198.439C22.8545 205.373 26.1592 211.362 28.5203 216.09C32.2975 213.884 28.5203 210.732 25.8441 205.688Z" fill="#003D99"/>
<path fill-rule="evenodd" clip-rule="evenodd" d="M21.5961 208.526C19.3925 203.797 17.9764 199.701 19.235 197.966C18.92 197.966 18.7624 197.966 18.7624 198.124C17.1889 199.07 18.6049 203.482 21.2811 208.526C21.7536 209.472 22.2246 210.575 22.6971 211.519C22.6971 211.048 22.2246 209.472 21.5961 208.526Z" fill="#E5EAF4"/>
<path fill-rule="evenodd" clip-rule="evenodd" d="M25.0584 219.241C22.3822 216.09 20.0226 214.041 19.5501 214.67C19.3926 214.67 19.3926 214.828 19.3926 214.828C22.2263 217.822 27.262 223.497 28.8356 226.017V225.86C30.2516 224.128 27.5754 222.394 25.0584 219.241Z" fill="#003D99"/>
<path fill-rule="evenodd" clip-rule="evenodd" d="M27.8896 218.769C27.7321 219.873 28.5197 222.393 29.7782 224.915C31.3518 228.225 31.8243 231.378 33.8704 229.958C32.6119 226.177 29.7782 221.449 27.8896 218.769Z" fill="#002F77"/>
<path fill-rule="evenodd" clip-rule="evenodd" d="M40.4812 224.6C38.2776 226.964 35.4455 230.273 32.6118 233.424C32.7693 233.582 32.7693 233.582 32.9268 233.74C34.0279 235.158 35.288 232.48 37.3341 229.958C39.5362 227.595 40.9538 225.231 40.4812 224.6Z" fill="#002F77"/>
<path d="M69.5711 103.233C62.1742 91.7283 65.3214 76.4414 76.8104 69.0345C88.2995 61.6276 103.566 64.779 110.963 76.2837C118.36 87.7883 115.055 103.075 103.723 110.482C92.2342 117.889 76.968 114.738 69.5711 103.233Z" fill="#1D77FF"/>
<path d="M72.7183 101.184C66.4225 91.4128 69.0987 78.4902 78.8567 72.1858C88.6147 65.8815 101.52 68.5613 107.816 78.3325C114.111 88.1037 111.435 101.026 101.677 107.331C91.9193 113.633 79.0142 110.955 72.7183 101.184Z" fill="#83B4FF"/>
<path d="M89.7157 68.719C93.1778 70.2947 96.3265 72.9745 98.6861 76.4414C104.982 86.2126 102.148 99.1352 92.3903 105.44C89.0856 107.646 85.3084 108.749 81.5312 108.906C87.8271 111.744 95.3815 111.428 101.677 107.331C111.278 101.026 114.111 88.1037 107.816 78.3325C103.723 72.0281 96.7991 68.5613 89.7157 68.719Z" fill="#D4E5FF"/>
<path d="M76.811 100.711C71.3027 92.2 73.6639 80.6954 82.3193 75.1797C87.1975 71.8706 93.1783 71.3974 98.5306 73.2885C92.7073 70.2948 85.783 70.451 79.9597 74.2333C71.4602 79.7491 68.9431 91.2537 74.6089 99.7647C76.8126 103.389 80.1172 105.911 83.8944 107.172C81.0607 105.754 78.6996 103.547 76.811 100.711Z" fill="white"/>
<path d="M93.8086 75.968L93.6511 78.6478C94.7521 78.8055 95.6972 79.2787 96.3273 79.7519C96.9573 80.3828 97.5858 81.1699 98.2159 82.274L95.5397 83.6919C94.7521 82.2739 93.6511 81.4853 92.3926 81.4853C91.605 81.3276 90.9765 81.643 90.3465 82.1162C89.8739 82.4317 89.5589 83.061 89.5589 83.8496C89.5589 84.4806 89.7164 84.9537 90.1889 85.4254C90.504 85.8985 91.29 86.3717 92.5501 87.001C93.6511 87.4742 94.5962 88.1036 95.2262 88.419C96.0138 88.8922 96.4848 89.3654 96.7998 89.837C97.9008 90.9411 98.3734 92.3591 98.2159 93.9348C98.2159 95.5105 97.7433 96.7723 96.7998 97.8748C95.8563 99.135 94.5962 99.7659 93.0226 100.239L92.8651 103.075L90.504 102.917L90.6615 100.238C88.9304 99.7644 87.5143 99.135 86.5693 98.1887C85.7817 97.2423 84.9957 95.8244 84.6807 93.7755L87.6703 93.3023C87.9853 94.7203 88.4579 95.6666 89.0863 96.296C89.7148 96.9253 90.5024 97.2423 91.605 97.2423C92.5501 97.2423 93.3361 96.9269 94.1236 96.296C94.7537 95.6651 95.0672 94.878 95.0672 93.9316C95.2247 92.9868 94.9096 92.1982 94.4371 91.725C94.1221 91.4096 93.6495 91.0941 93.1786 90.7802C92.706 90.4648 91.92 89.9916 91.1325 89.6761C89.4014 88.7313 88.2988 87.9427 87.6703 87.3118C86.8827 86.367 86.4117 85.1052 86.5693 83.6872C86.5693 83.0563 86.5693 82.427 86.8843 81.9538C87.0418 81.3229 87.3568 80.8497 87.8278 80.3781C88.3003 79.9049 88.7729 79.5895 89.4014 79.2756C89.8739 78.9601 90.6599 78.6447 91.29 78.487L91.449 75.8103L93.8086 75.968Z" fill="white"/>
<path d="M114.268 51.2253C108.13 41.7696 110.806 29.1608 120.406 23.0158C129.849 16.8691 142.441 19.5489 148.578 29.0047C154.716 38.4604 152.04 51.0691 142.597 57.2142C133.154 63.3593 120.406 60.6811 114.268 51.2253Z" fill="#1D77FF"/>
<path d="M116.943 49.6477C111.75 41.61 113.953 30.7362 121.979 25.5344C130.006 20.3341 140.707 22.6969 146.06 30.7347C151.253 38.7724 148.893 49.4885 140.866 54.6903C132.839 59.8921 122.138 57.6855 116.943 49.6477Z" fill="#83B4FF"/>
<path d="M130.953 22.6987C133.942 24.1167 136.461 26.1656 138.349 29.1608C143.543 37.1986 141.339 47.9146 133.314 53.1164C130.482 55.0076 127.333 55.7962 124.343 55.9524C129.537 58.3167 135.675 58.0013 140.868 54.6921C148.895 49.4919 151.256 38.7743 145.904 30.7365C142.599 25.3785 136.776 22.6987 130.953 22.6987Z" fill="#D4E5FF"/>
<path d="M120.251 49.3327C115.686 42.2413 117.732 32.6278 124.815 28.0569C128.908 25.3771 133.943 24.9055 138.193 26.4812C133.471 24.1168 127.647 24.1168 122.927 27.2698C115.845 31.8407 113.799 41.2965 118.52 48.3879C120.408 51.3816 123.084 53.4305 126.231 54.5346C123.87 53.4305 121.824 51.5393 120.251 49.3327Z" fill="white"/>
<path d="M134.413 28.6878L134.256 30.8944C135.199 31.0522 135.829 31.3676 136.459 31.8408C136.932 32.314 137.56 33.1011 138.033 33.8897L135.829 35.1499C135.199 33.8897 134.256 33.2588 133.153 33.2588C132.523 33.2588 132.052 33.4165 131.58 33.732C131.107 34.2051 130.95 34.6783 130.792 35.1499C130.792 35.7808 130.95 36.2525 131.422 36.5679C131.737 36.8834 132.367 37.3565 133.468 37.8282C134.256 38.2998 135.042 38.7729 135.672 39.0884C136.144 39.4038 136.615 39.877 136.93 40.1909C137.718 41.1357 138.189 42.2398 138.031 43.5C138.031 44.7603 137.559 46.0221 136.773 46.9669C135.985 47.9132 135.042 48.3849 133.783 48.7003L133.626 51.0646H131.737V48.7003C130.321 48.5426 129.218 47.9117 128.432 47.1246C127.645 46.336 127.174 45.0757 126.859 43.5L129.378 43.0269C129.693 44.1294 130.008 45.0757 130.479 45.5489C130.951 46.0221 131.737 46.3376 132.525 46.3376C133.312 46.3376 134.098 46.0221 134.571 45.5489C135.201 45.0757 135.514 44.4464 135.514 43.5C135.514 42.8691 135.357 42.2398 134.884 41.7666C134.569 41.4512 134.254 41.2934 133.783 40.978C133.468 40.6625 132.838 40.3471 132.21 40.0332C130.794 39.2446 129.849 38.6152 129.378 38.142C128.59 37.3534 128.277 36.2509 128.277 35.1484C128.434 34.6752 128.434 34.0459 128.592 33.5727C128.907 33.2572 129.064 32.784 129.379 32.4701C129.852 31.997 130.167 31.6815 130.638 31.5238C131.11 31.2083 131.739 31.0506 132.369 30.8929V28.6863H134.413V28.6878Z" fill="white"/>
<path fill-rule="evenodd" clip-rule="evenodd" d="M251.352 43.6592C247.103 43.6592 243.483 40.0346 243.483 35.7792C243.483 31.5237 247.103 28.0568 251.352 28.0568C255.602 28.0568 259.064 31.5237 259.064 35.7792C259.064 40.0346 255.602 43.6592 251.352 43.6592ZM239.391 47.4431C240.492 48.5456 241.752 49.6497 243.168 50.279L243.011 54.3768L246.158 55.4809L248.519 52.3295H249.462H253.24L255.443 55.7963L258.433 54.8515L258.748 54.6938V50.7538L259.378 50.4383L262.682 48.074L262.998 48.2317L266.302 49.492C267.09 48.7033 267.876 47.7585 268.506 46.8122L266.145 43.5031C266.775 42.0851 267.403 40.6655 267.718 39.0898L271.495 38.1435L271.653 34.5189L267.876 33.4164C267.561 31.8407 267.088 30.265 266.46 28.8455L268.978 25.6941C268.506 24.7493 267.72 23.8029 267.09 22.8565L263.313 24.1168L259.535 21.2793L259.693 17.3393C258.748 16.8661 257.647 16.3929 256.388 16.079L254.185 19.3897L249.462 19.232L247.259 15.9229L243.954 16.8676V20.8077C242.538 21.5963 241.278 22.3834 240.019 23.4875L239.074 23.172L236.398 22.0679C235.611 22.8566 234.825 23.8014 234.194 24.9054L236.556 28.0568C235.768 29.4748 235.297 30.8928 234.982 32.47L231.205 33.5726L231.047 37.0394L234.825 38.2997C235.14 39.8754 235.455 41.2949 236.241 42.7129L233.722 45.8643C234.195 46.8106 234.981 47.7554 235.611 48.7018L239.391 47.4431Z" fill="#002F77"/>
<path d="M262.212 45.0791C262.054 45.0791 262.054 44.9213 261.897 44.9213C261.739 44.7636 261.739 44.4497 261.897 44.2904C263.943 41.9261 265.044 38.9324 265.044 35.7794C265.044 34.3615 264.729 32.7858 264.257 31.3662C264.099 31.2085 264.257 31.0508 264.572 30.8931C264.729 30.8931 264.887 30.8931 265.044 31.2085C265.517 32.6265 265.832 34.2022 265.832 35.7794C265.832 39.0886 264.573 42.2415 262.527 44.9198C262.369 44.9213 262.369 45.0791 262.212 45.0791Z" fill="white"/>
<path d="M261.11 26.1672C260.953 26.1672 260.795 26.1672 260.795 26.0094C259.379 24.7492 257.962 23.8028 256.231 23.1719C255.916 23.1719 255.916 22.8565 255.916 22.6988C256.073 22.541 256.231 22.3833 256.388 22.3833C258.277 23.1719 259.85 24.1167 261.266 25.5347C261.581 25.6924 261.581 25.8502 261.424 26.0079C261.268 26.1672 261.11 26.1672 261.11 26.1672Z" fill="white"/>
<path d="M248.203 22.8564C248.046 22.8564 247.888 22.6987 247.888 22.541C247.731 22.3833 247.888 22.0678 248.203 22.0678C249.305 21.7523 250.407 21.5962 251.666 21.5962C251.823 21.5962 251.981 21.7539 251.981 22.0678C251.981 22.2255 251.823 22.3833 251.666 22.3833C250.565 22.3833 249.462 22.541 248.361 22.8549C248.361 22.8564 248.361 22.8564 248.203 22.8564Z" fill="white"/>
</svg>
