<svg width="101" height="132" viewBox="0 0 101 132" fill="none" xmlns="http://www.w3.org/2000/svg">
<path d="M9.00617 79.2836C6.96296 76.1587 5.49049 64.335 3.3573 46.1115C-0.248333 46.1115 0.713369 35.1729 3.3573 31.6892C11.1121 21.4714 8.99634 17.8813 14.535 13.2986C19.4346 9.24465 23.4289 10.6968 26.4335 11.137C35.3275 10.1736 50.1107 -0.88351 52.2741 1.27991C54.4375 3.44333 71.5044 16.1831 71.5044 16.1831C75.3411 17.3996 76.9774 18.9278 78.8357 23.3959C80.8038 27.1167 81.4668 29.0319 78.8357 30.9678C82.0576 54.6443 83.8836 63.0581 81.9606 68.9473C81.4607 70.4781 76.4296 72.1226 69.2207 73.6634C69.6648 73.771 70.1601 74.3131 70.6879 75.1959C91.725 74.8113 95.9026 75.1959 99.0275 78.3208C102.152 81.4457 73.872 83.1283 73.872 83.1283C77.2453 93.713 80.5195 109.803 80.0377 113.175C79.3165 118.223 40.4957 122.67 36.89 121.949C34.4649 121.464 30.572 105.811 29.3796 93.2349C29.3796 93.2349 10.6889 101.998 9.00627 100.435C7.32363 98.873 9.4272 94.3299 29.3796 81.4457C29.5401 80.5423 29.7578 79.7714 30.0393 79.1617C18.6534 80.1602 9.72194 80.3783 9.00617 79.2836Z" fill="white"/>
<path d="M3.3573 46.1115C5.49049 64.335 6.96296 76.1587 9.00617 79.2836C9.72194 80.3783 18.6534 80.1602 30.0393 79.1617M3.3573 46.1115C9.35629 44.6028 16.9285 41.1703 25.1114 37.3547M3.3573 46.1115C-0.248333 46.1115 0.713369 35.1729 3.3573 31.6892M78.8357 30.9678C82.0576 54.6443 83.8836 63.0581 81.9606 68.9473C81.4607 70.4781 76.4296 72.1226 69.2207 73.6634M78.8357 30.9678C81.4668 29.0319 80.8038 27.1167 78.8357 23.3959M78.8357 30.9678C72.8351 30.0623 67.9777 29.4899 63.5717 29.1902M78.8357 23.3959C69.2161 19.6936 55.6131 23.8812 41.9378 29.6982M78.8357 23.3959C76.9774 18.9278 75.3411 17.3996 71.5044 16.1831M41.9378 29.6982C36.2476 32.1186 30.5449 34.8211 25.1114 37.3547M41.9378 29.6982C50.0568 28.9519 56.1788 28.6873 63.5717 29.1902M25.1114 37.3547C29.2318 36.7253 32.8961 37.8299 40.4955 40.9437C48.254 32.8629 53.1343 29.8074 63.5717 29.1902M3.3573 31.6892C11.1121 21.4714 8.99634 17.8813 14.535 13.2986C19.4346 9.24465 23.4289 10.6968 26.4335 11.137M3.3573 31.6892C15.1359 34.6921 57.4423 15.2216 71.5044 16.1831M26.4335 11.137C28.1533 11.3889 38.4524 13.2985 50.2309 11.1189C62.0094 8.93935 66.8832 12.9037 71.5044 16.1831M26.4335 11.137C35.3275 10.1736 50.1107 -0.88351 52.2741 1.27991C54.4375 3.44333 71.5044 16.1831 71.5044 16.1831M30.0393 79.1617C42.7065 78.0507 58.4116 75.9737 69.2207 73.6634M30.0393 79.1617C29.7578 79.7714 29.5401 80.5423 29.3796 81.4457M69.2207 73.6634C69.6648 73.771 70.1601 74.3131 70.6879 75.1959M29.3796 81.4457C9.4272 94.3299 7.32363 98.873 9.00627 100.435C10.6889 101.998 29.3796 93.2349 29.3796 93.2349M29.3796 81.4457C28.8666 84.3322 28.9375 88.5719 29.3796 93.2349M29.3796 93.2349C30.572 105.811 34.4649 121.464 36.89 121.949C40.4957 122.67 79.3165 118.223 80.0377 113.175C80.5195 109.803 77.2453 93.713 73.872 83.1283M70.6879 75.1959C91.725 74.8113 95.9026 75.1959 99.0275 78.3208C102.152 81.4457 73.872 83.1283 73.872 83.1283M70.6879 75.1959C71.6768 76.8502 72.7796 79.7006 73.872 83.1283" stroke="#EEEEEE" stroke-width="2"/>
<path d="M41.5967 67.0222C42.882 68.3624 44.7622 69.5181 47.2674 69.0452C49.2327 68.6742 51.037 67.1028 51.4304 64.6669" stroke="#ACA8A8" stroke-width="3" stroke-linecap="round"/>
<path d="M78.8357 23.3959C80.8039 27.1167 81.4669 29.0319 78.8357 30.9678C72.8351 30.0623 67.9777 29.4899 63.5717 29.1902C53.1343 29.8074 48.2541 32.8629 40.4956 40.9437C32.8961 37.8299 29.2318 36.7253 25.1114 37.3547C16.9285 41.1703 9.35629 44.6028 3.3573 46.1115C-0.248334 46.1115 0.713369 35.1729 3.3573 31.6892C11.1121 21.4714 8.99634 17.8813 14.5351 13.2986C19.4346 9.24465 23.4289 10.6968 26.4335 11.137C35.3276 10.1736 50.1107 -0.88351 52.2741 1.27991C54.4375 3.44333 71.5044 16.1831 71.5044 16.1831C75.3411 17.3996 76.9774 18.9278 78.8357 23.3959Z" fill="#202020"/>
<path d="M78.8357 23.3959C80.8039 27.1167 81.4669 29.0319 78.8357 30.9678C72.8351 30.0623 67.9777 29.4899 63.5717 29.1902M78.8357 23.3959C69.2161 19.6936 55.6131 23.8812 41.9378 29.6982M78.8357 23.3959C76.9774 18.9278 75.3411 17.3996 71.5044 16.1831M41.9378 29.6982C36.2476 32.1186 30.5449 34.8211 25.1114 37.3547M41.9378 29.6982C50.0568 28.9519 56.1788 28.6873 63.5717 29.1902M25.1114 37.3547C16.9285 41.1703 9.35629 44.6028 3.3573 46.1115C-0.248334 46.1115 0.713369 35.1729 3.3573 31.6892M25.1114 37.3547C29.2318 36.7253 32.8961 37.8299 40.4956 40.9437C48.254 32.8629 53.1343 29.8074 63.5717 29.1902M3.3573 31.6892C11.1121 21.4714 8.99634 17.8813 14.5351 13.2986C19.4346 9.24465 23.4289 10.6968 26.4335 11.137M3.3573 31.6892C15.1359 34.6921 57.4424 15.2216 71.5044 16.1831M26.4335 11.137C28.1534 11.3889 38.4525 13.2985 50.2309 11.1189C62.0094 8.93936 66.8832 12.9037 71.5044 16.1831M26.4335 11.137C35.3276 10.1736 50.1107 -0.88351 52.2741 1.27991C54.4375 3.44333 71.5044 16.1831 71.5044 16.1831" stroke="#727272" stroke-width="2"/>
<path d="M26.193 52.4802C32.7758 51.4425 33.1639 64.1538 27.7554 65.1C22.3469 66.0461 19.6101 53.5179 26.193 52.4802Z" fill="#002255" stroke="#F2F2F2" stroke-width="2"/>
<path d="M59.7354 46.2906C66.3182 45.2529 66.7064 57.9642 61.2979 58.9104C55.8894 59.8565 53.1526 47.3283 59.7354 46.2906Z" fill="#002255" stroke="#F2F2F2" stroke-width="2"/>
<path d="M40.3757 125.435C40.1354 122.19 53.8368 121.589 50.9523 128.079C48.0678 134.569 40.6161 128.68 40.3757 125.435Z" fill="white" stroke="#E5E3E3" stroke-width="2"/>
<path d="M76.9803 120.329C76.5407 117.105 63.0137 119.366 67.1846 125.114C71.3554 130.863 77.4198 123.553 76.9803 120.329Z" fill="white" stroke="#E5E3E3" stroke-width="2"/>
</svg>
