<svg width="192" height="252" viewBox="0 0 192 252" fill="none" xmlns="http://www.w3.org/2000/svg">
<mask id="mask0_1690_4544" style="mask-type:alpha" maskUnits="userSpaceOnUse" x="123" y="115" width="69" height="39">
<path d="M141.092 127.055C164.455 114.898 193.247 109.667 191.361 124.187C189.476 138.706 158.361 152.687 137.861 153.687C117.362 154.687 117.728 139.212 141.092 127.055Z" fill="white"/>
</mask>
<g mask="url(#mask0_1690_4544)">
<path d="M141.092 127.055C164.455 114.898 193.247 109.667 191.361 124.187C189.476 138.706 158.361 152.687 137.861 153.687C117.362 154.687 117.728 139.212 141.092 127.055Z" fill="white"/>
<path d="M183 118.392C198.655 115.487 201.482 116.374 200.939 117.181" stroke="#F8F8F8" stroke-width="2" stroke-linecap="round"/>
<path d="M187 125.392C202.655 122.487 205.482 123.374 204.939 124.181" stroke="#F8F8F8" stroke-width="2" stroke-linecap="round"/>
<path d="M188 121.392C203.655 118.487 206.482 119.374 205.939 120.181" stroke="#F8F8F8" stroke-width="2" stroke-linecap="round"/>
</g>
<mask id="mask1_1690_4544" style="mask-type:alpha" maskUnits="userSpaceOnUse" x="3" y="129" width="72" height="35">
<path d="M47.2366 130.594C21.2611 134.946 -4.88097 148.096 5.36283 158.557C15.6066 169.018 48.8696 161.458 65.8434 149.919C82.8171 138.381 73.2121 126.243 47.2366 130.594Z" fill="white"/>
</mask>
<g mask="url(#mask1_1690_4544)">
<path d="M47.2366 130.594C21.2611 134.946 -4.88097 148.096 5.36283 158.557C15.6066 169.018 48.8696 161.458 65.8434 149.919C82.8171 138.381 73.2121 126.243 47.2366 130.594Z" fill="white"/>
<path d="M8.55322 148.897C-5.69815 155.998 -7.42141 158.408 -6.50161 158.726" stroke="#F8F8F8" stroke-width="2" stroke-linecap="round"/>
<path d="M9.57129 156.895C-4.68009 163.996 -6.40334 166.406 -5.48354 166.723" stroke="#F8F8F8" stroke-width="2" stroke-linecap="round"/>
<path d="M6.36572 154.302C-7.88565 161.403 -9.60891 163.813 -8.68911 164.131" stroke="#F8F8F8" stroke-width="2" stroke-linecap="round"/>
</g>
<path d="M92.6755 244.277C92.6755 244.277 76.9346 247.772 66.0514 244.651C55.1681 241.53 53.9145 196.204 57.0352 185.321C60.156 174.437 69.6167 174.207 83.471 183.901C97.3254 193.595 97.1204 236.032 92.6755 244.277Z" fill="white"/>
<path d="M108.264 243.277C108.264 243.277 124.005 246.772 134.889 243.651C145.772 240.53 147.025 195.204 143.905 184.321C140.784 173.437 131.323 173.207 117.469 182.901C103.615 192.595 103.82 235.032 108.264 243.277Z" fill="white"/>
<mask id="mask2_1690_4544" style="mask-type:alpha" maskUnits="userSpaceOnUse" x="48" y="115" width="105" height="105">
<path d="M141 206.011C120.308 224.353 85.3083 222.229 62.9998 207.392C40.6914 192.555 46.4378 135.758 60.7997 123.482C75.1616 111.205 125.678 113.242 138.162 124.744C150.646 136.245 161.692 187.67 141 206.011Z" fill="white"/>
</mask>
<g mask="url(#mask2_1690_4544)">
<path d="M147.315 206.011C126.623 224.353 76.6081 220.888 54.2996 206.052C31.9912 191.215 37.7376 134.417 52.0995 122.141C66.4614 109.865 131.993 113.242 144.477 124.744C156.961 136.245 168.008 187.67 147.315 206.011Z" fill="white"/>
<path d="M147.315 206.011C126.623 224.353 76.6081 220.888 54.2996 206.052C31.9912 191.215 37.7376 134.417 52.0995 122.141C66.4614 109.865 131.993 113.242 144.477 124.744C156.961 136.245 168.008 187.67 147.315 206.011Z" fill="#F8F8F8"/>
<path d="M143.314 207.011C122.622 225.352 72.6071 221.888 50.2986 207.051C27.9902 192.214 33.7366 135.417 48.0985 123.141C62.4604 110.865 127.992 114.242 140.476 125.743C152.96 137.245 164.007 188.67 143.314 207.011Z" fill="white"/>
<path d="M147.001 127.892C126.309 146.234 75.2936 149.269 52.9851 134.433C30.6767 119.596 36.4231 62.7982 50.785 50.5221C65.1469 38.246 130.679 41.6231 143.163 53.1247C155.647 64.6263 167.693 109.551 147.001 127.892Z" fill="#F8F8F8"/>
</g>
<path d="M145.617 128.619C124.924 146.96 74.9093 143.496 52.6009 128.659C30.2924 113.822 36.0388 57.0248 50.4007 44.7487C64.7626 32.4726 130.295 35.8497 142.779 47.3513C155.263 58.8529 166.309 110.278 145.617 128.619Z" fill="white"/>
<circle cx="51" cy="41.392" r="15" fill="white"/>
<circle cx="140" cy="39.392" r="15" fill="white"/>
<path d="M121 119.392C121 125.467 110.926 133.935 98.5 133.935C86.0736 133.935 76 125.467 76 119.392C76 113.317 86.0736 102.392 98.5 102.392C110.926 102.392 121 113.317 121 119.392Z" fill="#EBF3FF"/>
<path d="M60.5 39.392C60.5 42.6662 56.8513 50.892 50.5 50.892C44.1487 50.892 41.5 44.6662 41.5 41.392C41.5 38.1178 44.1487 32.2299 50.5 32.2299C56.8513 32.2299 60.5 36.1178 60.5 39.392Z" fill="#EBF3FF"/>
<path d="M142.811 48.8879C139.561 49.2869 130.952 46.6679 130.178 40.3639C129.404 34.06 135.26 30.6723 138.51 30.2733C141.76 29.8742 147.927 31.7857 148.701 38.0896C149.475 44.3935 146.061 48.4889 142.811 48.8879Z" fill="#EBF3FF"/>
<path d="M87 118.392C88 130.392 98.5 124.392 98.5 124.392" stroke="#002255" stroke-width="2" stroke-linecap="round"/>
<path d="M110.5 118.392C109.5 130.392 99 124.392 99 124.392" stroke="#002255" stroke-width="2" stroke-linecap="round"/>
<ellipse cx="78" cy="89.392" rx="9" ry="11" fill="#002255"/>
<ellipse cx="78" cy="81.892" rx="3" ry="2.5" fill="white"/>
<ellipse cx="99.2533" cy="112.699" rx="5" ry="6" transform="rotate(87 99.2533 112.699)" fill="#002255"/>
<ellipse cx="119" cy="88.392" rx="9" ry="11" fill="#002255"/>
<ellipse cx="119" cy="80.892" rx="3" ry="2.5" fill="white"/>
<rect x="152.163" y="167.008" width="25" height="31" rx="3" transform="rotate(4 152.163 167.008)" fill="#494949"/>
<path d="M152.659 170.3C150.835 168.549 154.309 166.207 156.824 166.471L175.292 168.412C176.94 168.585 178.136 170.061 177.962 171.709V171.709V171.709C177.904 172.264 177.418 172.672 176.862 172.631C172.388 172.301 154.314 170.946 153 170.508C152.869 170.464 152.755 170.393 152.659 170.3Z" fill="#595959"/>
<path d="M52 128.892C61.9656 126.666 105 163.892 153.498 171.893C153.498 171.893 156.001 171.392 153.498 180.893C150.996 190.393 40.9981 132.893 41.4998 131.392C42.0014 129.891 42.0344 131.117 52 128.892Z" fill="#8F8F8F"/>
</svg>
