<svg width="176" height="252" viewBox="0 0 176 252" fill="none" xmlns="http://www.w3.org/2000/svg">
<path d="M83.6765 244.277C83.6765 244.277 67.9356 247.772 57.0523 244.651C46.1691 241.53 44.9155 196.204 48.0362 185.321C51.1569 174.437 60.6177 174.207 74.472 183.901C88.3264 193.595 88.1214 236.032 83.6765 244.277Z" fill="white"/>
<path d="M99.2654 243.277C99.2654 243.277 115.006 246.772 125.89 243.651C136.773 240.53 138.026 195.204 134.906 184.321C131.785 173.437 122.324 173.207 108.47 182.901C94.6155 192.595 94.8205 235.032 99.2654 243.277Z" fill="white"/>
<mask id="mask0_1717_276" style="mask-type:alpha" maskUnits="userSpaceOnUse" x="39" y="115" width="105" height="105">
<path d="M132.001 206.011C111.309 224.353 76.3093 222.229 54.0008 207.392C31.6924 192.555 37.4388 135.758 51.8007 123.482C66.1626 111.205 116.679 113.242 129.163 124.744C141.647 136.245 152.693 187.67 132.001 206.011Z" fill="white"/>
</mask>
<g mask="url(#mask0_1717_276)">
<path d="M138.316 206.011C117.624 224.353 67.6091 220.888 45.3006 206.052C22.9921 191.215 28.7385 134.417 43.1005 122.141C57.4624 109.865 122.994 113.242 135.478 124.744C147.962 136.245 159.009 187.67 138.316 206.011Z" fill="white"/>
<path d="M138.316 206.011C117.624 224.353 67.6091 220.888 45.3006 206.052C22.9921 191.215 28.7385 134.417 43.1005 122.141C57.4624 109.865 122.994 113.242 135.478 124.744C147.962 136.245 159.009 187.67 138.316 206.011Z" fill="#F8F8F8"/>
<path d="M134.315 207.011C113.623 225.352 63.6081 221.888 41.2996 207.051C18.9912 192.214 24.7376 135.417 39.0995 123.141C53.4614 110.865 118.993 114.242 131.477 125.743C143.961 137.245 155.008 188.67 134.315 207.011Z" fill="white"/>
<path d="M138.002 127.892C117.31 146.234 66.2946 149.269 43.9861 134.433C21.6777 119.596 27.4241 62.7982 41.786 50.5221C56.1479 38.246 121.68 41.6231 134.164 53.1247C146.648 64.6263 158.694 109.551 138.002 127.892Z" fill="#F8F8F8"/>
</g>
<path d="M136.618 128.619C115.925 146.96 65.9103 143.496 43.6019 128.659C21.2934 113.822 27.0398 57.0248 41.4017 44.7487C55.7636 32.4726 121.296 35.8497 133.78 47.3513C146.264 58.8529 157.31 110.278 136.618 128.619Z" fill="white"/>
<circle cx="42.001" cy="41.392" r="15" fill="white"/>
<circle cx="131.001" cy="39.392" r="15" fill="white"/>
<path d="M112.001 119.392C112.001 125.467 101.927 133.935 89.501 133.935C77.0746 133.935 67.001 125.467 67.001 119.392C67.001 113.317 77.0746 102.392 89.501 102.392C101.927 102.392 112.001 113.317 112.001 119.392Z" fill="#EBF3FF"/>
<path d="M51.501 39.392C51.501 42.6662 47.8523 50.892 41.501 50.892C35.1497 50.892 32.501 44.6662 32.501 41.392C32.501 38.1178 35.1497 32.2299 41.501 32.2299C47.8523 32.2299 51.501 36.1178 51.501 39.392Z" fill="#EBF3FF"/>
<path d="M133.812 48.8879C130.562 49.2869 121.953 46.6679 121.179 40.3639C120.405 34.06 126.261 30.6723 129.511 30.2733C132.761 29.8742 138.928 31.7857 139.702 38.0896C140.476 44.3935 137.062 48.4889 133.812 48.8879Z" fill="#EBF3FF"/>
<path d="M78.001 118.392C79.001 130.392 89.501 124.392 89.501 124.392" stroke="#002255" stroke-width="2" stroke-linecap="round"/>
<path d="M101.501 118.392C100.501 130.392 90.001 124.392 90.001 124.392" stroke="#002255" stroke-width="2" stroke-linecap="round"/>
<ellipse cx="69.001" cy="89.392" rx="9" ry="11" fill="#002255"/>
<ellipse cx="69.001" cy="81.892" rx="3" ry="2.5" fill="white"/>
<ellipse cx="90.2543" cy="112.699" rx="5" ry="6" transform="rotate(87 90.2543 112.699)" fill="#002255"/>
<ellipse cx="110.001" cy="88.392" rx="9" ry="11" fill="#002255"/>
<ellipse cx="110.001" cy="80.892" rx="3" ry="2.5" fill="white"/>
<path d="M75.0543 120.293C74.6026 120.09 74.3671 119.584 74.5036 119.108L78.7813 104.19C78.9568 103.578 79.6539 103.284 80.2186 103.579C89.219 108.273 95.5933 110.062 107.574 111.372C108.193 111.44 108.604 112.048 108.432 112.646L104.14 127.617C104.004 128.089 103.545 128.393 103.058 128.332C92.2496 126.99 85.7907 125.13 75.0543 120.293Z" fill="#D87F9B"/>
<path d="M76.2702 120.845C75.7571 120.614 75.5406 119.998 75.7735 119.486C78.3283 113.869 76.2415 114.305 79.6621 104.561C79.8625 103.99 80.5259 103.735 81.064 104.011C89.7143 108.457 94.3018 109.568 106.44 111.032C107.05 111.105 107.453 111.704 107.288 112.295L103.116 127.28C102.984 127.756 102.521 128.064 102.031 128.004C91.3777 126.706 86.8046 125.587 76.2702 120.845Z" fill="url(#paint0_linear_1717_276)"/>
<mask id="path-23-outside-1_1717_276" maskUnits="userSpaceOnUse" x="79.9089" y="104.762" width="8.51832" height="6.09987" fill="black">
<rect fill="white" x="79.9089" y="104.762" width="8.51832" height="6.09987"/>
<path d="M81.6266 105.573L81.0119 106.892L80.7332 106.762L81.2245 105.708L81.2168 105.704L80.8267 105.753L80.9419 105.506L81.3646 105.451L81.6266 105.573ZM81.8286 107.308C81.7181 107.256 81.6355 107.184 81.5809 107.093C81.5267 107.002 81.5021 106.895 81.507 106.772C81.5124 106.65 81.5489 106.517 81.6165 106.373C81.6836 106.229 81.7619 106.116 81.8516 106.035C81.9418 105.954 82.0388 105.905 82.1428 105.889C82.2475 105.873 82.3549 105.891 82.4652 105.943C82.5755 105.994 82.6579 106.065 82.7125 106.155C82.7675 106.245 82.7928 106.351 82.7885 106.473C82.7844 106.593 82.7486 106.726 82.6812 106.869C82.6137 107.014 82.5347 107.127 82.4439 107.21C82.3536 107.293 82.2562 107.343 82.1516 107.36C82.047 107.377 81.9393 107.359 81.8286 107.308ZM81.9363 107.077C82.0119 107.112 82.0899 107.102 82.1703 107.047C82.2508 106.992 82.3263 106.889 82.3967 106.737C82.4433 106.637 82.4718 106.549 82.4822 106.472C82.4931 106.396 82.4876 106.333 82.4659 106.282C82.4446 106.232 82.4089 106.194 82.3587 106.171C82.2836 106.136 82.206 106.146 82.1259 106.2C82.0458 106.254 81.9706 106.356 81.9004 106.505C81.8532 106.606 81.8238 106.696 81.8124 106.773C81.8016 106.85 81.8069 106.914 81.8284 106.965C81.8502 107.016 81.8861 107.053 81.9363 107.077ZM83.0765 107.89C82.966 107.838 82.8835 107.766 82.8288 107.675C82.7747 107.584 82.75 107.477 82.755 107.354C82.7603 107.232 82.7968 107.099 82.8645 106.955C82.9315 106.811 83.0099 106.698 83.0996 106.617C83.1897 106.536 83.2868 106.487 83.3908 106.471C83.4954 106.455 83.6029 106.473 83.7132 106.524C83.8234 106.576 83.9059 106.647 83.9604 106.737C84.0154 106.827 84.0408 106.933 84.0365 107.055C84.0324 107.175 83.9966 107.308 83.9291 107.451C83.8617 107.596 83.7826 107.709 83.6919 107.792C83.6016 107.875 83.5041 107.925 83.3995 107.942C83.2949 107.959 83.1872 107.941 83.0765 107.89ZM83.1843 107.659C83.2598 107.694 83.3378 107.684 83.4183 107.629C83.4988 107.574 83.5742 107.471 83.6446 107.318C83.6912 107.218 83.7198 107.13 83.7302 107.054C83.741 106.978 83.7356 106.915 83.7139 106.864C83.6926 106.813 83.6568 106.776 83.6066 106.753C83.5315 106.718 83.4539 106.728 83.3738 106.782C83.2938 106.836 83.2186 106.938 83.1483 107.087C83.1011 107.188 83.0718 107.278 83.0603 107.355C83.0495 107.432 83.0549 107.496 83.0764 107.547C83.0981 107.598 83.1341 107.635 83.1843 107.659ZM84.3245 108.472C84.214 108.42 84.1314 108.348 84.0768 108.257C84.0226 108.166 83.998 108.059 84.0029 107.936C84.0082 107.814 84.0447 107.681 84.1124 107.537C84.1794 107.393 84.2578 107.28 84.3475 107.199C84.4377 107.118 84.5347 107.069 84.6387 107.053C84.7434 107.037 84.8508 107.055 84.9611 107.106C85.0714 107.158 85.1538 107.229 85.2084 107.319C85.2634 107.409 85.2887 107.515 85.2844 107.636C85.2803 107.757 85.2445 107.89 85.1771 108.033C85.1096 108.178 85.0305 108.291 84.9398 108.374C84.8495 108.457 84.752 108.506 84.6474 108.524C84.5428 108.541 84.4352 108.523 84.3245 108.472ZM84.4322 108.241C84.5077 108.276 84.5858 108.266 84.6662 108.211C84.7467 108.156 84.8221 108.053 84.8926 107.9C84.9392 107.8 84.9677 107.712 84.9781 107.636C84.989 107.56 84.9835 107.497 84.9618 107.446C84.9405 107.395 84.9047 107.358 84.8545 107.335C84.7794 107.3 84.7019 107.309 84.6218 107.364C84.5417 107.418 84.4665 107.519 84.3963 107.669C84.349 107.77 84.3197 107.86 84.3083 107.937C84.2974 108.014 84.3028 108.078 84.3243 108.129C84.346 108.18 84.382 108.217 84.4322 108.241ZM85.5724 109.054C85.4619 109.002 85.3793 108.93 85.3247 108.839C85.2706 108.747 85.2459 108.641 85.2508 108.518C85.2562 108.396 85.2927 108.263 85.3603 108.119C85.4274 107.975 85.5058 107.862 85.5955 107.781C85.6856 107.699 85.7827 107.651 85.8867 107.635C85.9913 107.619 86.0988 107.637 86.209 107.688C86.3193 107.74 86.4018 107.811 86.4563 107.901C86.5113 107.991 86.5367 108.097 86.5324 108.218C86.5283 108.339 86.4925 108.471 86.425 108.615C86.3576 108.76 86.2785 108.873 86.1877 108.956C86.0974 109.039 86 109.088 85.8954 109.105C85.7908 109.123 85.6831 109.105 85.5724 109.054ZM85.6802 108.823C85.7557 108.858 85.8337 108.848 85.9142 108.793C85.9946 108.738 86.0701 108.634 86.1405 108.482C86.1871 108.382 86.2156 108.294 86.2261 108.218C86.2369 108.142 86.2315 108.079 86.2097 108.028C86.1884 107.977 86.1527 107.94 86.1025 107.917C86.0274 107.882 85.9498 107.891 85.8697 107.945C85.7897 108 85.7145 108.101 85.6442 108.251C85.597 108.352 85.5677 108.441 85.5562 108.519C85.5454 108.596 85.5507 108.66 85.5723 108.711C85.594 108.762 85.63 108.799 85.6802 108.823ZM86.8204 109.636C86.7098 109.583 86.6273 109.512 86.5727 109.42C86.5185 109.329 86.4939 109.223 86.4988 109.1C86.5041 108.978 86.5406 108.844 86.6083 108.7C86.6753 108.557 86.7537 108.444 86.8434 108.363C86.9335 108.281 87.0306 108.233 87.1346 108.217C87.2392 108.201 87.3467 108.219 87.457 108.27C87.5673 108.322 87.6497 108.393 87.7043 108.483C87.7593 108.573 87.7846 108.679 87.7803 108.8C87.7762 108.921 87.7404 109.053 87.6729 109.197C87.6055 109.342 87.5264 109.455 87.4357 109.538C87.3454 109.62 87.2479 109.67 87.1433 109.687C87.0387 109.704 86.9311 109.687 86.8204 109.636ZM86.9281 109.404C87.0036 109.44 87.0816 109.43 87.1621 109.375C87.2426 109.32 87.318 109.216 87.3884 109.064C87.4351 108.964 87.4636 108.876 87.474 108.8C87.4848 108.724 87.4794 108.661 87.4577 108.61C87.4364 108.559 87.4006 108.522 87.3504 108.499C87.2753 108.464 87.1977 108.473 87.1177 108.527C87.0376 108.581 86.9624 108.683 86.8922 108.833C86.8449 108.934 86.8156 109.023 86.8042 109.101C86.7933 109.178 86.7987 109.242 86.8202 109.293C86.8419 109.344 86.8779 109.381 86.9281 109.404Z"/>
</mask>
<path d="M81.6266 105.573L81.0119 106.892L80.7332 106.762L81.2245 105.708L81.2168 105.704L80.8267 105.753L80.9419 105.506L81.3646 105.451L81.6266 105.573ZM81.8286 107.308C81.7181 107.256 81.6355 107.184 81.5809 107.093C81.5267 107.002 81.5021 106.895 81.507 106.772C81.5124 106.65 81.5489 106.517 81.6165 106.373C81.6836 106.229 81.7619 106.116 81.8516 106.035C81.9418 105.954 82.0388 105.905 82.1428 105.889C82.2475 105.873 82.3549 105.891 82.4652 105.943C82.5755 105.994 82.6579 106.065 82.7125 106.155C82.7675 106.245 82.7928 106.351 82.7885 106.473C82.7844 106.593 82.7486 106.726 82.6812 106.869C82.6137 107.014 82.5347 107.127 82.4439 107.21C82.3536 107.293 82.2562 107.343 82.1516 107.36C82.047 107.377 81.9393 107.359 81.8286 107.308ZM81.9363 107.077C82.0119 107.112 82.0899 107.102 82.1703 107.047C82.2508 106.992 82.3263 106.889 82.3967 106.737C82.4433 106.637 82.4718 106.549 82.4822 106.472C82.4931 106.396 82.4876 106.333 82.4659 106.282C82.4446 106.232 82.4089 106.194 82.3587 106.171C82.2836 106.136 82.206 106.146 82.1259 106.2C82.0458 106.254 81.9706 106.356 81.9004 106.505C81.8532 106.606 81.8238 106.696 81.8124 106.773C81.8016 106.85 81.8069 106.914 81.8284 106.965C81.8502 107.016 81.8861 107.053 81.9363 107.077ZM83.0765 107.89C82.966 107.838 82.8835 107.766 82.8288 107.675C82.7747 107.584 82.75 107.477 82.755 107.354C82.7603 107.232 82.7968 107.099 82.8645 106.955C82.9315 106.811 83.0099 106.698 83.0996 106.617C83.1897 106.536 83.2868 106.487 83.3908 106.471C83.4954 106.455 83.6029 106.473 83.7132 106.524C83.8234 106.576 83.9059 106.647 83.9604 106.737C84.0154 106.827 84.0408 106.933 84.0365 107.055C84.0324 107.175 83.9966 107.308 83.9291 107.451C83.8617 107.596 83.7826 107.709 83.6919 107.792C83.6016 107.875 83.5041 107.925 83.3995 107.942C83.2949 107.959 83.1872 107.941 83.0765 107.89ZM83.1843 107.659C83.2598 107.694 83.3378 107.684 83.4183 107.629C83.4988 107.574 83.5742 107.471 83.6446 107.318C83.6912 107.218 83.7198 107.13 83.7302 107.054C83.741 106.978 83.7356 106.915 83.7139 106.864C83.6926 106.813 83.6568 106.776 83.6066 106.753C83.5315 106.718 83.4539 106.728 83.3738 106.782C83.2938 106.836 83.2186 106.938 83.1483 107.087C83.1011 107.188 83.0718 107.278 83.0603 107.355C83.0495 107.432 83.0549 107.496 83.0764 107.547C83.0981 107.598 83.1341 107.635 83.1843 107.659ZM84.3245 108.472C84.214 108.42 84.1314 108.348 84.0768 108.257C84.0226 108.166 83.998 108.059 84.0029 107.936C84.0082 107.814 84.0447 107.681 84.1124 107.537C84.1794 107.393 84.2578 107.28 84.3475 107.199C84.4377 107.118 84.5347 107.069 84.6387 107.053C84.7434 107.037 84.8508 107.055 84.9611 107.106C85.0714 107.158 85.1538 107.229 85.2084 107.319C85.2634 107.409 85.2887 107.515 85.2844 107.636C85.2803 107.757 85.2445 107.89 85.1771 108.033C85.1096 108.178 85.0305 108.291 84.9398 108.374C84.8495 108.457 84.752 108.506 84.6474 108.524C84.5428 108.541 84.4352 108.523 84.3245 108.472ZM84.4322 108.241C84.5077 108.276 84.5858 108.266 84.6662 108.211C84.7467 108.156 84.8221 108.053 84.8926 107.9C84.9392 107.8 84.9677 107.712 84.9781 107.636C84.989 107.56 84.9835 107.497 84.9618 107.446C84.9405 107.395 84.9047 107.358 84.8545 107.335C84.7794 107.3 84.7019 107.309 84.6218 107.364C84.5417 107.418 84.4665 107.519 84.3963 107.669C84.349 107.77 84.3197 107.86 84.3083 107.937C84.2974 108.014 84.3028 108.078 84.3243 108.129C84.346 108.18 84.382 108.217 84.4322 108.241ZM85.5724 109.054C85.4619 109.002 85.3793 108.93 85.3247 108.839C85.2706 108.747 85.2459 108.641 85.2508 108.518C85.2562 108.396 85.2927 108.263 85.3603 108.119C85.4274 107.975 85.5058 107.862 85.5955 107.781C85.6856 107.699 85.7827 107.651 85.8867 107.635C85.9913 107.619 86.0988 107.637 86.209 107.688C86.3193 107.74 86.4018 107.811 86.4563 107.901C86.5113 107.991 86.5367 108.097 86.5324 108.218C86.5283 108.339 86.4925 108.471 86.425 108.615C86.3576 108.76 86.2785 108.873 86.1877 108.956C86.0974 109.039 86 109.088 85.8954 109.105C85.7908 109.123 85.6831 109.105 85.5724 109.054ZM85.6802 108.823C85.7557 108.858 85.8337 108.848 85.9142 108.793C85.9946 108.738 86.0701 108.634 86.1405 108.482C86.1871 108.382 86.2156 108.294 86.2261 108.218C86.2369 108.142 86.2315 108.079 86.2097 108.028C86.1884 107.977 86.1527 107.94 86.1025 107.917C86.0274 107.882 85.9498 107.891 85.8697 107.945C85.7897 108 85.7145 108.101 85.6442 108.251C85.597 108.352 85.5677 108.441 85.5562 108.519C85.5454 108.596 85.5507 108.66 85.5723 108.711C85.594 108.762 85.63 108.799 85.6802 108.823ZM86.8204 109.636C86.7098 109.583 86.6273 109.512 86.5727 109.42C86.5185 109.329 86.4939 109.223 86.4988 109.1C86.5041 108.978 86.5406 108.844 86.6083 108.7C86.6753 108.557 86.7537 108.444 86.8434 108.363C86.9335 108.281 87.0306 108.233 87.1346 108.217C87.2392 108.201 87.3467 108.219 87.457 108.27C87.5673 108.322 87.6497 108.393 87.7043 108.483C87.7593 108.573 87.7846 108.679 87.7803 108.8C87.7762 108.921 87.7404 109.053 87.6729 109.197C87.6055 109.342 87.5264 109.455 87.4357 109.538C87.3454 109.62 87.2479 109.67 87.1433 109.687C87.0387 109.704 86.9311 109.687 86.8204 109.636ZM86.9281 109.404C87.0036 109.44 87.0816 109.43 87.1621 109.375C87.2426 109.32 87.318 109.216 87.3884 109.064C87.4351 108.964 87.4636 108.876 87.474 108.8C87.4848 108.724 87.4794 108.661 87.4577 108.61C87.4364 108.559 87.4006 108.522 87.3504 108.499C87.2753 108.464 87.1977 108.473 87.1177 108.527C87.0376 108.581 86.9624 108.683 86.8922 108.833C86.8449 108.934 86.8156 109.023 86.8042 109.101C86.7933 109.178 86.7987 109.242 86.8202 109.293C86.8419 109.344 86.8779 109.381 86.9281 109.404Z" fill="url(#paint1_linear_1717_276)"/>
<path d="M81.6266 105.573L81.7172 105.616L81.7595 105.525L81.6689 105.483L81.6266 105.573ZM81.0119 106.892L80.9696 106.982L81.0603 107.025L81.1025 106.934L81.0119 106.892ZM80.7332 106.762L80.6425 106.719L80.6003 106.81L80.6909 106.852L80.7332 106.762ZM81.2245 105.708L81.3152 105.75L81.3574 105.66L81.2668 105.617L81.2245 105.708ZM81.2168 105.704L81.2591 105.614L81.233 105.602L81.2045 105.605L81.2168 105.704ZM80.8267 105.753L80.736 105.711L80.6597 105.874L80.839 105.852L80.8267 105.753ZM80.9419 105.506L80.9292 105.407L80.8746 105.414L80.8513 105.463L80.9419 105.506ZM81.3646 105.451L81.4069 105.361L81.3806 105.348L81.3519 105.352L81.3646 105.451ZM81.536 105.531L80.9213 106.849L81.1025 106.934L81.7172 105.616L81.536 105.531ZM81.0542 106.801L80.7754 106.671L80.6909 106.852L80.9696 106.982L81.0542 106.801ZM80.8238 106.804L81.3152 105.75L81.1339 105.666L80.6425 106.719L80.8238 106.804ZM81.2668 105.617L81.2591 105.614L81.1745 105.795L81.1823 105.799L81.2668 105.617ZM81.2045 105.605L80.8143 105.654L80.839 105.852L81.2291 105.804L81.2045 105.605ZM80.9173 105.795L81.0326 105.548L80.8513 105.463L80.736 105.711L80.9173 105.795ZM80.9547 105.605L81.3774 105.55L81.3519 105.352L80.9292 105.407L80.9547 105.605ZM81.3224 105.542L81.5844 105.664L81.6689 105.483L81.4069 105.361L81.3224 105.542ZM81.8286 107.308L81.786 107.398L81.7863 107.398L81.8286 107.308ZM81.5809 107.093L81.495 107.144L81.4951 107.144L81.5809 107.093ZM81.507 106.772L81.4071 106.768L81.4071 106.768L81.507 106.772ZM81.6165 106.373L81.707 106.415L81.7072 106.415L81.6165 106.373ZM81.8516 106.035L81.7847 105.961L81.7844 105.961L81.8516 106.035ZM82.1428 105.889L82.1578 105.988L82.1579 105.988L82.1428 105.889ZM82.7125 106.155L82.6269 106.207L82.6271 106.207L82.7125 106.155ZM82.7885 106.473L82.6886 106.469L82.6886 106.469L82.7885 106.473ZM82.6812 106.869L82.5907 106.827L82.5905 106.827L82.6812 106.869ZM82.4439 107.21L82.3766 107.136L82.3764 107.136L82.4439 107.21ZM82.1516 107.36L82.1676 107.458L82.1516 107.36ZM82.1703 107.047L82.2267 107.13L82.1703 107.047ZM82.3967 106.737L82.306 106.694L82.3059 106.695L82.3967 106.737ZM82.4822 106.472L82.3832 106.458L82.3832 106.459L82.4822 106.472ZM82.4659 106.282L82.3737 106.321L82.3739 106.321L82.4659 106.282ZM82.1259 106.2L82.0699 106.117L82.1259 106.2ZM81.9004 106.505L81.8099 106.463L81.8098 106.463L81.9004 106.505ZM81.8124 106.773L81.7135 106.758L81.7133 106.759L81.8124 106.773ZM81.8284 106.965L81.7362 107.004L81.7365 107.005L81.8284 106.965ZM81.8712 107.217C81.7759 107.172 81.7097 107.113 81.6667 107.041L81.4951 107.144C81.5613 107.255 81.6602 107.339 81.786 107.398L81.8712 107.217ZM81.6669 107.042C81.6241 106.97 81.6027 106.883 81.6069 106.776L81.4071 106.768C81.4015 106.907 81.4294 107.034 81.495 107.144L81.6669 107.042ZM81.6069 106.777C81.6115 106.671 81.6434 106.551 81.707 106.415L81.526 106.33C81.4543 106.483 81.4132 106.629 81.4071 106.768L81.6069 106.777ZM81.7072 106.415C81.7702 106.28 81.8415 106.179 81.9189 106.109L81.7844 105.961C81.6823 106.054 81.5969 106.178 81.5259 106.331L81.7072 106.415ZM81.9186 106.109C81.9965 106.039 82.076 106.001 82.1578 105.988L82.1279 105.791C82.0016 105.81 81.8871 105.868 81.7847 105.961L81.9186 106.109ZM82.1579 105.988C82.2403 105.976 82.3278 105.989 82.4229 106.033L82.5075 105.852C82.382 105.793 82.2547 105.771 82.1277 105.791L82.1579 105.988ZM82.4229 106.033C82.5181 106.078 82.5841 106.136 82.6269 106.207L82.7981 106.103C82.7317 105.994 82.6329 105.91 82.5075 105.852L82.4229 106.033ZM82.6271 106.207C82.6705 106.278 82.6923 106.364 82.6886 106.469L82.8885 106.476C82.8934 106.338 82.8645 106.213 82.7979 106.103L82.6271 106.207ZM82.6886 106.469C82.6851 106.573 82.6541 106.692 82.5907 106.827L82.7717 106.912C82.8432 106.76 82.8838 106.614 82.8885 106.476L82.6886 106.469ZM82.5905 106.827C82.5271 106.963 82.4551 107.065 82.3766 107.136L82.5112 107.284C82.6142 107.19 82.7004 107.065 82.7718 106.911L82.5905 106.827ZM82.3764 107.136C82.2981 107.208 82.218 107.248 82.1355 107.261L82.1676 107.458C82.2943 107.438 82.4091 107.378 82.5115 107.284L82.3764 107.136ZM82.1355 107.261C82.0536 107.274 81.9662 107.262 81.8708 107.217L81.7863 107.398C81.9124 107.457 82.0403 107.479 82.1676 107.458L82.1355 107.261ZM81.8941 107.167C82.0075 107.22 82.1229 107.201 82.2267 107.13L82.114 106.965C82.0568 107.004 82.0162 107.004 81.9786 106.986L81.8941 107.167ZM82.2267 107.13C82.3293 107.06 82.4142 106.937 82.4874 106.779L82.3059 106.695C82.2383 106.841 82.1723 106.925 82.114 106.965L82.2267 107.13ZM82.4873 106.779C82.5365 106.673 82.5691 106.575 82.5813 106.486L82.3832 106.459C82.3745 106.522 82.3501 106.6 82.306 106.694L82.4873 106.779ZM82.5812 106.487C82.5937 106.399 82.589 106.316 82.5579 106.243L82.3739 106.321C82.3862 106.35 82.3925 106.394 82.3832 106.458L82.5812 106.487ZM82.5581 106.243C82.5271 106.17 82.4734 106.114 82.4009 106.08L82.3164 106.262C82.3443 106.275 82.3621 106.293 82.3737 106.321L82.5581 106.243ZM82.4009 106.08C82.2882 106.028 82.1734 106.047 82.0699 106.117L82.1819 106.283C82.2386 106.244 82.2789 106.244 82.3164 106.262L82.4009 106.08ZM82.0699 106.117C81.9677 106.186 81.883 106.307 81.8099 106.463L81.9909 106.548C82.0583 106.404 82.1239 106.322 82.1819 106.283L82.0699 106.117ZM81.8098 106.463C81.7601 106.569 81.7268 106.668 81.7135 106.758L81.9113 106.788C81.9209 106.723 81.9463 106.643 81.991 106.547L81.8098 106.463ZM81.7133 106.759C81.701 106.847 81.7055 106.931 81.7362 107.004L81.9207 106.927C81.9083 106.897 81.9021 106.853 81.9114 106.787L81.7133 106.759ZM81.7365 107.005C81.7679 107.078 81.8216 107.134 81.8941 107.167L81.9786 106.986C81.9507 106.973 81.9324 106.954 81.9204 106.926L81.7365 107.005ZM83.0765 107.89L83.0339 107.98L83.0343 107.98L83.0765 107.89ZM82.8288 107.675L82.7429 107.726L82.743 107.726L82.8288 107.675ZM82.755 107.354L82.655 107.35L82.655 107.35L82.755 107.354ZM82.8645 106.955L82.955 106.997L82.9551 106.997L82.8645 106.955ZM83.0996 106.617L83.0326 106.543L83.0323 106.543L83.0996 106.617ZM83.3908 106.471L83.4058 106.57L83.4059 106.57L83.3908 106.471ZM83.9604 106.737L83.8749 106.789L83.875 106.789L83.9604 106.737ZM84.0365 107.055L83.9365 107.051L83.9365 107.051L84.0365 107.055ZM83.9291 107.451L83.8386 107.409L83.8385 107.409L83.9291 107.451ZM83.6919 107.792L83.6246 107.718L83.6243 107.718L83.6919 107.792ZM83.3995 107.942L83.4156 108.04L83.3995 107.942ZM83.4183 107.629L83.4747 107.712L83.4183 107.629ZM83.6446 107.318L83.554 107.276L83.5539 107.276L83.6446 107.318ZM83.7302 107.054L83.6312 107.04L83.6311 107.041L83.7302 107.054ZM83.7139 106.864L83.6217 106.903L83.6219 106.903L83.7139 106.864ZM83.3738 106.782L83.3179 106.699L83.3738 106.782ZM83.1483 107.087L83.0578 107.045L83.0577 107.045L83.1483 107.087ZM83.0603 107.355L82.9614 107.34L82.9613 107.341L83.0603 107.355ZM83.0764 107.547L82.9842 107.586L82.9844 107.586L83.0764 107.547ZM83.1191 107.799C83.0238 107.754 82.9576 107.695 82.9147 107.623L82.743 107.726C82.8093 107.837 82.9082 107.921 83.0339 107.98L83.1191 107.799ZM82.9148 107.624C82.872 107.552 82.8506 107.465 82.8549 107.358L82.655 107.35C82.6495 107.489 82.6774 107.616 82.7429 107.726L82.9148 107.624ZM82.8549 107.359C82.8595 107.253 82.8913 107.133 82.955 106.997L82.774 106.912C82.7023 107.065 82.6611 107.211 82.655 107.35L82.8549 107.359ZM82.9551 106.997C83.0182 106.862 83.0895 106.761 83.1668 106.691L83.0323 106.543C82.9303 106.636 82.8448 106.76 82.7738 106.912L82.9551 106.997ZM83.1665 106.691C83.2444 106.621 83.324 106.583 83.4058 106.57L83.3758 106.372C83.2496 106.392 83.135 106.45 83.0326 106.543L83.1665 106.691ZM83.4059 106.57C83.4882 106.558 83.5757 106.571 83.6709 106.615L83.7554 106.434C83.63 106.375 83.5026 106.353 83.3757 106.372L83.4059 106.57ZM83.6709 106.615C83.766 106.659 83.8321 106.718 83.8749 106.789L84.046 106.685C83.9797 106.576 83.8808 106.492 83.7554 106.434L83.6709 106.615ZM83.875 106.789C83.9184 106.86 83.9403 106.946 83.9365 107.051L84.1364 107.058C84.1413 106.92 84.1125 106.794 84.0459 106.685L83.875 106.789ZM83.9365 107.051C83.933 107.155 83.902 107.274 83.8386 107.409L84.0196 107.494C84.0911 107.342 84.1317 107.196 84.1364 107.058L83.9365 107.051ZM83.8385 107.409C83.775 107.545 83.703 107.647 83.6246 107.718L83.7592 107.866C83.8622 107.772 83.9483 107.647 84.0197 107.493L83.8385 107.409ZM83.6243 107.718C83.5461 107.79 83.4659 107.829 83.3834 107.843L83.4156 108.04C83.5423 108.02 83.657 107.959 83.7594 107.866L83.6243 107.718ZM83.3834 107.843C83.3015 107.856 83.2142 107.844 83.1188 107.799L83.0343 107.98C83.1603 108.039 83.2883 108.061 83.4156 108.04L83.3834 107.843ZM83.142 107.749C83.2555 107.802 83.3709 107.783 83.4747 107.712L83.3619 107.546C83.3047 107.586 83.2641 107.586 83.2265 107.568L83.142 107.749ZM83.4747 107.712C83.5773 107.642 83.6622 107.519 83.7354 107.36L83.5539 107.276C83.4862 107.423 83.4202 107.507 83.3619 107.546L83.4747 107.712ZM83.7352 107.361C83.7844 107.255 83.817 107.157 83.8292 107.068L83.6311 107.041C83.6225 107.104 83.598 107.182 83.554 107.276L83.7352 107.361ZM83.8292 107.068C83.8416 106.981 83.837 106.898 83.8058 106.825L83.6219 106.903C83.6342 106.932 83.6404 106.976 83.6312 107.04L83.8292 107.068ZM83.806 106.825C83.775 106.752 83.7214 106.696 83.6489 106.662L83.5643 106.844C83.5922 106.857 83.6101 106.875 83.6217 106.903L83.806 106.825ZM83.6489 106.662C83.5361 106.61 83.4213 106.629 83.3179 106.699L83.4298 106.864C83.4865 106.826 83.5269 106.826 83.5643 106.844L83.6489 106.662ZM83.3179 106.699C83.2157 106.768 83.131 106.889 83.0578 107.045L83.2388 107.13C83.3062 106.986 83.3718 106.904 83.4298 106.864L83.3179 106.699ZM83.0577 107.045C83.008 107.151 82.9747 107.25 82.9614 107.34L83.1592 107.369C83.1688 107.305 83.1942 107.225 83.239 107.129L83.0577 107.045ZM82.9613 107.341C82.9489 107.429 82.9534 107.513 82.9842 107.586L83.1686 107.509C83.1563 107.479 83.1501 107.435 83.1593 107.369L82.9613 107.341ZM82.9844 107.586C83.0158 107.66 83.0695 107.715 83.142 107.749L83.2265 107.568C83.1986 107.555 83.1804 107.536 83.1683 107.508L82.9844 107.586ZM84.3245 108.472L84.2819 108.562L84.2822 108.562L84.3245 108.472ZM84.0768 108.257L83.9908 108.308L83.991 108.308L84.0768 108.257ZM84.0029 107.936L83.903 107.932L83.903 107.932L84.0029 107.936ZM84.1124 107.537L84.2029 107.579L84.203 107.579L84.1124 107.537ZM84.3475 107.199L84.2806 107.125L84.2803 107.125L84.3475 107.199ZM84.6387 107.053L84.6537 107.152L84.6538 107.152L84.6387 107.053ZM85.2084 107.319L85.1228 107.371L85.1229 107.371L85.2084 107.319ZM85.2844 107.636L85.1845 107.633L85.1845 107.633L85.2844 107.636ZM85.1771 108.033L85.0866 107.991L85.0864 107.991L85.1771 108.033ZM84.9398 108.374L84.8725 108.3L84.8722 108.3L84.9398 108.374ZM84.6474 108.524L84.6635 108.622L84.6474 108.524ZM84.6662 108.211L84.7226 108.294L84.6662 108.211ZM84.8926 107.9L84.8019 107.858L84.8018 107.858L84.8926 107.9ZM84.9781 107.636L84.8791 107.622L84.879 107.623L84.9781 107.636ZM84.9618 107.446L84.8696 107.485L84.8698 107.485L84.9618 107.446ZM84.6218 107.364L84.5658 107.281L84.6218 107.364ZM84.3963 107.669L84.3058 107.626L84.3056 107.627L84.3963 107.669ZM84.3083 107.937L84.2093 107.922L84.2092 107.923L84.3083 107.937ZM84.3243 108.129L84.2321 108.168L84.2324 108.168L84.3243 108.129ZM84.3671 108.381C84.2718 108.336 84.2056 108.277 84.1626 108.205L83.991 108.308C84.0572 108.419 84.1561 108.503 84.2819 108.562L84.3671 108.381ZM84.1627 108.206C84.1199 108.134 84.0986 108.047 84.1028 107.94L83.903 107.932C83.8974 108.071 83.9253 108.198 83.9908 108.308L84.1627 108.206ZM84.1028 107.941C84.1074 107.835 84.1393 107.715 84.2029 107.579L84.0219 107.494C83.9502 107.647 83.9091 107.793 83.903 107.932L84.1028 107.941ZM84.203 107.579C84.2661 107.444 84.3374 107.343 84.4147 107.273L84.2803 107.125C84.1782 107.217 84.0928 107.342 84.0218 107.494L84.203 107.579ZM84.4145 107.273C84.4924 107.203 84.5719 107.165 84.6537 107.152L84.6237 106.954C84.4975 106.974 84.3829 107.032 84.2806 107.125L84.4145 107.273ZM84.6538 107.152C84.7361 107.14 84.8237 107.153 84.9188 107.197L85.0034 107.016C84.8779 106.957 84.7506 106.935 84.6236 106.954L84.6538 107.152ZM84.9188 107.197C85.014 107.241 85.08 107.3 85.1228 107.371L85.294 107.267C85.2276 107.157 85.1288 107.074 85.0034 107.016L84.9188 107.197ZM85.1229 107.371C85.1664 107.442 85.1882 107.528 85.1845 107.633L85.3844 107.64C85.3893 107.502 85.3604 107.376 85.2938 107.267L85.1229 107.371ZM85.1845 107.633C85.181 107.737 85.15 107.856 85.0866 107.991L85.2676 108.076C85.3391 107.923 85.3797 107.778 85.3844 107.64L85.1845 107.633ZM85.0864 107.991C85.023 108.127 84.951 108.228 84.8725 108.3L85.0071 108.448C85.1101 108.354 85.1963 108.229 85.2677 108.075L85.0864 107.991ZM84.8722 108.3C84.794 108.372 84.7139 108.411 84.6314 108.425L84.6635 108.622C84.7902 108.602 84.905 108.541 85.0074 108.448L84.8722 108.3ZM84.6314 108.425C84.5495 108.438 84.4621 108.426 84.3667 108.381L84.2822 108.562C84.4083 108.621 84.5362 108.643 84.6635 108.622L84.6314 108.425ZM84.39 108.331C84.5034 108.384 84.6188 108.364 84.7226 108.294L84.6098 108.128C84.5527 108.167 84.5121 108.167 84.4745 108.15L84.39 108.331ZM84.7226 108.294C84.8252 108.224 84.9101 108.101 84.9833 107.942L84.8018 107.858C84.7342 108.004 84.6682 108.089 84.6098 108.128L84.7226 108.294ZM84.9832 107.943C85.0324 107.837 85.065 107.739 85.0772 107.65L84.879 107.623C84.8704 107.686 84.846 107.764 84.8019 107.858L84.9832 107.943ZM85.0771 107.65C85.0896 107.563 85.0849 107.48 85.0538 107.407L84.8698 107.485C84.8821 107.514 84.8883 107.558 84.8791 107.622L85.0771 107.65ZM85.054 107.407C85.023 107.334 84.9693 107.278 84.8968 107.244L84.8123 107.426C84.8402 107.439 84.858 107.457 84.8696 107.485L85.054 107.407ZM84.8968 107.244C84.7841 107.192 84.6693 107.211 84.5658 107.281L84.6778 107.446C84.7344 107.408 84.7748 107.408 84.8123 107.426L84.8968 107.244ZM84.5658 107.281C84.4636 107.35 84.3789 107.471 84.3058 107.626L84.4868 107.712C84.5542 107.568 84.6198 107.486 84.6778 107.446L84.5658 107.281ZM84.3056 107.627C84.2559 107.733 84.2227 107.832 84.2093 107.922L84.4072 107.951C84.4167 107.887 84.4422 107.807 84.4869 107.711L84.3056 107.627ZM84.2092 107.923C84.1969 108.011 84.2014 108.095 84.2321 108.168L84.4165 108.09C84.4042 108.061 84.398 108.017 84.4073 107.951L84.2092 107.923ZM84.2324 108.168C84.2638 108.242 84.3175 108.297 84.39 108.331L84.4745 108.15C84.4466 108.137 84.4283 108.118 84.4163 108.09L84.2324 108.168ZM85.5724 109.054L85.5298 109.144L85.5301 109.144L85.5724 109.054ZM85.3247 108.839L85.2388 108.89L85.2389 108.89L85.3247 108.839ZM85.2508 108.518L85.1509 108.514L85.1509 108.514L85.2508 108.518ZM85.3603 108.119L85.4509 108.161L85.451 108.161L85.3603 108.119ZM85.5955 107.781L85.5285 107.706L85.5282 107.707L85.5955 107.781ZM85.8867 107.635L85.9017 107.734L85.9018 107.734L85.8867 107.635ZM86.4563 107.901L86.3708 107.953L86.3709 107.953L86.4563 107.901ZM86.5324 108.218L86.4324 108.215L86.4324 108.215L86.5324 108.218ZM86.425 108.615L86.3345 108.572L86.3344 108.573L86.425 108.615ZM86.1877 108.956L86.1205 108.882L86.1202 108.882L86.1877 108.956ZM85.8954 109.105L85.9115 109.204L85.8954 109.105ZM85.9142 108.793L85.9706 108.876L85.9142 108.793ZM86.1405 108.482L86.0499 108.44L86.0497 108.44L86.1405 108.482ZM86.2261 108.218L86.1271 108.204L86.127 108.205L86.2261 108.218ZM86.2097 108.028L86.1175 108.067L86.1178 108.067L86.2097 108.028ZM85.8697 107.945L85.8138 107.863L85.8697 107.945ZM85.6442 108.251L85.5537 108.208L85.5536 108.209L85.6442 108.251ZM85.5562 108.519L85.4573 108.504L85.4572 108.505L85.5562 108.519ZM85.5723 108.711L85.4801 108.75L85.4803 108.75L85.5723 108.711ZM85.615 108.963C85.5197 108.918 85.4535 108.859 85.4106 108.787L85.2389 108.89C85.3052 109.001 85.4041 109.085 85.5298 109.144L85.615 108.963ZM85.4107 108.787C85.3679 108.715 85.3465 108.628 85.3508 108.522L85.1509 108.514C85.1454 108.653 85.1732 108.779 85.2388 108.89L85.4107 108.787ZM85.3507 108.522C85.3554 108.417 85.3872 108.297 85.4509 108.161L85.2698 108.076C85.1982 108.229 85.157 108.375 85.1509 108.514L85.3507 108.522ZM85.451 108.161C85.5141 108.026 85.5853 107.925 85.6627 107.855L85.5282 107.707C85.4262 107.799 85.3407 107.924 85.2697 108.076L85.451 108.161ZM85.6624 107.855C85.7403 107.785 85.8199 107.746 85.9017 107.734L85.8717 107.536C85.7455 107.555 85.6309 107.614 85.5285 107.706L85.6624 107.855ZM85.9018 107.734C85.9841 107.721 86.0716 107.735 86.1668 107.779L86.2513 107.598C86.1259 107.539 85.9985 107.517 85.8716 107.536L85.9018 107.734ZM86.1668 107.779C86.2619 107.823 86.328 107.882 86.3708 107.953L86.5419 107.849C86.4755 107.739 86.3767 107.656 86.2513 107.598L86.1668 107.779ZM86.3709 107.953C86.4143 108.024 86.4362 108.11 86.4324 108.215L86.6323 108.222C86.6372 108.084 86.6084 107.958 86.5418 107.849L86.3709 107.953ZM86.4324 108.215C86.4289 108.319 86.3979 108.438 86.3345 108.572L86.5155 108.658C86.587 108.505 86.6276 108.36 86.6323 108.222L86.4324 108.215ZM86.3344 108.573C86.2709 108.709 86.1989 108.81 86.1205 108.882L86.255 109.03C86.358 108.936 86.4442 108.81 86.5156 108.657L86.3344 108.573ZM86.1202 108.882C86.0419 108.954 85.9618 108.993 85.8793 109.007L85.9115 109.204C86.0381 109.184 86.1529 109.123 86.2553 109.029L86.1202 108.882ZM85.8793 109.007C85.7974 109.02 85.71 109.007 85.6147 108.963L85.5301 109.144C85.6562 109.203 85.7841 109.225 85.9115 109.204L85.8793 109.007ZM85.6379 108.913C85.7514 108.966 85.8668 108.946 85.9706 108.876L85.8578 108.71C85.8006 108.749 85.76 108.749 85.7224 108.732L85.6379 108.913ZM85.9706 108.876C86.0732 108.805 86.158 108.682 86.2312 108.524L86.0497 108.44C85.9821 108.586 85.9161 108.67 85.8578 108.71L85.9706 108.876ZM86.2311 108.525C86.2803 108.419 86.3129 108.321 86.3251 108.232L86.127 108.205C86.1184 108.268 86.0939 108.346 86.0499 108.44L86.2311 108.525ZM86.3251 108.232C86.3375 108.145 86.3329 108.062 86.3017 107.989L86.1178 108.067C86.1301 108.096 86.1363 108.14 86.1271 108.204L86.3251 108.232ZM86.3019 107.989C86.2709 107.915 86.2173 107.86 86.1447 107.826L86.0602 108.007C86.0881 108.02 86.106 108.039 86.1175 108.067L86.3019 107.989ZM86.1447 107.826C86.032 107.774 85.9172 107.793 85.8138 107.863L85.9257 108.028C85.9824 107.99 86.0228 107.99 86.0602 108.007L86.1447 107.826ZM85.8138 107.863C85.7116 107.932 85.6268 108.053 85.5537 108.208L85.7347 108.293C85.8021 108.15 85.8677 108.067 85.9257 108.028L85.8138 107.863ZM85.5536 108.209C85.5039 108.315 85.4706 108.414 85.4573 108.504L85.6551 108.533C85.6647 108.469 85.6901 108.389 85.7348 108.293L85.5536 108.209ZM85.4572 108.505C85.4448 108.593 85.4493 108.677 85.4801 108.75L85.6645 108.672C85.6522 108.643 85.646 108.598 85.6552 108.533L85.4572 108.505ZM85.4803 108.75C85.5117 108.824 85.5654 108.879 85.6379 108.913L85.7224 108.732C85.6945 108.719 85.6763 108.7 85.6642 108.672L85.4803 108.75ZM86.8204 109.636L86.7777 109.726L86.7781 109.726L86.8204 109.636ZM86.5727 109.42L86.4867 109.472L86.4869 109.472L86.5727 109.42ZM86.4988 109.1L86.3989 109.096L86.3989 109.096L86.4988 109.1ZM86.6083 108.7L86.6988 108.743L86.6989 108.743L86.6083 108.7ZM86.8434 108.363L86.7764 108.288L86.7762 108.289L86.8434 108.363ZM87.1346 108.217L87.1496 108.316L87.1497 108.316L87.1346 108.217ZM87.7043 108.483L87.6187 108.534L87.6188 108.535L87.7043 108.483ZM87.7803 108.8L87.6804 108.797L87.6804 108.797L87.7803 108.8ZM87.6729 109.197L87.5824 109.154L87.5823 109.155L87.6729 109.197ZM87.4357 109.538L87.3684 109.464L87.3681 109.464L87.4357 109.538ZM87.1433 109.687L87.1594 109.786L87.1433 109.687ZM87.1621 109.375L87.2185 109.457L87.1621 109.375ZM87.3884 109.064L87.2978 109.022L87.2977 109.022L87.3884 109.064ZM87.474 108.8L87.375 108.786L87.3749 108.787L87.474 108.8ZM87.4577 108.61L87.3655 108.649L87.3657 108.649L87.4577 108.61ZM87.1177 108.527L87.0617 108.444L87.1177 108.527ZM86.8922 108.833L86.8016 108.79L86.8015 108.791L86.8922 108.833ZM86.8041 109.101L86.7052 109.086L86.7051 109.087L86.8041 109.101ZM86.8202 109.293L86.728 109.332L86.7282 109.332L86.8202 109.293ZM86.863 109.545C86.7677 109.5 86.7015 109.441 86.6585 109.369L86.4869 109.472C86.5531 109.583 86.652 109.667 86.7777 109.726L86.863 109.545ZM86.6586 109.369C86.6158 109.297 86.5944 109.21 86.5987 109.104L86.3989 109.096C86.3933 109.235 86.4212 109.361 86.4867 109.472L86.6586 109.369ZM86.5987 109.104C86.6033 108.999 86.6352 108.878 86.6988 108.743L86.5178 108.658C86.4461 108.81 86.4049 108.957 86.3989 109.096L86.5987 109.104ZM86.6989 108.743C86.762 108.607 86.8333 108.507 86.9106 108.437L86.7762 108.289C86.6741 108.381 86.5887 108.506 86.5177 108.658L86.6989 108.743ZM86.9104 108.437C86.9883 108.367 87.0678 108.328 87.1496 108.316L87.1196 108.118C86.9934 108.137 86.8788 108.196 86.7764 108.288L86.9104 108.437ZM87.1497 108.316C87.232 108.303 87.3196 108.317 87.4147 108.361L87.4992 108.18C87.3738 108.121 87.2464 108.099 87.1195 108.118L87.1497 108.316ZM87.4147 108.361C87.5099 108.405 87.5759 108.464 87.6187 108.534L87.7898 108.431C87.7235 108.321 87.6247 108.238 87.4992 108.18L87.4147 108.361ZM87.6188 108.535C87.6623 108.606 87.6841 108.692 87.6804 108.797L87.8802 108.804C87.8851 108.666 87.8563 108.54 87.7897 108.431L87.6188 108.535ZM87.6804 108.797C87.6768 108.901 87.6459 109.019 87.5824 109.154L87.7635 109.239C87.835 109.087 87.8756 108.942 87.8803 108.804L87.6804 108.797ZM87.5823 109.155C87.5189 109.291 87.4469 109.392 87.3684 109.464L87.503 109.612C87.606 109.518 87.6921 109.392 87.7636 109.239L87.5823 109.155ZM87.3681 109.464C87.2899 109.536 87.2098 109.575 87.1272 109.589L87.1594 109.786C87.2861 109.765 87.4009 109.705 87.5032 109.611L87.3681 109.464ZM87.1272 109.589C87.0454 109.602 86.958 109.589 86.8626 109.545L86.7781 109.726C86.9041 109.785 87.0321 109.807 87.1594 109.786L87.1272 109.589ZM86.8858 109.495C86.9993 109.548 87.1147 109.528 87.2185 109.457L87.1057 109.292C87.0486 109.331 87.008 109.331 86.9704 109.314L86.8858 109.495ZM87.2185 109.457C87.3211 109.387 87.406 109.264 87.4792 109.106L87.2977 109.022C87.2301 109.168 87.1641 109.252 87.1057 109.292L87.2185 109.457ZM87.4791 109.107C87.5283 109.001 87.5608 108.903 87.5731 108.814L87.3749 108.787C87.3663 108.849 87.3419 108.927 87.2978 109.022L87.4791 109.107ZM87.573 108.814C87.5855 108.727 87.5808 108.644 87.5497 108.571L87.3657 108.649C87.378 108.678 87.3842 108.721 87.375 108.786L87.573 108.814ZM87.5499 108.571C87.5189 108.497 87.4652 108.442 87.3927 108.408L87.3082 108.589C87.3361 108.602 87.3539 108.621 87.3655 108.649L87.5499 108.571ZM87.3927 108.408C87.28 108.356 87.1652 108.375 87.0617 108.444L87.1736 108.61C87.2303 108.572 87.2707 108.572 87.3082 108.589L87.3927 108.408ZM87.0617 108.444C86.9595 108.514 86.8748 108.635 86.8016 108.79L86.9827 108.875C87.0501 108.732 87.1157 108.649 87.1736 108.61L87.0617 108.444ZM86.8015 108.791C86.7518 108.897 86.7186 108.996 86.7052 109.086L86.9031 109.115C86.9126 109.051 86.938 108.971 86.9828 108.875L86.8015 108.791ZM86.7051 109.087C86.6927 109.175 86.6973 109.258 86.728 109.332L86.9124 109.254C86.9001 109.225 86.8939 109.18 86.9032 109.114L86.7051 109.087ZM86.7282 109.332C86.7597 109.406 86.8133 109.461 86.8858 109.495L86.9704 109.314C86.9425 109.301 86.9242 109.282 86.9122 109.254L86.7282 109.332Z" fill="#686868" mask="url(#path-23-outside-1_1717_276)"/>
<path d="M83.5156 122.821L89.2418 108.726" stroke="#A4405F" stroke-linecap="round" stroke-dasharray="4 4"/>
<path d="M76.9082 110.928C77.0366 111.197 77.2574 111.393 77.7892 111.809" stroke="#A4405F" stroke-width="0.1" stroke-linecap="round"/>
<path d="M76.9082 111.809C77.0366 112.078 77.2574 112.274 77.7892 112.69" stroke="#A4405F" stroke-width="0.1" stroke-linecap="round"/>
<rect x="73.8809" y="112.69" width="35.2381" height="24.6667" rx="5" fill="#83756F"/>
<rect x="74.7617" y="110.929" width="35.2381" height="24.6667" rx="5" fill="#FFD2B8"/>
<rect x="73" y="113.571" width="4.40476" height="19.381" rx="2.20238" fill="#83756F"/>
<mask id="mask1_1717_276" style="mask-type:alpha" maskUnits="userSpaceOnUse" x="81" y="119" width="70" height="39">
<path d="M122.326 155.172C97.0747 147.687 72.7301 131.449 84.1724 122.315C95.6147 113.18 127.708 124.737 143.149 138.258C158.591 151.78 147.578 162.656 122.326 155.172Z" fill="white"/>
</mask>
<g mask="url(#mask1_1717_276)">
<path d="M121.152 155.577C96.4838 146.349 73.3311 128.453 85.3827 120.139C97.4344 111.824 128.644 125.592 143.104 140.157C157.564 154.723 145.82 164.805 121.152 155.577Z" fill="white"/>
<path d="M86.1621 132.291C72.8824 123.506 71.4657 120.904 72.4173 120.701" stroke="#F8F8F8" stroke-width="2" stroke-linecap="round"/>
<path d="M88.147 124.477C74.8673 115.692 73.4506 113.09 74.4022 112.887" stroke="#F8F8F8" stroke-width="2" stroke-linecap="round"/>
<path d="M84.6489 126.66C71.3692 117.875 69.9525 115.273 70.9042 115.07" stroke="#F8F8F8" stroke-width="2" stroke-linecap="round"/>
</g>
<mask id="mask2_1717_276" style="mask-type:alpha" maskUnits="userSpaceOnUse" x="37" y="118" width="70" height="39">
<path d="M65.8344 154.321C91.0859 146.837 115.431 130.599 103.988 121.465C92.5459 112.33 60.4522 123.887 45.0112 137.408C29.5701 150.929 40.5828 161.806 65.8344 154.321Z" fill="white"/>
</mask>
<g mask="url(#mask2_1717_276)">
<path d="M65.8344 154.321C91.0859 146.837 115.431 130.599 103.988 121.465C92.5459 112.33 60.4522 123.887 45.0112 137.408C29.5701 150.929 40.5828 161.806 65.8344 154.321Z" fill="white"/>
<path d="M101.999 131.441C115.279 122.656 116.695 120.054 115.744 119.851" stroke="#F8F8F8" stroke-width="2" stroke-linecap="round"/>
<path d="M100.014 123.627C113.293 114.842 114.71 112.24 113.758 112.037" stroke="#F8F8F8" stroke-width="2" stroke-linecap="round"/>
<path d="M103.512 125.81C116.791 117.025 118.208 114.423 117.256 114.22" stroke="#F8F8F8" stroke-width="2" stroke-linecap="round"/>
</g>
<defs>
<linearGradient id="paint0_linear_1717_276" x1="78.23" y1="111.369" x2="100.694" y2="117.976" gradientUnits="userSpaceOnUse">
<stop stop-color="#FAFAFA"/>
<stop offset="1" stop-color="#D87F9B"/>
</linearGradient>
<linearGradient id="paint1_linear_1717_276" x1="84.1115" y1="106.13" x2="83.3508" y2="107.762" gradientUnits="userSpaceOnUse">
<stop stop-color="#272727"/>
<stop offset="1" stop-color="#E4E4E4"/>
</linearGradient>
</defs>
</svg>
