<svg width="32" height="32" viewBox="0 0 32 32" fill="none" xmlns="http://www.w3.org/2000/svg">
<path d="M27.9365 0H3.49206C1.57143 0 0 1.57143 0 3.49206V27.9365C0 29.8571 1.57143 31.4286 3.49206 31.4286H27.9365C29.8571 31.4286 31.4286 29.8571 31.4286 27.9365V3.49206C31.4286 1.57143 29.8571 0 27.9365 0ZM11.3492 14.8413C11.3492 16.2381 10.127 17.4603 8.73016 17.4603H6.98413V20.9524H4.36508V10.4762H8.73016C10.127 10.4762 11.3492 11.6984 11.3492 13.0952V14.8413ZM20.0794 18.3333C20.0794 19.7302 18.8571 20.9524 17.4603 20.9524H13.0952V10.4762H17.4603C18.8571 10.4762 20.0794 11.6984 20.0794 13.0952V18.3333ZM27.0635 13.0952H24.4444V14.8413H27.0635V17.4603H24.4444V20.9524H21.8254V10.4762H27.0635V13.0952ZM15.7143 13.0952H17.4603V18.3333H15.7143V13.0952ZM6.98413 13.0952H8.73016V14.8413H6.98413V13.0952Z" fill="#A3A3A3"/>
</svg>
