<svg width="100" height="98" viewBox="0 0 100 98" fill="none" xmlns="http://www.w3.org/2000/svg">
<circle cx="34" cy="89" r="6" stroke="#002F77" stroke-width="6"/>
<circle cx="75" cy="89" r="6" stroke="#002F77" stroke-width="6"/>
<path d="M29 16.5002L34.2963 3.50021C34.4062 3.23048 34.7224 3.11139 34.9829 3.24164L52.5 12.0002M52.5 17.5002C58.5 -4.49983 82.5 1.00018 84.3166 17.5002" stroke="#1D77FF" stroke-width="5" stroke-linecap="round"/>
<path d="M3 3.00033L10.5794 2.99482C13.461 2.99273 15.9372 5.03952 16.4774 7.87008L18.506 18.5003M28.0463 68.4912H82.0626C84.931 68.4912 87.3982 66.4609 87.9504 63.6461L92 43.0003M28.0463 68.4912L18.506 18.5003M28.0463 68.4912L21.9976 68.4956C18.4083 68.4982 15.5 71.4086 15.5 74.9979V74.9979C15.5 78.5891 18.4112 81.5003 22.0024 81.5003H93.5M18.506 18.5003H28.0463H95.7894C96.4174 18.5003 96.89 19.0724 96.7714 19.6892L94.5 31.5003" stroke="#002F77" stroke-width="5" stroke-linecap="round"/>
<path d="M59 34L59 54" stroke="#1D77FF" stroke-width="6" stroke-linecap="round"/>
<path d="M44 34L44 54" stroke="#1D77FF" stroke-width="6" stroke-linecap="round"/>
<path d="M75 34L75 54" stroke="#1D77FF" stroke-width="6" stroke-linecap="round"/>
</svg>
