<svg width="37" height="32" viewBox="0 0 37 32" fill="none" xmlns="http://www.w3.org/2000/svg">
<path d="M34.8565 0C35.2516 0 35.6048 0.14966 35.9161 0.44898C36.2034 0.736327 36.3471 1.08354 36.3471 1.49061V29.938C36.3471 30.345 36.2034 30.6922 35.9161 30.9796C35.6048 31.2789 35.2516 31.4286 34.8565 31.4286H10.8989C10.5038 31.4286 10.1506 31.2789 9.83932 30.9796C9.55198 30.6922 9.4083 30.345 9.4083 29.938V24.6939H1.91932C1.52422 24.6939 1.17102 24.5502 0.859731 24.2629C0.572384 23.9516 0.428711 23.5984 0.428711 23.2033V8.22531C0.428711 7.8302 0.572384 7.47701 0.859731 7.16571C1.17102 6.87837 1.52422 6.73469 1.91932 6.73469H9.4083V1.49061C9.4083 1.08354 9.55198 0.736327 9.83932 0.44898C10.1506 0.14966 10.5038 0 10.8989 0M9.4083 17.618L11.5275 21.6049H14.7422L11.2042 15.822L14.6703 10.129H11.5993L9.64177 13.7388L9.56994 13.8465L9.51606 13.9722C9.20477 13.3377 8.86953 12.6971 8.51034 12.0506C8.21102 11.4161 7.89374 10.7755 7.55851 10.129H4.30789L7.70218 15.858L4.02055 21.6049H7.21728M21.7642 29.1837V24.6939H11.6532V29.1837M21.7642 22.449V16.8457H18.3879V22.449M21.7642 14.6008V8.97959H18.3879V14.6008M21.7642 6.73469V2.2449H11.6532V6.73469M34.1022 29.1837V24.6939H24.0091V29.1837M34.1022 22.449V16.8457H24.0091V22.449M34.1022 14.6008V8.97959H24.0091V14.6008M34.1022 6.73469V2.2449H24.0091V6.73469H34.1022Z" fill="#A3A3A3"/>
</svg>
