<svg width="117" height="103" viewBox="0 0 117 103" fill="none" xmlns="http://www.w3.org/2000/svg">
<path d="M19 102.5V47.5C19 46.9477 18.5523 46.5 18 46.5H3.78805C3.6932 46.5 3.65164 46.3803 3.72609 46.3215L56.6621 4.52995C58.8966 2.76581 62.0633 2.81494 64.2421 4.64756L113.79 46.3235C113.862 46.3835 113.819 46.5 113.726 46.5H101C100.448 46.5 100 46.9477 100 47.5V102.5" stroke="#002F77" stroke-width="6"/>
<circle cx="44.5" cy="50.5" r="8.5" stroke="#1D77FF" stroke-width="4"/>
<circle cx="75.5" cy="50.5" r="8.5" stroke="#1D77FF" stroke-width="4"/>
<path d="M31 103V74.25C31 67.4845 36.4845 62 43.25 62H46.5C51.4706 62 55.5 66.0294 55.5 71V71M64 71V71C64 66.0294 68.0294 62 73 62H76C82.6274 62 88 67.3726 88 74V103" stroke="#1D77FF" stroke-width="4"/>
<circle cx="59" cy="77" r="7.5" stroke="#002F77" stroke-width="3"/>
<path d="M51 103V92C51 88.6863 53.6863 86 57 86H61C64.3137 86 67 88.6863 67 92V103" stroke="#002F77" stroke-width="3"/>
</svg>
