<svg width="100" height="63" viewBox="0 0 100 63" fill="none" xmlns="http://www.w3.org/2000/svg">
<path d="M4 25H25M74.5 25H46.5M46.5 5V25M46.5 25H25M25 5V25" stroke="#1D77FF" stroke-width="6" stroke-linecap="round"/>
<path d="M14.5 49.5L6.54419 47.0787C4.43886 46.4379 3 44.496 3 42.2953V25.6416C3 25.5477 3.01323 25.4542 3.03929 25.364L8.23381 7.38295C8.98207 4.79283 11.366 3.01985 14.0619 3.04853L54.0932 3.4744C55.6379 3.49083 57.1167 4.10241 58.2218 5.1818L77.782 24.2871C77.9241 24.4259 78.1043 24.5192 78.2996 24.5552L92.087 27.095C94.9336 27.6193 97 30.1012 97 32.9957V44C97 47.3137 94.3137 50 91 50H86M63.5 50H46.5" stroke="#002F77" stroke-width="6" stroke-linecap="round"/>
<circle cx="24.5" cy="50.5" r="9.5" stroke="#002F77" stroke-width="6"/>
<circle cx="74.5" cy="50.5" r="9.5" stroke="#002F77" stroke-width="6"/>
</svg>
