<svg width="100" height="76" viewBox="0 0 100 76" fill="none" xmlns="http://www.w3.org/2000/svg">
<path d="M24 50.5C32.9883 60.5888 38.9865 64.2542 49.4257 72.0692C49.7674 72.325 50.2426 72.336 50.5957 72.0963C67.0642 60.9147 75.4736 53.4408 84.7701 38.3739C84.9216 38.1284 85.0381 37.8586 85.1131 37.5801L87.0546 30.3685C88.0025 26.8478 88.0359 23.1435 87.1516 19.6063L87.0532 19.2127C85.7385 13.9542 82.3888 9.4333 77.7409 6.64456V6.64456C72.8101 3.68607 66.8611 2.94168 61.3533 4.594L60.1484 4.95547C60.0498 4.98507 59.9547 5.02548 59.8649 5.07597L55.2645 7.66374C53.1449 8.85601 51.4665 10.7003 50.4788 12.9227V12.9227C50.2664 13.4005 49.6159 13.4682 49.3097 13.0442L46.75 9.5V9.5C44.6805 6.63451 41.4961 4.77735 37.983 4.38701L34.423 3.99145C31.5115 3.66795 28.5645 4.00241 25.7996 4.97015V4.97015C22.0241 6.29156 18.7434 8.73991 16.4014 11.9827V11.9827C14.4977 14.6186 13.2798 17.6883 12.8592 20.9125L12.6997 22.1354C12.2388 25.669 12.556 29.2608 13.6291 32.6589L15 37" stroke="#002F77" stroke-width="6" stroke-linecap="round"/>
<path d="M3 38H30.8643C31.1904 38 31.4959 37.8411 31.6831 37.5741L40.0675 25.6168C40.2728 25.324 40.7103 25.3352 40.9004 25.6381L56.1595 49.9573C56.3324 50.2329 56.7184 50.2725 56.9437 50.0378L68.2048 38.3075C68.3934 38.111 68.6539 38 68.9262 38H97" stroke="#1D77FF" stroke-width="6" stroke-linecap="round"/>
</svg>
