<svg width="100" height="100" viewBox="0 0 100 100" fill="none" xmlns="http://www.w3.org/2000/svg">
<mask id="path-1-inside-1_1428_5019" fill="white">
<path d="M37.3095 95.0069C36.8241 96.7282 37.8248 98.528 39.5738 98.901C51.0284 101.344 63.0175 99.6923 73.4252 94.1731C84.7895 88.1466 93.3939 77.9721 97.4497 65.7649C101.505 53.5576 100.7 40.2569 95.2022 28.6279C89.7038 16.9989 79.9352 7.93637 67.9271 3.32432C55.919 -1.28772 42.5954 -1.09439 30.7262 3.86412C18.857 8.82263 9.35537 18.1648 4.19677 29.9485C-0.961818 41.7321 -1.38051 55.0505 3.02773 67.1349C7.06492 78.2021 14.8662 87.4545 25.0108 93.3076C26.5599 94.2014 28.5081 93.5342 29.2998 91.9306C30.0914 90.327 29.4258 88.3955 27.8854 87.4869C19.2313 82.3819 12.5779 74.4171 9.11184 64.9155C5.27458 54.3964 5.63904 42.803 10.1295 32.5456C14.6199 22.2883 22.8908 14.1562 33.2226 9.8399C43.5545 5.52364 55.1524 5.35535 65.6051 9.37002C76.0578 13.3847 84.5612 21.2734 89.3473 31.3962C94.1335 41.5189 94.8342 53.0968 91.3037 63.7229C87.7733 74.349 80.2833 83.2056 70.391 88.4515C61.4557 93.19 51.1812 94.6532 41.3348 92.6525C39.5822 92.2964 37.7948 93.2856 37.3095 95.0069Z"/>
</mask>
<path d="M37.3095 95.0069C36.8241 96.7282 37.8248 98.528 39.5738 98.901C51.0284 101.344 63.0175 99.6923 73.4252 94.1731C84.7895 88.1466 93.3939 77.9721 97.4497 65.7649C101.505 53.5576 100.7 40.2569 95.2022 28.6279C89.7038 16.9989 79.9352 7.93637 67.9271 3.32432C55.919 -1.28772 42.5954 -1.09439 30.7262 3.86412C18.857 8.82263 9.35537 18.1648 4.19677 29.9485C-0.961818 41.7321 -1.38051 55.0505 3.02773 67.1349C7.06492 78.2021 14.8662 87.4545 25.0108 93.3076C26.5599 94.2014 28.5081 93.5342 29.2998 91.9306C30.0914 90.327 29.4258 88.3955 27.8854 87.4869C19.2313 82.3819 12.5779 74.4171 9.11184 64.9155C5.27458 54.3964 5.63904 42.803 10.1295 32.5456C14.6199 22.2883 22.8908 14.1562 33.2226 9.8399C43.5545 5.52364 55.1524 5.35535 65.6051 9.37002C76.0578 13.3847 84.5612 21.2734 89.3473 31.3962C94.1335 41.5189 94.8342 53.0968 91.3037 63.7229C87.7733 74.349 80.2833 83.2056 70.391 88.4515C61.4557 93.19 51.1812 94.6532 41.3348 92.6525C39.5822 92.2964 37.7948 93.2856 37.3095 95.0069Z" stroke="#002F77" stroke-width="12" stroke-linecap="round" mask="url(#path-1-inside-1_1428_5019)"/>
<circle cx="50" cy="50" r="33" stroke="#002F77" stroke-width="6"/>
<circle cx="33" cy="50" r="4.5" fill="#1D77FF" stroke="#1D77FF"/>
<circle cx="50" cy="50" r="4.5" fill="#1D77FF" stroke="#1D77FF"/>
<circle cx="67" cy="50" r="4.5" fill="#1D77FF" stroke="#1D77FF"/>
</svg>
