<svg width="100" height="100" viewBox="0 0 100 100" fill="none" xmlns="http://www.w3.org/2000/svg">
<path d="M59 51V46C59 43.2386 61.2386 41 64 41H74C76.7614 41 79 43.2386 79 46V51" stroke="#002F77" stroke-width="6" stroke-linecap="round"/>
<path d="M12 87V91" stroke="#002F77" stroke-width="6" stroke-linecap="round"/>
<path d="M16 20V5M34.5 20V5M12.5 3H37.5" stroke="#002F77" stroke-width="6" stroke-linecap="round"/>
<path d="M47 51.7398V27C47 24.2386 44.7614 22 42 22H8C5.23858 22 3 24.2386 3 27V79C3 81.7614 5.23858 84 8 84H39.5" stroke="#002F77" stroke-width="6" stroke-linecap="round"/>
<path d="M63 97L46 97C43.2386 97 41 94.7614 41 92V58C41 55.2386 43.2386 53 46 53H92C94.7614 53 97 55.2386 97 58V92C97 94.7614 94.7614 97 92 97L74.5 97" stroke="#002F77" stroke-width="6" stroke-linecap="round"/>
<path d="M85 65L85 85" stroke="#1D77FF" stroke-width="6" stroke-linecap="round"/>
<path d="M69 65L69 85" stroke="#1D77FF" stroke-width="6" stroke-linecap="round"/>
<path d="M53 65L53 85" stroke="#1D77FF" stroke-width="6" stroke-linecap="round"/>
<path d="M15 41V35C15 34.4477 15.4477 34 16 34H33C33.5523 34 34 34.4477 34 35V41" stroke="#1D77FF" stroke-width="6" stroke-linecap="round"/>
</svg>
