<svg width="100" height="100" viewBox="0 0 100 100" fill="none" xmlns="http://www.w3.org/2000/svg">
<path d="M8.99658 65.3125H87.001M22 3L30 22M8.99658 12.5L23.5 29.5" stroke="#1D77FF" stroke-width="6" stroke-linecap="round"/>
<path d="M70.6838 97H31.2857M33.3062 93.9655C15.0985 86.5003 8.58042 77.1524 5.39423 65.5C4.41906 61.9336 3.756 58.1514 3.16543 54.1412C3.07677 53.5392 3.54446 53 4.153 53H95.9798C96.52 53 96.9632 53.4301 96.9754 53.9701C97.2171 64.6387 95.7348 69.9497 89.8778 77.2758M81.291 86.885C76.5004 90.6891 72.2791 93.1057 66.5 94.9999M9 50.5C16 23 48 27 52 50.5M22 50.5C26.5 41 37 42 40 50.5M59 50.5C61 35.5 78 39 78 50.5M49 39.5C65.5 17 92.5 32.5 89.8778 50.5M41 32C44.5 22.4999 54.5 23.4999 57.5 30M28.5 28.9999C36.5 7.99994 60.5 8.49993 69.5 24.9999" stroke="#002F77" stroke-width="6" stroke-linecap="round"/>
</svg>
