<svg width="70" height="100" viewBox="0 0 70 100" fill="none" xmlns="http://www.w3.org/2000/svg">
<path d="M54 3.11719H41C37.6863 3.11719 35 5.80348 35 9.11719V81.5001" stroke="#1D77FF" stroke-width="6" stroke-linecap="round"/>
<path d="M13 65.5732H21.8698C26.2264 65.5732 30.5194 66.6178 34.389 68.6194V68.6194C38.2585 70.621 42.5515 71.6656 46.9081 71.6656H55.5" stroke="#002255" stroke-width="6" stroke-linecap="round"/>
<path d="M14.5 84.0001L15.387 91.6878C15.7364 94.7154 18.2999 97.0001 21.3475 97.0001H48.7511C51.7565 97.0001 54.2983 94.7765 54.6979 91.7978L59.5 56.0001M12.5 72.0001L10.5 56.0001M3.5 40.5001H6.5M66.5 40.5001H63M6.5 40.5001V52.0001C6.5 52.5524 6.94772 53.0001 7.5 53.0001H62C62.5523 53.0001 63 52.5524 63 52.0001V40.5001M6.5 40.5001H63M9.5 39.0001C14 5.50009 59.5 10.5001 59.5 39.0001" stroke="#002F77" stroke-width="6" stroke-linecap="round"/>
</svg>
