<svg width="88" height="100" viewBox="0 0 88 100" fill="none" xmlns="http://www.w3.org/2000/svg">
<path d="M37.5 9.5L38.431 7.07933C39.3661 4.6481 41.7631 3.09795 44.3639 3.24244L44.7977 3.26654C47.2829 3.40461 49.3731 5.17877 49.913 7.60858L50.0468 8.21055C50.5884 10.6478 49.2 13.1 46.8314 13.8895V13.8895C44.8419 14.5527 43.5 16.4145 43.5 18.5116V21.5M43.5 21.5L29 25.5M43.5 21.5L59 25.5" stroke="#1D77FF" stroke-width="5" stroke-linecap="round"/>
<path d="M22.1118 50V62.5M34.6975 96.8696H25.1118C23.455 96.8696 22.1118 95.5265 22.1118 93.8696V62.5M66 50L65.77 62.5M47 97H62.9799C64.6446 97 65.9909 95.6446 65.9798 93.98L65.77 62.5M22.1118 62.5L3.5418 56.6701C3.25436 56.5799 3.11141 56.2578 3.23732 55.9841L14.0162 32.5516C14.3358 31.857 14.7801 31.2229 15.357 30.7211C19.1986 27.3792 22.8115 26.2618 28.2779 25.1455C28.689 25.0615 29.0983 25.302 29.2307 25.7002C30.4568 29.3869 31.4102 31.6091 33.938 33.8772C35.2333 35.0394 36.8388 35.7796 38.4898 36.3299L39.7668 36.7556C43.1354 37.8785 46.8007 37.7122 50.0538 36.289V36.289C51.9939 35.4402 53.7486 34.1929 55.088 32.5527C57.001 30.2101 58.0637 28.4339 58.8817 25.4469C58.9508 25.1947 59.1994 25.0317 59.4574 25.0747C64.8746 25.9783 67.8105 27.1712 71.6758 30.068C72.8965 30.9829 73.8315 32.2206 74.469 33.6065L84.7623 55.9832C84.8883 56.2572 84.7449 56.5796 84.4569 56.6694L65.77 62.5" stroke="#002F77" stroke-width="6" stroke-linecap="round"/>
</svg>
