<svg width="104" height="84" viewBox="0 0 104 84" fill="none" xmlns="http://www.w3.org/2000/svg">
<path d="M67.3205 80.9924H37.441C36.4952 80.9924 35.5597 80.7715 34.7216 80.3332C30.0423 77.8863 26.8921 75.6944 26.1561 70.7779C25.9797 69.6 26.1246 68.404 26.3607 67.2365C27.7319 60.4563 29.0233 53.1435 32.0372 46.1069C32.9289 44.025 34.4245 42.2556 36.3045 40.9928C48.2871 32.9436 56.9673 33.7554 66.9324 41.3376C68.3268 42.3986 69.4698 43.7588 70.2682 45.3186C73.5577 51.7458 75.4287 58.5698 77.3945 64.9862C78.1021 67.2962 78.4259 69.7814 77.6278 72.0617C76.3614 75.6803 74.1535 77.7207 70.4311 80.103C69.5047 80.6959 68.4204 80.9924 67.3205 80.9924Z" stroke="#002F77" stroke-width="6"/>
<path d="M23.6753 29.6121C26.7242 34.8929 25.1934 40.5481 21.5591 42.6464C17.9249 44.7446 12.2619 43.2427 9.21305 37.9619C6.16416 32.681 7.69493 27.0258 11.3292 24.9276C14.9635 22.8293 20.6264 24.3313 23.6753 29.6121Z" stroke="#1D77FF" stroke-width="6"/>
<path d="M47.6826 14.3559C48.2583 20.9357 44.1654 25.8544 39.5515 26.2581C34.9375 26.6617 30.0527 22.5284 29.4771 15.9487C28.9014 9.36886 32.9943 4.45012 37.6082 4.04645C42.2222 3.64278 47.107 7.77608 47.6826 14.3559Z" stroke="#1D77FF" stroke-width="6"/>
<path d="M74.3317 15.9486C73.756 22.5284 68.8712 26.6617 64.2573 26.2581C59.6433 25.8544 55.5504 20.9357 56.1261 14.3559C56.7017 7.77607 61.5866 3.64277 66.2005 4.04644C70.8145 4.45011 74.9073 9.36886 74.3317 15.9486Z" stroke="#1D77FF" stroke-width="6"/>
<path d="M94.6753 37.962C91.6264 43.2428 85.9635 44.7448 82.3292 42.6465C78.695 40.5483 77.1642 34.8931 80.2131 29.6123C83.262 24.3314 88.9249 22.8295 92.5592 24.9277C96.1934 27.026 97.7242 32.6812 94.6753 37.962Z" stroke="#1D77FF" stroke-width="6"/>
</svg>
