<svg width="133" height="106" viewBox="0 0 133 106" fill="none" xmlns="http://www.w3.org/2000/svg">
<path d="M26 41.6742L4.74166 34.0368C3.03775 33.4247 2.95923 31.0442 4.6191 30.3211L66.5224 3.3533C67.0389 3.12828 67.6263 3.13156 68.1403 3.36232L128.151 30.3061C129.792 31.0428 129.703 33.402 128.011 34.0121L109.333 40.7464M26 41.6742L66.4692 60.5959C67.0158 60.8515 67.6489 60.8467 68.1911 60.5818C77.4106 56.0763 84.6549 52.2129 94 47.6667C100.769 44.4434 109.333 40.7464 109.333 40.7464M26 41.6742V68.4721C26 69.2078 26.404 69.8842 27.0518 70.233L34.6667 74.3333M109.333 40.7464V67.5521C109.333 68.2837 108.934 68.957 108.292 69.3075L68.16 91.2154C67.6365 91.5012 67.0127 91.5384 66.4589 91.3169L60.6667 89L50.6667 84.3333" stroke="#002F77" stroke-width="6" stroke-linecap="round"/>
<path d="M66.6665 32.3335L88.44 46.8492C89.831 47.7765 90.6665 49.3376 90.6665 51.0094V92.1695M90.6665 92.1695C89.9998 92.1695 85.8665 91.9335 82.6665 95.6668C79.9676 98.8156 80.2749 100.887 80.4951 102.333C80.536 102.602 80.5969 102.826 80.6665 103M90.6665 92.1695C95.0217 92.1695 98.2156 96.3769 99.1645 98.0223C99.2827 98.2272 99.3707 98.4461 99.4455 98.6706L99.7433 99.5637C99.9132 100.074 99.9998 100.607 99.9998 101.145V102.333" stroke="#1D77FF" stroke-width="6" stroke-linecap="round"/>
</svg>
