<svg width="100" height="101" viewBox="0 0 100 101" fill="none" xmlns="http://www.w3.org/2000/svg">
<mask id="path-1-inside-1_1428_5048" fill="white">
<path d="M34 70C34 67.7909 35.7909 66 38 66H61C63.2091 66 65 67.7909 65 70V95C65 97.2091 63.2091 99 61 99H38C35.7909 99 34 97.2091 34 95V70Z"/>
</mask>
<path d="M28 70C28 64.4772 32.4772 60 38 60H61C66.5228 60 71 64.4772 71 70L59 72H40L28 70ZM71 95C71 97.7614 68.7614 100 66 100H33C30.2386 100 28 97.7614 28 95H40C40 96.6569 40 98 40 98H59C59 98 59 96.6569 59 95H71ZM33 100C30.2386 100 28 97.7614 28 95V70C28 64.4772 32.4772 60 38 60L40 72V95C40 96.6569 40 98 40 98L33 100ZM61 60C66.5228 60 71 64.4772 71 70V95C71 97.7614 68.7614 100 66 100L59 98C59 98 59 96.6569 59 95V72L61 60Z" fill="#002F77" mask="url(#path-1-inside-1_1428_5048)"/>
<path d="M15.5 26V9C15.5 5.68629 18.1863 3 21.5 3H28.5C31.8137 3 34.5 5.68629 34.5 9V13" stroke="#1D77FF" stroke-width="6" stroke-linecap="round"/>
<path d="M15 44V96.5C15 97.0523 15.4477 97.5 16 97.5H83C83.5523 97.5 84 97.0523 84 96.5V58.5M7.53541 47.2981L49.4854 22.3065C49.8022 22.1178 50.1972 22.1187 50.5131 22.309L91.9525 47.2617C93.9519 48.4657 96.5 47.0257 96.5 44.6917V36.2112C96.5 35.1506 95.94 34.1688 95.0271 33.6289L54.557 9.69498C51.7443 8.03156 48.2509 8.02339 45.4305 9.67365L4.48496 33.6311C3.56524 34.1693 3 35.1549 3 36.2205V44.7207C3 47.0484 5.53569 48.4894 7.53541 47.2981Z" stroke="#002F77" stroke-width="6" stroke-linecap="round"/>
<circle cx="50" cy="47" r="10" stroke="#1D77FF" stroke-width="6"/>
</svg>
