<svg width="118" height="104" viewBox="0 0 118 104" fill="none" xmlns="http://www.w3.org/2000/svg">
<path d="M79.4512 41.1199C71.0812 41.1199 62.5612 40.7799 54.5912 38.5599C46.7712 36.3899 39.5912 32.1799 33.1912 27.3099C29.0012 24.1399 25.1912 21.6199 19.7512 21.9999C14.4247 22.2915 9.3336 24.2901 5.23121 27.6999C-1.68879 33.6999 -0.648793 44.9299 2.12121 52.8199C6.28121 64.6999 18.9412 72.9299 29.7012 78.3099C42.1312 84.5199 55.7912 88.1199 69.4812 90.1999C81.4812 92.0199 96.9012 93.3499 107.301 85.5099C116.851 78.3099 119.471 61.8699 117.131 50.7699C116.564 47.4878 114.818 44.5257 112.221 42.4399C105.511 37.5399 95.5012 40.8099 87.9612 40.9799C85.1612 41.0399 82.3112 41.1099 79.4512 41.1199Z" fill="#F2F2F2"/>
<path d="M50.9512 103.13C71.2256 103.13 87.6612 102.105 87.6612 100.84C87.6612 99.5753 71.2256 98.55 50.9512 98.55C30.6768 98.55 14.2412 99.5753 14.2412 100.84C14.2412 102.105 30.6768 103.13 50.9512 103.13Z" fill="#F2F2F2"/>
<path d="M85.5219 10.8219L28.9869 31.2426C27.039 31.9462 26.0303 34.0957 26.7339 36.0436L38.6616 69.0654C39.3652 71.0133 41.5146 72.022 43.4625 71.3184L99.9975 50.8977C101.945 50.1941 102.954 48.0446 102.251 46.0968L90.3229 13.0749C89.6193 11.127 87.4698 10.1183 85.5219 10.8219Z" fill="#D2D2D2"/>
<path d="M34.1812 82.44C34.7224 82.44 35.1612 82.0012 35.1612 81.46C35.1612 80.9187 34.7224 80.48 34.1812 80.48C33.6399 80.48 33.2012 80.9187 33.2012 81.46C33.2012 82.0012 33.6399 82.44 34.1812 82.44Z" fill="#CFCFCF"/>
<path d="M60.2017 1.96C60.7429 1.96 61.1817 1.52124 61.1817 0.98C61.1817 0.43876 60.7429 0 60.2017 0C59.6604 0 59.2217 0.43876 59.2217 0.98C59.2217 1.52124 59.6604 1.96 60.2017 1.96Z" fill="#CFCFCF"/>
<path d="M40.9912 14.8098V19.1198" stroke="#BABABA" stroke-linecap="round" stroke-linejoin="round"/>
<path d="M30.8115 10.45H35.1215" stroke="#BABABA" stroke-linecap="round" stroke-linejoin="round"/>
<path d="M96.2012 24.22V28.52" stroke="#BABABA" stroke-linecap="round" stroke-linejoin="round"/>
<path d="M94.0415 26.3699H98.3515" stroke="#BABABA" stroke-linecap="round" stroke-linejoin="round"/>
<path d="M87.6793 32.7736L28.2358 41.7C26.1877 42.0075 24.7767 43.9172 25.0842 45.9653L30.298 80.686C30.6056 82.7341 32.5152 84.1451 34.5633 83.8375L94.0069 74.9112C96.055 74.6036 97.466 72.694 97.1584 70.6459L91.9446 35.9252C91.637 33.8771 89.7274 32.4661 87.6793 32.7736Z" fill="white" stroke="#BABABA" stroke-linecap="round" stroke-linejoin="round"/>
<path d="M76.1302 31.7648L71.1263 32.5162C70.2907 32.6417 69.715 33.4208 69.8405 34.2564L70.5919 39.2603C70.7174 40.096 71.4965 40.6717 72.3321 40.5462L77.336 39.7948C78.1717 39.6693 78.7473 38.8902 78.6219 38.0545L77.8705 33.0506C77.745 32.215 76.9658 31.6393 76.1302 31.7648Z" fill="#D2D2D2"/>
<path d="M42.4235 61.7578L27.7975 63.9541C27.3387 64.023 27.0226 64.4508 27.0915 64.9095L27.1569 65.3447C27.2258 65.8034 27.6535 66.1195 28.1123 66.0506L42.7383 63.8543C43.1971 63.7854 43.5132 63.3576 43.4443 62.8989L43.3789 62.4637C43.31 62.005 42.8823 61.6889 42.4235 61.7578Z" fill="#D2D2D2"/>
<path d="M52.3116 64.5629L28.6469 68.1165C28.068 68.2035 27.6691 68.7432 27.756 69.3222C27.843 69.9011 28.3828 70.2999 28.9617 70.213L52.6264 66.6594C53.2053 66.5725 53.6041 66.0327 53.5172 65.4538C53.4303 64.8748 52.8905 64.476 52.3116 64.5629Z" fill="#D2D2D2"/>
</svg>
