<svg width="85" height="121" viewBox="0 0 85 121" fill="none" xmlns="http://www.w3.org/2000/svg">
<path d="M26.5 53L8.4358 76.1693C5.23713 80.2719 3.5 85.3252 3.5 90.5274V90.5274C3.5 105.7 15.7999 118 30.9726 118H59.5714C71.9584 118 82 107.838 82 95.4511V95.4511C82 87.2029 78.7234 79.2234 72.8911 73.3911L64.5 65" stroke="#002F77" stroke-width="6" stroke-linecap="round"/>
<path d="M30.5 37.5L26.4997 27.822C23.9928 21.7567 31.6467 16.6467 36.2874 21.2874L42.2483 27.2483C42.6558 27.6558 43.3225 27.6354 43.7044 27.2037L49.1267 21.0742C53.3236 16.3299 61.0542 20.4818 59.4167 26.6007L56.5 37.5" stroke="#002F77" stroke-width="6" stroke-linecap="round"/>
<rect x="21" y="40" width="44" height="12" rx="6" stroke="#1D77FF" stroke-width="6"/>
<path d="M49.5 72H43M36.5 95.5H43.75M43 72H42.5C39.1863 72 36.5 74.6863 36.5 78V78.2352C36.5 81.4556 39.0423 84.1017 42.2602 84.2304L43.6143 84.2846C46.6229 84.4049 49 86.879 49 89.89V90.25C49 93.1495 46.6495 95.5 43.75 95.5V95.5M43 72V68.5M43.75 95.5V99.5" stroke="#1D77FF" stroke-width="6" stroke-linecap="round"/>
</svg>
