<svg width="37" height="32" viewBox="0 0 37 32" fill="none" xmlns="http://www.w3.org/2000/svg">
<path d="M34.8565 0C35.2516 0 35.6048 0.14966 35.9161 0.44898C36.2034 0.736327 36.3471 1.08354 36.3471 1.49061V29.938C36.3471 30.345 36.2034 30.6922 35.9161 30.9796C35.6048 31.2789 35.2516 31.4286 34.8565 31.4286H10.8989C10.5038 31.4286 10.1506 31.2789 9.83932 30.9796C9.55198 30.6922 9.4083 30.345 9.4083 29.938V24.6939H1.91932C1.52422 24.6939 1.17102 24.5502 0.859731 24.2629C0.572384 23.9516 0.428711 23.5984 0.428711 23.2033V8.22531C0.428711 7.8302 0.572384 7.47701 0.859731 7.16571C1.17102 6.87837 1.52422 6.73469 1.91932 6.73469H9.4083V1.49061C9.4083 1.08354 9.55198 0.736327 9.83932 0.44898C10.1506 0.14966 10.5038 0 10.8989 0M9.46218 14.529L11.6173 21.6049H14.0777L16.4303 9.82367H13.952L12.5512 16.7918L10.5577 10.0571H8.51034L6.3732 16.8278L4.97238 9.82367H2.38626L4.73892 21.6049H7.19932M34.1022 29.1837V24.6939H11.6532V29.1837M34.1022 22.449V16.8457H18.3879V22.449M34.1022 14.6008V8.97959H18.3879V14.6008M34.1022 6.73469V2.2449H11.6532V6.73469H34.1022Z" fill="#A3A3A3"/>
</svg>
